<?xml version="1.0" encoding="UTF-8" standalone="no"?>
<!DOCTYPE svg PUBLIC "-//W3C//DTD SVG 1.1//EN"
 "http://www.w3.org/Graphics/SVG/1.1/DTD/svg11.dtd">
<!-- Generated by graphviz version 2.42.4 (0)
 -->
<!-- Title: P Pages: 1 -->
<svg width="504pt" height="364pt"
 viewBox="0.00 0.00 504.00 363.79" xmlns="http://www.w3.org/2000/svg" xmlns:xlink="http://www.w3.org/1999/xlink">
<g id="graph0" class="graph" transform="scale(1.26 1.26) rotate(0) translate(18 270)">
<title>P</title>
<polygon fill="white" stroke="transparent" points="-18,18 -18,-270 381,-270 381,18 -18,18"/>
<text text-anchor="middle" x="181.5" y="-233.6" font-family="Arial" font-size="18.00">图 14&#45;1 &#160;源码调用图：包级调用关系</text>
<!-- p0 -->
<g id="node1" class="node">
<title>p0</title>
<path fill="#f8fafc" stroke="#94a3b8" d="M278,-224C278,-224 246,-224 246,-224 240,-224 234,-218 234,-212 234,-212 234,-200 234,-200 234,-194 240,-188 246,-188 246,-188 278,-188 278,-188 284,-188 290,-194 290,-200 290,-200 290,-212 290,-212 290,-218 284,-224 278,-224"/>
<text text-anchor="middle" x="262" y="-202.9" font-family="Arial" font-size="12.00" fill="#111827">todoapp</text>
</g>
<!-- p1 -->
<g id="node2" class="node">
<title>p1</title>
<path fill="#f8fafc" stroke="#94a3b8" d="M62,-130C62,-130 12,-130 12,-130 6,-130 0,-124 0,-118 0,-118 0,-106 0,-106 0,-100 6,-94 12,-94 12,-94 62,-94 62,-94 68,-94 74,-100 74,-106 74,-106 74,-118 74,-118 74,-124 68,-130 62,-130"/>
<text text-anchor="middle" x="37" y="-108.9" font-family="Arial" font-size="12.00" fill="#111827">addedittask</text>
</g>
<!-- p0&#45;&gt;p1 -->
<g id="edge1" class="edge">
<title>p0&#45;&gt;p1</title>
<path fill="none" stroke="#64748b" d="M233.96,-193.53C195.37,-177.75 125.53,-149.2 80.23,-130.68"/>
<polygon fill="#64748b" stroke="#64748b" points="80.88,-128.48 74,-128.13 79.16,-132.7 80.88,-128.48"/>
<text text-anchor="middle" x="160" y="-156.8" font-family="Arial" font-size="9.00" fill="#475569">1</text>
</g>
<!-- p3 -->
<g id="node4" class="node">
<title>p3</title>
<path fill="#f8fafc" stroke="#94a3b8" d="M145,-130C145,-130 111,-130 111,-130 105,-130 99,-124 99,-118 99,-118 99,-106 99,-106 99,-100 105,-94 111,-94 111,-94 145,-94 145,-94 151,-94 157,-100 157,-106 157,-106 157,-118 157,-118 157,-124 151,-130 145,-130"/>
<text text-anchor="middle" x="128" y="-108.9" font-family="Arial" font-size="12.00" fill="#111827">statistics</text>
</g>
<!-- p0&#45;&gt;p3 -->
<g id="edge2" class="edge">
<title>p0&#45;&gt;p3</title>
<path fill="none" stroke="#64748b" d="M237.11,-187.91C214.97,-172.71 182.51,-150.42 158.75,-134.11"/>
<polygon fill="#64748b" stroke="#64748b" points="159.86,-132.11 153.21,-130.31 157.28,-135.86 159.86,-132.11"/>
<text text-anchor="middle" x="203" y="-156.8" font-family="Arial" font-size="9.00" fill="#475569">1</text>
</g>
<!-- p4 -->
<g id="node5" class="node">
<title>p4</title>
<path fill="#f8fafc" stroke="#94a3b8" d="M234,-130C234,-130 194,-130 194,-130 188,-130 182,-124 182,-118 182,-118 182,-106 182,-106 182,-100 188,-94 194,-94 194,-94 234,-94 234,-94 240,-94 246,-100 246,-106 246,-106 246,-118 246,-118 246,-124 240,-130 234,-130"/>
<text text-anchor="middle" x="214" y="-108.9" font-family="Arial" font-size="12.00" fill="#111827">taskdetail</text>
</g>
<!-- p0&#45;&gt;p4 -->
<g id="edge3" class="edge">
<title>p0&#45;&gt;p4</title>
<path fill="none" stroke="#64748b" d="M252.97,-187.7C245.4,-173.17 234.51,-152.3 226.16,-136.31"/>
<polygon fill="#64748b" stroke="#64748b" points="228.01,-134.94 222.99,-130.23 223.98,-137.04 228.01,-134.94"/>
<text text-anchor="middle" x="242" y="-156.8" font-family="Arial" font-size="9.00" fill="#475569">1</text>
</g>
<!-- p5 -->
<g id="node6" class="node">
<title>p5</title>
<path fill="#f8fafc" stroke="#94a3b8" d="M313,-130C313,-130 283,-130 283,-130 277,-130 271,-124 271,-118 271,-118 271,-106 271,-106 271,-100 277,-94 283,-94 283,-94 313,-94 313,-94 319,-94 325,-100 325,-106 325,-106 325,-118 325,-118 325,-124 319,-130 313,-130"/>
<text text-anchor="middle" x="298" y="-108.9" font-family="Arial" font-size="12.00" fill="#111827">tasks</text>
</g>
<!-- p0&#45;&gt;p5 -->
<g id="edge4" class="edge">
<title>p0&#45;&gt;p5</title>
<path fill="none" stroke="#64748b" d="M260.91,-187.92C260.85,-177.75 261.82,-164.76 266,-154 268.5,-147.56 272.36,-141.31 276.55,-135.71"/>
<polygon fill="#64748b" stroke="#64748b" points="278.55,-136.85 280.81,-130.34 274.99,-134.02 278.55,-136.85"/>
<text text-anchor="middle" x="269" y="-156.8" font-family="Arial" font-size="9.00" fill="#475569">1</text>
</g>
<!-- p6 -->
<g id="node7" class="node">
<title>p6</title>
<path fill="#f8fafc" stroke="#94a3b8" d="M271,-36C271,-36 241,-36 241,-36 235,-36 229,-30 229,-24 229,-24 229,-12 229,-12 229,-6 235,0 241,0 241,0 271,0 271,0 277,0 283,-6 283,-12 283,-12 283,-24 283,-24 283,-30 277,-36 271,-36"/>
<text text-anchor="middle" x="256" y="-14.9" font-family="Arial" font-size="12.00" fill="#111827">util</text>
</g>
<!-- p0&#45;&gt;p6 -->
<g id="edge5" class="edge">
<title>p0&#45;&gt;p6</title>
<path fill="none" stroke="#64748b" d="M287.88,-187.77C315.69,-166.92 353.91,-130.12 338,-94 327.92,-71.12 307.03,-52.18 288.86,-39.06"/>
<polygon fill="#64748b" stroke="#64748b" points="289.95,-37.05 283.32,-35.18 287.34,-40.78 289.95,-37.05"/>
<text text-anchor="middle" x="344" y="-109.8" font-family="Arial" font-size="9.00" fill="#475569">2</text>
</g>
<!-- p2 -->
<g id="node3" class="node">
<title>p2</title>
<path fill="#f8fafc" stroke="#94a3b8" d="M52,-36C52,-36 22,-36 22,-36 16,-36 10,-30 10,-24 10,-24 10,-12 10,-12 10,-6 16,0 22,0 22,0 52,0 52,0 58,0 64,-6 64,-12 64,-12 64,-24 64,-24 64,-30 58,-36 52,-36"/>
<text text-anchor="middle" x="37" y="-14.9" font-family="Arial" font-size="12.00" fill="#111827">data</text>
</g>
<!-- p1&#45;&gt;p2 -->
<g id="edge6" class="edge">
<title>p1&#45;&gt;p2</title>
<path fill="none" stroke="#64748b" d="M37,-93.7C37,-79.3 37,-58.67 37,-42.74"/>
<polygon fill="#64748b" stroke="#64748b" points="39.28,-42.73 37,-36.23 34.73,-42.73 39.28,-42.73"/>
<text text-anchor="middle" x="40" y="-62.8" font-family="Arial" font-size="9.00" fill="#475569">1</text>
</g>
<!-- p1&#45;&gt;p6 -->
<g id="edge7" class="edge">
<title>p1&#45;&gt;p6</title>
<path fill="none" stroke="#64748b" d="M74.15,-95.39C115.74,-77.92 182.52,-49.87 222.54,-33.06"/>
<polygon fill="#64748b" stroke="#64748b" points="223.61,-35.07 228.73,-30.46 221.85,-30.88 223.61,-35.07"/>
<text text-anchor="middle" x="157" y="-62.8" font-family="Arial" font-size="9.00" fill="#475569">1</text>
</g>
<!-- p3&#45;&gt;p6 -->
<g id="edge8" class="edge">
<title>p3&#45;&gt;p6</title>
<path fill="none" stroke="#64748b" d="M151.78,-93.91C172.93,-78.71 203.93,-56.42 226.63,-40.11"/>
<polygon fill="#64748b" stroke="#64748b" points="227.97,-41.95 231.92,-36.31 225.31,-38.26 227.97,-41.95"/>
<text text-anchor="middle" x="199" y="-62.8" font-family="Arial" font-size="9.00" fill="#475569">2</text>
</g>
<!-- p4&#45;&gt;p6 -->
<g id="edge9" class="edge">
<title>p4&#45;&gt;p6</title>
<path fill="none" stroke="#64748b" d="M221.62,-93.98C226.08,-84.06 231.83,-71.31 237,-60 239.64,-54.24 242.5,-48.03 245.19,-42.23"/>
<polygon fill="#64748b" stroke="#64748b" points="247.34,-42.99 248.01,-36.14 243.21,-41.08 247.34,-42.99"/>
<text text-anchor="middle" x="240" y="-62.8" font-family="Arial" font-size="9.00" fill="#475569">2</text>
</g>
<!-- p5&#45;&gt;p0 -->
<g id="edge10" class="edge">
<title>p5&#45;&gt;p0</title>
<path fill="none" stroke="#64748b" d="M291.26,-130.23C285.59,-144.72 277.42,-165.59 271.16,-181.6"/>
<polygon fill="#64748b" stroke="#64748b" points="269.02,-180.81 268.77,-187.7 273.26,-182.47 269.02,-180.81"/>
<text text-anchor="middle" x="284" y="-156.8" font-family="Arial" font-size="9.00" fill="#475569">2</text>
</g>
<!-- p5&#45;&gt;p6 -->
<g id="edge11" class="edge">
<title>p5&#45;&gt;p6</title>
<path fill="none" stroke="#64748b" d="M290.1,-93.7C283.47,-79.17 273.94,-58.3 266.64,-42.31"/>
<polygon fill="#64748b" stroke="#64748b" points="268.63,-41.2 263.86,-36.23 264.49,-43.08 268.63,-41.2"/>
<text text-anchor="middle" x="281" y="-62.8" font-family="Arial" font-size="9.00" fill="#475569">2</text>
</g>
<!-- p6&#45;&gt;p0 -->
<g id="edge12" class="edge">
<title>p6&#45;&gt;p0</title>
<path fill="none" stroke="#64748b" d="M283.16,-27.93C300.06,-34.6 321.29,-45.14 336,-60 347.89,-72.01 349.12,-77.56 353,-94 360.31,-124.97 359.59,-140.63 338,-164 326.61,-176.33 310.64,-185.72 296.27,-192.38"/>
<polygon fill="#64748b" stroke="#64748b" points="295.25,-190.35 290.23,-195.07 297.1,-194.51 295.25,-190.35"/>
<text text-anchor="middle" x="360" y="-109.8" font-family="Arial" font-size="9.00" fill="#475569">2</text>
</g>
</g>
</svg>
