<?xml version="1.0" encoding="UTF-8" standalone="no"?>
<!DOCTYPE svg PUBLIC "-//W3C//DTD SVG 1.1//EN"
 "http://www.w3.org/Graphics/SVG/1.1/DTD/svg11.dtd">
<!-- Generated by graphviz version 2.42.4 (0)
 -->
<!-- Title: PackageGraph Pages: 1 -->
<svg width="562pt" height="357pt"
 viewBox="0.00 0.00 561.80 356.80" xmlns="http://www.w3.org/2000/svg" xmlns:xlink="http://www.w3.org/1999/xlink">
<g id="graph0" class="graph" transform="scale(1 1) rotate(0) translate(32.4 324.4)">
<title>PackageGraph</title>
<polygon fill="white" stroke="transparent" points="-32.4,32.4 -32.4,-324.4 529.4,-324.4 529.4,32.4 -32.4,32.4"/>
<text text-anchor="middle" x="248.5" y="-272" font-family="Arial" font-size="20.00">图 14&#45;1 &#160;源码调用图：包级调用关系</text>
<!-- p0 -->
<g id="node1" class="node">
<title>p0</title>
<path fill="#f8fafc" stroke="#94a3b8" d="M378.5,-262C378.5,-262 335.5,-262 335.5,-262 329.5,-262 323.5,-256 323.5,-250 323.5,-250 323.5,-238 323.5,-238 323.5,-232 329.5,-226 335.5,-226 335.5,-226 378.5,-226 378.5,-226 384.5,-226 390.5,-232 390.5,-238 390.5,-238 390.5,-250 390.5,-250 390.5,-256 384.5,-262 378.5,-262"/>
<text text-anchor="middle" x="357" y="-240.6" font-family="Arial" font-size="13.00" fill="#111827">todoapp</text>
</g>
<!-- p1 -->
<g id="node2" class="node">
<title>p1</title>
<path fill="#f8fafc" stroke="#94a3b8" d="M76,-149C76,-149 12,-149 12,-149 6,-149 0,-143 0,-137 0,-137 0,-125 0,-125 0,-119 6,-113 12,-113 12,-113 76,-113 76,-113 82,-113 88,-119 88,-125 88,-125 88,-137 88,-137 88,-143 82,-149 76,-149"/>
<text text-anchor="middle" x="44" y="-127.6" font-family="Arial" font-size="13.00" fill="#111827">addedittask</text>
</g>
<!-- p0&#45;&gt;p1 -->
<g id="edge1" class="edge">
<title>p0&#45;&gt;p1</title>
<path fill="none" stroke="#64748b" d="M323.21,-231.02C268.41,-211.58 159.83,-173.08 95.41,-150.23"/>
<polygon fill="#64748b" stroke="#64748b" points="96.11,-147.7 88.17,-147.66 94.36,-152.64 96.11,-147.7"/>
<text text-anchor="middle" x="213" y="-185" font-family="Arial" font-size="10.00" fill="#475569">1</text>
</g>
<!-- p3 -->
<g id="node4" class="node">
<title>p3</title>
<path fill="#f8fafc" stroke="#94a3b8" d="M196,-149C196,-149 150,-149 150,-149 144,-149 138,-143 138,-137 138,-137 138,-125 138,-125 138,-119 144,-113 150,-113 150,-113 196,-113 196,-113 202,-113 208,-119 208,-125 208,-125 208,-137 208,-137 208,-143 202,-149 196,-149"/>
<text text-anchor="middle" x="173" y="-127.6" font-family="Arial" font-size="13.00" fill="#111827">statistics</text>
</g>
<!-- p0&#45;&gt;p3 -->
<g id="edge2" class="edge">
<title>p0&#45;&gt;p3</title>
<path fill="none" stroke="#64748b" d="M328.65,-225.9C296.24,-206.34 243.14,-174.31 208.13,-153.19"/>
<polygon fill="#64748b" stroke="#64748b" points="209.16,-150.75 201.38,-149.12 206.44,-155.24 209.16,-150.75"/>
<text text-anchor="middle" x="274" y="-185" font-family="Arial" font-size="10.00" fill="#475569">1</text>
</g>
<!-- p4 -->
<g id="node5" class="node">
<title>p4</title>
<path fill="#f8fafc" stroke="#94a3b8" d="M322,-149C322,-149 270,-149 270,-149 264,-149 258,-143 258,-137 258,-137 258,-125 258,-125 258,-119 264,-113 270,-113 270,-113 322,-113 322,-113 328,-113 334,-119 334,-125 334,-125 334,-137 334,-137 334,-143 328,-149 322,-149"/>
<text text-anchor="middle" x="296" y="-127.6" font-family="Arial" font-size="13.00" fill="#111827">taskdetail</text>
</g>
<!-- p0&#45;&gt;p4 -->
<g id="edge3" class="edge">
<title>p0&#45;&gt;p4</title>
<path fill="none" stroke="#64748b" d="M347.47,-225.66C337.17,-206.92 320.7,-176.94 309.17,-155.96"/>
<polygon fill="#64748b" stroke="#64748b" points="311.38,-154.53 305.46,-149.22 306.78,-157.06 311.38,-154.53"/>
<text text-anchor="middle" x="331" y="-185" font-family="Arial" font-size="10.00" fill="#475569">1</text>
</g>
<!-- p5 -->
<g id="node6" class="node">
<title>p5</title>
<path fill="#f8fafc" stroke="#94a3b8" d="M426,-149C426,-149 396,-149 396,-149 390,-149 384,-143 384,-137 384,-137 384,-125 384,-125 384,-119 390,-113 396,-113 396,-113 426,-113 426,-113 432,-113 438,-119 438,-125 438,-125 438,-137 438,-137 438,-143 432,-149 426,-149"/>
<text text-anchor="middle" x="411" y="-127.6" font-family="Arial" font-size="13.00" fill="#111827">tasks</text>
</g>
<!-- p0&#45;&gt;p5 -->
<g id="edge4" class="edge">
<title>p0&#45;&gt;p5</title>
<path fill="none" stroke="#64748b" d="M354.99,-225.92C354.22,-213.24 354.74,-195.82 361,-182 365.73,-171.55 373.67,-162.07 381.85,-154.24"/>
<polygon fill="#64748b" stroke="#64748b" points="383.73,-156.08 387.51,-149.09 380.19,-152.2 383.73,-156.08"/>
<text text-anchor="middle" x="364" y="-185" font-family="Arial" font-size="10.00" fill="#475569">1</text>
</g>
<!-- p6 -->
<g id="node7" class="node">
<title>p6</title>
<path fill="#f8fafc" stroke="#94a3b8" d="M395,-36C395,-36 365,-36 365,-36 359,-36 353,-30 353,-24 353,-24 353,-12 353,-12 353,-6 359,0 365,0 365,0 395,0 395,0 401,0 407,-6 407,-12 407,-12 407,-24 407,-24 407,-30 401,-36 395,-36"/>
<text text-anchor="middle" x="380" y="-14.6" font-family="Arial" font-size="13.00" fill="#111827">util</text>
</g>
<!-- p0&#45;&gt;p6 -->
<g id="edge5" class="edge">
<title>p0&#45;&gt;p6</title>
<path fill="none" stroke="#64748b" d="M387.68,-225.95C413.17,-209.84 447.66,-183.1 463,-149 481.23,-108.48 440.95,-65.87 410.36,-40.9"/>
<polygon fill="#64748b" stroke="#64748b" points="411.89,-38.77 404.39,-36.15 408.62,-42.87 411.89,-38.77"/>
<text text-anchor="middle" x="470" y="-128.5" font-family="Arial" font-size="10.00" fill="#475569">2</text>
</g>
<!-- p2 -->
<g id="node3" class="node">
<title>p2</title>
<path fill="#f8fafc" stroke="#94a3b8" d="M59,-36C59,-36 29,-36 29,-36 23,-36 17,-30 17,-24 17,-24 17,-12 17,-12 17,-6 23,0 29,0 29,0 59,0 59,0 65,0 71,-6 71,-12 71,-12 71,-24 71,-24 71,-30 65,-36 59,-36"/>
<text text-anchor="middle" x="44" y="-14.6" font-family="Arial" font-size="13.00" fill="#111827">data</text>
</g>
<!-- p1&#45;&gt;p2 -->
<g id="edge6" class="edge">
<title>p1&#45;&gt;p2</title>
<path fill="none" stroke="#64748b" d="M44,-112.66C44,-94.17 44,-64.72 44,-43.79"/>
<polygon fill="#64748b" stroke="#64748b" points="46.63,-43.72 44,-36.22 41.38,-43.72 46.63,-43.72"/>
<text text-anchor="middle" x="47" y="-72" font-family="Arial" font-size="10.00" fill="#475569">1</text>
</g>
<!-- p1&#45;&gt;p6 -->
<g id="edge7" class="edge">
<title>p1&#45;&gt;p6</title>
<path fill="none" stroke="#64748b" d="M88.27,-115.37C156.08,-92.97 284.24,-50.63 345.59,-30.37"/>
<polygon fill="#64748b" stroke="#64748b" points="346.43,-32.85 352.73,-28.01 344.78,-27.87 346.43,-32.85"/>
<text text-anchor="middle" x="226" y="-72" font-family="Arial" font-size="10.00" fill="#475569">1</text>
</g>
<!-- p3&#45;&gt;p6 -->
<g id="edge8" class="edge">
<title>p3&#45;&gt;p6</title>
<path fill="none" stroke="#64748b" d="M204.89,-112.9C243,-92.46 306.53,-58.4 345.69,-37.4"/>
<polygon fill="#64748b" stroke="#64748b" points="347.33,-39.5 352.7,-33.64 344.85,-34.87 347.33,-39.5"/>
<text text-anchor="middle" x="286" y="-72" font-family="Arial" font-size="10.00" fill="#475569">2</text>
</g>
<!-- p4&#45;&gt;p6 -->
<g id="edge9" class="edge">
<title>p4&#45;&gt;p6</title>
<path fill="none" stroke="#64748b" d="M309.12,-112.66C323.43,-93.76 346.38,-63.42 362.28,-42.42"/>
<polygon fill="#64748b" stroke="#64748b" points="364.53,-43.79 366.97,-36.22 360.35,-40.62 364.53,-43.79"/>
<text text-anchor="middle" x="343" y="-72" font-family="Arial" font-size="10.00" fill="#475569">2</text>
</g>
<!-- p5&#45;&gt;p0 -->
<g id="edge10" class="edge">
<title>p5&#45;&gt;p0</title>
<path fill="none" stroke="#64748b" d="M402.62,-149.22C393.53,-167.91 378.95,-197.88 368.72,-218.9"/>
<polygon fill="#64748b" stroke="#64748b" points="366.36,-217.76 365.44,-225.66 371.08,-220.06 366.36,-217.76"/>
<text text-anchor="middle" x="388" y="-185" font-family="Arial" font-size="10.00" fill="#475569">2</text>
</g>
<!-- p5&#45;&gt;p6 -->
<g id="edge11" class="edge">
<title>p5&#45;&gt;p6</title>
<path fill="none" stroke="#64748b" d="M406.16,-112.66C400.97,-94.08 392.7,-64.46 386.85,-43.51"/>
<polygon fill="#64748b" stroke="#64748b" points="389.36,-42.74 384.81,-36.22 384.3,-44.15 389.36,-42.74"/>
<text text-anchor="middle" x="399" y="-72" font-family="Arial" font-size="10.00" fill="#475569">2</text>
</g>
<!-- p6&#45;&gt;p0 -->
<g id="edge12" class="edge">
<title>p6&#45;&gt;p0</title>
<path fill="none" stroke="#64748b" d="M407.14,-24.36C431.16,-30.65 464.95,-43.63 482,-69 501.84,-98.53 489.35,-113.69 485,-149 482.54,-169.01 487.08,-177.66 474,-193 454.7,-215.64 423.31,-228.3 397.91,-235.21"/>
<polygon fill="#64748b" stroke="#64748b" points="397.19,-232.69 390.58,-237.1 398.49,-237.77 397.19,-232.69"/>
<text text-anchor="middle" x="494" y="-128.5" font-family="Arial" font-size="10.00" fill="#475569">2</text>
</g>
</g>
</svg>
