<?xml version="1.0" encoding="UTF-8" standalone="no"?>
<!DOCTYPE svg PUBLIC "-//W3C//DTD SVG 1.1//EN"
 "http://www.w3.org/Graphics/SVG/1.1/DTD/svg11.dtd">
<!-- Generated by graphviz version 2.42.4 (0)
 -->
<!-- Title: G Pages: 1 -->
<svg width="504pt" height="70pt"
 viewBox="0.00 0.00 504.00 70.15" xmlns="http://www.w3.org/2000/svg" xmlns:xlink="http://www.w3.org/1999/xlink">
<g id="graph0" class="graph" transform="scale(0.3 0.3) rotate(0) translate(18 218)">
<title>G</title>
<polygon fill="white" stroke="transparent" points="-18,18 -18,-218 1677.5,-218 1677.5,18 -18,18"/>
<text text-anchor="middle" x="829.75" y="-181.6" font-family="Arial" font-size="18.00">图 14&#45;2 &#160;源码调用图：任务管理核心模块</text>
<!-- n0 -->
<g id="node1" class="node">
<title>n0</title>
<path fill="#f8fafc" stroke="#94a3b8" d="M126.5,-104C126.5,-104 12.5,-104 12.5,-104 6.5,-104 0.5,-98 0.5,-92 0.5,-92 0.5,-80 0.5,-80 0.5,-74 6.5,-68 12.5,-68 12.5,-68 126.5,-68 126.5,-68 132.5,-68 138.5,-74 138.5,-80 138.5,-80 138.5,-92 138.5,-92 138.5,-98 132.5,-104 126.5,-104"/>
<text text-anchor="middle" x="69.5" y="-83.5" font-family="Arial" font-size="10.00" fill="#111827">TodoListManager\nclearTasks</text>
</g>
<!-- n1 -->
<g id="node2" class="node">
<title>n1</title>
<path fill="#f8fafc" stroke="#94a3b8" d="M813,-172C813,-172 672,-172 672,-172 666,-172 660,-166 660,-160 660,-160 660,-148 660,-148 660,-142 666,-136 672,-136 672,-136 813,-136 813,-136 819,-136 825,-142 825,-148 825,-148 825,-160 825,-160 825,-166 819,-172 813,-172"/>
<text text-anchor="middle" x="742.5" y="-151.5" font-family="Arial" font-size="10.00" fill="#111827">DefaultTaskRepository\ncreateTask</text>
</g>
<!-- n10 -->
<g id="node11" class="node">
<title>n10</title>
<path fill="#f8fafc" stroke="#94a3b8" d="M836,-104C836,-104 649,-104 649,-104 643,-104 637,-98 637,-92 637,-92 637,-80 637,-80 637,-74 643,-68 649,-68 649,-68 836,-68 836,-68 842,-68 848,-74 848,-80 848,-80 848,-92 848,-92 848,-98 842,-104 836,-104"/>
<text text-anchor="middle" x="742.5" y="-83.5" font-family="Arial" font-size="10.00" fill="#111827">DefaultTaskRepository\nsaveTasksToNetwork</text>
</g>
<!-- n1&#45;&gt;n10 -->
<g id="edge1" class="edge">
<title>n1&#45;&gt;n10</title>
<path fill="none" stroke="#94a3b8" stroke-width="0.9" d="M742.5,-135.66C742.5,-127.84 742.5,-118.49 742.5,-110.09"/>
<polygon fill="#94a3b8" stroke="#94a3b8" stroke-width="0.9" points="744.43,-109.95 742.5,-104.45 740.58,-109.95 744.43,-109.95"/>
</g>
<!-- n2 -->
<g id="node3" class="node">
<title>n2</title>
<path fill="#f8fafc" stroke="#94a3b8" d="M384.5,-36C384.5,-36 228.5,-36 228.5,-36 222.5,-36 216.5,-30 216.5,-24 216.5,-24 216.5,-12 216.5,-12 216.5,-6 222.5,0 228.5,0 228.5,0 384.5,0 384.5,0 390.5,0 396.5,-6 396.5,-12 396.5,-12 396.5,-24 396.5,-24 396.5,-30 390.5,-36 384.5,-36"/>
<text text-anchor="middle" x="306.5" y="-15.5" font-family="Arial" font-size="10.00" fill="#111827">TasksScreenKt\nTasksContentPreview</text>
</g>
<!-- n3 -->
<g id="node4" class="node">
<title>n3</title>
<path fill="#f8fafc" stroke="#94a3b8" d="M361.5,-172C361.5,-172 257.5,-172 257.5,-172 251.5,-172 245.5,-166 245.5,-160 245.5,-160 245.5,-148 245.5,-148 245.5,-142 251.5,-136 257.5,-136 257.5,-136 361.5,-136 361.5,-136 367.5,-136 373.5,-142 373.5,-148 373.5,-148 373.5,-160 373.5,-160 373.5,-166 367.5,-172 361.5,-172"/>
<text text-anchor="middle" x="309.5" y="-151.5" font-family="Arial" font-size="10.00" fill="#111827">TodoListManager\naddTask</text>
</g>
<!-- n3&#45;&gt;n0 -->
<g id="edge2" class="edge">
<title>n3&#45;&gt;n0</title>
<path fill="none" stroke="#94a3b8" stroke-width="0.9" d="M247.38,-135.92C213.5,-126.6 171.52,-115.06 136.86,-105.52"/>
<polygon fill="#94a3b8" stroke="#94a3b8" stroke-width="0.9" points="137.17,-103.61 131.36,-104.01 136.15,-107.33 137.17,-103.61"/>
</g>
<!-- n9 -->
<g id="node10" class="node">
<title>n9</title>
<path fill="#f8fafc" stroke="#94a3b8" d="M291.5,-104C291.5,-104 163.5,-104 163.5,-104 157.5,-104 151.5,-98 151.5,-92 151.5,-92 151.5,-80 151.5,-80 151.5,-74 157.5,-68 163.5,-68 163.5,-68 291.5,-68 291.5,-68 297.5,-68 303.5,-74 303.5,-80 303.5,-80 303.5,-92 303.5,-92 303.5,-98 297.5,-104 291.5,-104"/>
<text text-anchor="middle" x="227.5" y="-83.5" font-family="Arial" font-size="10.00" fill="#111827">TodoListManager\ngetTaskCount</text>
</g>
<!-- n3&#45;&gt;n9 -->
<g id="edge4" class="edge">
<title>n3&#45;&gt;n9</title>
<path fill="none" stroke="#94a3b8" stroke-width="0.9" d="M287.96,-135.66C277.32,-127.1 264.4,-116.7 253.24,-107.72"/>
<polygon fill="#94a3b8" stroke="#94a3b8" stroke-width="0.9" points="254.39,-106.17 248.9,-104.22 251.98,-109.17 254.39,-106.17"/>
</g>
<!-- n13 -->
<g id="node14" class="node">
<title>n13</title>
<path fill="#f8fafc" stroke="#94a3b8" d="M454,-104C454,-104 329,-104 329,-104 323,-104 317,-98 317,-92 317,-92 317,-80 317,-80 317,-74 323,-68 329,-68 329,-68 454,-68 454,-68 460,-68 466,-74 466,-80 466,-80 466,-92 466,-92 466,-98 460,-104 454,-104"/>
<text text-anchor="middle" x="391.5" y="-83.5" font-family="Arial" font-size="10.00" fill="#111827">TodoListManager\ncontainsTask</text>
</g>
<!-- n3&#45;&gt;n13 -->
<g id="edge3" class="edge">
<title>n3&#45;&gt;n13</title>
<path fill="none" stroke="#94a3b8" stroke-width="0.9" d="M331.04,-135.66C341.68,-127.1 354.6,-116.7 365.76,-107.72"/>
<polygon fill="#94a3b8" stroke="#94a3b8" stroke-width="0.9" points="367.02,-109.17 370.1,-104.22 364.61,-106.17 367.02,-109.17"/>
</g>
<!-- n16 -->
<g id="node17" class="node">
<title>n16</title>
<path fill="#f8fafc" stroke="#94a3b8" d="M611.5,-104C611.5,-104 491.5,-104 491.5,-104 485.5,-104 479.5,-98 479.5,-92 479.5,-92 479.5,-80 479.5,-80 479.5,-74 485.5,-68 491.5,-68 491.5,-68 611.5,-68 611.5,-68 617.5,-68 623.5,-74 623.5,-80 623.5,-80 623.5,-92 623.5,-92 623.5,-98 617.5,-104 611.5,-104"/>
<text text-anchor="middle" x="551.5" y="-83.5" font-family="Arial" font-size="10.00" fill="#111827">TodoListManager\nremoveTask</text>
</g>
<!-- n3&#45;&gt;n16 -->
<g id="edge5" class="edge">
<title>n3&#45;&gt;n16</title>
<path fill="none" stroke="#94a3b8" stroke-width="0.9" d="M372.14,-135.92C406.3,-126.6 448.63,-115.06 483.58,-105.52"/>
<polygon fill="#94a3b8" stroke="#94a3b8" stroke-width="0.9" points="484.33,-107.32 489.13,-104.01 483.31,-103.6 484.33,-107.32"/>
</g>
<!-- n4 -->
<g id="node5" class="node">
<title>n4</title>
<path fill="#f8fafc" stroke="#94a3b8" d="M521.5,-36C521.5,-36 421.5,-36 421.5,-36 415.5,-36 409.5,-30 409.5,-24 409.5,-24 409.5,-12 409.5,-12 409.5,-6 415.5,0 421.5,0 421.5,0 521.5,0 521.5,0 527.5,0 533.5,-6 533.5,-12 533.5,-12 533.5,-24 533.5,-24 533.5,-30 527.5,-36 521.5,-36"/>
<text text-anchor="middle" x="471.5" y="-15.5" font-family="Arial" font-size="10.00" fill="#111827">TasksScreenKt\nTaskItem</text>
</g>
<!-- n5 -->
<g id="node6" class="node">
<title>n5</title>
<path fill="#f8fafc" stroke="#94a3b8" d="M694,-36C694,-36 559,-36 559,-36 553,-36 547,-30 547,-24 547,-24 547,-12 547,-12 547,-6 553,0 559,0 559,0 694,0 694,0 700,0 706,-6 706,-12 706,-12 706,-24 706,-24 706,-30 700,-36 694,-36"/>
<text text-anchor="middle" x="626.5" y="-15.5" font-family="Arial" font-size="10.00" fill="#111827">TasksScreenKt\nTaskItemPreview</text>
</g>
<!-- n6 -->
<g id="node7" class="node">
<title>n6</title>
<path fill="#f8fafc" stroke="#94a3b8" d="M851.5,-36C851.5,-36 731.5,-36 731.5,-36 725.5,-36 719.5,-30 719.5,-24 719.5,-24 719.5,-12 719.5,-12 719.5,-6 725.5,0 731.5,0 731.5,0 851.5,0 851.5,0 857.5,0 863.5,-6 863.5,-12 863.5,-12 863.5,-24 863.5,-24 863.5,-30 857.5,-36 851.5,-36"/>
<text text-anchor="middle" x="791.5" y="-15.5" font-family="Arial" font-size="10.00" fill="#111827">TasksScreenKt\nTasksContent</text>
</g>
<!-- n7 -->
<g id="node8" class="node">
<title>n7</title>
<path fill="#f8fafc" stroke="#94a3b8" d="M1038,-36C1038,-36 889,-36 889,-36 883,-36 877,-30 877,-24 877,-24 877,-12 877,-12 877,-6 883,0 889,0 889,0 1038,0 1038,0 1044,0 1050,-6 1050,-12 1050,-12 1050,-24 1050,-24 1050,-30 1044,-36 1038,-36"/>
<text text-anchor="middle" x="963.5" y="-15.5" font-family="Arial" font-size="10.00" fill="#111827">TasksScreenKt\nTasksEmptyContent</text>
</g>
<!-- n8 -->
<g id="node9" class="node">
<title>n8</title>
<path fill="#f8fafc" stroke="#94a3b8" d="M1048,-104C1048,-104 873,-104 873,-104 867,-104 861,-98 861,-92 861,-92 861,-80 861,-80 861,-74 867,-68 873,-68 873,-68 1048,-68 1048,-68 1054,-68 1060,-74 1060,-80 1060,-80 1060,-92 1060,-92 1060,-98 1054,-104 1048,-104"/>
<text text-anchor="middle" x="960.5" y="-83.5" font-family="Arial" font-size="10.00" fill="#111827">AddEditTaskScreenKt\nAddEditTaskScreen</text>
</g>
<!-- n15 -->
<g id="node16" class="node">
<title>n15</title>
<path fill="#f8fafc" stroke="#94a3b8" d="M191,-36C191,-36 12,-36 12,-36 6,-36 0,-30 0,-24 0,-24 0,-12 0,-12 0,-6 6,0 12,0 12,0 191,0 191,0 197,0 203,-6 203,-12 203,-12 203,-24 203,-24 203,-30 197,-36 191,-36"/>
<text text-anchor="middle" x="101.5" y="-15.5" font-family="Arial" font-size="10.00" fill="#111827">AddEditTaskScreenKt\nAddEditTaskContent</text>
</g>
<!-- n8&#45;&gt;n15 -->
<g id="edge6" class="edge">
<title>n8&#45;&gt;n15</title>
<path fill="none" stroke="#94a3b8" stroke-width="0.9" d="M860.96,-68.71C858.79,-68.46 856.63,-68.22 854.5,-68 569.48,-38.15 495.58,-65.23 210.5,-36 210.05,-35.95 209.61,-35.91 209.16,-35.86"/>
<polygon fill="#94a3b8" stroke="#94a3b8" stroke-width="0.9" points="208.96,-33.9 203.28,-35.22 208.54,-37.73 208.96,-33.9"/>
</g>
<!-- n11 -->
<g id="node12" class="node">
<title>n11</title>
<path fill="#f8fafc" stroke="#94a3b8" d="M1118,-172C1118,-172 985,-172 985,-172 979,-172 973,-166 973,-160 973,-160 973,-148 973,-148 973,-142 979,-136 985,-136 985,-136 1118,-136 1118,-136 1124,-136 1130,-142 1130,-148 1130,-148 1130,-160 1130,-160 1130,-166 1124,-172 1118,-172"/>
<text text-anchor="middle" x="1051.5" y="-151.5" font-family="Arial" font-size="10.00" fill="#111827">TodoNavGraphKt\nTodoNavGraph</text>
</g>
<!-- n11&#45;&gt;n8 -->
<g id="edge7" class="edge">
<title>n11&#45;&gt;n8</title>
<path fill="none" stroke="#94a3b8" stroke-width="0.9" d="M1027.59,-135.66C1015.68,-127.02 1001.2,-116.52 988.74,-107.48"/>
<polygon fill="#94a3b8" stroke="#94a3b8" stroke-width="0.9" points="989.83,-105.9 984.25,-104.22 987.57,-109.01 989.83,-105.9"/>
</g>
<!-- n12 -->
<g id="node13" class="node">
<title>n12</title>
<path fill="#f8fafc" stroke="#94a3b8" d="M1202,-104C1202,-104 1085,-104 1085,-104 1079,-104 1073,-98 1073,-92 1073,-92 1073,-80 1073,-80 1073,-74 1079,-68 1085,-68 1085,-68 1202,-68 1202,-68 1208,-68 1214,-74 1214,-80 1214,-80 1214,-92 1214,-92 1214,-98 1208,-104 1202,-104"/>
<text text-anchor="middle" x="1143.5" y="-83.5" font-family="Arial" font-size="10.00" fill="#111827">TasksScreenKt\nTasksScreen</text>
</g>
<!-- n11&#45;&gt;n12 -->
<g id="edge8" class="edge">
<title>n11&#45;&gt;n12</title>
<path fill="none" stroke="#94a3b8" stroke-width="0.9" d="M1075.67,-135.66C1087.72,-127.02 1102.36,-116.52 1114.95,-107.48"/>
<polygon fill="#94a3b8" stroke="#94a3b8" stroke-width="0.9" points="1116.14,-109 1119.49,-104.22 1113.9,-105.87 1116.14,-109"/>
</g>
<!-- n12&#45;&gt;n2 -->
<g id="edge14" class="edge">
<title>n12&#45;&gt;n2</title>
<path fill="none" stroke="#94a3b8" stroke-width="0.9" d="M1072.67,-68.89C1070.6,-68.57 1068.54,-68.27 1066.5,-68 774.09,-28.95 696.7,-68.64 403.5,-36 403.07,-35.95 402.64,-35.9 402.21,-35.85"/>
<polygon fill="#94a3b8" stroke="#94a3b8" stroke-width="0.9" points="402.23,-33.92 396.54,-35.18 401.78,-37.74 402.23,-33.92"/>
</g>
<!-- n12&#45;&gt;n4 -->
<g id="edge9" class="edge">
<title>n12&#45;&gt;n4</title>
<path fill="none" stroke="#94a3b8" stroke-width="0.9" d="M1072.67,-68.92C1070.59,-68.59 1068.53,-68.28 1066.5,-68 834.55,-35.54 772.04,-71.27 540.5,-36 540.09,-35.94 539.68,-35.87 539.26,-35.81"/>
<polygon fill="#94a3b8" stroke="#94a3b8" stroke-width="0.9" points="539.58,-33.91 533.83,-34.89 538.94,-37.71 539.58,-33.91"/>
</g>
<!-- n12&#45;&gt;n5 -->
<g id="edge11" class="edge">
<title>n12&#45;&gt;n5</title>
<path fill="none" stroke="#94a3b8" stroke-width="0.9" d="M1072.66,-69C1070.59,-68.65 1068.53,-68.31 1066.5,-68 910.83,-43.86 869.45,-58.25 713.5,-36 712.89,-35.91 712.28,-35.82 711.67,-35.73"/>
<polygon fill="#94a3b8" stroke="#94a3b8" stroke-width="0.9" points="711.82,-33.81 706.1,-34.89 711.25,-37.62 711.82,-33.81"/>
</g>
<!-- n12&#45;&gt;n6 -->
<g id="edge12" class="edge">
<title>n12&#45;&gt;n6</title>
<path fill="none" stroke="#94a3b8" stroke-width="0.9" d="M1072.62,-69.2C1070.56,-68.79 1068.52,-68.39 1066.5,-68 979.82,-51.37 957.23,-52.4 870.5,-36 870.09,-35.92 869.67,-35.84 869.26,-35.76"/>
<polygon fill="#94a3b8" stroke="#94a3b8" stroke-width="0.9" points="869.56,-33.86 863.8,-34.71 868.83,-37.64 869.56,-33.86"/>
</g>
<!-- n12&#45;&gt;n7 -->
<g id="edge15" class="edge">
<title>n12&#45;&gt;n7</title>
<path fill="none" stroke="#94a3b8" stroke-width="0.9" d="M1096.68,-67.83C1071.78,-58.7 1041.11,-47.46 1015.48,-38.06"/>
<polygon fill="#94a3b8" stroke="#94a3b8" stroke-width="0.9" points="1015.92,-36.17 1010.09,-36.08 1014.59,-39.78 1015.92,-36.17"/>
</g>
<!-- n14 -->
<g id="node15" class="node">
<title>n14</title>
<path fill="#f8fafc" stroke="#94a3b8" d="M1205.5,-36C1205.5,-36 1075.5,-36 1075.5,-36 1069.5,-36 1063.5,-30 1063.5,-24 1063.5,-24 1063.5,-12 1063.5,-12 1063.5,-6 1069.5,0 1075.5,0 1075.5,0 1205.5,0 1205.5,0 1211.5,0 1217.5,-6 1217.5,-12 1217.5,-12 1217.5,-24 1217.5,-24 1217.5,-30 1211.5,-36 1205.5,-36"/>
<text text-anchor="middle" x="1140.5" y="-15.5" font-family="Arial" font-size="10.00" fill="#111827">TopAppBarsKt\nTasksTopAppBar</text>
</g>
<!-- n12&#45;&gt;n14 -->
<g id="edge16" class="edge">
<title>n12&#45;&gt;n14</title>
<path fill="none" stroke="#94a3b8" stroke-width="0.9" d="M1142.71,-67.66C1142.36,-59.84 1141.93,-50.49 1141.55,-42.09"/>
<polygon fill="#94a3b8" stroke="#94a3b8" stroke-width="0.9" points="1143.47,-41.86 1141.29,-36.45 1139.62,-42.04 1143.47,-41.86"/>
</g>
<!-- n17 -->
<g id="node18" class="node">
<title>n17</title>
<path fill="#f8fafc" stroke="#94a3b8" d="M1426,-36C1426,-36 1243,-36 1243,-36 1237,-36 1231,-30 1231,-24 1231,-24 1231,-12 1231,-12 1231,-6 1237,0 1243,0 1243,0 1426,0 1426,0 1432,0 1438,-6 1438,-12 1438,-12 1438,-24 1438,-24 1438,-30 1432,-36 1426,-36"/>
<text text-anchor="middle" x="1334.5" y="-15.5" font-family="Arial" font-size="10.00" fill="#111827">TasksScreenKt\nTaskItemCompletedPreview</text>
</g>
<!-- n12&#45;&gt;n17 -->
<g id="edge10" class="edge">
<title>n12&#45;&gt;n17</title>
<path fill="none" stroke="#94a3b8" stroke-width="0.9" d="M1193.18,-67.83C1219.71,-58.66 1252.42,-47.36 1279.69,-37.94"/>
<polygon fill="#94a3b8" stroke="#94a3b8" stroke-width="0.9" points="1280.49,-39.7 1285.06,-36.08 1279.24,-36.06 1280.49,-39.7"/>
</g>
<!-- n19 -->
<g id="node20" class="node">
<title>n19</title>
<path fill="#f8fafc" stroke="#94a3b8" d="M1647.5,-36C1647.5,-36 1463.5,-36 1463.5,-36 1457.5,-36 1451.5,-30 1451.5,-24 1451.5,-24 1451.5,-12 1451.5,-12 1451.5,-6 1457.5,0 1463.5,0 1463.5,0 1647.5,0 1647.5,0 1653.5,0 1659.5,-6 1659.5,-12 1659.5,-12 1659.5,-24 1659.5,-24 1659.5,-30 1653.5,-36 1647.5,-36"/>
<text text-anchor="middle" x="1555.5" y="-15.5" font-family="Arial" font-size="10.00" fill="#111827">TasksScreenKt\nTasksContentEmptyPreview</text>
</g>
<!-- n12&#45;&gt;n19 -->
<g id="edge13" class="edge">
<title>n12&#45;&gt;n19</title>
<path fill="none" stroke="#94a3b8" stroke-width="0.9" d="M1214.33,-73.65C1277.89,-63.47 1372.21,-48.36 1445.58,-36.61"/>
<polygon fill="#94a3b8" stroke="#94a3b8" stroke-width="0.9" points="1446.14,-38.47 1451.27,-35.7 1445.53,-34.67 1446.14,-38.47"/>
</g>
<!-- n18 -->
<g id="node19" class="node">
<title>n18</title>
<path fill="#f8fafc" stroke="#94a3b8" d="M1496.5,-172C1496.5,-172 1396.5,-172 1396.5,-172 1390.5,-172 1384.5,-166 1384.5,-160 1384.5,-160 1384.5,-148 1384.5,-148 1384.5,-142 1390.5,-136 1396.5,-136 1396.5,-136 1496.5,-136 1496.5,-136 1502.5,-136 1508.5,-142 1508.5,-148 1508.5,-148 1508.5,-160 1508.5,-160 1508.5,-166 1502.5,-172 1496.5,-172"/>
<text text-anchor="middle" x="1446.5" y="-151.5" font-family="Arial" font-size="10.00" fill="#111827">TasksUiState\nsetFiltering</text>
</g>
</g>
</svg>
