<?xml version="1.0" encoding="UTF-8" standalone="no"?>
<!DOCTYPE svg PUBLIC "-//W3C//DTD SVG 1.1//EN"
 "http://www.w3.org/Graphics/SVG/1.1/DTD/svg11.dtd">
<!-- Generated by graphviz version 2.42.4 (0)
 -->
<!-- Title: SourceGraph Pages: 1 -->
<svg width="7658pt" height="372pt"
 viewBox="0.00 0.00 7657.90 372.40" xmlns="http://www.w3.org/2000/svg" xmlns:xlink="http://www.w3.org/1999/xlink">
<g id="graph0" class="graph" transform="scale(1 1) rotate(0) translate(25.2 347.2)">
<title>SourceGraph</title>
<polygon fill="white" stroke="transparent" points="-25.2,25.2 -25.2,-347.2 7632.7,-347.2 7632.7,25.2 -25.2,25.2"/>
<text text-anchor="middle" x="3803.75" y="-303.6" font-family="Arial" font-size="18.00">图 14&#45;2 &#160;源码调用图：任务管理核心模块</text>
<!-- n0 -->
<g id="node1" class="node">
<title>n0</title>
<path fill="#f8fafc" stroke="#94a3b8" d="M376,-294C376,-294 273,-294 273,-294 267,-294 261,-288 261,-282 261,-282 261,-270 261,-270 261,-264 267,-258 273,-258 273,-258 376,-258 376,-258 382,-258 388,-264 388,-270 388,-270 388,-282 388,-282 388,-288 382,-294 376,-294"/>
<text text-anchor="middle" x="324.5" y="-273.5" font-family="Arial" font-size="10.00" fill="#111827">TodoListManager.addTask</text>
</g>
<!-- n1 -->
<g id="node2" class="node">
<title>n1</title>
<path fill="#f8fafc" stroke="#94a3b8" d="M125,-208C125,-208 12,-208 12,-208 6,-208 0,-202 0,-196 0,-196 0,-184 0,-184 0,-178 6,-172 12,-172 12,-172 125,-172 125,-172 131,-172 137,-178 137,-184 137,-184 137,-196 137,-196 137,-202 131,-208 125,-208"/>
<text text-anchor="middle" x="68.5" y="-187.5" font-family="Arial" font-size="10.00" fill="#111827">TodoListManager.clearTasks</text>
</g>
<!-- n0&#45;&gt;n1 -->
<g id="edge1" class="edge">
<title>n0&#45;&gt;n1</title>
<path fill="none" stroke="#94a3b8" d="M272.39,-257.9C230.17,-244.05 170.71,-224.54 126.89,-210.16"/>
<polygon fill="#94a3b8" stroke="#94a3b8" points="127.43,-207.94 120.54,-208.08 126.01,-212.26 127.43,-207.94"/>
</g>
<!-- n2 -->
<g id="node3" class="node">
<title>n2</title>
<path fill="#f8fafc" stroke="#94a3b8" d="M298.5,-208C298.5,-208 174.5,-208 174.5,-208 168.5,-208 162.5,-202 162.5,-196 162.5,-196 162.5,-184 162.5,-184 162.5,-178 168.5,-172 174.5,-172 174.5,-172 298.5,-172 298.5,-172 304.5,-172 310.5,-178 310.5,-184 310.5,-184 310.5,-196 310.5,-196 310.5,-202 304.5,-208 298.5,-208"/>
<text text-anchor="middle" x="236.5" y="-187.5" font-family="Arial" font-size="10.00" fill="#111827">TodoListManager.containsTask</text>
</g>
<!-- n0&#45;&gt;n2 -->
<g id="edge2" class="edge">
<title>n0&#45;&gt;n2</title>
<path fill="none" stroke="#94a3b8" d="M306.27,-257.6C292.61,-244.56 273.83,-226.64 259.2,-212.67"/>
<polygon fill="#94a3b8" stroke="#94a3b8" points="260.68,-210.94 254.41,-208.1 257.54,-214.23 260.68,-210.94"/>
</g>
<!-- n3 -->
<g id="node4" class="node">
<title>n3</title>
<path fill="#f8fafc" stroke="#94a3b8" d="M475,-208C475,-208 348,-208 348,-208 342,-208 336,-202 336,-196 336,-196 336,-184 336,-184 336,-178 342,-172 348,-172 348,-172 475,-172 475,-172 481,-172 487,-178 487,-184 487,-184 487,-196 487,-196 487,-202 481,-208 475,-208"/>
<text text-anchor="middle" x="411.5" y="-187.5" font-family="Arial" font-size="10.00" fill="#111827">TodoListManager.getTaskCount</text>
</g>
<!-- n0&#45;&gt;n3 -->
<g id="edge3" class="edge">
<title>n0&#45;&gt;n3</title>
<path fill="none" stroke="#94a3b8" d="M342.53,-257.6C356.03,-244.56 374.59,-226.64 389.06,-212.67"/>
<polygon fill="#94a3b8" stroke="#94a3b8" points="390.7,-214.25 393.79,-208.1 387.54,-210.97 390.7,-214.25"/>
</g>
<!-- n4 -->
<g id="node5" class="node">
<title>n4</title>
<path fill="#f8fafc" stroke="#94a3b8" d="M643,-208C643,-208 524,-208 524,-208 518,-208 512,-202 512,-196 512,-196 512,-184 512,-184 512,-178 518,-172 524,-172 524,-172 643,-172 643,-172 649,-172 655,-178 655,-184 655,-184 655,-196 655,-196 655,-202 649,-208 643,-208"/>
<text text-anchor="middle" x="583.5" y="-187.5" font-family="Arial" font-size="10.00" fill="#111827">TodoListManager.removeTask</text>
</g>
<!-- n0&#45;&gt;n4 -->
<g id="edge4" class="edge">
<title>n0&#45;&gt;n4</title>
<path fill="none" stroke="#94a3b8" d="M377.22,-257.9C419.94,-244.05 480.1,-224.54 524.43,-210.16"/>
<polygon fill="#94a3b8" stroke="#94a3b8" points="525.37,-212.25 530.85,-208.08 523.96,-207.92 525.37,-212.25"/>
</g>
<!-- n5 -->
<g id="node6" class="node">
<title>n5</title>
<path fill="#f8fafc" stroke="#94a3b8" d="M1133.5,-294C1133.5,-294 1001.5,-294 1001.5,-294 995.5,-294 989.5,-288 989.5,-282 989.5,-282 989.5,-270 989.5,-270 989.5,-264 995.5,-258 1001.5,-258 1001.5,-258 1133.5,-258 1133.5,-258 1139.5,-258 1145.5,-264 1145.5,-270 1145.5,-270 1145.5,-282 1145.5,-282 1145.5,-288 1139.5,-294 1133.5,-294"/>
<text text-anchor="middle" x="1067.5" y="-273.5" font-family="Arial" font-size="10.00" fill="#111827">TodoNavGraphKt.TodoNavGraph</text>
</g>
<!-- n6 -->
<g id="node7" class="node">
<title>n6</title>
<path fill="#f8fafc" stroke="#94a3b8" d="M866.5,-208C866.5,-208 692.5,-208 692.5,-208 686.5,-208 680.5,-202 680.5,-196 680.5,-196 680.5,-184 680.5,-184 680.5,-178 686.5,-172 692.5,-172 692.5,-172 866.5,-172 866.5,-172 872.5,-172 878.5,-178 878.5,-184 878.5,-184 878.5,-196 878.5,-196 878.5,-202 872.5,-208 866.5,-208"/>
<text text-anchor="middle" x="779.5" y="-187.5" font-family="Arial" font-size="10.00" fill="#111827">AddEditTaskScreenKt.AddEditTaskScreen</text>
</g>
<!-- n5&#45;&gt;n6 -->
<g id="edge5" class="edge">
<title>n5&#45;&gt;n6</title>
<path fill="none" stroke="#94a3b8" d="M1008.87,-257.9C961.18,-243.99 893.93,-224.38 844.58,-209.98"/>
<polygon fill="#94a3b8" stroke="#94a3b8" points="844.92,-207.71 838.05,-208.08 843.65,-212.08 844.92,-207.71"/>
</g>
<!-- n7 -->
<g id="node8" class="node">
<title>n7</title>
<path fill="#f8fafc" stroke="#94a3b8" d="M1413,-208C1413,-208 1298,-208 1298,-208 1292,-208 1286,-202 1286,-196 1286,-196 1286,-184 1286,-184 1286,-178 1292,-172 1298,-172 1298,-172 1413,-172 1413,-172 1419,-172 1425,-178 1425,-184 1425,-184 1425,-196 1425,-196 1425,-202 1419,-208 1413,-208"/>
<text text-anchor="middle" x="1355.5" y="-187.5" font-family="Arial" font-size="10.00" fill="#111827">TasksScreenKt.TasksScreen</text>
</g>
<!-- n5&#45;&gt;n7 -->
<g id="edge6" class="edge">
<title>n5&#45;&gt;n7</title>
<path fill="none" stroke="#94a3b8" d="M1126.13,-257.9C1173.82,-243.99 1241.07,-224.38 1290.42,-209.98"/>
<polygon fill="#94a3b8" stroke="#94a3b8" points="1291.35,-212.08 1296.95,-208.08 1290.08,-207.71 1291.35,-212.08"/>
</g>
<!-- n8 -->
<g id="node9" class="node">
<title>n8</title>
<path fill="#f8fafc" stroke="#94a3b8" d="M585.5,-122C585.5,-122 407.5,-122 407.5,-122 401.5,-122 395.5,-116 395.5,-110 395.5,-110 395.5,-98 395.5,-98 395.5,-92 401.5,-86 407.5,-86 407.5,-86 585.5,-86 585.5,-86 591.5,-86 597.5,-92 597.5,-98 597.5,-98 597.5,-110 597.5,-110 597.5,-116 591.5,-122 585.5,-122"/>
<text text-anchor="middle" x="496.5" y="-101.5" font-family="Arial" font-size="10.00" fill="#111827">AddEditTaskScreenKt.AddEditTaskContent</text>
</g>
<!-- n6&#45;&gt;n8 -->
<g id="edge7" class="edge">
<title>n6&#45;&gt;n8</title>
<path fill="none" stroke="#94a3b8" d="M721.89,-171.9C675.03,-157.99 608.95,-138.38 560.45,-123.98"/>
<polygon fill="#94a3b8" stroke="#94a3b8" points="560.91,-121.74 554.03,-122.08 559.61,-126.11 560.91,-121.74"/>
</g>
<!-- n11 -->
<g id="node12" class="node">
<title>n11</title>
<path fill="#f8fafc" stroke="#94a3b8" d="M734,-122C734,-122 635,-122 635,-122 629,-122 623,-116 623,-110 623,-110 623,-98 623,-98 623,-92 629,-86 635,-86 635,-86 734,-86 734,-86 740,-86 746,-92 746,-98 746,-98 746,-110 746,-110 746,-116 740,-122 734,-122"/>
<text text-anchor="middle" x="684.5" y="-101.5" font-family="Arial" font-size="10.00" fill="#111827">TasksScreenKt.TaskItem</text>
</g>
<!-- n7&#45;&gt;n11 -->
<g id="edge8" class="edge">
<title>n7&#45;&gt;n11</title>
<path fill="none" stroke="#94a3b8" d="M1285.74,-183.77C1173.94,-174.8 947.94,-154.28 758.5,-122 756.61,-121.68 754.7,-121.34 752.77,-120.98"/>
<polygon fill="#94a3b8" stroke="#94a3b8" points="752.98,-118.71 746.17,-119.72 752.13,-123.18 752.98,-118.71"/>
</g>
<!-- n12 -->
<g id="node13" class="node">
<title>n12</title>
<path fill="#f8fafc" stroke="#94a3b8" d="M964,-122C964,-122 783,-122 783,-122 777,-122 771,-116 771,-110 771,-110 771,-98 771,-98 771,-92 777,-86 783,-86 783,-86 964,-86 964,-86 970,-86 976,-92 976,-98 976,-98 976,-110 976,-110 976,-116 970,-122 964,-122"/>
<text text-anchor="middle" x="873.5" y="-101.5" font-family="Arial" font-size="10.00" fill="#111827">TasksScreenKt.TaskItemCompletedPreview</text>
</g>
<!-- n7&#45;&gt;n12 -->
<g id="edge9" class="edge">
<title>n7&#45;&gt;n12</title>
<path fill="none" stroke="#94a3b8" d="M1285.93,-176.88C1205.22,-162.81 1071.34,-139.48 978.08,-123.23"/>
<polygon fill="#94a3b8" stroke="#94a3b8" points="978.23,-120.94 971.44,-122.07 977.45,-125.43 978.23,-120.94"/>
</g>
<!-- n13 -->
<g id="node14" class="node">
<title>n13</title>
<path fill="#f8fafc" stroke="#94a3b8" d="M1146.5,-122C1146.5,-122 1012.5,-122 1012.5,-122 1006.5,-122 1000.5,-116 1000.5,-110 1000.5,-110 1000.5,-98 1000.5,-98 1000.5,-92 1006.5,-86 1012.5,-86 1012.5,-86 1146.5,-86 1146.5,-86 1152.5,-86 1158.5,-92 1158.5,-98 1158.5,-98 1158.5,-110 1158.5,-110 1158.5,-116 1152.5,-122 1146.5,-122"/>
<text text-anchor="middle" x="1079.5" y="-101.5" font-family="Arial" font-size="10.00" fill="#111827">TasksScreenKt.TaskItemPreview</text>
</g>
<!-- n7&#45;&gt;n13 -->
<g id="edge10" class="edge">
<title>n7&#45;&gt;n13</title>
<path fill="none" stroke="#94a3b8" d="M1299.31,-171.9C1253.61,-157.99 1189.17,-138.38 1141.87,-123.98"/>
<polygon fill="#94a3b8" stroke="#94a3b8" points="1142.49,-121.79 1135.61,-122.08 1141.16,-126.15 1142.49,-121.79"/>
</g>
<!-- n14 -->
<g id="node15" class="node">
<title>n14</title>
<path fill="#f8fafc" stroke="#94a3b8" d="M1315,-122C1315,-122 1196,-122 1196,-122 1190,-122 1184,-116 1184,-110 1184,-110 1184,-98 1184,-98 1184,-92 1190,-86 1196,-86 1196,-86 1315,-86 1315,-86 1321,-86 1327,-92 1327,-98 1327,-98 1327,-110 1327,-110 1327,-116 1321,-122 1315,-122"/>
<text text-anchor="middle" x="1255.5" y="-101.5" font-family="Arial" font-size="10.00" fill="#111827">TasksScreenKt.TasksContent</text>
</g>
<!-- n7&#45;&gt;n14 -->
<g id="edge11" class="edge">
<title>n7&#45;&gt;n14</title>
<path fill="none" stroke="#94a3b8" d="M1334.78,-171.6C1319.12,-158.44 1297.55,-140.32 1280.86,-126.3"/>
<polygon fill="#94a3b8" stroke="#94a3b8" points="1282.29,-124.53 1275.85,-122.1 1279.37,-128.02 1282.29,-124.53"/>
</g>
<!-- n15 -->
<g id="node16" class="node">
<title>n15</title>
<path fill="#f8fafc" stroke="#94a3b8" d="M1547,-122C1547,-122 1364,-122 1364,-122 1358,-122 1352,-116 1352,-110 1352,-110 1352,-98 1352,-98 1352,-92 1358,-86 1364,-86 1364,-86 1547,-86 1547,-86 1553,-86 1559,-92 1559,-98 1559,-98 1559,-110 1559,-110 1559,-116 1553,-122 1547,-122"/>
<text text-anchor="middle" x="1455.5" y="-101.5" font-family="Arial" font-size="10.00" fill="#111827">TasksScreenKt.TasksContentEmptyPreview</text>
</g>
<!-- n7&#45;&gt;n15 -->
<g id="edge12" class="edge">
<title>n7&#45;&gt;n15</title>
<path fill="none" stroke="#94a3b8" d="M1376.22,-171.6C1391.88,-158.44 1413.45,-140.32 1430.14,-126.3"/>
<polygon fill="#94a3b8" stroke="#94a3b8" points="1431.63,-128.02 1435.15,-122.1 1428.71,-124.53 1431.63,-128.02"/>
</g>
<!-- n16 -->
<g id="node17" class="node">
<title>n16</title>
<path fill="#f8fafc" stroke="#94a3b8" d="M1750.5,-122C1750.5,-122 1596.5,-122 1596.5,-122 1590.5,-122 1584.5,-116 1584.5,-110 1584.5,-110 1584.5,-98 1584.5,-98 1584.5,-92 1590.5,-86 1596.5,-86 1596.5,-86 1750.5,-86 1750.5,-86 1756.5,-86 1762.5,-92 1762.5,-98 1762.5,-98 1762.5,-110 1762.5,-110 1762.5,-116 1756.5,-122 1750.5,-122"/>
<text text-anchor="middle" x="1673.5" y="-101.5" font-family="Arial" font-size="10.00" fill="#111827">TasksScreenKt.TasksContentPreview</text>
</g>
<!-- n7&#45;&gt;n16 -->
<g id="edge13" class="edge">
<title>n7&#45;&gt;n16</title>
<path fill="none" stroke="#94a3b8" d="M1420.24,-171.9C1473.2,-157.91 1548,-138.15 1602.57,-123.73"/>
<polygon fill="#94a3b8" stroke="#94a3b8" points="1603.42,-125.86 1609.13,-122 1602.26,-121.46 1603.42,-125.86"/>
</g>
<!-- n17 -->
<g id="node18" class="node">
<title>n17</title>
<path fill="#f8fafc" stroke="#94a3b8" d="M1947.5,-122C1947.5,-122 1799.5,-122 1799.5,-122 1793.5,-122 1787.5,-116 1787.5,-110 1787.5,-110 1787.5,-98 1787.5,-98 1787.5,-92 1793.5,-86 1799.5,-86 1799.5,-86 1947.5,-86 1947.5,-86 1953.5,-86 1959.5,-92 1959.5,-98 1959.5,-98 1959.5,-110 1959.5,-110 1959.5,-116 1953.5,-122 1947.5,-122"/>
<text text-anchor="middle" x="1873.5" y="-101.5" font-family="Arial" font-size="10.00" fill="#111827">TasksScreenKt.TasksEmptyContent</text>
</g>
<!-- n7&#45;&gt;n17 -->
<g id="edge14" class="edge">
<title>n7&#45;&gt;n17</title>
<path fill="none" stroke="#94a3b8" d="M1425.23,-174.26C1429.38,-173.47 1433.49,-172.71 1437.5,-172 1586.58,-145.51 1624.98,-145.93 1774.5,-122 1776.61,-121.66 1778.74,-121.32 1780.9,-120.97"/>
<polygon fill="#94a3b8" stroke="#94a3b8" points="1781.35,-123.2 1787.4,-119.91 1780.61,-118.71 1781.35,-123.2"/>
</g>
<!-- n18 -->
<g id="node19" class="node">
<title>n18</title>
<path fill="#f8fafc" stroke="#94a3b8" d="M2180,-122C2180,-122 1997,-122 1997,-122 1991,-122 1985,-116 1985,-110 1985,-110 1985,-98 1985,-98 1985,-92 1991,-86 1997,-86 1997,-86 2180,-86 2180,-86 2186,-86 2192,-92 2192,-98 2192,-98 2192,-110 2192,-110 2192,-116 2186,-122 2180,-122"/>
<text text-anchor="middle" x="2088.5" y="-101.5" font-family="Arial" font-size="10.00" fill="#111827">TasksScreenKt.TasksEmptyContentPreview</text>
</g>
<!-- n7&#45;&gt;n18 -->
<g id="edge15" class="edge">
<title>n7&#45;&gt;n18</title>
<path fill="none" stroke="#94a3b8" d="M1425.19,-174C1429.35,-173.28 1433.47,-172.6 1437.5,-172 1673.67,-136.59 1735.38,-150.44 1972.5,-122 1974.39,-121.77 1976.31,-121.54 1978.23,-121.3"/>
<polygon fill="#94a3b8" stroke="#94a3b8" points="1978.65,-123.54 1984.82,-120.47 1978.08,-119.03 1978.65,-123.54"/>
</g>
<!-- n19 -->
<g id="node20" class="node">
<title>n19</title>
<path fill="#f8fafc" stroke="#94a3b8" d="M2358,-122C2358,-122 2229,-122 2229,-122 2223,-122 2217,-116 2217,-110 2217,-110 2217,-98 2217,-98 2217,-92 2223,-86 2229,-86 2229,-86 2358,-86 2358,-86 2364,-86 2370,-92 2370,-98 2370,-98 2370,-110 2370,-110 2370,-116 2364,-122 2358,-122"/>
<text text-anchor="middle" x="2293.5" y="-101.5" font-family="Arial" font-size="10.00" fill="#111827">TopAppBarsKt.TasksTopAppBar</text>
</g>
<!-- n7&#45;&gt;n19 -->
<g id="edge16" class="edge">
<title>n7&#45;&gt;n19</title>
<path fill="none" stroke="#94a3b8" d="M1425.17,-173.87C1429.33,-173.18 1433.47,-172.55 1437.5,-172 1776.02,-126.1 1865.64,-165.24 2204.5,-122 2206.4,-121.76 2208.32,-121.5 2210.26,-121.23"/>
<polygon fill="#94a3b8" stroke="#94a3b8" points="2210.79,-123.45 2216.89,-120.26 2210.13,-118.95 2210.79,-123.45"/>
</g>
<!-- n9 -->
<g id="node10" class="node">
<title>n9</title>
<path fill="#f8fafc" stroke="#94a3b8" d="M1624,-294C1624,-294 1485,-294 1485,-294 1479,-294 1473,-288 1473,-282 1473,-282 1473,-270 1473,-270 1473,-264 1479,-258 1485,-258 1485,-258 1624,-258 1624,-258 1630,-258 1636,-264 1636,-270 1636,-270 1636,-282 1636,-282 1636,-288 1630,-294 1624,-294"/>
<text text-anchor="middle" x="1554.5" y="-273.5" font-family="Arial" font-size="10.00" fill="#111827">DefaultTaskRepository.createTask</text>
</g>
<!-- n10 -->
<g id="node11" class="node">
<title>n10</title>
<path fill="#f8fafc" stroke="#94a3b8" d="M1647,-208C1647,-208 1462,-208 1462,-208 1456,-208 1450,-202 1450,-196 1450,-196 1450,-184 1450,-184 1450,-178 1456,-172 1462,-172 1462,-172 1647,-172 1647,-172 1653,-172 1659,-178 1659,-184 1659,-184 1659,-196 1659,-196 1659,-202 1653,-208 1647,-208"/>
<text text-anchor="middle" x="1554.5" y="-187.5" font-family="Arial" font-size="10.00" fill="#111827">DefaultTaskRepository.saveTasksToNetwork</text>
</g>
<!-- n9&#45;&gt;n10 -->
<g id="edge17" class="edge">
<title>n9&#45;&gt;n10</title>
<path fill="none" stroke="#94a3b8" d="M1554.5,-257.6C1554.5,-245.24 1554.5,-228.49 1554.5,-214.88"/>
<polygon fill="#94a3b8" stroke="#94a3b8" points="1556.78,-214.6 1554.5,-208.1 1552.23,-214.6 1556.78,-214.6"/>
</g>
<!-- n24 -->
<g id="node25" class="node">
<title>n24</title>
<path fill="#f8fafc" stroke="#94a3b8" d="M2181,-36C2181,-36 2054,-36 2054,-36 2048,-36 2042,-30 2042,-24 2042,-24 2042,-12 2042,-12 2042,-6 2048,0 2054,0 2054,0 2181,0 2181,0 2187,0 2193,-6 2193,-12 2193,-12 2193,-24 2193,-24 2193,-30 2187,-36 2181,-36"/>
<text text-anchor="middle" x="2117.5" y="-15.5" font-family="Arial" font-size="10.00" fill="#111827">TopAppBarsKt.FilterTasksMenu</text>
</g>
<!-- n19&#45;&gt;n24 -->
<g id="edge18" class="edge">
<title>n19&#45;&gt;n24</title>
<path fill="none" stroke="#94a3b8" d="M2257.46,-85.8C2229.01,-72.22 2189.27,-53.26 2159.41,-39"/>
<polygon fill="#94a3b8" stroke="#94a3b8" points="2160.04,-36.78 2153.19,-36.03 2158.08,-40.89 2160.04,-36.78"/>
</g>
<!-- n25 -->
<g id="node26" class="node">
<title>n25</title>
<path fill="#f8fafc" stroke="#94a3b8" d="M2357,-36C2357,-36 2230,-36 2230,-36 2224,-36 2218,-30 2218,-24 2218,-24 2218,-12 2218,-12 2218,-6 2224,0 2230,0 2230,0 2357,0 2357,0 2363,0 2369,-6 2369,-12 2369,-12 2369,-24 2369,-24 2369,-30 2363,-36 2357,-36"/>
<text text-anchor="middle" x="2293.5" y="-15.5" font-family="Arial" font-size="10.00" fill="#111827">TopAppBarsKt.MoreTasksMenu</text>
</g>
<!-- n19&#45;&gt;n25 -->
<g id="edge19" class="edge">
<title>n19&#45;&gt;n25</title>
<path fill="none" stroke="#94a3b8" d="M2293.5,-85.6C2293.5,-73.24 2293.5,-56.49 2293.5,-42.88"/>
<polygon fill="#94a3b8" stroke="#94a3b8" points="2295.78,-42.6 2293.5,-36.1 2291.23,-42.6 2295.78,-42.6"/>
</g>
<!-- n26 -->
<g id="node27" class="node">
<title>n26</title>
<path fill="#f8fafc" stroke="#94a3b8" d="M2570.5,-36C2570.5,-36 2406.5,-36 2406.5,-36 2400.5,-36 2394.5,-30 2394.5,-24 2394.5,-24 2394.5,-12 2394.5,-12 2394.5,-6 2400.5,0 2406.5,0 2406.5,0 2570.5,0 2570.5,0 2576.5,0 2582.5,-6 2582.5,-12 2582.5,-12 2582.5,-24 2582.5,-24 2582.5,-30 2576.5,-36 2570.5,-36"/>
<text text-anchor="middle" x="2488.5" y="-15.5" font-family="Arial" font-size="10.00" fill="#111827">TopAppBarsKt.TasksTopAppBarPreview</text>
</g>
<!-- n19&#45;&gt;n26 -->
<g id="edge20" class="edge">
<title>n19&#45;&gt;n26</title>
<path fill="none" stroke="#94a3b8" d="M2333.43,-85.8C2365.22,-72.11 2409.72,-52.94 2442.9,-38.64"/>
<polygon fill="#94a3b8" stroke="#94a3b8" points="2443.89,-40.7 2448.96,-36.03 2442.09,-36.52 2443.89,-40.7"/>
</g>
<!-- n20 -->
<g id="node21" class="node">
<title>n20</title>
<path fill="#f8fafc" stroke="#94a3b8" d="M1947,-294C1947,-294 1848,-294 1848,-294 1842,-294 1836,-288 1836,-282 1836,-282 1836,-270 1836,-270 1836,-264 1842,-258 1848,-258 1848,-258 1947,-258 1947,-258 1953,-258 1959,-264 1959,-270 1959,-270 1959,-282 1959,-282 1959,-288 1953,-294 1947,-294"/>
<text text-anchor="middle" x="1897.5" y="-273.5" font-family="Arial" font-size="10.00" fill="#111827">TasksUiState.setFiltering</text>
</g>
<!-- n21 -->
<g id="node22" class="node">
<title>n21</title>
<path fill="#f8fafc" stroke="#94a3b8" d="M1792.5,-208C1792.5,-208 1696.5,-208 1696.5,-208 1690.5,-208 1684.5,-202 1684.5,-196 1684.5,-196 1684.5,-184 1684.5,-184 1684.5,-178 1690.5,-172 1696.5,-172 1696.5,-172 1792.5,-172 1792.5,-172 1798.5,-172 1804.5,-178 1804.5,-184 1804.5,-184 1804.5,-196 1804.5,-196 1804.5,-202 1798.5,-208 1792.5,-208"/>
<text text-anchor="middle" x="1744.5" y="-187.5" font-family="Arial" font-size="10.00" fill="#111827">TasksUiState.filterTasks</text>
</g>
<!-- n20&#45;&gt;n21 -->
<g id="edge21" class="edge">
<title>n20&#45;&gt;n21</title>
<path fill="none" stroke="#94a3b8" d="M1866.17,-257.8C1841.54,-244.28 1807.18,-225.41 1781.26,-211.18"/>
<polygon fill="#94a3b8" stroke="#94a3b8" points="1782.32,-209.17 1775.53,-208.03 1780.13,-213.16 1782.32,-209.17"/>
</g>
<!-- n22 -->
<g id="node23" class="node">
<title>n22</title>
<path fill="#f8fafc" stroke="#94a3b8" d="M1953.5,-208C1953.5,-208 1841.5,-208 1841.5,-208 1835.5,-208 1829.5,-202 1829.5,-196 1829.5,-196 1829.5,-184 1829.5,-184 1829.5,-178 1835.5,-172 1841.5,-172 1841.5,-172 1953.5,-172 1953.5,-172 1959.5,-172 1965.5,-178 1965.5,-184 1965.5,-184 1965.5,-196 1965.5,-196 1965.5,-202 1959.5,-208 1953.5,-208"/>
<text text-anchor="middle" x="1897.5" y="-187.5" font-family="Arial" font-size="10.00" fill="#111827">TasksUiState.getFilterUiInfo</text>
</g>
<!-- n20&#45;&gt;n22 -->
<g id="edge22" class="edge">
<title>n20&#45;&gt;n22</title>
<path fill="none" stroke="#94a3b8" d="M1897.5,-257.6C1897.5,-245.24 1897.5,-228.49 1897.5,-214.88"/>
<polygon fill="#94a3b8" stroke="#94a3b8" points="1899.78,-214.6 1897.5,-208.1 1895.23,-214.6 1899.78,-214.6"/>
</g>
<!-- n23 -->
<g id="node24" class="node">
<title>n23</title>
<path fill="#f8fafc" stroke="#94a3b8" d="M2162.5,-208C2162.5,-208 2002.5,-208 2002.5,-208 1996.5,-208 1990.5,-202 1990.5,-196 1990.5,-196 1990.5,-184 1990.5,-184 1990.5,-178 1996.5,-172 2002.5,-172 2002.5,-172 2162.5,-172 2162.5,-172 2168.5,-172 2174.5,-178 2174.5,-184 2174.5,-184 2174.5,-196 2174.5,-196 2174.5,-202 2168.5,-208 2162.5,-208"/>
<text text-anchor="middle" x="2082.5" y="-187.5" font-family="Arial" font-size="10.00" fill="#111827">TasksUiState.showEditResultMessage</text>
</g>
<!-- n20&#45;&gt;n23 -->
<g id="edge23" class="edge">
<title>n20&#45;&gt;n23</title>
<path fill="none" stroke="#94a3b8" d="M1935.38,-257.8C1965.41,-244.16 2007.41,-225.1 2038.84,-210.82"/>
<polygon fill="#94a3b8" stroke="#94a3b8" points="2040.01,-212.79 2044.98,-208.03 2038.12,-208.65 2040.01,-212.79"/>
</g>
<!-- n27 -->
<g id="node28" class="node">
<title>n27</title>
<path fill="#f8fafc" stroke="#94a3b8" d="M2153,-294C2153,-294 1996,-294 1996,-294 1990,-294 1984,-288 1984,-282 1984,-282 1984,-270 1984,-270 1984,-264 1990,-258 1996,-258 1996,-258 2153,-258 2153,-258 2159,-258 2165,-264 2165,-270 2165,-270 2165,-282 2165,-282 2165,-288 2159,-294 2153,-294"/>
<text text-anchor="middle" x="2074.5" y="-273.5" font-family="Arial" font-size="10.00" fill="#111827">DefaultTaskRepository.getTaskStream</text>
</g>
<!-- n28 -->
<g id="node29" class="node">
<title>n28</title>
<path fill="#f8fafc" stroke="#94a3b8" d="M2344.5,-294C2344.5,-294 2202.5,-294 2202.5,-294 2196.5,-294 2190.5,-288 2190.5,-282 2190.5,-282 2190.5,-270 2190.5,-270 2190.5,-264 2196.5,-258 2202.5,-258 2202.5,-258 2344.5,-258 2344.5,-258 2350.5,-258 2356.5,-264 2356.5,-270 2356.5,-270 2356.5,-282 2356.5,-282 2356.5,-288 2350.5,-294 2344.5,-294"/>
<text text-anchor="middle" x="2273.5" y="-273.5" font-family="Arial" font-size="10.00" fill="#111827">DefaultTaskRepository.refreshTask</text>
</g>
<!-- n29 -->
<g id="node30" class="node">
<title>n29</title>
<path fill="#f8fafc" stroke="#94a3b8" d="M2505.5,-294C2505.5,-294 2393.5,-294 2393.5,-294 2387.5,-294 2381.5,-288 2381.5,-282 2381.5,-282 2381.5,-270 2381.5,-270 2381.5,-264 2387.5,-258 2393.5,-258 2393.5,-258 2505.5,-258 2505.5,-258 2511.5,-258 2517.5,-264 2517.5,-270 2517.5,-270 2517.5,-282 2517.5,-282 2517.5,-288 2511.5,-294 2505.5,-294"/>
<text text-anchor="middle" x="2449.5" y="-273.5" font-family="Arial" font-size="10.00" fill="#111827">TasksUiState.completeTask</text>
</g>
<!-- n30 -->
<g id="node31" class="node">
<title>n30</title>
<path fill="#f8fafc" stroke="#94a3b8" d="M2678,-294C2678,-294 2555,-294 2555,-294 2549,-294 2543,-288 2543,-282 2543,-282 2543,-270 2543,-270 2543,-264 2549,-258 2555,-258 2555,-258 2678,-258 2678,-258 2684,-258 2690,-264 2690,-270 2690,-270 2690,-282 2690,-282 2690,-288 2684,-294 2678,-294"/>
<text text-anchor="middle" x="2616.5" y="-273.5" font-family="Arial" font-size="10.00" fill="#111827">TaskRepository.deleteAllTasks</text>
</g>
<!-- n31 -->
<g id="node32" class="node">
<title>n31</title>
<path fill="#f8fafc" stroke="#94a3b8" d="M2851.5,-294C2851.5,-294 2727.5,-294 2727.5,-294 2721.5,-294 2715.5,-288 2715.5,-282 2715.5,-282 2715.5,-270 2715.5,-270 2715.5,-264 2721.5,-258 2727.5,-258 2727.5,-258 2851.5,-258 2851.5,-258 2857.5,-258 2863.5,-264 2863.5,-270 2863.5,-270 2863.5,-282 2863.5,-282 2863.5,-288 2857.5,-294 2851.5,-294"/>
<text text-anchor="middle" x="2789.5" y="-273.5" font-family="Arial" font-size="10.00" fill="#111827">NetworkDataSource.loadTasks</text>
</g>
<!-- n32 -->
<g id="node33" class="node">
<title>n32</title>
<path fill="#f8fafc" stroke="#94a3b8" d="M3022,-294C3022,-294 2901,-294 2901,-294 2895,-294 2889,-288 2889,-282 2889,-282 2889,-270 2889,-270 2889,-264 2895,-258 2901,-258 2901,-258 3022,-258 3022,-258 3028,-258 3034,-264 3034,-270 3034,-270 3034,-282 3034,-282 3034,-288 3028,-294 3022,-294"/>
<text text-anchor="middle" x="2961.5" y="-273.5" font-family="Arial" font-size="10.00" fill="#111827">DefaultTaskRepository.refresh</text>
</g>
<!-- n33 -->
<g id="node34" class="node">
<title>n33</title>
<path fill="#f8fafc" stroke="#94a3b8" d="M3201.5,-294C3201.5,-294 3071.5,-294 3071.5,-294 3065.5,-294 3059.5,-288 3059.5,-282 3059.5,-282 3059.5,-270 3059.5,-270 3059.5,-264 3065.5,-258 3071.5,-258 3071.5,-258 3201.5,-258 3201.5,-258 3207.5,-258 3213.5,-264 3213.5,-270 3213.5,-270 3213.5,-282 3213.5,-282 3213.5,-288 3207.5,-294 3201.5,-294"/>
<text text-anchor="middle" x="3136.5" y="-273.5" font-family="Arial" font-size="10.00" fill="#111827">DefaultTaskRepository.getTasks</text>
</g>
<!-- n34 -->
<g id="node35" class="node">
<title>n34</title>
<path fill="#f8fafc" stroke="#94a3b8" d="M3340.5,-294C3340.5,-294 3250.5,-294 3250.5,-294 3244.5,-294 3238.5,-288 3238.5,-282 3238.5,-282 3238.5,-270 3238.5,-270 3238.5,-264 3244.5,-258 3250.5,-258 3250.5,-258 3340.5,-258 3340.5,-258 3346.5,-258 3352.5,-264 3352.5,-270 3352.5,-270 3352.5,-282 3352.5,-282 3352.5,-288 3346.5,-294 3340.5,-294"/>
<text text-anchor="middle" x="3295.5" y="-273.5" font-family="Arial" font-size="10.00" fill="#111827">TodoService.loadTasks</text>
</g>
<!-- n35 -->
<g id="node36" class="node">
<title>n35</title>
<path fill="#f8fafc" stroke="#94a3b8" d="M3551.5,-294C3551.5,-294 3389.5,-294 3389.5,-294 3383.5,-294 3377.5,-288 3377.5,-282 3377.5,-282 3377.5,-270 3377.5,-270 3377.5,-264 3383.5,-258 3389.5,-258 3389.5,-258 3551.5,-258 3551.5,-258 3557.5,-258 3563.5,-264 3563.5,-270 3563.5,-270 3563.5,-282 3563.5,-282 3563.5,-288 3557.5,-294 3551.5,-294"/>
<text text-anchor="middle" x="3470.5" y="-273.5" font-family="Arial" font-size="10.00" fill="#111827">DefaultTaskRepository.getTasksStream</text>
</g>
<!-- n36 -->
<g id="node37" class="node">
<title>n36</title>
<path fill="#f8fafc" stroke="#94a3b8" d="M3745,-294C3745,-294 3600,-294 3600,-294 3594,-294 3588,-288 3588,-282 3588,-282 3588,-270 3588,-270 3588,-264 3594,-258 3600,-258 3600,-258 3745,-258 3745,-258 3751,-258 3757,-264 3757,-270 3757,-270 3757,-282 3757,-282 3757,-288 3751,-294 3745,-294"/>
<text text-anchor="middle" x="3672.5" y="-273.5" font-family="Arial" font-size="10.00" fill="#111827">TaskNetworkDataSource.loadTasks</text>
</g>
<!-- n37 -->
<g id="node38" class="node">
<title>n37</title>
<path fill="#f8fafc" stroke="#94a3b8" d="M3935,-294C3935,-294 3794,-294 3794,-294 3788,-294 3782,-288 3782,-282 3782,-282 3782,-270 3782,-270 3782,-264 3788,-258 3794,-258 3794,-258 3935,-258 3935,-258 3941,-258 3947,-264 3947,-270 3947,-270 3947,-282 3947,-282 3947,-288 3941,-294 3935,-294"/>
<text text-anchor="middle" x="3864.5" y="-273.5" font-family="Arial" font-size="10.00" fill="#111827">DefaultTaskRepository.updateTask</text>
</g>
<!-- n38 -->
<g id="node39" class="node">
<title>n38</title>
<path fill="#f8fafc" stroke="#94a3b8" d="M4083,-294C4083,-294 3984,-294 3984,-294 3978,-294 3972,-288 3972,-282 3972,-282 3972,-270 3972,-270 3972,-264 3978,-258 3984,-258 3984,-258 4083,-258 4083,-258 4089,-258 4095,-264 4095,-270 4095,-270 4095,-282 4095,-282 4095,-288 4089,-294 4083,-294"/>
<text text-anchor="middle" x="4033.5" y="-273.5" font-family="Arial" font-size="10.00" fill="#111827">TaskRepository.getTasks</text>
</g>
<!-- n39 -->
<g id="node40" class="node">
<title>n39</title>
<path fill="#f8fafc" stroke="#94a3b8" d="M4262.5,-294C4262.5,-294 4132.5,-294 4132.5,-294 4126.5,-294 4120.5,-288 4120.5,-282 4120.5,-282 4120.5,-270 4120.5,-270 4120.5,-264 4126.5,-258 4132.5,-258 4132.5,-258 4262.5,-258 4262.5,-258 4268.5,-258 4274.5,-264 4274.5,-270 4274.5,-270 4274.5,-282 4274.5,-282 4274.5,-288 4268.5,-294 4262.5,-294"/>
<text text-anchor="middle" x="4197.5" y="-273.5" font-family="Arial" font-size="10.00" fill="#111827">TaskRepository.getTasksStream</text>
</g>
<!-- n40 -->
<g id="node41" class="node">
<title>n40</title>
<path fill="#f8fafc" stroke="#94a3b8" d="M4471.5,-294C4471.5,-294 4311.5,-294 4311.5,-294 4305.5,-294 4299.5,-288 4299.5,-282 4299.5,-282 4299.5,-270 4299.5,-270 4299.5,-264 4305.5,-258 4311.5,-258 4311.5,-258 4471.5,-258 4471.5,-258 4477.5,-258 4483.5,-264 4483.5,-270 4483.5,-270 4483.5,-282 4483.5,-282 4483.5,-288 4477.5,-294 4471.5,-294"/>
<text text-anchor="middle" x="4391.5" y="-273.5" font-family="Arial" font-size="10.00" fill="#111827">TasksUiState.snackbarMessageShown</text>
</g>
<!-- n41 -->
<g id="node42" class="node">
<title>n41</title>
<path fill="#f8fafc" stroke="#94a3b8" d="M4674.5,-294C4674.5,-294 4520.5,-294 4520.5,-294 4514.5,-294 4508.5,-288 4508.5,-282 4508.5,-282 4508.5,-270 4508.5,-270 4508.5,-264 4514.5,-258 4520.5,-258 4520.5,-258 4674.5,-258 4674.5,-258 4680.5,-258 4686.5,-264 4686.5,-270 4686.5,-270 4686.5,-282 4686.5,-282 4686.5,-288 4680.5,-294 4674.5,-294"/>
<text text-anchor="middle" x="4597.5" y="-273.5" font-family="Arial" font-size="10.00" fill="#111827">TaskRepository.clearCompletedTasks</text>
</g>
<!-- n42 -->
<g id="node43" class="node">
<title>n42</title>
<path fill="#f8fafc" stroke="#94a3b8" d="M4909,-294C4909,-294 4724,-294 4724,-294 4718,-294 4712,-288 4712,-282 4712,-282 4712,-270 4712,-270 4712,-264 4718,-258 4724,-258 4724,-258 4909,-258 4909,-258 4915,-258 4921,-264 4921,-270 4921,-270 4921,-282 4921,-282 4921,-288 4915,-294 4909,-294"/>
<text text-anchor="middle" x="4816.5" y="-273.5" font-family="Arial" font-size="10.00" fill="#111827">DefaultTaskRepository.clearCompletedTasks</text>
</g>
<!-- n43 -->
<g id="node44" class="node">
<title>n43</title>
<path fill="#f8fafc" stroke="#94a3b8" d="M5085,-294C5085,-294 4958,-294 4958,-294 4952,-294 4946,-288 4946,-282 4946,-282 4946,-270 4946,-270 4946,-264 4952,-258 4958,-258 4958,-258 5085,-258 5085,-258 5091,-258 5097,-264 5097,-270 5097,-270 5097,-282 5097,-282 5097,-288 5091,-294 5085,-294"/>
<text text-anchor="middle" x="5021.5" y="-273.5" font-family="Arial" font-size="10.00" fill="#111827">NetworkDataSource.saveTasks</text>
</g>
<!-- n44 -->
<g id="node45" class="node">
<title>n44</title>
<path fill="#f8fafc" stroke="#94a3b8" d="M5289,-294C5289,-294 5134,-294 5134,-294 5128,-294 5122,-288 5122,-282 5122,-282 5122,-270 5122,-270 5122,-264 5128,-258 5134,-258 5134,-258 5289,-258 5289,-258 5295,-258 5301,-264 5301,-270 5301,-270 5301,-282 5301,-282 5301,-288 5295,-294 5289,-294"/>
<text text-anchor="middle" x="5211.5" y="-273.5" font-family="Arial" font-size="10.00" fill="#111827">TasksUiState.showSnackbarMessage</text>
</g>
<!-- n45 -->
<g id="node46" class="node">
<title>n45</title>
<path fill="#f8fafc" stroke="#94a3b8" d="M5460.5,-294C5460.5,-294 5338.5,-294 5338.5,-294 5332.5,-294 5326.5,-288 5326.5,-282 5326.5,-282 5326.5,-270 5326.5,-270 5326.5,-264 5332.5,-258 5338.5,-258 5338.5,-258 5460.5,-258 5460.5,-258 5466.5,-258 5472.5,-264 5472.5,-270 5472.5,-270 5472.5,-282 5472.5,-282 5472.5,-288 5466.5,-294 5460.5,-294"/>
<text text-anchor="middle" x="5399.5" y="-273.5" font-family="Arial" font-size="10.00" fill="#111827">TodoScreens.navigateToTasks</text>
</g>
<!-- n46 -->
<g id="node47" class="node">
<title>n46</title>
<path fill="#f8fafc" stroke="#94a3b8" d="M5615.5,-294C5615.5,-294 5509.5,-294 5509.5,-294 5503.5,-294 5497.5,-288 5497.5,-282 5497.5,-282 5497.5,-270 5497.5,-270 5497.5,-264 5503.5,-258 5509.5,-258 5509.5,-258 5615.5,-258 5615.5,-258 5621.5,-258 5627.5,-264 5627.5,-270 5627.5,-270 5627.5,-282 5627.5,-282 5627.5,-288 5621.5,-294 5615.5,-294"/>
<text text-anchor="middle" x="5562.5" y="-273.5" font-family="Arial" font-size="10.00" fill="#111827">TodoListManager.getTasks</text>
</g>
<!-- n47 -->
<g id="node48" class="node">
<title>n47</title>
<path fill="#f8fafc" stroke="#94a3b8" d="M5802.5,-294C5802.5,-294 5664.5,-294 5664.5,-294 5658.5,-294 5652.5,-288 5652.5,-282 5652.5,-282 5652.5,-270 5652.5,-270 5652.5,-264 5658.5,-258 5664.5,-258 5664.5,-258 5802.5,-258 5802.5,-258 5808.5,-258 5814.5,-264 5814.5,-270 5814.5,-270 5814.5,-282 5814.5,-282 5814.5,-288 5808.5,-294 5802.5,-294"/>
<text text-anchor="middle" x="5733.5" y="-273.5" font-family="Arial" font-size="10.00" fill="#111827">DefaultTaskRepository.deleteTask</text>
</g>
<!-- n48 -->
<g id="node49" class="node">
<title>n48</title>
<path fill="#f8fafc" stroke="#94a3b8" d="M5967.5,-294C5967.5,-294 5851.5,-294 5851.5,-294 5845.5,-294 5839.5,-288 5839.5,-282 5839.5,-282 5839.5,-270 5839.5,-270 5839.5,-264 5845.5,-258 5851.5,-258 5851.5,-258 5967.5,-258 5967.5,-258 5973.5,-258 5979.5,-264 5979.5,-270 5979.5,-270 5979.5,-282 5979.5,-282 5979.5,-288 5973.5,-294 5967.5,-294"/>
<text text-anchor="middle" x="5909.5" y="-273.5" font-family="Arial" font-size="10.00" fill="#111827">TodoListManager.updateTask</text>
</g>
<!-- n49 -->
<g id="node50" class="node">
<title>n49</title>
<path fill="#f8fafc" stroke="#94a3b8" d="M6164.5,-294C6164.5,-294 6016.5,-294 6016.5,-294 6010.5,-294 6004.5,-288 6004.5,-282 6004.5,-282 6004.5,-270 6004.5,-270 6004.5,-264 6010.5,-258 6016.5,-258 6016.5,-258 6164.5,-258 6164.5,-258 6170.5,-258 6176.5,-264 6176.5,-270 6176.5,-270 6176.5,-282 6176.5,-282 6176.5,-288 6170.5,-294 6164.5,-294"/>
<text text-anchor="middle" x="6090.5" y="-273.5" font-family="Arial" font-size="10.00" fill="#111827">TaskNetworkDataSource.saveTasks</text>
</g>
<!-- n50 -->
<g id="node51" class="node">
<title>n50</title>
<path fill="#f8fafc" stroke="#94a3b8" d="M6295,-294C6295,-294 6214,-294 6214,-294 6208,-294 6202,-288 6202,-282 6202,-282 6202,-270 6202,-270 6202,-264 6208,-258 6214,-258 6214,-258 6295,-258 6295,-258 6301,-258 6307,-264 6307,-270 6307,-270 6307,-282 6307,-282 6307,-288 6301,-294 6295,-294"/>
<text text-anchor="middle" x="6254.5" y="-273.5" font-family="Arial" font-size="10.00" fill="#111827">TasksUiState.refresh</text>
</g>
<!-- n51 -->
<g id="node52" class="node">
<title>n51</title>
<path fill="#f8fafc" stroke="#94a3b8" d="M6469,-294C6469,-294 6344,-294 6344,-294 6338,-294 6332,-288 6332,-282 6332,-282 6332,-270 6332,-270 6332,-264 6338,-258 6344,-258 6344,-258 6469,-258 6469,-258 6475,-258 6481,-264 6481,-270 6481,-270 6481,-282 6481,-282 6481,-288 6475,-294 6469,-294"/>
<text text-anchor="middle" x="6406.5" y="-273.5" font-family="Arial" font-size="10.00" fill="#111827">DefaultTaskRepository.getTask</text>
</g>
<!-- n52 -->
<g id="node53" class="node">
<title>n52</title>
<path fill="#f8fafc" stroke="#94a3b8" d="M6643,-294C6643,-294 6518,-294 6518,-294 6512,-294 6506,-288 6506,-282 6506,-282 6506,-270 6506,-270 6506,-264 6512,-258 6518,-258 6518,-258 6643,-258 6643,-258 6649,-258 6655,-264 6655,-270 6655,-270 6655,-282 6655,-282 6655,-288 6649,-294 6643,-294"/>
<text text-anchor="middle" x="6580.5" y="-273.5" font-family="Arial" font-size="10.00" fill="#111827">TaskRepository.getTaskStream</text>
</g>
<!-- n53 -->
<g id="node54" class="node">
<title>n53</title>
<path fill="#f8fafc" stroke="#94a3b8" d="M6837,-294C6837,-294 6692,-294 6692,-294 6686,-294 6680,-288 6680,-282 6680,-282 6680,-270 6680,-270 6680,-264 6686,-258 6692,-258 6692,-258 6837,-258 6837,-258 6843,-258 6849,-264 6849,-270 6849,-270 6849,-282 6849,-282 6849,-288 6843,-294 6837,-294"/>
<text text-anchor="middle" x="6764.5" y="-273.5" font-family="Arial" font-size="10.00" fill="#111827">TasksUiState.clearCompletedTasks</text>
</g>
<!-- n54 -->
<g id="node55" class="node">
<title>n54</title>
<path fill="#f8fafc" stroke="#94a3b8" d="M6996.5,-294C6996.5,-294 6886.5,-294 6886.5,-294 6880.5,-294 6874.5,-288 6874.5,-282 6874.5,-282 6874.5,-270 6874.5,-270 6874.5,-264 6880.5,-258 6886.5,-258 6886.5,-258 6996.5,-258 6996.5,-258 7002.5,-258 7008.5,-264 7008.5,-270 7008.5,-270 7008.5,-282 7008.5,-282 7008.5,-288 7002.5,-294 6996.5,-294"/>
<text text-anchor="middle" x="6941.5" y="-273.5" font-family="Arial" font-size="10.00" fill="#111827">TodoRepository.getAllTasks</text>
</g>
<!-- n55 -->
<g id="node56" class="node">
<title>n55</title>
<path fill="#f8fafc" stroke="#94a3b8" d="M7199.5,-294C7199.5,-294 7045.5,-294 7045.5,-294 7039.5,-294 7033.5,-288 7033.5,-282 7033.5,-282 7033.5,-270 7033.5,-270 7033.5,-264 7039.5,-258 7045.5,-258 7045.5,-258 7199.5,-258 7199.5,-258 7205.5,-258 7211.5,-264 7211.5,-270 7211.5,-270 7211.5,-282 7211.5,-282 7211.5,-288 7205.5,-294 7199.5,-294"/>
<text text-anchor="middle" x="7122.5" y="-273.5" font-family="Arial" font-size="10.00" fill="#111827">DefaultTaskRepository.deleteAllTasks</text>
</g>
<!-- n56 -->
<g id="node57" class="node">
<title>n56</title>
<path fill="#f8fafc" stroke="#94a3b8" d="M7400,-294C7400,-294 7249,-294 7249,-294 7243,-294 7237,-288 7237,-282 7237,-282 7237,-270 7237,-270 7237,-264 7243,-258 7249,-258 7249,-258 7400,-258 7400,-258 7406,-258 7412,-264 7412,-270 7412,-270 7412,-282 7412,-282 7412,-288 7406,-294 7400,-294"/>
<text text-anchor="middle" x="7324.5" y="-273.5" font-family="Arial" font-size="10.00" fill="#111827">DefaultTaskRepository.completeTask</text>
</g>
<!-- n57 -->
<g id="node58" class="node">
<title>n57</title>
<path fill="#f8fafc" stroke="#94a3b8" d="M7595.5,-294C7595.5,-294 7449.5,-294 7449.5,-294 7443.5,-294 7437.5,-288 7437.5,-282 7437.5,-282 7437.5,-270 7437.5,-270 7437.5,-264 7443.5,-258 7449.5,-258 7449.5,-258 7595.5,-258 7595.5,-258 7601.5,-258 7607.5,-264 7607.5,-270 7607.5,-270 7607.5,-282 7607.5,-282 7607.5,-288 7601.5,-294 7595.5,-294"/>
<text text-anchor="middle" x="7522.5" y="-273.5" font-family="Arial" font-size="10.00" fill="#111827">DefaultTaskRepository.activateTask</text>
</g>
</g>
</svg>
