<?xml version="1.0" encoding="UTF-8" standalone="no"?>
<!DOCTYPE svg PUBLIC "-//W3C//DTD SVG 1.1//EN"
 "http://www.w3.org/Graphics/SVG/1.1/DTD/svg11.dtd">
<!-- Generated by graphviz version 2.42.4 (0)
 -->
<!-- Title: SourceGraph Pages: 1 -->
<svg width="8884pt" height="200pt"
 viewBox="0.00 0.00 8883.90 200.40" xmlns="http://www.w3.org/2000/svg" xmlns:xlink="http://www.w3.org/1999/xlink">
<g id="graph0" class="graph" transform="scale(1 1) rotate(0) translate(25.2 175.2)">
<title>SourceGraph</title>
<polygon fill="white" stroke="transparent" points="-25.2,25.2 -25.2,-175.2 8858.7,-175.2 8858.7,25.2 -25.2,25.2"/>
<text text-anchor="middle" x="4416.75" y="-131.6" font-family="Arial" font-size="18.00">图 14&#45;3 &#160;源码调用图：编辑、详情与统计模块</text>
<!-- n0 -->
<g id="node1" class="node">
<title>n0</title>
<path fill="#f8fafc" stroke="#94a3b8" d="M297,-122C297,-122 123,-122 123,-122 117,-122 111,-116 111,-110 111,-110 111,-98 111,-98 111,-92 117,-86 123,-86 123,-86 297,-86 297,-86 303,-86 309,-92 309,-98 309,-98 309,-110 309,-110 309,-116 303,-122 297,-122"/>
<text text-anchor="middle" x="210" y="-101.5" font-family="Arial" font-size="10.00" fill="#111827">AddEditTaskScreenKt.AddEditTaskScreen</text>
</g>
<!-- n1 -->
<g id="node2" class="node">
<title>n1</title>
<path fill="#f8fafc" stroke="#94a3b8" d="M190,-36C190,-36 12,-36 12,-36 6,-36 0,-30 0,-24 0,-24 0,-12 0,-12 0,-6 6,0 12,0 12,0 190,0 190,0 196,0 202,-6 202,-12 202,-12 202,-24 202,-24 202,-30 196,-36 190,-36"/>
<text text-anchor="middle" x="101" y="-15.5" font-family="Arial" font-size="10.00" fill="#111827">AddEditTaskScreenKt.AddEditTaskContent</text>
</g>
<!-- n0&#45;&gt;n1 -->
<g id="edge1" class="edge">
<title>n0&#45;&gt;n1</title>
<path fill="none" stroke="#94a3b8" d="M187.68,-85.8C170.63,-72.66 147.04,-54.48 128.78,-40.41"/>
<polygon fill="#94a3b8" stroke="#94a3b8" points="129.83,-38.34 123.29,-36.18 127.05,-41.95 129.83,-38.34"/>
</g>
<!-- n2 -->
<g id="node3" class="node">
<title>n2</title>
<path fill="#f8fafc" stroke="#94a3b8" d="M397,-36C397,-36 239,-36 239,-36 233,-36 227,-30 227,-24 227,-24 227,-12 227,-12 227,-6 233,0 239,0 239,0 397,0 397,0 403,0 409,-6 409,-12 409,-12 409,-24 409,-24 409,-30 403,-36 397,-36"/>
<text text-anchor="middle" x="318" y="-15.5" font-family="Arial" font-size="10.00" fill="#111827">TopAppBarsKt.AddEditTaskTopAppBar</text>
</g>
<!-- n0&#45;&gt;n2 -->
<g id="edge2" class="edge">
<title>n0&#45;&gt;n2</title>
<path fill="none" stroke="#94a3b8" d="M232.12,-85.8C249.01,-72.66 272.38,-54.48 290.48,-40.41"/>
<polygon fill="#94a3b8" stroke="#94a3b8" points="292.18,-41.96 295.91,-36.18 289.39,-38.37 292.18,-41.96"/>
</g>
<!-- n3 -->
<g id="node4" class="node">
<title>n3</title>
<path fill="#f8fafc" stroke="#94a3b8" d="M858,-122C858,-122 736,-122 736,-122 730,-122 724,-116 724,-110 724,-110 724,-98 724,-98 724,-92 730,-86 736,-86 736,-86 858,-86 858,-86 864,-86 870,-92 870,-98 870,-98 870,-110 870,-110 870,-116 864,-122 858,-122"/>
<text text-anchor="middle" x="797" y="-101.5" font-family="Arial" font-size="10.00" fill="#111827">AddEditTaskUiState.saveTask</text>
</g>
<!-- n4 -->
<g id="node5" class="node">
<title>n4</title>
<path fill="#f8fafc" stroke="#94a3b8" d="M594,-36C594,-36 446,-36 446,-36 440,-36 434,-30 434,-24 434,-24 434,-12 434,-12 434,-6 440,0 446,0 446,0 594,0 594,0 600,0 606,-6 606,-12 606,-12 606,-24 606,-24 606,-30 600,-36 594,-36"/>
<text text-anchor="middle" x="520" y="-15.5" font-family="Arial" font-size="10.00" fill="#111827">AddEditTaskUiState.createNewTask</text>
</g>
<!-- n3&#45;&gt;n4 -->
<g id="edge3" class="edge">
<title>n3&#45;&gt;n4</title>
<path fill="none" stroke="#94a3b8" d="M740.61,-85.9C694.74,-71.99 630.06,-52.38 582.6,-37.98"/>
<polygon fill="#94a3b8" stroke="#94a3b8" points="583.19,-35.79 576.31,-36.08 581.87,-40.14 583.19,-35.79"/>
</g>
<!-- n5 -->
<g id="node6" class="node">
<title>n5</title>
<path fill="#f8fafc" stroke="#94a3b8" d="M762.5,-36C762.5,-36 643.5,-36 643.5,-36 637.5,-36 631.5,-30 631.5,-24 631.5,-24 631.5,-12 631.5,-12 631.5,-6 637.5,0 643.5,0 643.5,0 762.5,0 762.5,0 768.5,0 774.5,-6 774.5,-12 774.5,-12 774.5,-24 774.5,-24 774.5,-30 768.5,-36 762.5,-36"/>
<text text-anchor="middle" x="703" y="-15.5" font-family="Arial" font-size="10.00" fill="#111827">AddEditTaskUiState.loadTask</text>
</g>
<!-- n3&#45;&gt;n5 -->
<g id="edge4" class="edge">
<title>n3&#45;&gt;n5</title>
<path fill="none" stroke="#94a3b8" d="M777.52,-85.6C762.93,-72.56 742.88,-54.64 727.25,-40.67"/>
<polygon fill="#94a3b8" stroke="#94a3b8" points="728.49,-38.73 722.13,-36.1 725.46,-42.12 728.49,-38.73"/>
</g>
<!-- n6 -->
<g id="node7" class="node">
<title>n6</title>
<path fill="#f8fafc" stroke="#94a3b8" d="M970.5,-36C970.5,-36 811.5,-36 811.5,-36 805.5,-36 799.5,-30 799.5,-24 799.5,-24 799.5,-12 799.5,-12 799.5,-6 805.5,0 811.5,0 811.5,0 970.5,0 970.5,0 976.5,0 982.5,-6 982.5,-12 982.5,-12 982.5,-24 982.5,-24 982.5,-30 976.5,-36 970.5,-36"/>
<text text-anchor="middle" x="891" y="-15.5" font-family="Arial" font-size="10.00" fill="#111827">AddEditTaskUiState.updateDescription</text>
</g>
<!-- n3&#45;&gt;n6 -->
<g id="edge5" class="edge">
<title>n3&#45;&gt;n6</title>
<path fill="none" stroke="#94a3b8" d="M816.48,-85.6C831.07,-72.56 851.12,-54.64 866.75,-40.67"/>
<polygon fill="#94a3b8" stroke="#94a3b8" points="868.54,-42.12 871.87,-36.1 865.51,-38.73 868.54,-42.12"/>
</g>
<!-- n7 -->
<g id="node8" class="node">
<title>n7</title>
<path fill="#f8fafc" stroke="#94a3b8" d="M1148,-36C1148,-36 1020,-36 1020,-36 1014,-36 1008,-30 1008,-24 1008,-24 1008,-12 1008,-12 1008,-6 1014,0 1020,0 1020,0 1148,0 1148,0 1154,0 1160,-6 1160,-12 1160,-12 1160,-24 1160,-24 1160,-30 1154,-36 1148,-36"/>
<text text-anchor="middle" x="1084" y="-15.5" font-family="Arial" font-size="10.00" fill="#111827">AddEditTaskUiState.updateTitle</text>
</g>
<!-- n3&#45;&gt;n7 -->
<g id="edge6" class="edge">
<title>n3&#45;&gt;n7</title>
<path fill="none" stroke="#94a3b8" d="M855.42,-85.9C902.95,-71.99 969.96,-52.38 1019.14,-37.98"/>
<polygon fill="#94a3b8" stroke="#94a3b8" points="1020.06,-40.09 1025.66,-36.08 1018.78,-35.72 1020.06,-40.09"/>
</g>
<!-- n8 -->
<g id="node9" class="node">
<title>n8</title>
<path fill="#f8fafc" stroke="#94a3b8" d="M1359.5,-122C1359.5,-122 1220.5,-122 1220.5,-122 1214.5,-122 1208.5,-116 1208.5,-110 1208.5,-110 1208.5,-98 1208.5,-98 1208.5,-92 1214.5,-86 1220.5,-86 1220.5,-86 1359.5,-86 1359.5,-86 1365.5,-86 1371.5,-92 1371.5,-98 1371.5,-98 1371.5,-110 1371.5,-110 1371.5,-116 1365.5,-122 1359.5,-122"/>
<text text-anchor="middle" x="1290" y="-101.5" font-family="Arial" font-size="10.00" fill="#111827">DefaultTaskRepository.createTask</text>
</g>
<!-- n9 -->
<g id="node10" class="node">
<title>n9</title>
<path fill="#f8fafc" stroke="#94a3b8" d="M1382.5,-36C1382.5,-36 1197.5,-36 1197.5,-36 1191.5,-36 1185.5,-30 1185.5,-24 1185.5,-24 1185.5,-12 1185.5,-12 1185.5,-6 1191.5,0 1197.5,0 1197.5,0 1382.5,0 1382.5,0 1388.5,0 1394.5,-6 1394.5,-12 1394.5,-12 1394.5,-24 1394.5,-24 1394.5,-30 1388.5,-36 1382.5,-36"/>
<text text-anchor="middle" x="1290" y="-15.5" font-family="Arial" font-size="10.00" fill="#111827">DefaultTaskRepository.saveTasksToNetwork</text>
</g>
<!-- n8&#45;&gt;n9 -->
<g id="edge7" class="edge">
<title>n8&#45;&gt;n9</title>
<path fill="none" stroke="#94a3b8" d="M1290,-85.6C1290,-73.24 1290,-56.49 1290,-42.88"/>
<polygon fill="#94a3b8" stroke="#94a3b8" points="1292.28,-42.6 1290,-36.1 1287.73,-42.6 1292.28,-42.6"/>
</g>
<!-- n10 -->
<g id="node11" class="node">
<title>n10</title>
<path fill="#f8fafc" stroke="#94a3b8" d="M1932.5,-122C1932.5,-122 1787.5,-122 1787.5,-122 1781.5,-122 1775.5,-116 1775.5,-110 1775.5,-110 1775.5,-98 1775.5,-98 1775.5,-92 1781.5,-86 1787.5,-86 1787.5,-86 1932.5,-86 1932.5,-86 1938.5,-86 1944.5,-92 1944.5,-98 1944.5,-98 1944.5,-110 1944.5,-110 1944.5,-116 1938.5,-122 1932.5,-122"/>
<text text-anchor="middle" x="1860" y="-101.5" font-family="Arial" font-size="10.00" fill="#111827">StatisticsScreenKt.StatisticsScreen</text>
</g>
<!-- n11 -->
<g id="node12" class="node">
<title>n11</title>
<path fill="#f8fafc" stroke="#94a3b8" d="M1580.5,-36C1580.5,-36 1431.5,-36 1431.5,-36 1425.5,-36 1419.5,-30 1419.5,-24 1419.5,-24 1419.5,-12 1419.5,-12 1419.5,-6 1425.5,0 1431.5,0 1431.5,0 1580.5,0 1580.5,0 1586.5,0 1592.5,-6 1592.5,-12 1592.5,-12 1592.5,-24 1592.5,-24 1592.5,-30 1586.5,-36 1580.5,-36"/>
<text text-anchor="middle" x="1506" y="-15.5" font-family="Arial" font-size="10.00" fill="#111827">StatisticsScreenKt.StatisticsContent</text>
</g>
<!-- n10&#45;&gt;n11 -->
<g id="edge8" class="edge">
<title>n10&#45;&gt;n11</title>
<path fill="none" stroke="#94a3b8" d="M1787.94,-85.9C1728.74,-71.85 1645.03,-51.99 1584.21,-37.56"/>
<polygon fill="#94a3b8" stroke="#94a3b8" points="1584.51,-35.29 1577.66,-36 1583.46,-39.72 1584.51,-35.29"/>
</g>
<!-- n12 -->
<g id="node13" class="node">
<title>n12</title>
<path fill="#f8fafc" stroke="#94a3b8" d="M1842.5,-36C1842.5,-36 1629.5,-36 1629.5,-36 1623.5,-36 1617.5,-30 1617.5,-24 1617.5,-24 1617.5,-12 1617.5,-12 1617.5,-6 1623.5,0 1629.5,0 1629.5,0 1842.5,0 1842.5,0 1848.5,0 1854.5,-6 1854.5,-12 1854.5,-12 1854.5,-24 1854.5,-24 1854.5,-30 1848.5,-36 1842.5,-36"/>
<text text-anchor="middle" x="1736" y="-15.5" font-family="Arial" font-size="10.00" fill="#111827">StatisticsScreenKt.StatisticsContentEmptyPreview</text>
</g>
<!-- n10&#45;&gt;n12 -->
<g id="edge9" class="edge">
<title>n10&#45;&gt;n12</title>
<path fill="none" stroke="#94a3b8" d="M1834.61,-85.8C1814.96,-72.49 1787.68,-54.01 1766.8,-39.86"/>
<polygon fill="#94a3b8" stroke="#94a3b8" points="1768.02,-37.94 1761.36,-36.18 1765.46,-41.71 1768.02,-37.94"/>
</g>
<!-- n13 -->
<g id="node14" class="node">
<title>n13</title>
<path fill="#f8fafc" stroke="#94a3b8" d="M2076,-36C2076,-36 1892,-36 1892,-36 1886,-36 1880,-30 1880,-24 1880,-24 1880,-12 1880,-12 1880,-6 1886,0 1892,0 1892,0 2076,0 2076,0 2082,0 2088,-6 2088,-12 2088,-12 2088,-24 2088,-24 2088,-30 2082,-36 2076,-36"/>
<text text-anchor="middle" x="1984" y="-15.5" font-family="Arial" font-size="10.00" fill="#111827">StatisticsScreenKt.StatisticsContentPreview</text>
</g>
<!-- n10&#45;&gt;n13 -->
<g id="edge10" class="edge">
<title>n10&#45;&gt;n13</title>
<path fill="none" stroke="#94a3b8" d="M1885.39,-85.8C1905.04,-72.49 1932.32,-54.01 1953.2,-39.86"/>
<polygon fill="#94a3b8" stroke="#94a3b8" points="1954.54,-41.71 1958.64,-36.18 1951.98,-37.94 1954.54,-41.71"/>
</g>
<!-- n14 -->
<g id="node15" class="node">
<title>n14</title>
<path fill="#f8fafc" stroke="#94a3b8" d="M2269,-36C2269,-36 2125,-36 2125,-36 2119,-36 2113,-30 2113,-24 2113,-24 2113,-12 2113,-12 2113,-6 2119,0 2125,0 2125,0 2269,0 2269,0 2275,0 2281,-6 2281,-12 2281,-12 2281,-24 2281,-24 2281,-30 2275,-36 2269,-36"/>
<text text-anchor="middle" x="2197" y="-15.5" font-family="Arial" font-size="10.00" fill="#111827">TopAppBarsKt.StatisticsTopAppBar</text>
</g>
<!-- n10&#45;&gt;n14 -->
<g id="edge11" class="edge">
<title>n10&#45;&gt;n14</title>
<path fill="none" stroke="#94a3b8" d="M1928.6,-85.9C1984.84,-71.88 2064.32,-52.07 2122.19,-37.65"/>
<polygon fill="#94a3b8" stroke="#94a3b8" points="2123.02,-39.78 2128.78,-36 2121.92,-35.37 2123.02,-39.78"/>
</g>
<!-- n15 -->
<g id="node16" class="node">
<title>n15</title>
<path fill="#f8fafc" stroke="#94a3b8" d="M2565,-122C2565,-122 2469,-122 2469,-122 2463,-122 2457,-116 2457,-110 2457,-110 2457,-98 2457,-98 2457,-92 2463,-86 2469,-86 2469,-86 2565,-86 2565,-86 2571,-86 2577,-92 2577,-98 2577,-98 2577,-110 2577,-110 2577,-116 2571,-122 2565,-122"/>
<text text-anchor="middle" x="2517" y="-101.5" font-family="Arial" font-size="10.00" fill="#111827">StatisticsUiState.refresh</text>
</g>
<!-- n16 -->
<g id="node17" class="node">
<title>n16</title>
<path fill="#f8fafc" stroke="#94a3b8" d="M2493.5,-36C2493.5,-36 2318.5,-36 2318.5,-36 2312.5,-36 2306.5,-30 2306.5,-24 2306.5,-24 2306.5,-12 2306.5,-12 2306.5,-6 2312.5,0 2318.5,0 2318.5,0 2493.5,0 2493.5,0 2499.5,0 2505.5,-6 2505.5,-12 2505.5,-12 2505.5,-24 2505.5,-24 2505.5,-30 2499.5,-36 2493.5,-36"/>
<text text-anchor="middle" x="2406" y="-15.5" font-family="Arial" font-size="10.00" fill="#111827">StatisticsUiState.produceStatisticsUiState</text>
</g>
<!-- n15&#45;&gt;n16 -->
<g id="edge12" class="edge">
<title>n15&#45;&gt;n16</title>
<path fill="none" stroke="#94a3b8" d="M2494.27,-85.8C2476.91,-72.66 2452.89,-54.48 2434.29,-40.41"/>
<polygon fill="#94a3b8" stroke="#94a3b8" points="2435.26,-38.29 2428.7,-36.18 2432.51,-41.91 2435.26,-38.29"/>
</g>
<!-- n17 -->
<g id="node18" class="node">
<title>n17</title>
<path fill="#f8fafc" stroke="#94a3b8" d="M2715,-36C2715,-36 2543,-36 2543,-36 2537,-36 2531,-30 2531,-24 2531,-24 2531,-12 2531,-12 2531,-6 2537,0 2543,0 2543,0 2715,0 2715,0 2721,0 2727,-6 2727,-12 2727,-12 2727,-24 2727,-24 2727,-30 2721,-36 2715,-36"/>
<text text-anchor="middle" x="2629" y="-15.5" font-family="Arial" font-size="10.00" fill="#111827">StatsResult.getActiveAndCompletedStats</text>
</g>
<!-- n15&#45;&gt;n17 -->
<g id="edge13" class="edge">
<title>n15&#45;&gt;n17</title>
<path fill="none" stroke="#94a3b8" d="M2539.94,-85.8C2557.45,-72.66 2581.69,-54.48 2600.46,-40.41"/>
<polygon fill="#94a3b8" stroke="#94a3b8" points="2602.26,-41.9 2606.1,-36.18 2599.53,-38.26 2602.26,-41.9"/>
</g>
<!-- n18 -->
<g id="node19" class="node">
<title>n18</title>
<path fill="#f8fafc" stroke="#94a3b8" d="M3400,-122C3400,-122 3244,-122 3244,-122 3238,-122 3232,-116 3232,-110 3232,-110 3232,-98 3232,-98 3232,-92 3238,-86 3244,-86 3244,-86 3400,-86 3400,-86 3406,-86 3412,-92 3412,-98 3412,-98 3412,-110 3412,-110 3412,-116 3406,-122 3400,-122"/>
<text text-anchor="middle" x="3322" y="-101.5" font-family="Arial" font-size="10.00" fill="#111827">TaskDetailScreenKt.TaskDetailScreen</text>
</g>
<!-- n19 -->
<g id="node20" class="node">
<title>n19</title>
<path fill="#f8fafc" stroke="#94a3b8" d="M2915.5,-36C2915.5,-36 2764.5,-36 2764.5,-36 2758.5,-36 2752.5,-30 2752.5,-24 2752.5,-24 2752.5,-12 2752.5,-12 2752.5,-6 2758.5,0 2764.5,0 2764.5,0 2915.5,0 2915.5,0 2921.5,0 2927.5,-6 2927.5,-12 2927.5,-12 2927.5,-24 2927.5,-24 2927.5,-30 2921.5,-36 2915.5,-36"/>
<text text-anchor="middle" x="2840" y="-15.5" font-family="Arial" font-size="10.00" fill="#111827">TaskDetailScreenKt.EditTaskContent</text>
</g>
<!-- n18&#45;&gt;n19 -->
<g id="edge14" class="edge">
<title>n18&#45;&gt;n19</title>
<path fill="none" stroke="#94a3b8" d="M3231.9,-87.3C3147.06,-72.51 3020.46,-50.45 2934.27,-35.43"/>
<polygon fill="#94a3b8" stroke="#94a3b8" points="2934.42,-33.14 2927.62,-34.27 2933.63,-37.63 2934.42,-33.14"/>
</g>
<!-- n20 -->
<g id="node21" class="node">
<title>n20</title>
<path fill="#f8fafc" stroke="#94a3b8" d="M3179.5,-36C3179.5,-36 2964.5,-36 2964.5,-36 2958.5,-36 2952.5,-30 2952.5,-24 2952.5,-24 2952.5,-12 2952.5,-12 2952.5,-6 2958.5,0 2964.5,0 2964.5,0 3179.5,0 3179.5,0 3185.5,0 3191.5,-6 3191.5,-12 3191.5,-12 3191.5,-24 3191.5,-24 3191.5,-30 3185.5,-36 3179.5,-36"/>
<text text-anchor="middle" x="3072" y="-15.5" font-family="Arial" font-size="10.00" fill="#111827">TaskDetailScreenKt.EditTaskContentEmptyPreview</text>
</g>
<!-- n18&#45;&gt;n20 -->
<g id="edge15" class="edge">
<title>n18&#45;&gt;n20</title>
<path fill="none" stroke="#94a3b8" d="M3271.11,-85.9C3229.88,-72.05 3171.81,-52.54 3129.02,-38.16"/>
<polygon fill="#94a3b8" stroke="#94a3b8" points="3129.71,-35.99 3122.82,-36.08 3128.26,-40.3 3129.71,-35.99"/>
</g>
<!-- n21 -->
<g id="node22" class="node">
<title>n21</title>
<path fill="#f8fafc" stroke="#94a3b8" d="M3415.5,-36C3415.5,-36 3228.5,-36 3228.5,-36 3222.5,-36 3216.5,-30 3216.5,-24 3216.5,-24 3216.5,-12 3216.5,-12 3216.5,-6 3222.5,0 3228.5,0 3228.5,0 3415.5,0 3415.5,0 3421.5,0 3427.5,-6 3427.5,-12 3427.5,-12 3427.5,-24 3427.5,-24 3427.5,-30 3421.5,-36 3415.5,-36"/>
<text text-anchor="middle" x="3322" y="-15.5" font-family="Arial" font-size="10.00" fill="#111827">TaskDetailScreenKt.EditTaskContentPreview</text>
</g>
<!-- n18&#45;&gt;n21 -->
<g id="edge16" class="edge">
<title>n18&#45;&gt;n21</title>
<path fill="none" stroke="#94a3b8" d="M3322,-85.6C3322,-73.24 3322,-56.49 3322,-42.88"/>
<polygon fill="#94a3b8" stroke="#94a3b8" points="3324.28,-42.6 3322,-36.1 3319.73,-42.6 3324.28,-42.6"/>
</g>
<!-- n22 -->
<g id="node23" class="node">
<title>n22</title>
<path fill="#f8fafc" stroke="#94a3b8" d="M3719.5,-36C3719.5,-36 3464.5,-36 3464.5,-36 3458.5,-36 3452.5,-30 3452.5,-24 3452.5,-24 3452.5,-12 3452.5,-12 3452.5,-6 3458.5,0 3464.5,0 3464.5,0 3719.5,0 3719.5,0 3725.5,0 3731.5,-6 3731.5,-12 3731.5,-12 3731.5,-24 3731.5,-24 3731.5,-30 3725.5,-36 3719.5,-36"/>
<text text-anchor="middle" x="3592" y="-15.5" font-family="Arial" font-size="10.00" fill="#111827">TaskDetailScreenKt.EditTaskContentTaskCompletedPreview</text>
</g>
<!-- n18&#45;&gt;n22 -->
<g id="edge17" class="edge">
<title>n18&#45;&gt;n22</title>
<path fill="none" stroke="#94a3b8" d="M3376.96,-85.9C3421.58,-72.02 3484.46,-52.46 3530.7,-38.07"/>
<polygon fill="#94a3b8" stroke="#94a3b8" points="3531.58,-40.18 3537.11,-36.08 3530.23,-35.83 3531.58,-40.18"/>
</g>
<!-- n23 -->
<g id="node24" class="node">
<title>n23</title>
<path fill="#f8fafc" stroke="#94a3b8" d="M3917.5,-36C3917.5,-36 3768.5,-36 3768.5,-36 3762.5,-36 3756.5,-30 3756.5,-24 3756.5,-24 3756.5,-12 3756.5,-12 3756.5,-6 3762.5,0 3768.5,0 3768.5,0 3917.5,0 3917.5,0 3923.5,0 3929.5,-6 3929.5,-12 3929.5,-12 3929.5,-24 3929.5,-24 3929.5,-30 3923.5,-36 3917.5,-36"/>
<text text-anchor="middle" x="3843" y="-15.5" font-family="Arial" font-size="10.00" fill="#111827">TopAppBarsKt.TaskDetailTopAppBar</text>
</g>
<!-- n18&#45;&gt;n23 -->
<g id="edge18" class="edge">
<title>n18&#45;&gt;n23</title>
<path fill="none" stroke="#94a3b8" d="M3412.19,-89.02C3497.67,-75.69 3629.64,-54.9 3744,-36 3745.9,-35.69 3747.81,-35.37 3749.74,-35.05"/>
<polygon fill="#94a3b8" stroke="#94a3b8" points="3750.32,-37.26 3756.35,-33.94 3749.57,-32.77 3750.32,-37.26"/>
</g>
<!-- n24 -->
<g id="node25" class="node">
<title>n24</title>
<path fill="#f8fafc" stroke="#94a3b8" d="M4174,-122C4174,-122 4056,-122 4056,-122 4050,-122 4044,-116 4044,-110 4044,-110 4044,-98 4044,-98 4044,-92 4050,-86 4056,-86 4056,-86 4174,-86 4174,-86 4180,-86 4186,-92 4186,-98 4186,-98 4186,-110 4186,-110 4186,-116 4180,-122 4174,-122"/>
<text text-anchor="middle" x="4115" y="-101.5" font-family="Arial" font-size="10.00" fill="#111827">TaskDetailUiState.deleteTask</text>
</g>
<!-- n25 -->
<g id="node26" class="node">
<title>n25</title>
<path fill="#f8fafc" stroke="#94a3b8" d="M4087.5,-36C4087.5,-36 3966.5,-36 3966.5,-36 3960.5,-36 3954.5,-30 3954.5,-24 3954.5,-24 3954.5,-12 3954.5,-12 3954.5,-6 3960.5,0 3966.5,0 3966.5,0 4087.5,0 4087.5,0 4093.5,0 4099.5,-6 4099.5,-12 4099.5,-12 4099.5,-24 4099.5,-24 4099.5,-30 4093.5,-36 4087.5,-36"/>
<text text-anchor="middle" x="4027" y="-15.5" font-family="Arial" font-size="10.00" fill="#111827">TaskDetailUiState.handleTask</text>
</g>
<!-- n24&#45;&gt;n25 -->
<g id="edge19" class="edge">
<title>n24&#45;&gt;n25</title>
<path fill="none" stroke="#94a3b8" d="M4096.77,-85.6C4083.11,-72.56 4064.33,-54.64 4049.7,-40.67"/>
<polygon fill="#94a3b8" stroke="#94a3b8" points="4051.18,-38.94 4044.91,-36.1 4048.04,-42.23 4051.18,-38.94"/>
</g>
<!-- n26 -->
<g id="node27" class="node">
<title>n26</title>
<path fill="#f8fafc" stroke="#94a3b8" d="M4269,-36C4269,-36 4137,-36 4137,-36 4131,-36 4125,-30 4125,-24 4125,-24 4125,-12 4125,-12 4125,-6 4131,0 4137,0 4137,0 4269,0 4269,0 4275,0 4281,-6 4281,-12 4281,-12 4281,-24 4281,-24 4281,-30 4275,-36 4269,-36"/>
<text text-anchor="middle" x="4203" y="-15.5" font-family="Arial" font-size="10.00" fill="#111827">TaskDetailUiState.setCompleted</text>
</g>
<!-- n24&#45;&gt;n26 -->
<g id="edge20" class="edge">
<title>n24&#45;&gt;n26</title>
<path fill="none" stroke="#94a3b8" d="M4133.23,-85.6C4146.89,-72.56 4165.67,-54.64 4180.3,-40.67"/>
<polygon fill="#94a3b8" stroke="#94a3b8" points="4181.96,-42.23 4185.09,-36.1 4178.82,-38.94 4181.96,-42.23"/>
</g>
<!-- n27 -->
<g id="node28" class="node">
<title>n27</title>
<path fill="#f8fafc" stroke="#94a3b8" d="M4380.5,-122C4380.5,-122 4223.5,-122 4223.5,-122 4217.5,-122 4211.5,-116 4211.5,-110 4211.5,-110 4211.5,-98 4211.5,-98 4211.5,-92 4217.5,-86 4223.5,-86 4223.5,-86 4380.5,-86 4380.5,-86 4386.5,-86 4392.5,-92 4392.5,-98 4392.5,-98 4392.5,-110 4392.5,-110 4392.5,-116 4386.5,-122 4380.5,-122"/>
<text text-anchor="middle" x="4302" y="-101.5" font-family="Arial" font-size="10.00" fill="#111827">DefaultTaskRepository.getTaskStream</text>
</g>
<!-- n28 -->
<g id="node29" class="node">
<title>n28</title>
<path fill="#f8fafc" stroke="#94a3b8" d="M4560,-122C4560,-122 4430,-122 4430,-122 4424,-122 4418,-116 4418,-110 4418,-110 4418,-98 4418,-98 4418,-92 4424,-86 4430,-86 4430,-86 4560,-86 4560,-86 4566,-86 4572,-92 4572,-98 4572,-98 4572,-110 4572,-110 4572,-116 4566,-122 4560,-122"/>
<text text-anchor="middle" x="4495" y="-101.5" font-family="Arial" font-size="10.00" fill="#111827">AddEditTaskUiState.updateTask</text>
</g>
<!-- n29 -->
<g id="node30" class="node">
<title>n29</title>
<path fill="#f8fafc" stroke="#94a3b8" d="M4751,-122C4751,-122 4609,-122 4609,-122 4603,-122 4597,-116 4597,-110 4597,-110 4597,-98 4597,-98 4597,-92 4603,-86 4609,-86 4609,-86 4751,-86 4751,-86 4757,-86 4763,-92 4763,-98 4763,-98 4763,-110 4763,-110 4763,-116 4757,-122 4751,-122"/>
<text text-anchor="middle" x="4680" y="-101.5" font-family="Arial" font-size="10.00" fill="#111827">DefaultTaskRepository.refreshTask</text>
</g>
<!-- n30 -->
<g id="node31" class="node">
<title>n30</title>
<path fill="#f8fafc" stroke="#94a3b8" d="M4901.5,-122C4901.5,-122 4800.5,-122 4800.5,-122 4794.5,-122 4788.5,-116 4788.5,-110 4788.5,-110 4788.5,-98 4788.5,-98 4788.5,-92 4794.5,-86 4800.5,-86 4800.5,-86 4901.5,-86 4901.5,-86 4907.5,-86 4913.5,-92 4913.5,-98 4913.5,-98 4913.5,-110 4913.5,-110 4913.5,-116 4907.5,-122 4901.5,-122"/>
<text text-anchor="middle" x="4851" y="-101.5" font-family="Arial" font-size="10.00" fill="#111827">TaskDetailUiState.refresh</text>
</g>
<!-- n31 -->
<g id="node32" class="node">
<title>n31</title>
<path fill="#f8fafc" stroke="#94a3b8" d="M5131.5,-122C5131.5,-122 4950.5,-122 4950.5,-122 4944.5,-122 4938.5,-116 4938.5,-110 4938.5,-110 4938.5,-98 4938.5,-98 4938.5,-92 4944.5,-86 4950.5,-86 4950.5,-86 5131.5,-86 5131.5,-86 5137.5,-86 5143.5,-92 5143.5,-98 5143.5,-98 5143.5,-110 5143.5,-110 5143.5,-116 5137.5,-122 5131.5,-122"/>
<text text-anchor="middle" x="5041" y="-101.5" font-family="Arial" font-size="10.00" fill="#111827">TaskDetailUiState.snackbarMessageShown</text>
</g>
<!-- n32 -->
<g id="node33" class="node">
<title>n32</title>
<path fill="#f8fafc" stroke="#94a3b8" d="M5301.5,-122C5301.5,-122 5180.5,-122 5180.5,-122 5174.5,-122 5168.5,-116 5168.5,-110 5168.5,-110 5168.5,-98 5168.5,-98 5168.5,-92 5174.5,-86 5180.5,-86 5180.5,-86 5301.5,-86 5301.5,-86 5307.5,-86 5313.5,-92 5313.5,-98 5313.5,-98 5313.5,-110 5313.5,-110 5313.5,-116 5307.5,-122 5301.5,-122"/>
<text text-anchor="middle" x="5241" y="-101.5" font-family="Arial" font-size="10.00" fill="#111827">DefaultTaskRepository.refresh</text>
</g>
<!-- n33 -->
<g id="node34" class="node">
<title>n33</title>
<path fill="#f8fafc" stroke="#94a3b8" d="M5481,-122C5481,-122 5351,-122 5351,-122 5345,-122 5339,-116 5339,-110 5339,-110 5339,-98 5339,-98 5339,-92 5345,-86 5351,-86 5351,-86 5481,-86 5481,-86 5487,-86 5493,-92 5493,-98 5493,-98 5493,-110 5493,-110 5493,-116 5487,-122 5481,-122"/>
<text text-anchor="middle" x="5416" y="-101.5" font-family="Arial" font-size="10.00" fill="#111827">DefaultTaskRepository.getTasks</text>
</g>
<!-- n34 -->
<g id="node35" class="node">
<title>n34</title>
<path fill="#f8fafc" stroke="#94a3b8" d="M5692,-122C5692,-122 5530,-122 5530,-122 5524,-122 5518,-116 5518,-110 5518,-110 5518,-98 5518,-98 5518,-92 5524,-86 5530,-86 5530,-86 5692,-86 5692,-86 5698,-86 5704,-92 5704,-98 5704,-98 5704,-110 5704,-110 5704,-116 5698,-122 5692,-122"/>
<text text-anchor="middle" x="5611" y="-101.5" font-family="Arial" font-size="10.00" fill="#111827">DefaultTaskRepository.getTasksStream</text>
</g>
<!-- n35 -->
<g id="node36" class="node">
<title>n35</title>
<path fill="#f8fafc" stroke="#94a3b8" d="M5882.5,-122C5882.5,-122 5741.5,-122 5741.5,-122 5735.5,-122 5729.5,-116 5729.5,-110 5729.5,-110 5729.5,-98 5729.5,-98 5729.5,-92 5735.5,-86 5741.5,-86 5741.5,-86 5882.5,-86 5882.5,-86 5888.5,-86 5894.5,-92 5894.5,-98 5894.5,-98 5894.5,-110 5894.5,-110 5894.5,-116 5888.5,-122 5882.5,-122"/>
<text text-anchor="middle" x="5812" y="-101.5" font-family="Arial" font-size="10.00" fill="#111827">DefaultTaskRepository.updateTask</text>
</g>
<!-- n36 -->
<g id="node37" class="node">
<title>n36</title>
<path fill="#f8fafc" stroke="#94a3b8" d="M6110.5,-122C6110.5,-122 5931.5,-122 5931.5,-122 5925.5,-122 5919.5,-116 5919.5,-110 5919.5,-110 5919.5,-98 5919.5,-98 5919.5,-92 5925.5,-86 5931.5,-86 5931.5,-86 6110.5,-86 6110.5,-86 6116.5,-86 6122.5,-92 6122.5,-98 6122.5,-98 6122.5,-110 6122.5,-110 6122.5,-116 6116.5,-122 6110.5,-122"/>
<text text-anchor="middle" x="6021" y="-101.5" font-family="Arial" font-size="10.00" fill="#111827">TopAppBarsKt.StatisticsTopAppBarPreview</text>
</g>
<!-- n37 -->
<g id="node38" class="node">
<title>n37</title>
<path fill="#f8fafc" stroke="#94a3b8" d="M6344.5,-122C6344.5,-122 6159.5,-122 6159.5,-122 6153.5,-122 6147.5,-116 6147.5,-110 6147.5,-110 6147.5,-98 6147.5,-98 6147.5,-92 6153.5,-86 6159.5,-86 6159.5,-86 6344.5,-86 6344.5,-86 6350.5,-86 6356.5,-92 6356.5,-98 6356.5,-98 6356.5,-110 6356.5,-110 6356.5,-116 6350.5,-122 6344.5,-122"/>
<text text-anchor="middle" x="6252" y="-101.5" font-family="Arial" font-size="10.00" fill="#111827">DefaultTaskRepository.clearCompletedTasks</text>
</g>
<!-- n38 -->
<g id="node39" class="node">
<title>n38</title>
<path fill="#f8fafc" stroke="#94a3b8" d="M6532,-122C6532,-122 6394,-122 6394,-122 6388,-122 6382,-116 6382,-110 6382,-110 6382,-98 6382,-98 6382,-92 6388,-86 6394,-86 6394,-86 6532,-86 6532,-86 6538,-86 6544,-92 6544,-98 6544,-98 6544,-110 6544,-110 6544,-116 6538,-122 6532,-122"/>
<text text-anchor="middle" x="6463" y="-101.5" font-family="Arial" font-size="10.00" fill="#111827">DefaultTaskRepository.deleteTask</text>
</g>
<!-- n39 -->
<g id="node40" class="node">
<title>n39</title>
<path fill="#f8fafc" stroke="#94a3b8" d="M6718.5,-122C6718.5,-122 6581.5,-122 6581.5,-122 6575.5,-122 6569.5,-116 6569.5,-110 6569.5,-110 6569.5,-98 6569.5,-98 6569.5,-92 6575.5,-86 6581.5,-86 6581.5,-86 6718.5,-86 6718.5,-86 6724.5,-86 6730.5,-92 6730.5,-98 6730.5,-98 6730.5,-110 6730.5,-110 6730.5,-116 6724.5,-122 6718.5,-122"/>
<text text-anchor="middle" x="6650" y="-101.5" font-family="Arial" font-size="10.00" fill="#111827">TodoScreens.navigateToStatistics</text>
</g>
<!-- n40 -->
<g id="node41" class="node">
<title>n40</title>
<path fill="#f8fafc" stroke="#94a3b8" d="M6910,-122C6910,-122 6768,-122 6768,-122 6762,-122 6756,-116 6756,-110 6756,-110 6756,-98 6756,-98 6756,-92 6762,-86 6768,-86 6768,-86 6910,-86 6910,-86 6916,-86 6922,-92 6922,-98 6922,-98 6922,-110 6922,-110 6922,-116 6916,-122 6910,-122"/>
<text text-anchor="middle" x="6839" y="-101.5" font-family="Arial" font-size="10.00" fill="#111827">TodoScreens.navigateToTaskDetail</text>
</g>
<!-- n41 -->
<g id="node42" class="node">
<title>n41</title>
<path fill="#f8fafc" stroke="#94a3b8" d="M7084.5,-122C7084.5,-122 6959.5,-122 6959.5,-122 6953.5,-122 6947.5,-116 6947.5,-110 6947.5,-110 6947.5,-98 6947.5,-98 6947.5,-92 6953.5,-86 6959.5,-86 6959.5,-86 7084.5,-86 7084.5,-86 7090.5,-86 7096.5,-92 7096.5,-98 7096.5,-98 7096.5,-110 7096.5,-110 7096.5,-116 7090.5,-122 7084.5,-122"/>
<text text-anchor="middle" x="7022" y="-101.5" font-family="Arial" font-size="10.00" fill="#111827">DefaultTaskRepository.getTask</text>
</g>
<!-- n42 -->
<g id="node43" class="node">
<title>n42</title>
<path fill="#f8fafc" stroke="#94a3b8" d="M7287,-122C7287,-122 7133,-122 7133,-122 7127,-122 7121,-116 7121,-110 7121,-110 7121,-98 7121,-98 7121,-92 7127,-86 7133,-86 7133,-86 7287,-86 7287,-86 7293,-86 7299,-92 7299,-98 7299,-98 7299,-110 7299,-110 7299,-116 7293,-122 7287,-122"/>
<text text-anchor="middle" x="7210" y="-101.5" font-family="Arial" font-size="10.00" fill="#111827">DefaultTaskRepository.deleteAllTasks</text>
</g>
<!-- n43 -->
<g id="node44" class="node">
<title>n43</title>
<path fill="#f8fafc" stroke="#94a3b8" d="M7529.5,-122C7529.5,-122 7336.5,-122 7336.5,-122 7330.5,-122 7324.5,-116 7324.5,-110 7324.5,-110 7324.5,-98 7324.5,-98 7324.5,-92 7330.5,-86 7336.5,-86 7336.5,-86 7529.5,-86 7529.5,-86 7535.5,-86 7541.5,-92 7541.5,-98 7541.5,-98 7541.5,-110 7541.5,-110 7541.5,-116 7535.5,-122 7529.5,-122"/>
<text text-anchor="middle" x="7433" y="-101.5" font-family="Arial" font-size="10.00" fill="#111827">TopAppBarsKt.AddEditTaskTopAppBarPreview</text>
</g>
<!-- n44 -->
<g id="node45" class="node">
<title>n44</title>
<path fill="#f8fafc" stroke="#94a3b8" d="M7729.5,-122C7729.5,-122 7578.5,-122 7578.5,-122 7572.5,-122 7566.5,-116 7566.5,-110 7566.5,-110 7566.5,-98 7566.5,-98 7566.5,-92 7572.5,-86 7578.5,-86 7578.5,-86 7729.5,-86 7729.5,-86 7735.5,-86 7741.5,-92 7741.5,-98 7741.5,-98 7741.5,-110 7741.5,-110 7741.5,-116 7735.5,-122 7729.5,-122"/>
<text text-anchor="middle" x="7654" y="-101.5" font-family="Arial" font-size="10.00" fill="#111827">TodoScreens.navigateToAddEditTask</text>
</g>
<!-- n45 -->
<g id="node46" class="node">
<title>n45</title>
<path fill="#f8fafc" stroke="#94a3b8" d="M7929.5,-122C7929.5,-122 7778.5,-122 7778.5,-122 7772.5,-122 7766.5,-116 7766.5,-110 7766.5,-110 7766.5,-98 7766.5,-98 7766.5,-92 7772.5,-86 7778.5,-86 7778.5,-86 7929.5,-86 7929.5,-86 7935.5,-86 7941.5,-92 7941.5,-98 7941.5,-98 7941.5,-110 7941.5,-110 7941.5,-116 7935.5,-122 7929.5,-122"/>
<text text-anchor="middle" x="7854" y="-101.5" font-family="Arial" font-size="10.00" fill="#111827">DefaultTaskRepository.completeTask</text>
</g>
<!-- n46 -->
<g id="node47" class="node">
<title>n46</title>
<path fill="#f8fafc" stroke="#94a3b8" d="M8163,-122C8163,-122 7979,-122 7979,-122 7973,-122 7967,-116 7967,-110 7967,-110 7967,-98 7967,-98 7967,-92 7973,-86 7979,-86 7979,-86 8163,-86 8163,-86 8169,-86 8175,-92 8175,-98 8175,-98 8175,-110 8175,-110 8175,-116 8169,-122 8163,-122"/>
<text text-anchor="middle" x="8071" y="-101.5" font-family="Arial" font-size="10.00" fill="#111827">TopAppBarsKt.TaskDetailTopAppBarPreview</text>
</g>
<!-- n47 -->
<g id="node48" class="node">
<title>n47</title>
<path fill="#f8fafc" stroke="#94a3b8" d="M8402,-122C8402,-122 8212,-122 8212,-122 8206,-122 8200,-116 8200,-110 8200,-110 8200,-98 8200,-98 8200,-92 8206,-86 8212,-86 8212,-86 8402,-86 8402,-86 8408,-86 8414,-92 8414,-98 8414,-98 8414,-110 8414,-110 8414,-116 8408,-122 8402,-122"/>
<text text-anchor="middle" x="8307" y="-101.5" font-family="Arial" font-size="10.00" fill="#111827">AddEditTaskUiState.snackbarMessageShown</text>
</g>
<!-- n48 -->
<g id="node49" class="node">
<title>n48</title>
<path fill="#f8fafc" stroke="#94a3b8" d="M8597,-122C8597,-122 8451,-122 8451,-122 8445,-122 8439,-116 8439,-110 8439,-110 8439,-98 8439,-98 8439,-92 8445,-86 8451,-86 8451,-86 8597,-86 8597,-86 8603,-86 8609,-92 8609,-98 8609,-98 8609,-110 8609,-110 8609,-116 8603,-122 8597,-122"/>
<text text-anchor="middle" x="8524" y="-101.5" font-family="Arial" font-size="10.00" fill="#111827">DefaultTaskRepository.activateTask</text>
</g>
<!-- n49 -->
<g id="node50" class="node">
<title>n49</title>
<path fill="#f8fafc" stroke="#94a3b8" d="M8821.5,-122C8821.5,-122 8646.5,-122 8646.5,-122 8640.5,-122 8634.5,-116 8634.5,-110 8634.5,-110 8634.5,-98 8634.5,-98 8634.5,-92 8640.5,-86 8646.5,-86 8646.5,-86 8821.5,-86 8821.5,-86 8827.5,-86 8833.5,-92 8833.5,-98 8833.5,-98 8833.5,-110 8833.5,-110 8833.5,-116 8827.5,-122 8821.5,-122"/>
<text text-anchor="middle" x="8734" y="-101.5" font-family="Arial" font-size="10.00" fill="#111827">TaskDetailUiState.showSnackbarMessage</text>
</g>
</g>
</svg>
