<?xml version="1.0" encoding="UTF-8" standalone="no"?>
<!DOCTYPE svg PUBLIC "-//W3C//DTD SVG 1.1//EN"
 "http://www.w3.org/Graphics/SVG/1.1/DTD/svg11.dtd">
<!-- Generated by graphviz version 2.42.4 (0)
 -->
<!-- Title: G Pages: 1 -->
<svg width="504pt" height="32pt"
 viewBox="0.00 0.00 504.00 32.13" xmlns="http://www.w3.org/2000/svg" xmlns:xlink="http://www.w3.org/1999/xlink">
<g id="graph0" class="graph" transform="scale(0.19 0.19) rotate(0) translate(18 150)">
<title>G</title>
<polygon fill="white" stroke="transparent" points="-18,18 -18,-150 2617.5,-150 2617.5,18 -18,18"/>
<text text-anchor="middle" x="1299.75" y="-113.6" font-family="Arial" font-size="18.00">图 14&#45;3 &#160;源码调用图：编辑、详情与统计模块</text>
<!-- n0 -->
<g id="node1" class="node">
<title>n0</title>
<path fill="#f8fafc" stroke="#94a3b8" d="M416.5,-104C416.5,-104 293.5,-104 293.5,-104 287.5,-104 281.5,-98 281.5,-92 281.5,-92 281.5,-80 281.5,-80 281.5,-74 287.5,-68 293.5,-68 293.5,-68 416.5,-68 416.5,-68 422.5,-68 428.5,-74 428.5,-80 428.5,-80 428.5,-92 428.5,-92 428.5,-98 422.5,-104 416.5,-104"/>
<text text-anchor="middle" x="355" y="-83.5" font-family="Arial" font-size="10.00" fill="#111827">AddEditTaskUiState\nsaveTask</text>
</g>
<!-- n1 -->
<g id="node2" class="node">
<title>n1</title>
<path fill="#f8fafc" stroke="#94a3b8" d="M172,-36C172,-36 12,-36 12,-36 6,-36 0,-30 0,-24 0,-24 0,-12 0,-12 0,-6 6,0 12,0 12,0 172,0 172,0 178,0 184,-6 184,-12 184,-12 184,-24 184,-24 184,-30 178,-36 172,-36"/>
<text text-anchor="middle" x="92" y="-15.5" font-family="Arial" font-size="10.00" fill="#111827">AddEditTaskUiState\nupdateDescription</text>
</g>
<!-- n0&#45;&gt;n1 -->
<g id="edge3" class="edge">
<title>n0&#45;&gt;n1</title>
<path fill="none" stroke="#94a3b8" stroke-width="0.9" d="M286.93,-67.92C249.65,-58.56 203.42,-46.96 165.34,-37.41"/>
<polygon fill="#94a3b8" stroke="#94a3b8" stroke-width="0.9" points="165.59,-35.48 159.79,-36.01 164.65,-39.22 165.59,-35.48"/>
</g>
<!-- n9 -->
<g id="node10" class="node">
<title>n9</title>
<path fill="#f8fafc" stroke="#94a3b8" d="M329,-36C329,-36 209,-36 209,-36 203,-36 197,-30 197,-24 197,-24 197,-12 197,-12 197,-6 203,0 209,0 209,0 329,0 329,0 335,0 341,-6 341,-12 341,-12 341,-24 341,-24 341,-30 335,-36 329,-36"/>
<text text-anchor="middle" x="269" y="-15.5" font-family="Arial" font-size="10.00" fill="#111827">AddEditTaskUiState\nloadTask</text>
</g>
<!-- n0&#45;&gt;n9 -->
<g id="edge2" class="edge">
<title>n0&#45;&gt;n9</title>
<path fill="none" stroke="#94a3b8" stroke-width="0.9" d="M332.4,-67.66C321.25,-59.1 307.7,-48.7 296,-39.72"/>
<polygon fill="#94a3b8" stroke="#94a3b8" stroke-width="0.9" points="296.98,-38.05 291.44,-36.22 294.64,-41.1 296.98,-38.05"/>
</g>
<!-- n10 -->
<g id="node11" class="node">
<title>n10</title>
<path fill="#f8fafc" stroke="#94a3b8" d="M516,-36C516,-36 366,-36 366,-36 360,-36 354,-30 354,-24 354,-24 354,-12 354,-12 354,-6 360,0 366,0 366,0 516,0 516,0 522,0 528,-6 528,-12 528,-12 528,-24 528,-24 528,-30 522,-36 516,-36"/>
<text text-anchor="middle" x="441" y="-15.5" font-family="Arial" font-size="10.00" fill="#111827">AddEditTaskUiState\ncreateNewTask</text>
</g>
<!-- n0&#45;&gt;n10 -->
<g id="edge1" class="edge">
<title>n0&#45;&gt;n10</title>
<path fill="none" stroke="#94a3b8" stroke-width="0.9" d="M377.6,-67.66C388.75,-59.1 402.3,-48.7 414,-39.72"/>
<polygon fill="#94a3b8" stroke="#94a3b8" stroke-width="0.9" points="415.36,-41.1 418.56,-36.22 413.02,-38.05 415.36,-41.1"/>
</g>
<!-- n12 -->
<g id="node13" class="node">
<title>n12</title>
<path fill="#f8fafc" stroke="#94a3b8" d="M682.5,-36C682.5,-36 553.5,-36 553.5,-36 547.5,-36 541.5,-30 541.5,-24 541.5,-24 541.5,-12 541.5,-12 541.5,-6 547.5,0 553.5,0 553.5,0 682.5,0 682.5,0 688.5,0 694.5,-6 694.5,-12 694.5,-12 694.5,-24 694.5,-24 694.5,-30 688.5,-36 682.5,-36"/>
<text text-anchor="middle" x="618" y="-15.5" font-family="Arial" font-size="10.00" fill="#111827">AddEditTaskUiState\nupdateTitle</text>
</g>
<!-- n0&#45;&gt;n12 -->
<g id="edge4" class="edge">
<title>n0&#45;&gt;n12</title>
<path fill="none" stroke="#94a3b8" stroke-width="0.9" d="M423.07,-67.92C460.35,-58.56 506.58,-46.96 544.66,-37.41"/>
<polygon fill="#94a3b8" stroke="#94a3b8" stroke-width="0.9" points="545.35,-39.22 550.21,-36.01 544.41,-35.48 545.35,-39.22"/>
</g>
<!-- n2 -->
<g id="node3" class="node">
<title>n2</title>
<path fill="#f8fafc" stroke="#94a3b8" d="M883.5,-104C883.5,-104 742.5,-104 742.5,-104 736.5,-104 730.5,-98 730.5,-92 730.5,-92 730.5,-80 730.5,-80 730.5,-74 736.5,-68 742.5,-68 742.5,-68 883.5,-68 883.5,-68 889.5,-68 895.5,-74 895.5,-80 895.5,-80 895.5,-92 895.5,-92 895.5,-98 889.5,-104 883.5,-104"/>
<text text-anchor="middle" x="813" y="-83.5" font-family="Arial" font-size="10.00" fill="#111827">DefaultTaskRepository\ncreateTask</text>
</g>
<!-- n15 -->
<g id="node16" class="node">
<title>n15</title>
<path fill="#f8fafc" stroke="#94a3b8" d="M906.5,-36C906.5,-36 719.5,-36 719.5,-36 713.5,-36 707.5,-30 707.5,-24 707.5,-24 707.5,-12 707.5,-12 707.5,-6 713.5,0 719.5,0 719.5,0 906.5,0 906.5,0 912.5,0 918.5,-6 918.5,-12 918.5,-12 918.5,-24 918.5,-24 918.5,-30 912.5,-36 906.5,-36"/>
<text text-anchor="middle" x="813" y="-15.5" font-family="Arial" font-size="10.00" fill="#111827">DefaultTaskRepository\nsaveTasksToNetwork</text>
</g>
<!-- n2&#45;&gt;n15 -->
<g id="edge5" class="edge">
<title>n2&#45;&gt;n15</title>
<path fill="none" stroke="#94a3b8" stroke-width="0.9" d="M813,-67.66C813,-59.84 813,-50.49 813,-42.09"/>
<polygon fill="#94a3b8" stroke="#94a3b8" stroke-width="0.9" points="814.93,-41.95 813,-36.45 811.08,-41.95 814.93,-41.95"/>
</g>
<!-- n3 -->
<g id="node4" class="node">
<title>n3</title>
<path fill="#f8fafc" stroke="#94a3b8" d="M1120,-36C1120,-36 944,-36 944,-36 938,-36 932,-30 932,-24 932,-24 932,-12 932,-12 932,-6 938,0 944,0 944,0 1120,0 1120,0 1126,0 1132,-6 1132,-12 1132,-12 1132,-24 1132,-24 1132,-30 1126,-36 1120,-36"/>
<text text-anchor="middle" x="1032" y="-15.5" font-family="Arial" font-size="10.00" fill="#111827">StatisticsUiState\nproduceStatisticsUiState</text>
</g>
<!-- n4 -->
<g id="node5" class="node">
<title>n4</title>
<path fill="#f8fafc" stroke="#94a3b8" d="M1384,-104C1384,-104 1264,-104 1264,-104 1258,-104 1252,-98 1252,-92 1252,-92 1252,-80 1252,-80 1252,-74 1258,-68 1264,-68 1264,-68 1384,-68 1384,-68 1390,-68 1396,-74 1396,-80 1396,-80 1396,-92 1396,-92 1396,-98 1390,-104 1384,-104"/>
<text text-anchor="middle" x="1324" y="-83.5" font-family="Arial" font-size="10.00" fill="#111827">TaskDetailUiState\ndeleteTask</text>
</g>
<!-- n5 -->
<g id="node6" class="node">
<title>n5</title>
<path fill="#f8fafc" stroke="#94a3b8" d="M1527.5,-36C1527.5,-36 1368.5,-36 1368.5,-36 1362.5,-36 1356.5,-30 1356.5,-24 1356.5,-24 1356.5,-12 1356.5,-12 1356.5,-6 1362.5,0 1368.5,0 1368.5,0 1527.5,0 1527.5,0 1533.5,0 1539.5,-6 1539.5,-12 1539.5,-12 1539.5,-24 1539.5,-24 1539.5,-30 1533.5,-36 1527.5,-36"/>
<text text-anchor="middle" x="1448" y="-15.5" font-family="Arial" font-size="10.00" fill="#111827">TopAppBarsKt\nAddEditTaskTopAppBar</text>
</g>
<!-- n6 -->
<g id="node7" class="node">
<title>n6</title>
<path fill="#f8fafc" stroke="#94a3b8" d="M1101.5,-104C1101.5,-104 1004.5,-104 1004.5,-104 998.5,-104 992.5,-98 992.5,-92 992.5,-92 992.5,-80 992.5,-80 992.5,-74 998.5,-68 1004.5,-68 1004.5,-68 1101.5,-68 1101.5,-68 1107.5,-68 1113.5,-74 1113.5,-80 1113.5,-80 1113.5,-92 1113.5,-92 1113.5,-98 1107.5,-104 1101.5,-104"/>
<text text-anchor="middle" x="1053" y="-83.5" font-family="Arial" font-size="10.00" fill="#111827">StatisticsUiState\nrefresh</text>
</g>
<!-- n6&#45;&gt;n3 -->
<g id="edge6" class="edge">
<title>n6&#45;&gt;n3</title>
<path fill="none" stroke="#94a3b8" stroke-width="0.9" d="M1047.48,-67.66C1044.99,-59.84 1042.02,-50.49 1039.35,-42.09"/>
<polygon fill="#94a3b8" stroke="#94a3b8" stroke-width="0.9" points="1041.06,-41.11 1037.55,-36.45 1037.39,-42.28 1041.06,-41.11"/>
</g>
<!-- n19 -->
<g id="node20" class="node">
<title>n19</title>
<path fill="#f8fafc" stroke="#94a3b8" d="M1331,-36C1331,-36 1157,-36 1157,-36 1151,-36 1145,-30 1145,-24 1145,-24 1145,-12 1145,-12 1145,-6 1151,0 1157,0 1157,0 1331,0 1331,0 1337,0 1343,-6 1343,-12 1343,-12 1343,-24 1343,-24 1343,-30 1337,-36 1331,-36"/>
<text text-anchor="middle" x="1244" y="-15.5" font-family="Arial" font-size="10.00" fill="#111827">StatsResult\ngetActiveAndCompletedStats</text>
</g>
<!-- n6&#45;&gt;n19 -->
<g id="edge7" class="edge">
<title>n6&#45;&gt;n19</title>
<path fill="none" stroke="#94a3b8" stroke-width="0.9" d="M1102.68,-67.83C1129.21,-58.66 1161.92,-47.36 1189.19,-37.94"/>
<polygon fill="#94a3b8" stroke="#94a3b8" stroke-width="0.9" points="1189.99,-39.7 1194.56,-36.08 1188.74,-36.06 1189.99,-39.7"/>
</g>
<!-- n7 -->
<g id="node8" class="node">
<title>n7</title>
<path fill="#f8fafc" stroke="#94a3b8" d="M1967,-36C1967,-36 1781,-36 1781,-36 1775,-36 1769,-30 1769,-24 1769,-24 1769,-12 1769,-12 1769,-6 1775,0 1781,0 1781,0 1967,0 1967,0 1973,0 1979,-6 1979,-12 1979,-12 1979,-24 1979,-24 1979,-30 1973,-36 1967,-36"/>
<text text-anchor="middle" x="1874" y="-15.5" font-family="Arial" font-size="10.00" fill="#111827">StatisticsScreenKt\nStatisticsContentPreview</text>
</g>
<!-- n8 -->
<g id="node9" class="node">
<title>n8</title>
<path fill="#f8fafc" stroke="#94a3b8" d="M2534.5,-104C2534.5,-104 2377.5,-104 2377.5,-104 2371.5,-104 2365.5,-98 2365.5,-92 2365.5,-92 2365.5,-80 2365.5,-80 2365.5,-74 2371.5,-68 2377.5,-68 2377.5,-68 2534.5,-68 2534.5,-68 2540.5,-68 2546.5,-74 2546.5,-80 2546.5,-80 2546.5,-92 2546.5,-92 2546.5,-98 2540.5,-104 2534.5,-104"/>
<text text-anchor="middle" x="2456" y="-83.5" font-family="Arial" font-size="10.00" fill="#111827">TaskDetailScreenKt\nTaskDetailScreen</text>
</g>
<!-- n11 -->
<g id="node12" class="node">
<title>n11</title>
<path fill="#f8fafc" stroke="#94a3b8" d="M2218,-36C2218,-36 2004,-36 2004,-36 1998,-36 1992,-30 1992,-24 1992,-24 1992,-12 1992,-12 1992,-6 1998,0 2004,0 2004,0 2218,0 2218,0 2224,0 2230,-6 2230,-12 2230,-12 2230,-24 2230,-24 2230,-30 2224,-36 2218,-36"/>
<text text-anchor="middle" x="2111" y="-15.5" font-family="Arial" font-size="10.00" fill="#111827">StatisticsScreenKt\nStatisticsContentEmptyPreview</text>
</g>
<!-- n13 -->
<g id="node14" class="node">
<title>n13</title>
<path fill="#f8fafc" stroke="#94a3b8" d="M1638.5,-104C1638.5,-104 1463.5,-104 1463.5,-104 1457.5,-104 1451.5,-98 1451.5,-92 1451.5,-92 1451.5,-80 1451.5,-80 1451.5,-74 1457.5,-68 1463.5,-68 1463.5,-68 1638.5,-68 1638.5,-68 1644.5,-68 1650.5,-74 1650.5,-80 1650.5,-80 1650.5,-92 1650.5,-92 1650.5,-98 1644.5,-104 1638.5,-104"/>
<text text-anchor="middle" x="1551" y="-83.5" font-family="Arial" font-size="10.00" fill="#111827">AddEditTaskScreenKt\nAddEditTaskScreen</text>
</g>
<!-- n13&#45;&gt;n5 -->
<g id="edge9" class="edge">
<title>n13&#45;&gt;n5</title>
<path fill="none" stroke="#94a3b8" stroke-width="0.9" d="M1524.21,-67.83C1510.5,-59.05 1493.73,-48.3 1479.41,-39.13"/>
<polygon fill="#94a3b8" stroke="#94a3b8" stroke-width="0.9" points="1480.33,-37.43 1474.66,-36.08 1478.25,-40.67 1480.33,-37.43"/>
</g>
<!-- n17 -->
<g id="node18" class="node">
<title>n17</title>
<path fill="#f8fafc" stroke="#94a3b8" d="M1743.5,-36C1743.5,-36 1564.5,-36 1564.5,-36 1558.5,-36 1552.5,-30 1552.5,-24 1552.5,-24 1552.5,-12 1552.5,-12 1552.5,-6 1558.5,0 1564.5,0 1564.5,0 1743.5,0 1743.5,0 1749.5,0 1755.5,-6 1755.5,-12 1755.5,-12 1755.5,-24 1755.5,-24 1755.5,-30 1749.5,-36 1743.5,-36"/>
<text text-anchor="middle" x="1654" y="-15.5" font-family="Arial" font-size="10.00" fill="#111827">AddEditTaskScreenKt\nAddEditTaskContent</text>
</g>
<!-- n13&#45;&gt;n17 -->
<g id="edge8" class="edge">
<title>n13&#45;&gt;n17</title>
<path fill="none" stroke="#94a3b8" stroke-width="0.9" d="M1577.79,-67.83C1591.5,-59.05 1608.27,-48.3 1622.59,-39.13"/>
<polygon fill="#94a3b8" stroke="#94a3b8" stroke-width="0.9" points="1623.75,-40.67 1627.34,-36.08 1621.67,-37.43 1623.75,-40.67"/>
</g>
<!-- n14 -->
<g id="node15" class="node">
<title>n14</title>
<path fill="#f8fafc" stroke="#94a3b8" d="M2405,-36C2405,-36 2255,-36 2255,-36 2249,-36 2243,-30 2243,-24 2243,-24 2243,-12 2243,-12 2243,-6 2249,0 2255,0 2255,0 2405,0 2405,0 2411,0 2417,-6 2417,-12 2417,-12 2417,-24 2417,-24 2417,-30 2411,-36 2405,-36"/>
<text text-anchor="middle" x="2330" y="-15.5" font-family="Arial" font-size="10.00" fill="#111827">StatisticsScreenKt\nStatisticsContent</text>
</g>
<!-- n16 -->
<g id="node17" class="node">
<title>n16</title>
<path fill="#f8fafc" stroke="#94a3b8" d="M2587.5,-36C2587.5,-36 2442.5,-36 2442.5,-36 2436.5,-36 2430.5,-30 2430.5,-24 2430.5,-24 2430.5,-12 2430.5,-12 2430.5,-6 2436.5,0 2442.5,0 2442.5,0 2587.5,0 2587.5,0 2593.5,0 2599.5,-6 2599.5,-12 2599.5,-12 2599.5,-24 2599.5,-24 2599.5,-30 2593.5,-36 2587.5,-36"/>
<text text-anchor="middle" x="2515" y="-15.5" font-family="Arial" font-size="10.00" fill="#111827">TopAppBarsKt\nStatisticsTopAppBar</text>
</g>
<!-- n18 -->
<g id="node19" class="node">
<title>n18</title>
<path fill="#f8fafc" stroke="#94a3b8" d="M2236.5,-104C2236.5,-104 2089.5,-104 2089.5,-104 2083.5,-104 2077.5,-98 2077.5,-92 2077.5,-92 2077.5,-80 2077.5,-80 2077.5,-74 2083.5,-68 2089.5,-68 2089.5,-68 2236.5,-68 2236.5,-68 2242.5,-68 2248.5,-74 2248.5,-80 2248.5,-80 2248.5,-92 2248.5,-92 2248.5,-98 2242.5,-104 2236.5,-104"/>
<text text-anchor="middle" x="2163" y="-83.5" font-family="Arial" font-size="10.00" fill="#111827">StatisticsScreenKt\nStatisticsScreen</text>
</g>
<!-- n18&#45;&gt;n7 -->
<g id="edge12" class="edge">
<title>n18&#45;&gt;n7</title>
<path fill="none" stroke="#94a3b8" stroke-width="0.9" d="M2088.2,-67.92C2047.06,-58.52 1996.02,-46.87 1954.08,-37.29"/>
<polygon fill="#94a3b8" stroke="#94a3b8" stroke-width="0.9" points="1954.28,-35.36 1948.49,-36.01 1953.42,-39.11 1954.28,-35.36"/>
</g>
<!-- n18&#45;&gt;n11 -->
<g id="edge11" class="edge">
<title>n18&#45;&gt;n11</title>
<path fill="none" stroke="#94a3b8" stroke-width="0.9" d="M2149.34,-67.66C2142.94,-59.54 2135.24,-49.77 2128.43,-41.12"/>
<polygon fill="#94a3b8" stroke="#94a3b8" stroke-width="0.9" points="2129.67,-39.58 2124.75,-36.45 2126.64,-41.97 2129.67,-39.58"/>
</g>
<!-- n18&#45;&gt;n14 -->
<g id="edge10" class="edge">
<title>n18&#45;&gt;n14</title>
<path fill="none" stroke="#94a3b8" stroke-width="0.9" d="M2206.44,-67.83C2229.44,-58.74 2257.76,-47.55 2281.48,-38.18"/>
<polygon fill="#94a3b8" stroke="#94a3b8" stroke-width="0.9" points="2282.37,-39.89 2286.78,-36.08 2280.95,-36.31 2282.37,-39.89"/>
</g>
<!-- n18&#45;&gt;n16 -->
<g id="edge13" class="edge">
<title>n18&#45;&gt;n16</title>
<path fill="none" stroke="#94a3b8" stroke-width="0.9" d="M2248.66,-68.94C2302.08,-58.92 2370.72,-46.05 2424.95,-35.88"/>
<polygon fill="#94a3b8" stroke="#94a3b8" stroke-width="0.9" points="2425.43,-37.75 2430.48,-34.85 2424.72,-33.97 2425.43,-37.75"/>
</g>
</g>
</svg>
