<?xml version="1.0" encoding="UTF-8" standalone="no"?>
<!DOCTYPE svg PUBLIC "-//W3C//DTD SVG 1.1//EN"
 "http://www.w3.org/Graphics/SVG/1.1/DTD/svg11.dtd">
<!-- Generated by graphviz version 2.42.4 (0)
 -->
<!-- Title: A Pages: 1 -->
<svg width="504pt" height="66pt"
 viewBox="0.00 0.00 504.00 65.84" xmlns="http://www.w3.org/2000/svg" xmlns:xlink="http://www.w3.org/1999/xlink">
<g id="graph0" class="graph" transform="scale(0.29 0.29) rotate(0) translate(18 212)">
<title>A</title>
<polygon fill="white" stroke="transparent" points="-18,18 -18,-212 1742.5,-212 1742.5,18 -18,18"/>
<text text-anchor="middle" x="862.25" y="-175.6" font-family="Arial" font-size="18.00">图 15&#45;1 &#160;APK 核心逻辑调用图：页面与导航</text>
<!-- n0 -->
<g id="node1" class="node">
<title>n0</title>
<path fill="#dceefe" stroke="#94a3b8" d="M164,-101C164,-101 12,-101 12,-101 6,-101 0,-95 0,-89 0,-89 0,-77 0,-77 0,-71 6,-65 12,-65 12,-65 164,-65 164,-65 170,-65 176,-71 176,-77 176,-77 176,-89 176,-89 176,-95 170,-101 164,-101"/>
<text text-anchor="middle" x="88" y="-80.8" font-family="Arial" font-size="9.00" fill="#111827">AddEditTaskScreenKt\ninvoke$lambda$0</text>
</g>
<!-- n1 -->
<g id="node2" class="node">
<title>n1</title>
<path fill="#dceefe" stroke="#94a3b8" d="M324,-101C324,-101 200,-101 200,-101 194,-101 188,-95 188,-89 188,-89 188,-77 188,-77 188,-71 194,-65 200,-65 200,-65 324,-65 324,-65 330,-65 336,-71 336,-77 336,-77 336,-89 336,-89 336,-95 330,-101 324,-101"/>
<text text-anchor="middle" x="262" y="-80.8" font-family="Arial" font-size="9.00" fill="#111827">TasksScreenKt\ninvoke$lambda$0</text>
</g>
<!-- n2 -->
<g id="node3" class="node">
<title>n2</title>
<path fill="#dceefe" stroke="#94a3b8" d="M366,-166C366,-166 278,-166 278,-166 272,-166 266,-160 266,-154 266,-154 266,-142 266,-142 266,-136 272,-130 278,-130 278,-130 366,-130 366,-130 372,-130 378,-136 378,-142 378,-142 378,-154 378,-154 378,-160 372,-166 366,-166"/>
<text text-anchor="middle" x="322" y="-145.8" font-family="Arial" font-size="9.00" fill="#111827">TasksScreenKt\ninvoke</text>
</g>
<!-- n3 -->
<g id="node4" class="node">
<title>n3</title>
<path fill="#dceefe" stroke="#94a3b8" d="M490,-166C490,-166 402,-166 402,-166 396,-166 390,-160 390,-154 390,-154 390,-142 390,-142 390,-136 396,-130 402,-130 402,-130 490,-130 490,-130 496,-130 502,-136 502,-142 502,-142 502,-154 502,-154 502,-160 496,-166 490,-166"/>
<text text-anchor="middle" x="446" y="-145.8" font-family="Arial" font-size="9.00" fill="#111827">TodoNavGraphKt\ninvoke</text>
</g>
<!-- n11 -->
<g id="node12" class="node">
<title>n11</title>
<path fill="#dceefe" stroke="#94a3b8" d="M502,-101C502,-101 360,-101 360,-101 354,-101 348,-95 348,-89 348,-89 348,-77 348,-77 348,-71 354,-65 360,-65 360,-65 502,-65 502,-65 508,-65 514,-71 514,-77 514,-77 514,-89 514,-89 514,-95 508,-101 502,-101"/>
<text text-anchor="middle" x="431" y="-80.8" font-family="Arial" font-size="9.00" fill="#111827">TaskDetailScreenKt\nTaskDetailScreen</text>
</g>
<!-- n3&#45;&gt;n11 -->
<g id="edge1" class="edge">
<title>n3&#45;&gt;n11</title>
<path fill="none" stroke="#cbd5e1" stroke-width="0.8" d="M441.9,-129.78C440.18,-122.56 438.16,-114.07 436.33,-106.37"/>
<polygon fill="#cbd5e1" stroke="#cbd5e1" stroke-width="0.8" points="437.95,-105.65 435.09,-101.19 434.55,-106.46 437.95,-105.65"/>
</g>
<!-- n4 -->
<g id="node5" class="node">
<title>n4</title>
<path fill="#dceefe" stroke="#94a3b8" d="M765.5,-101C765.5,-101 662.5,-101 662.5,-101 656.5,-101 650.5,-95 650.5,-89 650.5,-89 650.5,-77 650.5,-77 650.5,-71 656.5,-65 662.5,-65 662.5,-65 765.5,-65 765.5,-65 771.5,-65 777.5,-71 777.5,-77 777.5,-77 777.5,-89 777.5,-89 777.5,-95 771.5,-101 765.5,-101"/>
<text text-anchor="middle" x="714" y="-80.8" font-family="Arial" font-size="9.00" fill="#111827">TasksScreenKt\nTasksScreen</text>
</g>
<!-- n7 -->
<g id="node8" class="node">
<title>n7</title>
<path fill="#dceefe" stroke="#94a3b8" d="M692,-36C692,-36 604,-36 604,-36 598,-36 592,-30 592,-24 592,-24 592,-12 592,-12 592,-6 598,0 604,0 604,0 692,0 692,0 698,0 704,-6 704,-12 704,-12 704,-24 704,-24 704,-30 698,-36 692,-36"/>
<text text-anchor="middle" x="648" y="-15.8" font-family="Arial" font-size="9.00" fill="#111827">TasksScreenKt\nget</text>
</g>
<!-- n4&#45;&gt;n7 -->
<g id="edge2" class="edge">
<title>n4&#45;&gt;n7</title>
<path fill="none" stroke="#cbd5e1" stroke-width="0.8" d="M695.97,-64.78C687.96,-57.15 678.47,-48.08 670.05,-40.05"/>
<polygon fill="#cbd5e1" stroke="#cbd5e1" stroke-width="0.8" points="670.84,-38.38 666.01,-36.19 668.42,-40.91 670.84,-38.38"/>
</g>
<!-- n5 -->
<g id="node6" class="node">
<title>n5</title>
<path fill="#dceefe" stroke="#94a3b8" d="M614,-166C614,-166 526,-166 526,-166 520,-166 514,-160 514,-154 514,-154 514,-142 514,-142 514,-136 520,-130 526,-130 526,-130 614,-130 614,-130 620,-130 626,-136 626,-142 626,-142 626,-154 626,-154 626,-160 620,-166 614,-166"/>
<text text-anchor="middle" x="570" y="-145.8" font-family="Arial" font-size="9.00" fill="#111827">TodoNavGraphKt\ninvoke</text>
</g>
<!-- n5&#45;&gt;n4 -->
<g id="edge3" class="edge">
<title>n5&#45;&gt;n4</title>
<path fill="none" stroke="#cbd5e1" stroke-width="0.8" d="M608.97,-129.95C627.86,-121.69 650.62,-111.73 670.12,-103.2"/>
<polygon fill="#cbd5e1" stroke="#cbd5e1" stroke-width="0.8" points="671.12,-104.67 675,-101.06 669.72,-101.46 671.12,-104.67"/>
</g>
<!-- n6 -->
<g id="node7" class="node">
<title>n6</title>
<path fill="#dceefe" stroke="#94a3b8" d="M738,-166C738,-166 650,-166 650,-166 644,-166 638,-160 638,-154 638,-154 638,-142 638,-142 638,-136 644,-130 650,-130 650,-130 738,-130 738,-130 744,-130 750,-136 750,-142 750,-142 750,-154 750,-154 750,-160 744,-166 738,-166"/>
<text text-anchor="middle" x="694" y="-145.8" font-family="Arial" font-size="9.00" fill="#111827">TodoNavGraphKt\ninvoke</text>
</g>
<!-- n10 -->
<g id="node11" class="node">
<title>n10</title>
<path fill="#dceefe" stroke="#94a3b8" d="M960.5,-101C960.5,-101 801.5,-101 801.5,-101 795.5,-101 789.5,-95 789.5,-89 789.5,-89 789.5,-77 789.5,-77 789.5,-71 795.5,-65 801.5,-65 801.5,-65 960.5,-65 960.5,-65 966.5,-65 972.5,-71 972.5,-77 972.5,-77 972.5,-89 972.5,-89 972.5,-95 966.5,-101 960.5,-101"/>
<text text-anchor="middle" x="881" y="-80.8" font-family="Arial" font-size="9.00" fill="#111827">AddEditTaskScreenKt\nAddEditTaskScreen</text>
</g>
<!-- n6&#45;&gt;n10 -->
<g id="edge4" class="edge">
<title>n6&#45;&gt;n10</title>
<path fill="none" stroke="#cbd5e1" stroke-width="0.8" d="M744.6,-129.95C769.55,-121.55 799.7,-111.39 825.3,-102.77"/>
<polygon fill="#cbd5e1" stroke="#cbd5e1" stroke-width="0.8" points="826.18,-104.32 830.35,-101.06 825.06,-101 826.18,-104.32"/>
</g>
<!-- n8 -->
<g id="node9" class="node">
<title>n8</title>
<path fill="#dceefe" stroke="#94a3b8" d="M1159,-101C1159,-101 997,-101 997,-101 991,-101 985,-95 985,-89 985,-89 985,-77 985,-77 985,-71 991,-65 997,-65 997,-65 1159,-65 1159,-65 1165,-65 1171,-71 1171,-77 1171,-77 1171,-89 1171,-89 1171,-95 1165,-101 1159,-101"/>
<text text-anchor="middle" x="1078" y="-80.8" font-family="Arial" font-size="9.00" fill="#111827">AddEditTaskScreenKt\nAddEditTaskContent</text>
</g>
<!-- n19 -->
<g id="node20" class="node">
<title>n19</title>
<path fill="#dceefe" stroke="#94a3b8" d="M1024.5,-36C1024.5,-36 933.5,-36 933.5,-36 927.5,-36 921.5,-30 921.5,-24 921.5,-24 921.5,-12 921.5,-12 921.5,-6 927.5,0 933.5,0 933.5,0 1024.5,0 1024.5,0 1030.5,0 1036.5,-6 1036.5,-12 1036.5,-12 1036.5,-24 1036.5,-24 1036.5,-30 1030.5,-36 1024.5,-36"/>
<text text-anchor="middle" x="979" y="-15.8" font-family="Arial" font-size="9.00" fill="#111827">AddEditTaskScreenKt\nget</text>
</g>
<!-- n8&#45;&gt;n19 -->
<g id="edge5" class="edge">
<title>n8&#45;&gt;n19</title>
<path fill="none" stroke="#cbd5e1" stroke-width="0.8" d="M1051.21,-64.95C1038.55,-56.9 1023.37,-47.23 1010.2,-38.85"/>
<polygon fill="#cbd5e1" stroke="#cbd5e1" stroke-width="0.8" points="1010.97,-37.27 1005.81,-36.06 1009.09,-40.22 1010.97,-37.27"/>
</g>
<!-- n9 -->
<g id="node10" class="node">
<title>n9</title>
<path fill="#dceefe" stroke="#94a3b8" d="M1324.5,-101C1324.5,-101 1195.5,-101 1195.5,-101 1189.5,-101 1183.5,-95 1183.5,-89 1183.5,-89 1183.5,-77 1183.5,-77 1183.5,-71 1189.5,-65 1195.5,-65 1195.5,-65 1324.5,-65 1324.5,-65 1330.5,-65 1336.5,-71 1336.5,-77 1336.5,-77 1336.5,-89 1336.5,-89 1336.5,-95 1330.5,-101 1324.5,-101"/>
<text text-anchor="middle" x="1260" y="-80.8" font-family="Arial" font-size="9.00" fill="#111827">StatisticsScreenKt\nStatisticsScreen</text>
</g>
<!-- n10&#45;&gt;n19 -->
<g id="edge6" class="edge">
<title>n10&#45;&gt;n19</title>
<path fill="none" stroke="#cbd5e1" stroke-width="0.8" d="M907.52,-64.95C920.05,-56.9 935.08,-47.23 948.12,-38.85"/>
<polygon fill="#cbd5e1" stroke="#cbd5e1" stroke-width="0.8" points="949.2,-40.24 952.46,-36.06 947.31,-37.29 949.2,-40.24"/>
</g>
<!-- n12 -->
<g id="node13" class="node">
<title>n12</title>
<path fill="#dceefe" stroke="#94a3b8" d="M626,-101C626,-101 538,-101 538,-101 532,-101 526,-95 526,-89 526,-89 526,-77 526,-77 526,-71 532,-65 538,-65 538,-65 626,-65 626,-65 632,-65 638,-71 638,-77 638,-77 638,-89 638,-89 638,-95 632,-101 626,-101"/>
<text text-anchor="middle" x="582" y="-80.8" font-family="Arial" font-size="9.00" fill="#111827">TasksScreenKt\nTaskItem</text>
</g>
<!-- n12&#45;&gt;n7 -->
<g id="edge7" class="edge">
<title>n12&#45;&gt;n7</title>
<path fill="none" stroke="#cbd5e1" stroke-width="0.8" d="M600.03,-64.78C608.04,-57.15 617.53,-48.08 625.95,-40.05"/>
<polygon fill="#cbd5e1" stroke="#cbd5e1" stroke-width="0.8" points="627.58,-40.91 629.99,-36.19 625.16,-38.38 627.58,-40.91"/>
</g>
<!-- n13 -->
<g id="node14" class="node">
<title>n13</title>
<path fill="#dceefe" stroke="#94a3b8" d="M118,-166C118,-166 12,-166 12,-166 6,-166 0,-160 0,-154 0,-154 0,-142 0,-142 0,-136 6,-130 12,-130 12,-130 118,-130 118,-130 124,-130 130,-136 130,-142 130,-142 130,-154 130,-154 130,-160 124,-166 118,-166"/>
<text text-anchor="middle" x="65" y="-145.8" font-family="Arial" font-size="9.00" fill="#111827">AddEditTaskScreenKt\ninvoke</text>
</g>
<!-- n13&#45;&gt;n0 -->
<g id="edge8" class="edge">
<title>n13&#45;&gt;n0</title>
<path fill="none" stroke="#cbd5e1" stroke-width="0.8" d="M55.04,-129.78C55.79,-122.42 58.62,-113.74 62.75,-105.93"/>
<polygon fill="#cbd5e1" stroke="#cbd5e1" stroke-width="0.8" points="64.5,-106.4 65.49,-101.19 61.47,-104.65 64.5,-106.4"/>
</g>
<!-- n13&#45;&gt;n0 -->
<g id="edge9" class="edge">
<title>n13&#45;&gt;n0</title>
<path fill="none" stroke="#cbd5e1" stroke-width="0.8" d="M63.16,-129.78C64.88,-122.42 67.88,-113.74 71.37,-105.93"/>
<polygon fill="#cbd5e1" stroke="#cbd5e1" stroke-width="0.8" points="73.06,-106.46 73.6,-101.19 69.89,-104.97 73.06,-106.46"/>
</g>
<!-- n13&#45;&gt;n0 -->
<g id="edge10" class="edge">
<title>n13&#45;&gt;n0</title>
<path fill="none" stroke="#cbd5e1" stroke-width="0.8" d="M71.28,-129.78C73.97,-122.42 77.14,-113.74 79.99,-105.93"/>
<polygon fill="#cbd5e1" stroke="#cbd5e1" stroke-width="0.8" points="81.65,-106.49 81.72,-101.19 78.36,-105.29 81.65,-106.49"/>
</g>
<!-- n13&#45;&gt;n0 -->
<g id="edge11" class="edge">
<title>n13&#45;&gt;n0</title>
<path fill="none" stroke="#cbd5e1" stroke-width="0.8" d="M79.41,-129.78C83,-122.56 86.27,-114.07 88.49,-106.37"/>
<polygon fill="#cbd5e1" stroke="#cbd5e1" stroke-width="0.8" points="90.27,-106.47 89.84,-101.19 86.88,-105.59 90.27,-106.47"/>
</g>
<!-- n13&#45;&gt;n0 -->
<g id="edge12" class="edge">
<title>n13&#45;&gt;n0</title>
<path fill="none" stroke="#cbd5e1" stroke-width="0.8" d="M87.53,-129.78C92.07,-122.56 95.53,-114.07 97.14,-106.37"/>
<polygon fill="#cbd5e1" stroke="#cbd5e1" stroke-width="0.8" points="98.91,-106.41 97.96,-101.19 95.45,-105.86 98.91,-106.41"/>
</g>
<!-- n14 -->
<g id="node15" class="node">
<title>n14</title>
<path fill="#dceefe" stroke="#94a3b8" d="M242,-166C242,-166 154,-166 154,-166 148,-166 142,-160 142,-154 142,-154 142,-142 142,-142 142,-136 148,-130 154,-130 154,-130 242,-130 242,-130 248,-130 254,-136 254,-142 254,-142 254,-154 254,-154 254,-160 248,-166 242,-166"/>
<text text-anchor="middle" x="198" y="-145.8" font-family="Arial" font-size="9.00" fill="#111827">TasksScreenKt\ninvoke</text>
</g>
<!-- n14&#45;&gt;n1 -->
<g id="edge13" class="edge">
<title>n14&#45;&gt;n1</title>
<path fill="none" stroke="#cbd5e1" stroke-width="0.8" d="M195.19,-129.78C200.57,-121.94 209.76,-112.59 220.08,-104.39"/>
<polygon fill="#cbd5e1" stroke="#cbd5e1" stroke-width="0.8" points="221.34,-105.63 224.24,-101.19 219.21,-102.85 221.34,-105.63"/>
</g>
<!-- n14&#45;&gt;n1 -->
<g id="edge14" class="edge">
<title>n14&#45;&gt;n1</title>
<path fill="none" stroke="#cbd5e1" stroke-width="0.8" d="M203.31,-129.78C209.67,-122.01 218.88,-112.75 228.31,-104.61"/>
<polygon fill="#cbd5e1" stroke="#cbd5e1" stroke-width="0.8" points="229.66,-105.76 232.36,-101.19 227.41,-103.08 229.66,-105.76"/>
</g>
<!-- n14&#45;&gt;n1 -->
<g id="edge15" class="edge">
<title>n14&#45;&gt;n1</title>
<path fill="none" stroke="#cbd5e1" stroke-width="0.8" d="M211.43,-129.78C218.82,-122.01 228.15,-112.75 236.81,-104.61"/>
<polygon fill="#cbd5e1" stroke="#cbd5e1" stroke-width="0.8" points="238.01,-105.88 240.47,-101.19 235.62,-103.32 238.01,-105.88"/>
</g>
<!-- n14&#45;&gt;n1 -->
<g id="edge16" class="edge">
<title>n14&#45;&gt;n1</title>
<path fill="none" stroke="#cbd5e1" stroke-width="0.8" d="M219.55,-129.78C227.81,-122.15 237.09,-113.08 244.89,-105.05"/>
<polygon fill="#cbd5e1" stroke="#cbd5e1" stroke-width="0.8" points="246.39,-106.01 248.59,-101.19 243.87,-103.59 246.39,-106.01"/>
</g>
<!-- n14&#45;&gt;n1 -->
<g id="edge17" class="edge">
<title>n14&#45;&gt;n1</title>
<path fill="none" stroke="#cbd5e1" stroke-width="0.8" d="M227.67,-129.78C236.94,-122.15 246.36,-113.08 253.44,-105.05"/>
<polygon fill="#cbd5e1" stroke="#cbd5e1" stroke-width="0.8" points="254.81,-106.14 256.71,-101.19 252.14,-103.87 254.81,-106.14"/>
</g>
<!-- n14&#45;&gt;n1 -->
<g id="edge18" class="edge">
<title>n14&#45;&gt;n1</title>
<path fill="none" stroke="#cbd5e1" stroke-width="0.8" d="M235.79,-129.78C245.88,-122.28 255.28,-113.41 261.63,-105.49"/>
<polygon fill="#cbd5e1" stroke="#cbd5e1" stroke-width="0.8" points="263.24,-106.25 264.83,-101.19 260.44,-104.16 263.24,-106.25"/>
</g>
<!-- n15 -->
<g id="node16" class="node">
<title>n15</title>
<path fill="#dceefe" stroke="#94a3b8" d="M862,-166C862,-166 774,-166 774,-166 768,-166 762,-160 762,-154 762,-154 762,-142 762,-142 762,-136 768,-130 774,-130 774,-130 862,-130 862,-130 868,-130 874,-136 874,-142 874,-142 874,-154 874,-154 874,-160 868,-166 862,-166"/>
<text text-anchor="middle" x="818" y="-145.8" font-family="Arial" font-size="9.00" fill="#111827">TodoNavGraphKt\ninvoke</text>
</g>
<!-- n15&#45;&gt;n9 -->
<g id="edge19" class="edge">
<title>n15&#45;&gt;n9</title>
<path fill="none" stroke="#cbd5e1" stroke-width="0.8" d="M874,-131.19C876.02,-130.76 878.02,-130.36 880,-130 1010.43,-105.93 1045.86,-120.78 1177,-101 1177.38,-100.94 1177.76,-100.88 1178.15,-100.83"/>
<polygon fill="#cbd5e1" stroke="#cbd5e1" stroke-width="0.8" points="1178.51,-102.54 1183.18,-100.03 1177.96,-99.08 1178.51,-102.54"/>
</g>
<!-- n16 -->
<g id="node17" class="node">
<title>n16</title>
<path fill="#dceefe" stroke="#94a3b8" d="M1144.5,-166C1144.5,-166 1047.5,-166 1047.5,-166 1041.5,-166 1035.5,-160 1035.5,-154 1035.5,-154 1035.5,-142 1035.5,-142 1035.5,-136 1041.5,-130 1047.5,-130 1047.5,-130 1144.5,-130 1144.5,-130 1150.5,-130 1156.5,-136 1156.5,-142 1156.5,-142 1156.5,-154 1156.5,-154 1156.5,-160 1150.5,-166 1144.5,-166"/>
<text text-anchor="middle" x="1096" y="-145.8" font-family="Arial" font-size="9.00" fill="#111827">TaskDetailScreenKt\ninvoke</text>
</g>
<!-- n23 -->
<g id="node24" class="node">
<title>n23</title>
<path fill="#dceefe" stroke="#94a3b8" d="M1505,-101C1505,-101 1361,-101 1361,-101 1355,-101 1349,-95 1349,-89 1349,-89 1349,-77 1349,-77 1349,-71 1355,-65 1361,-65 1361,-65 1505,-65 1505,-65 1511,-65 1517,-71 1517,-77 1517,-77 1517,-89 1517,-89 1517,-95 1511,-101 1505,-101"/>
<text text-anchor="middle" x="1433" y="-80.8" font-family="Arial" font-size="9.00" fill="#111827">TaskDetailScreenKt\ninvoke$lambda$0</text>
</g>
<!-- n16&#45;&gt;n23 -->
<g id="edge20" class="edge">
<title>n16&#45;&gt;n23</title>
<path fill="none" stroke="#cbd5e1" stroke-width="0.8" d="M1133.46,-129.9C1212.43,-113.58 1233.34,-114.94 1313,-101 1322.76,-99.29 1333.1,-97.41 1343.59,-95.54"/>
<polygon fill="#cbd5e1" stroke="#cbd5e1" stroke-width="0.8" points="1344.14,-97.22 1348.75,-94.62 1343.52,-93.77 1344.14,-97.22"/>
</g>
<!-- n16&#45;&gt;n23 -->
<g id="edge21" class="edge">
<title>n16&#45;&gt;n23</title>
<path fill="none" stroke="#cbd5e1" stroke-width="0.8" d="M1145.46,-129.9C1224.43,-113.58 1245.34,-114.94 1325,-101 1331.12,-99.93 1337.46,-98.79 1343.88,-97.63"/>
<polygon fill="#cbd5e1" stroke="#cbd5e1" stroke-width="0.8" points="1344.2,-99.35 1348.81,-96.74 1343.58,-95.91 1344.2,-99.35"/>
</g>
<!-- n16&#45;&gt;n23 -->
<g id="edge22" class="edge">
<title>n16&#45;&gt;n23</title>
<path fill="none" stroke="#cbd5e1" stroke-width="0.8" d="M1156.65,-130.07C1156.76,-130.05 1156.88,-130.02 1157,-130 1236.35,-113.58 1257.18,-114.97 1337,-101 1339.2,-100.61 1341.43,-100.22 1343.69,-99.82"/>
<polygon fill="#cbd5e1" stroke="#cbd5e1" stroke-width="0.8" points="1344.36,-101.48 1348.98,-98.87 1343.75,-98.03 1344.36,-101.48"/>
</g>
<!-- n16&#45;&gt;n23 -->
<g id="edge23" class="edge">
<title>n16&#45;&gt;n23</title>
<path fill="none" stroke="#cbd5e1" stroke-width="0.8" d="M1156.74,-132.69C1160.89,-131.73 1165,-130.83 1169,-130 1246.64,-113.93 1268.26,-114.91 1344.38,-101.8"/>
<polygon fill="#cbd5e1" stroke="#cbd5e1" stroke-width="0.8" points="1344.84,-103.5 1349.47,-100.92 1344.24,-100.05 1344.84,-103.5"/>
</g>
<!-- n16&#45;&gt;n23 -->
<g id="edge24" class="edge">
<title>n16&#45;&gt;n23</title>
<path fill="none" stroke="#cbd5e1" stroke-width="0.8" d="M1156.81,-135.46C1165.03,-133.51 1173.24,-131.61 1181,-130 1258.49,-113.96 1280.17,-114.91 1355.49,-101.96"/>
<polygon fill="#cbd5e1" stroke="#cbd5e1" stroke-width="0.8" points="1355.91,-103.66 1360.53,-101.08 1355.31,-100.21 1355.91,-103.66"/>
</g>
<!-- n16&#45;&gt;n23 -->
<g id="edge25" class="edge">
<title>n16&#45;&gt;n23</title>
<path fill="none" stroke="#cbd5e1" stroke-width="0.8" d="M1156.61,-138.2C1169.22,-135.37 1181.6,-132.36 1193,-130 1270.49,-113.96 1292.17,-114.91 1367.49,-101.96"/>
<polygon fill="#cbd5e1" stroke="#cbd5e1" stroke-width="0.8" points="1367.91,-103.66 1372.53,-101.08 1367.31,-100.21 1367.91,-103.66"/>
</g>
<!-- n17 -->
<g id="node18" class="node">
<title>n17</title>
<path fill="#dceefe" stroke="#94a3b8" d="M1303.5,-166C1303.5,-166 1180.5,-166 1180.5,-166 1174.5,-166 1168.5,-160 1168.5,-154 1168.5,-154 1168.5,-142 1168.5,-142 1168.5,-136 1174.5,-130 1180.5,-130 1180.5,-130 1303.5,-130 1303.5,-130 1309.5,-130 1315.5,-136 1315.5,-142 1315.5,-142 1315.5,-154 1315.5,-154 1315.5,-160 1309.5,-166 1303.5,-166"/>
<text text-anchor="middle" x="1242" y="-145.8" font-family="Arial" font-size="9.00" fill="#111827">TodoNavGraphKt\nTodoNavGraph</text>
</g>
<!-- n18 -->
<g id="node19" class="node">
<title>n18</title>
<path fill="#dceefe" stroke="#94a3b8" d="M1436.5,-166C1436.5,-166 1339.5,-166 1339.5,-166 1333.5,-166 1327.5,-160 1327.5,-154 1327.5,-154 1327.5,-142 1327.5,-142 1327.5,-136 1333.5,-130 1339.5,-130 1339.5,-130 1436.5,-130 1436.5,-130 1442.5,-130 1448.5,-136 1448.5,-142 1448.5,-142 1448.5,-154 1448.5,-154 1448.5,-160 1442.5,-166 1436.5,-166"/>
<text text-anchor="middle" x="1388" y="-145.8" font-family="Arial" font-size="9.00" fill="#111827">TaskDetailScreenKt\ninvoke</text>
</g>
<!-- n20 -->
<g id="node21" class="node">
<title>n20</title>
<path fill="#dceefe" stroke="#94a3b8" d="M1011.5,-166C1011.5,-166 898.5,-166 898.5,-166 892.5,-166 886.5,-160 886.5,-154 886.5,-154 886.5,-142 886.5,-142 886.5,-136 892.5,-130 898.5,-130 898.5,-130 1011.5,-130 1011.5,-130 1017.5,-130 1023.5,-136 1023.5,-142 1023.5,-142 1023.5,-154 1023.5,-154 1023.5,-160 1017.5,-166 1011.5,-166"/>
<text text-anchor="middle" x="955" y="-145.8" font-family="Arial" font-size="9.00" fill="#111827">ComposableSingletons\ninvoke</text>
</g>
<!-- n20&#45;&gt;n9 -->
<g id="edge26" class="edge">
<title>n20&#45;&gt;n9</title>
<path fill="none" stroke="#cbd5e1" stroke-width="0.8" d="M1023.52,-131.18C1025.37,-130.78 1027.19,-130.38 1029,-130 1094.56,-116.05 1111.28,-114.17 1177,-101 1177.38,-100.92 1177.76,-100.85 1178.14,-100.77"/>
<polygon fill="#cbd5e1" stroke="#cbd5e1" stroke-width="0.8" points="1178.57,-102.47 1183.13,-99.77 1177.88,-99.04 1178.57,-102.47"/>
</g>
<!-- n21 -->
<g id="node22" class="node">
<title>n21</title>
<path fill="#dceefe" stroke="#94a3b8" d="M1563.5,-166C1563.5,-166 1472.5,-166 1472.5,-166 1466.5,-166 1460.5,-160 1460.5,-154 1460.5,-154 1460.5,-142 1460.5,-142 1460.5,-136 1466.5,-130 1472.5,-130 1472.5,-130 1563.5,-130 1563.5,-130 1569.5,-130 1575.5,-136 1575.5,-142 1575.5,-142 1575.5,-154 1575.5,-154 1575.5,-160 1569.5,-166 1563.5,-166"/>
<text text-anchor="middle" x="1518" y="-145.8" font-family="Arial" font-size="9.00" fill="#111827">StatisticsScreenKt\ninvoke</text>
</g>
<!-- n22 -->
<g id="node23" class="node">
<title>n22</title>
<path fill="#dceefe" stroke="#94a3b8" d="M1712.5,-166C1712.5,-166 1599.5,-166 1599.5,-166 1593.5,-166 1587.5,-160 1587.5,-154 1587.5,-154 1587.5,-142 1587.5,-142 1587.5,-136 1593.5,-130 1599.5,-130 1599.5,-130 1712.5,-130 1712.5,-130 1718.5,-130 1724.5,-136 1724.5,-142 1724.5,-142 1724.5,-154 1724.5,-154 1724.5,-160 1718.5,-166 1712.5,-166"/>
<text text-anchor="middle" x="1656" y="-145.8" font-family="Arial" font-size="9.00" fill="#111827">ComposableSingletons\ninvoke</text>
</g>
</g>
</svg>
