<?xml version="1.0" encoding="UTF-8" standalone="no"?>
<!DOCTYPE svg PUBLIC "-//W3C//DTD SVG 1.1//EN"
 "http://www.w3.org/Graphics/SVG/1.1/DTD/svg11.dtd">
<!-- Generated by graphviz version 2.42.4 (0)
 -->
<!-- Title: APKGraph Pages: 1 -->
<svg width="5511pt" height="280pt"
 viewBox="0.00 0.00 5510.90 280.40" xmlns="http://www.w3.org/2000/svg" xmlns:xlink="http://www.w3.org/1999/xlink">
<g id="graph0" class="graph" transform="scale(1 1) rotate(0) translate(25.2 255.2)">
<title>APKGraph</title>
<polygon fill="white" stroke="transparent" points="-25.2,25.2 -25.2,-255.2 5485.7,-255.2 5485.7,25.2 -25.2,25.2"/>
<text text-anchor="middle" x="2730.25" y="-211.6" font-family="Arial" font-size="18.00">图 15&#45;1 &#160;APK 核心逻辑调用图：页面与导航</text>
<!-- n0 -->
<g id="node1" class="node">
<title>n0</title>
<path fill="#dceefe" stroke="#94a3b8" d="M187,-119C187,-119 12,-119 12,-119 6,-119 0,-113 0,-107 0,-107 0,-95 0,-95 0,-89 6,-83 12,-83 12,-83 187,-83 187,-83 193,-83 199,-89 199,-95 199,-95 199,-107 199,-107 199,-113 193,-119 187,-119"/>
<text text-anchor="middle" x="99.5" y="-98.8" font-family="Arial" font-size="9.00" fill="#111827">TopAppBarsKt.StatisticsTopAppBar\nscore=44</text>
</g>
<!-- n33 -->
<g id="node34" class="node">
<title>n33</title>
<path fill="#dceefe" stroke="#94a3b8" d="M974.5,-36C974.5,-36 868.5,-36 868.5,-36 862.5,-36 856.5,-30 856.5,-24 856.5,-24 856.5,-12 856.5,-12 856.5,-6 862.5,0 868.5,0 868.5,0 974.5,0 974.5,0 980.5,0 986.5,-6 986.5,-12 986.5,-12 986.5,-24 986.5,-24 986.5,-30 980.5,-36 974.5,-36"/>
<text text-anchor="middle" x="921.5" y="-15.8" font-family="Arial" font-size="9.00" fill="#111827">TopAppBarsKt.get\nscore=69</text>
</g>
<!-- n0&#45;&gt;n33 -->
<g id="edge1" class="edge">
<title>n0&#45;&gt;n33</title>
<path fill="none" stroke="#cbd5e1" stroke-width="0.9" d="M199.03,-85.17C204.93,-84.4 210.79,-83.67 216.5,-83 448.01,-55.69 723.49,-33.72 850.68,-24.16"/>
<polygon fill="#cbd5e1" stroke="#cbd5e1" stroke-width="0.9" points="850.92,-26.08 856.26,-23.74 850.63,-22.24 850.92,-26.08"/>
</g>
<!-- n1 -->
<g id="node2" class="node">
<title>n1</title>
<path fill="#dceefe" stroke="#94a3b8" d="M2627,-119C2627,-119 2430,-119 2430,-119 2424,-119 2418,-113 2418,-107 2418,-107 2418,-95 2418,-95 2418,-89 2424,-83 2430,-83 2430,-83 2627,-83 2627,-83 2633,-83 2639,-89 2639,-95 2639,-95 2639,-107 2639,-107 2639,-113 2633,-119 2627,-119"/>
<text text-anchor="middle" x="2528.5" y="-98.8" font-family="Arial" font-size="9.00" fill="#111827">AddEditTaskScreenKt.invoke$lambda$0\nscore=21</text>
</g>
<!-- n2 -->
<g id="node3" class="node">
<title>n2</title>
<path fill="#dceefe" stroke="#94a3b8" d="M337,-202C337,-202 176,-202 176,-202 170,-202 164,-196 164,-190 164,-190 164,-178 164,-178 164,-172 170,-166 176,-166 176,-166 337,-166 337,-166 343,-166 349,-172 349,-178 349,-178 349,-190 349,-190 349,-196 343,-202 337,-202"/>
<text text-anchor="middle" x="256.5" y="-181.8" font-family="Arial" font-size="9.00" fill="#111827">TopAppBarsKt.MoreTasksMenu\nscore=43</text>
</g>
<!-- n2&#45;&gt;n33 -->
<g id="edge3" class="edge">
<title>n2&#45;&gt;n33</title>
<path fill="none" stroke="#cbd5e1" stroke-width="0.9" d="M250.25,-165.68C243.49,-143.52 236.19,-105.36 256.5,-83 295.9,-39.62 687.56,-24.85 850.72,-20.55"/>
<polygon fill="#cbd5e1" stroke="#cbd5e1" stroke-width="0.9" points="850.98,-22.47 856.43,-20.4 850.88,-18.62 850.98,-22.47"/>
</g>
<!-- n35 -->
<g id="node36" class="node">
<title>n35</title>
<path fill="#dceefe" stroke="#94a3b8" d="M485,-119C485,-119 280,-119 280,-119 274,-119 268,-113 268,-107 268,-107 268,-95 268,-95 268,-89 274,-83 280,-83 280,-83 485,-83 485,-83 491,-83 497,-89 497,-95 497,-95 497,-107 497,-107 497,-113 491,-119 485,-119"/>
<text text-anchor="middle" x="382.5" y="-98.8" font-family="Arial" font-size="9.00" fill="#111827">TopAppBarsKt.TopAppBarDropdownMenu\nscore=72</text>
</g>
<!-- n2&#45;&gt;n35 -->
<g id="edge2" class="edge">
<title>n2&#45;&gt;n35</title>
<path fill="none" stroke="#cbd5e1" stroke-width="0.9" d="M283.22,-165.82C303.1,-153.04 330.29,-135.56 351.19,-122.13"/>
<polygon fill="#cbd5e1" stroke="#cbd5e1" stroke-width="0.9" points="352.23,-123.75 355.82,-119.15 350.15,-120.51 352.23,-123.75"/>
</g>
<!-- n3 -->
<g id="node4" class="node">
<title>n3</title>
<path fill="#dceefe" stroke="#94a3b8" d="M2842,-119C2842,-119 2673,-119 2673,-119 2667,-119 2661,-113 2661,-107 2661,-107 2661,-95 2661,-95 2661,-89 2667,-83 2673,-83 2673,-83 2842,-83 2842,-83 2848,-83 2854,-89 2854,-95 2854,-95 2854,-107 2854,-107 2854,-113 2848,-119 2842,-119"/>
<text text-anchor="middle" x="2757.5" y="-98.8" font-family="Arial" font-size="9.00" fill="#111827">TasksScreenKt.invoke$lambda$0\nscore=21</text>
</g>
<!-- n23 -->
<g id="node24" class="node">
<title>n23</title>
<path fill="#dceefe" stroke="#94a3b8" d="M2864.5,-36C2864.5,-36 2756.5,-36 2756.5,-36 2750.5,-36 2744.5,-30 2744.5,-24 2744.5,-24 2744.5,-12 2744.5,-12 2744.5,-6 2750.5,0 2756.5,0 2756.5,0 2864.5,0 2864.5,0 2870.5,0 2876.5,-6 2876.5,-12 2876.5,-12 2876.5,-24 2876.5,-24 2876.5,-30 2870.5,-36 2864.5,-36"/>
<text text-anchor="middle" x="2810.5" y="-15.8" font-family="Arial" font-size="9.00" fill="#111827">TasksScreenKt.get\nscore=21</text>
</g>
<!-- n3&#45;&gt;n23 -->
<g id="edge4" class="edge">
<title>n3&#45;&gt;n23</title>
<path fill="none" stroke="#cbd5e1" stroke-width="0.9" d="M2768.74,-82.82C2776.75,-70.58 2787.58,-54.02 2796.21,-40.84"/>
<polygon fill="#cbd5e1" stroke="#cbd5e1" stroke-width="0.9" points="2797.88,-41.81 2799.28,-36.15 2794.65,-39.7 2797.88,-41.81"/>
</g>
<!-- n4 -->
<g id="node5" class="node">
<title>n4</title>
<path fill="#dceefe" stroke="#94a3b8" d="M767.5,-119C767.5,-119 577.5,-119 577.5,-119 571.5,-119 565.5,-113 565.5,-107 565.5,-107 565.5,-95 565.5,-95 565.5,-89 571.5,-83 577.5,-83 577.5,-83 767.5,-83 767.5,-83 773.5,-83 779.5,-89 779.5,-95 779.5,-95 779.5,-107 779.5,-107 779.5,-113 773.5,-119 767.5,-119"/>
<text text-anchor="middle" x="672.5" y="-98.8" font-family="Arial" font-size="9.00" fill="#111827">TopAppBarsKt.AddEditTaskTopAppBar\nscore=48</text>
</g>
<!-- n4&#45;&gt;n33 -->
<g id="edge5" class="edge">
<title>n4&#45;&gt;n33</title>
<path fill="none" stroke="#cbd5e1" stroke-width="0.9" d="M725,-82.92C765.64,-69.7 821.87,-51.41 863.77,-37.78"/>
<polygon fill="#cbd5e1" stroke="#cbd5e1" stroke-width="0.9" points="864.43,-39.59 869.07,-36.06 863.24,-35.93 864.43,-39.59"/>
</g>
<!-- n5 -->
<g id="node6" class="node">
<title>n5</title>
<path fill="#dceefe" stroke="#94a3b8" d="M1687.5,-202C1687.5,-202 1565.5,-202 1565.5,-202 1559.5,-202 1553.5,-196 1553.5,-190 1553.5,-190 1553.5,-178 1553.5,-178 1553.5,-172 1559.5,-166 1565.5,-166 1565.5,-166 1687.5,-166 1687.5,-166 1693.5,-166 1699.5,-172 1699.5,-178 1699.5,-178 1699.5,-190 1699.5,-190 1699.5,-196 1693.5,-202 1687.5,-202"/>
<text text-anchor="middle" x="1626.5" y="-181.8" font-family="Arial" font-size="9.00" fill="#111827">TasksScreenKt.invoke\nscore=73</text>
</g>
<!-- n9 -->
<g id="node10" class="node">
<title>n9</title>
<path fill="#dceefe" stroke="#94a3b8" d="M1680.5,-119C1680.5,-119 1572.5,-119 1572.5,-119 1566.5,-119 1560.5,-113 1560.5,-107 1560.5,-107 1560.5,-95 1560.5,-95 1560.5,-89 1566.5,-83 1572.5,-83 1572.5,-83 1680.5,-83 1680.5,-83 1686.5,-83 1692.5,-89 1692.5,-95 1692.5,-95 1692.5,-107 1692.5,-107 1692.5,-113 1686.5,-119 1680.5,-119"/>
<text text-anchor="middle" x="1626.5" y="-98.8" font-family="Arial" font-size="9.00" fill="#111827">TasksScreenKt.get\nscore=25</text>
</g>
<!-- n5&#45;&gt;n9 -->
<g id="edge6" class="edge">
<title>n5&#45;&gt;n9</title>
<path fill="none" stroke="#cbd5e1" stroke-width="0.9" d="M1626.5,-165.82C1626.5,-153.9 1626.5,-137.89 1626.5,-124.89"/>
<polygon fill="#cbd5e1" stroke="#cbd5e1" stroke-width="0.9" points="1628.43,-124.65 1626.5,-119.15 1624.58,-124.65 1628.43,-124.65"/>
</g>
<!-- n22 -->
<g id="node23" class="node">
<title>n22</title>
<path fill="#dceefe" stroke="#94a3b8" d="M1888.5,-119C1888.5,-119 1726.5,-119 1726.5,-119 1720.5,-119 1714.5,-113 1714.5,-107 1714.5,-107 1714.5,-95 1714.5,-95 1714.5,-89 1720.5,-83 1726.5,-83 1726.5,-83 1888.5,-83 1888.5,-83 1894.5,-83 1900.5,-89 1900.5,-95 1900.5,-95 1900.5,-107 1900.5,-107 1900.5,-113 1894.5,-119 1888.5,-119"/>
<text text-anchor="middle" x="1807.5" y="-98.8" font-family="Arial" font-size="9.00" fill="#111827">TopAppBarsKt.TasksTopAppBar\nscore=60</text>
</g>
<!-- n5&#45;&gt;n22 -->
<g id="edge7" class="edge">
<title>n5&#45;&gt;n22</title>
<path fill="none" stroke="#cbd5e1" stroke-width="0.9" d="M1664.89,-165.82C1694.02,-152.78 1734.09,-134.85 1764.33,-121.32"/>
<polygon fill="#cbd5e1" stroke="#cbd5e1" stroke-width="0.9" points="1765.25,-123.02 1769.48,-119.01 1763.67,-119.5 1765.25,-123.02"/>
</g>
<!-- n6 -->
<g id="node7" class="node">
<title>n6</title>
<path fill="#dceefe" stroke="#94a3b8" d="M3094.5,-202C3094.5,-202 2962.5,-202 2962.5,-202 2956.5,-202 2950.5,-196 2950.5,-190 2950.5,-190 2950.5,-178 2950.5,-178 2950.5,-172 2956.5,-166 2962.5,-166 2962.5,-166 3094.5,-166 3094.5,-166 3100.5,-166 3106.5,-172 3106.5,-178 3106.5,-178 3106.5,-190 3106.5,-190 3106.5,-196 3100.5,-202 3094.5,-202"/>
<text text-anchor="middle" x="3028.5" y="-181.8" font-family="Arial" font-size="9.00" fill="#111827">TodoNavGraphKt.invoke\nscore=61</text>
</g>
<!-- n18 -->
<g id="node19" class="node">
<title>n18</title>
<path fill="#dceefe" stroke="#94a3b8" d="M3122,-119C3122,-119 2935,-119 2935,-119 2929,-119 2923,-113 2923,-107 2923,-107 2923,-95 2923,-95 2923,-89 2929,-83 2935,-83 2935,-83 3122,-83 3122,-83 3128,-83 3134,-89 3134,-95 3134,-95 3134,-107 3134,-107 3134,-113 3128,-119 3122,-119"/>
<text text-anchor="middle" x="3028.5" y="-98.8" font-family="Arial" font-size="9.00" fill="#111827">TaskDetailScreenKt.TaskDetailScreen\nscore=67</text>
</g>
<!-- n6&#45;&gt;n18 -->
<g id="edge8" class="edge">
<title>n6&#45;&gt;n18</title>
<path fill="none" stroke="#cbd5e1" stroke-width="0.9" d="M3028.5,-165.82C3028.5,-153.9 3028.5,-137.89 3028.5,-124.89"/>
<polygon fill="#cbd5e1" stroke="#cbd5e1" stroke-width="0.9" points="3030.43,-124.65 3028.5,-119.15 3026.58,-124.65 3030.43,-124.65"/>
</g>
<!-- n7 -->
<g id="node8" class="node">
<title>n7</title>
<path fill="#dceefe" stroke="#94a3b8" d="M3493.5,-119C3493.5,-119 3345.5,-119 3345.5,-119 3339.5,-119 3333.5,-113 3333.5,-107 3333.5,-107 3333.5,-95 3333.5,-95 3333.5,-89 3339.5,-83 3345.5,-83 3345.5,-83 3493.5,-83 3493.5,-83 3499.5,-83 3505.5,-89 3505.5,-95 3505.5,-95 3505.5,-107 3505.5,-107 3505.5,-113 3499.5,-119 3493.5,-119"/>
<text text-anchor="middle" x="3419.5" y="-98.8" font-family="Arial" font-size="9.00" fill="#111827">TasksScreenKt.TasksScreen\nscore=67</text>
</g>
<!-- n12 -->
<g id="node13" class="node">
<title>n12</title>
<path fill="#dceefe" stroke="#94a3b8" d="M3380.5,-36C3380.5,-36 3272.5,-36 3272.5,-36 3266.5,-36 3260.5,-30 3260.5,-24 3260.5,-24 3260.5,-12 3260.5,-12 3260.5,-6 3266.5,0 3272.5,0 3272.5,0 3380.5,0 3380.5,0 3386.5,0 3392.5,-6 3392.5,-12 3392.5,-12 3392.5,-24 3392.5,-24 3392.5,-30 3386.5,-36 3380.5,-36"/>
<text text-anchor="middle" x="3326.5" y="-15.8" font-family="Arial" font-size="9.00" fill="#111827">TasksScreenKt.get\nscore=53</text>
</g>
<!-- n7&#45;&gt;n12 -->
<g id="edge9" class="edge">
<title>n7&#45;&gt;n12</title>
<path fill="none" stroke="#cbd5e1" stroke-width="0.9" d="M3399.78,-82.82C3385.35,-70.26 3365.71,-53.15 3350.39,-39.81"/>
<polygon fill="#cbd5e1" stroke="#cbd5e1" stroke-width="0.9" points="3351.61,-38.31 3346.19,-36.15 3349.08,-41.22 3351.61,-38.31"/>
</g>
<!-- n8 -->
<g id="node9" class="node">
<title>n8</title>
<path fill="#dceefe" stroke="#94a3b8" d="M1029,-119C1029,-119 814,-119 814,-119 808,-119 802,-113 802,-107 802,-107 802,-95 802,-95 802,-89 808,-83 814,-83 814,-83 1029,-83 1029,-83 1035,-83 1041,-89 1041,-95 1041,-95 1041,-107 1041,-107 1041,-113 1035,-119 1029,-119"/>
<text text-anchor="middle" x="921.5" y="-98.8" font-family="Arial" font-size="9.00" fill="#111827">TopAppBarsKt.TaskDetailTopAppBarPreview\nscore=32</text>
</g>
<!-- n8&#45;&gt;n33 -->
<g id="edge10" class="edge">
<title>n8&#45;&gt;n33</title>
<path fill="none" stroke="#cbd5e1" stroke-width="0.9" d="M921.5,-82.82C921.5,-70.9 921.5,-54.89 921.5,-41.89"/>
<polygon fill="#cbd5e1" stroke="#cbd5e1" stroke-width="0.9" points="923.43,-41.65 921.5,-36.15 919.58,-41.65 923.43,-41.65"/>
</g>
<!-- n10 -->
<g id="node11" class="node">
<title>n10</title>
<path fill="#dceefe" stroke="#94a3b8" d="M3485.5,-202C3485.5,-202 3353.5,-202 3353.5,-202 3347.5,-202 3341.5,-196 3341.5,-190 3341.5,-190 3341.5,-178 3341.5,-178 3341.5,-172 3347.5,-166 3353.5,-166 3353.5,-166 3485.5,-166 3485.5,-166 3491.5,-166 3497.5,-172 3497.5,-178 3497.5,-178 3497.5,-190 3497.5,-190 3497.5,-196 3491.5,-202 3485.5,-202"/>
<text text-anchor="middle" x="3419.5" y="-181.8" font-family="Arial" font-size="9.00" fill="#111827">TodoNavGraphKt.invoke\nscore=69</text>
</g>
<!-- n10&#45;&gt;n7 -->
<g id="edge11" class="edge">
<title>n10&#45;&gt;n7</title>
<path fill="none" stroke="#cbd5e1" stroke-width="0.9" d="M3419.5,-165.82C3419.5,-153.9 3419.5,-137.89 3419.5,-124.89"/>
<polygon fill="#cbd5e1" stroke="#cbd5e1" stroke-width="0.9" points="3421.43,-124.65 3419.5,-119.15 3417.58,-124.65 3421.43,-124.65"/>
</g>
<!-- n11 -->
<g id="node12" class="node">
<title>n11</title>
<path fill="#dceefe" stroke="#94a3b8" d="M3707.5,-202C3707.5,-202 3575.5,-202 3575.5,-202 3569.5,-202 3563.5,-196 3563.5,-190 3563.5,-190 3563.5,-178 3563.5,-178 3563.5,-172 3569.5,-166 3575.5,-166 3575.5,-166 3707.5,-166 3707.5,-166 3713.5,-166 3719.5,-172 3719.5,-178 3719.5,-178 3719.5,-190 3719.5,-190 3719.5,-196 3713.5,-202 3707.5,-202"/>
<text text-anchor="middle" x="3641.5" y="-181.8" font-family="Arial" font-size="9.00" fill="#111827">TodoNavGraphKt.invoke\nscore=57</text>
</g>
<!-- n16 -->
<g id="node17" class="node">
<title>n16</title>
<path fill="#dceefe" stroke="#94a3b8" d="M3743,-119C3743,-119 3540,-119 3540,-119 3534,-119 3528,-113 3528,-107 3528,-107 3528,-95 3528,-95 3528,-89 3534,-83 3540,-83 3540,-83 3743,-83 3743,-83 3749,-83 3755,-89 3755,-95 3755,-95 3755,-107 3755,-107 3755,-113 3749,-119 3743,-119"/>
<text text-anchor="middle" x="3641.5" y="-98.8" font-family="Arial" font-size="9.00" fill="#111827">AddEditTaskScreenKt.AddEditTaskScreen\nscore=67</text>
</g>
<!-- n11&#45;&gt;n16 -->
<g id="edge12" class="edge">
<title>n11&#45;&gt;n16</title>
<path fill="none" stroke="#cbd5e1" stroke-width="0.9" d="M3641.5,-165.82C3641.5,-153.9 3641.5,-137.89 3641.5,-124.89"/>
<polygon fill="#cbd5e1" stroke="#cbd5e1" stroke-width="0.9" points="3643.43,-124.65 3641.5,-119.15 3639.58,-124.65 3643.43,-124.65"/>
</g>
<!-- n13 -->
<g id="node14" class="node">
<title>n13</title>
<path fill="#dceefe" stroke="#94a3b8" d="M3995.5,-119C3995.5,-119 3789.5,-119 3789.5,-119 3783.5,-119 3777.5,-113 3777.5,-107 3777.5,-107 3777.5,-95 3777.5,-95 3777.5,-89 3783.5,-83 3789.5,-83 3789.5,-83 3995.5,-83 3995.5,-83 4001.5,-83 4007.5,-89 4007.5,-95 4007.5,-95 4007.5,-107 4007.5,-107 4007.5,-113 4001.5,-119 3995.5,-119"/>
<text text-anchor="middle" x="3892.5" y="-98.8" font-family="Arial" font-size="9.00" fill="#111827">AddEditTaskScreenKt.AddEditTaskContent\nscore=70</text>
</g>
<!-- n37 -->
<g id="node38" class="node">
<title>n37</title>
<path fill="#dceefe" stroke="#94a3b8" d="M3834.5,-36C3834.5,-36 3698.5,-36 3698.5,-36 3692.5,-36 3686.5,-30 3686.5,-24 3686.5,-24 3686.5,-12 3686.5,-12 3686.5,-6 3692.5,0 3698.5,0 3698.5,0 3834.5,0 3834.5,0 3840.5,0 3846.5,-6 3846.5,-12 3846.5,-12 3846.5,-24 3846.5,-24 3846.5,-30 3840.5,-36 3834.5,-36"/>
<text text-anchor="middle" x="3766.5" y="-15.8" font-family="Arial" font-size="9.00" fill="#111827">AddEditTaskScreenKt.get\nscore=25</text>
</g>
<!-- n13&#45;&gt;n37 -->
<g id="edge13" class="edge">
<title>n13&#45;&gt;n37</title>
<path fill="none" stroke="#cbd5e1" stroke-width="0.9" d="M3865.78,-82.82C3845.9,-70.04 3818.71,-52.56 3797.81,-39.13"/>
<polygon fill="#cbd5e1" stroke="#cbd5e1" stroke-width="0.9" points="3798.85,-37.51 3793.18,-36.15 3796.77,-40.75 3798.85,-37.51"/>
</g>
<!-- n14 -->
<g id="node15" class="node">
<title>n14</title>
<path fill="#dceefe" stroke="#94a3b8" d="M4215,-119C4215,-119 4042,-119 4042,-119 4036,-119 4030,-113 4030,-107 4030,-107 4030,-95 4030,-95 4030,-89 4036,-83 4042,-83 4042,-83 4215,-83 4215,-83 4221,-83 4227,-89 4227,-95 4227,-95 4227,-107 4227,-107 4227,-113 4221,-119 4215,-119"/>
<text text-anchor="middle" x="4128.5" y="-98.8" font-family="Arial" font-size="9.00" fill="#111827">StatisticsScreenKt.StatisticsScreen\nscore=66</text>
</g>
<!-- n17 -->
<g id="node18" class="node">
<title>n17</title>
<path fill="#dceefe" stroke="#94a3b8" d="M4189,-36C4189,-36 4068,-36 4068,-36 4062,-36 4056,-30 4056,-24 4056,-24 4056,-12 4056,-12 4056,-6 4062,0 4068,0 4068,0 4189,0 4189,0 4195,0 4201,-6 4201,-12 4201,-12 4201,-24 4201,-24 4201,-30 4195,-36 4189,-36"/>
<text text-anchor="middle" x="4128.5" y="-15.8" font-family="Arial" font-size="9.00" fill="#111827">StatisticsScreenKt.get\nscore=27</text>
</g>
<!-- n14&#45;&gt;n17 -->
<g id="edge14" class="edge">
<title>n14&#45;&gt;n17</title>
<path fill="none" stroke="#cbd5e1" stroke-width="0.9" d="M4128.5,-82.82C4128.5,-70.9 4128.5,-54.89 4128.5,-41.89"/>
<polygon fill="#cbd5e1" stroke="#cbd5e1" stroke-width="0.9" points="4130.43,-41.65 4128.5,-36.15 4126.58,-41.65 4130.43,-41.65"/>
</g>
<!-- n15 -->
<g id="node16" class="node">
<title>n15</title>
<path fill="#dceefe" stroke="#94a3b8" d="M1298,-119C1298,-119 1075,-119 1075,-119 1069,-119 1063,-113 1063,-107 1063,-107 1063,-95 1063,-95 1063,-89 1069,-83 1075,-83 1075,-83 1298,-83 1298,-83 1304,-83 1310,-89 1310,-95 1310,-95 1310,-107 1310,-107 1310,-113 1304,-119 1298,-119"/>
<text text-anchor="middle" x="1186.5" y="-98.8" font-family="Arial" font-size="9.00" fill="#111827">TopAppBarsKt.AddEditTaskTopAppBarPreview\nscore=32</text>
</g>
<!-- n15&#45;&gt;n33 -->
<g id="edge15" class="edge">
<title>n15&#45;&gt;n33</title>
<path fill="none" stroke="#cbd5e1" stroke-width="0.9" d="M1130.62,-82.92C1087.29,-69.67 1027.28,-51.33 982.66,-37.7"/>
<polygon fill="#cbd5e1" stroke="#cbd5e1" stroke-width="0.9" points="983.12,-35.82 977.3,-36.06 982,-39.5 983.12,-35.82"/>
</g>
<!-- n16&#45;&gt;n37 -->
<g id="edge16" class="edge">
<title>n16&#45;&gt;n37</title>
<path fill="none" stroke="#cbd5e1" stroke-width="0.9" d="M3668.01,-82.82C3687.65,-70.1 3714.48,-52.71 3735.18,-39.3"/>
<polygon fill="#cbd5e1" stroke="#cbd5e1" stroke-width="0.9" points="3736.46,-40.76 3740.03,-36.15 3734.37,-37.53 3736.46,-40.76"/>
</g>
<!-- n25 -->
<g id="node26" class="node">
<title>n25</title>
<path fill="#dceefe" stroke="#94a3b8" d="M3092.5,-36C3092.5,-36 2964.5,-36 2964.5,-36 2958.5,-36 2952.5,-30 2952.5,-24 2952.5,-24 2952.5,-12 2952.5,-12 2952.5,-6 2958.5,0 2964.5,0 2964.5,0 3092.5,0 3092.5,0 3098.5,0 3104.5,-6 3104.5,-12 3104.5,-12 3104.5,-24 3104.5,-24 3104.5,-30 3098.5,-36 3092.5,-36"/>
<text text-anchor="middle" x="3028.5" y="-15.8" font-family="Arial" font-size="9.00" fill="#111827">TaskDetailScreenKt.get\nscore=31</text>
</g>
<!-- n18&#45;&gt;n25 -->
<g id="edge17" class="edge">
<title>n18&#45;&gt;n25</title>
<path fill="none" stroke="#cbd5e1" stroke-width="0.9" d="M3028.5,-82.82C3028.5,-70.9 3028.5,-54.89 3028.5,-41.89"/>
<polygon fill="#cbd5e1" stroke="#cbd5e1" stroke-width="0.9" points="3030.43,-41.65 3028.5,-36.15 3026.58,-41.65 3030.43,-41.65"/>
</g>
<!-- n19 -->
<g id="node20" class="node">
<title>n19</title>
<path fill="#dceefe" stroke="#94a3b8" d="M566.5,-202C566.5,-202 406.5,-202 406.5,-202 400.5,-202 394.5,-196 394.5,-190 394.5,-190 394.5,-178 394.5,-178 394.5,-172 400.5,-166 406.5,-166 406.5,-166 566.5,-166 566.5,-166 572.5,-166 578.5,-172 578.5,-178 578.5,-178 578.5,-190 578.5,-190 578.5,-196 572.5,-202 566.5,-202"/>
<text text-anchor="middle" x="486.5" y="-181.8" font-family="Arial" font-size="9.00" fill="#111827">TopAppBarsKt.FilterTasksMenu\nscore=45</text>
</g>
<!-- n19&#45;&gt;n33 -->
<g id="edge19" class="edge">
<title>n19&#45;&gt;n33</title>
<path fill="none" stroke="#cbd5e1" stroke-width="0.9" d="M493.18,-165.68C502.96,-142.79 523.45,-103.04 554.5,-83 602.34,-52.13 757.97,-33.45 850.49,-24.79"/>
<polygon fill="#cbd5e1" stroke="#cbd5e1" stroke-width="0.9" points="850.92,-26.69 856.22,-24.26 850.56,-22.85 850.92,-26.69"/>
</g>
<!-- n19&#45;&gt;n35 -->
<g id="edge18" class="edge">
<title>n19&#45;&gt;n35</title>
<path fill="none" stroke="#cbd5e1" stroke-width="0.9" d="M464.44,-165.82C448.31,-153.26 426.35,-136.15 409.22,-122.81"/>
<polygon fill="#cbd5e1" stroke="#cbd5e1" stroke-width="0.9" points="410.05,-121.01 404.52,-119.15 407.68,-124.05 410.05,-121.01"/>
</g>
<!-- n20 -->
<g id="node21" class="node">
<title>n20</title>
<path fill="#dceefe" stroke="#94a3b8" d="M1526.5,-119C1526.5,-119 1344.5,-119 1344.5,-119 1338.5,-119 1332.5,-113 1332.5,-107 1332.5,-107 1332.5,-95 1332.5,-95 1332.5,-89 1338.5,-83 1344.5,-83 1344.5,-83 1526.5,-83 1526.5,-83 1532.5,-83 1538.5,-89 1538.5,-95 1538.5,-95 1538.5,-107 1538.5,-107 1538.5,-113 1532.5,-119 1526.5,-119"/>
<text text-anchor="middle" x="1435.5" y="-98.8" font-family="Arial" font-size="9.00" fill="#111827">TopAppBarsKt.TaskDetailTopAppBar\nscore=52</text>
</g>
<!-- n20&#45;&gt;n33 -->
<g id="edge20" class="edge">
<title>n20&#45;&gt;n33</title>
<path fill="none" stroke="#cbd5e1" stroke-width="0.9" d="M1332.41,-83.75C1231.37,-67.83 1080.08,-43.99 992.03,-30.11"/>
<polygon fill="#cbd5e1" stroke="#cbd5e1" stroke-width="0.9" points="992.31,-28.21 986.58,-29.26 991.72,-32.01 992.31,-28.21"/>
</g>
<!-- n21 -->
<g id="node22" class="node">
<title>n21</title>
<path fill="#dceefe" stroke="#94a3b8" d="M4468.5,-202C4468.5,-202 4348.5,-202 4348.5,-202 4342.5,-202 4336.5,-196 4336.5,-190 4336.5,-190 4336.5,-178 4336.5,-178 4336.5,-172 4342.5,-166 4348.5,-166 4348.5,-166 4468.5,-166 4468.5,-166 4474.5,-166 4480.5,-172 4480.5,-178 4480.5,-178 4480.5,-190 4480.5,-190 4480.5,-196 4474.5,-202 4468.5,-202"/>
<text text-anchor="middle" x="4408.5" y="-181.8" font-family="Arial" font-size="9.00" fill="#111827">TopAppBarsKt.invoke\nscore=72</text>
</g>
<!-- n22&#45;&gt;n33 -->
<g id="edge21" class="edge">
<title>n22&#45;&gt;n33</title>
<path fill="none" stroke="#cbd5e1" stroke-width="0.9" d="M1714.28,-84.39C1710.65,-83.9 1707.04,-83.43 1703.5,-83 1442.12,-50.99 1129.56,-30.83 992.17,-22.88"/>
<polygon fill="#cbd5e1" stroke="#cbd5e1" stroke-width="0.9" points="992.16,-20.95 986.56,-22.55 991.94,-24.79 992.16,-20.95"/>
</g>
<!-- n24 -->
<g id="node25" class="node">
<title>n24</title>
<path fill="#dceefe" stroke="#94a3b8" d="M3299,-119C3299,-119 3168,-119 3168,-119 3162,-119 3156,-113 3156,-107 3156,-107 3156,-95 3156,-95 3156,-89 3162,-83 3168,-83 3168,-83 3299,-83 3299,-83 3305,-83 3311,-89 3311,-95 3311,-95 3311,-107 3311,-107 3311,-113 3305,-119 3299,-119"/>
<text text-anchor="middle" x="3233.5" y="-98.8" font-family="Arial" font-size="9.00" fill="#111827">TasksScreenKt.TaskItem\nscore=67</text>
</g>
<!-- n24&#45;&gt;n12 -->
<g id="edge22" class="edge">
<title>n24&#45;&gt;n12</title>
<path fill="none" stroke="#cbd5e1" stroke-width="0.9" d="M3253.22,-82.82C3267.65,-70.26 3287.29,-53.15 3302.61,-39.81"/>
<polygon fill="#cbd5e1" stroke="#cbd5e1" stroke-width="0.9" points="3303.92,-41.22 3306.81,-36.15 3301.39,-38.31 3303.92,-41.22"/>
</g>
<!-- n26 -->
<g id="node27" class="node">
<title>n26</title>
<path fill="#dceefe" stroke="#94a3b8" d="M2606,-202C2606,-202 2451,-202 2451,-202 2445,-202 2439,-196 2439,-190 2439,-190 2439,-178 2439,-178 2439,-172 2445,-166 2451,-166 2451,-166 2606,-166 2606,-166 2612,-166 2618,-172 2618,-178 2618,-178 2618,-190 2618,-190 2618,-196 2612,-202 2606,-202"/>
<text text-anchor="middle" x="2528.5" y="-181.8" font-family="Arial" font-size="9.00" fill="#111827">AddEditTaskScreenKt.invoke\nscore=106</text>
</g>
<!-- n26&#45;&gt;n1 -->
<g id="edge23" class="edge">
<title>n26&#45;&gt;n1</title>
<path fill="none" stroke="#cbd5e1" stroke-width="0.9" d="M2500.95,-165.82C2494.53,-153.69 2493.78,-137.31 2498.7,-124.19"/>
<polygon fill="#cbd5e1" stroke="#cbd5e1" stroke-width="0.9" points="2500.47,-124.96 2500.96,-119.15 2496.95,-123.38 2500.47,-124.96"/>
</g>
<!-- n26&#45;&gt;n1 -->
<g id="edge24" class="edge">
<title>n26&#45;&gt;n1</title>
<path fill="none" stroke="#cbd5e1" stroke-width="0.9" d="M2514.72,-165.82C2511.54,-153.79 2511.15,-137.6 2513.54,-124.54"/>
<polygon fill="#cbd5e1" stroke="#cbd5e1" stroke-width="0.9" points="2515.42,-124.94 2514.73,-119.15 2511.66,-124.11 2515.42,-124.94"/>
</g>
<!-- n26&#45;&gt;n1 -->
<g id="edge25" class="edge">
<title>n26&#45;&gt;n1</title>
<path fill="none" stroke="#cbd5e1" stroke-width="0.9" d="M2528.5,-165.82C2528.5,-153.9 2528.5,-137.89 2528.5,-124.89"/>
<polygon fill="#cbd5e1" stroke="#cbd5e1" stroke-width="0.9" points="2530.43,-124.65 2528.5,-119.15 2526.58,-124.65 2530.43,-124.65"/>
</g>
<!-- n26&#45;&gt;n1 -->
<g id="edge26" class="edge">
<title>n26&#45;&gt;n1</title>
<path fill="none" stroke="#cbd5e1" stroke-width="0.9" d="M2542.28,-165.82C2545.46,-153.79 2545.85,-137.6 2543.46,-124.54"/>
<polygon fill="#cbd5e1" stroke="#cbd5e1" stroke-width="0.9" points="2545.34,-124.11 2542.27,-119.15 2541.58,-124.94 2545.34,-124.11"/>
</g>
<!-- n26&#45;&gt;n1 -->
<g id="edge27" class="edge">
<title>n26&#45;&gt;n1</title>
<path fill="none" stroke="#cbd5e1" stroke-width="0.9" d="M2556.05,-165.82C2562.47,-153.69 2563.22,-137.31 2558.3,-124.19"/>
<polygon fill="#cbd5e1" stroke="#cbd5e1" stroke-width="0.9" points="2560.05,-123.38 2556.04,-119.15 2556.53,-124.96 2560.05,-123.38"/>
</g>
<!-- n27 -->
<g id="node28" class="node">
<title>n27</title>
<path fill="#dceefe" stroke="#94a3b8" d="M1891.5,-202C1891.5,-202 1733.5,-202 1733.5,-202 1727.5,-202 1721.5,-196 1721.5,-190 1721.5,-190 1721.5,-178 1721.5,-178 1721.5,-172 1727.5,-166 1733.5,-166 1733.5,-166 1891.5,-166 1891.5,-166 1897.5,-166 1903.5,-172 1903.5,-178 1903.5,-178 1903.5,-190 1903.5,-190 1903.5,-196 1897.5,-202 1891.5,-202"/>
<text text-anchor="middle" x="1812.5" y="-181.8" font-family="Arial" font-size="9.00" fill="#111827">ComposableSingletons.invoke\nscore=75</text>
</g>
<!-- n27&#45;&gt;n22 -->
<g id="edge28" class="edge">
<title>n27&#45;&gt;n22</title>
<path fill="none" stroke="#cbd5e1" stroke-width="0.9" d="M1811.44,-165.82C1810.7,-153.9 1809.72,-137.89 1808.91,-124.89"/>
<polygon fill="#cbd5e1" stroke="#cbd5e1" stroke-width="0.9" points="1810.82,-124.52 1808.56,-119.15 1806.98,-124.76 1810.82,-124.52"/>
</g>
<!-- n28 -->
<g id="node29" class="node">
<title>n28</title>
<path fill="#dceefe" stroke="#94a3b8" d="M2821.5,-202C2821.5,-202 2693.5,-202 2693.5,-202 2687.5,-202 2681.5,-196 2681.5,-190 2681.5,-190 2681.5,-178 2681.5,-178 2681.5,-172 2687.5,-166 2693.5,-166 2693.5,-166 2821.5,-166 2821.5,-166 2827.5,-166 2833.5,-172 2833.5,-178 2833.5,-178 2833.5,-190 2833.5,-190 2833.5,-196 2827.5,-202 2821.5,-202"/>
<text text-anchor="middle" x="2757.5" y="-181.8" font-family="Arial" font-size="9.00" fill="#111827">TasksScreenKt.invoke\nscore=121</text>
</g>
<!-- n28&#45;&gt;n3 -->
<g id="edge29" class="edge">
<title>n28&#45;&gt;n3</title>
<path fill="none" stroke="#cbd5e1" stroke-width="0.9" d="M2723.06,-165.82C2715.04,-153.69 2714.1,-137.31 2720.25,-124.19"/>
<polygon fill="#cbd5e1" stroke="#cbd5e1" stroke-width="0.9" points="2722.06,-124.89 2723.07,-119.15 2718.71,-123.01 2722.06,-124.89"/>
</g>
<!-- n28&#45;&gt;n3 -->
<g id="edge30" class="edge">
<title>n28&#45;&gt;n3</title>
<path fill="none" stroke="#cbd5e1" stroke-width="0.9" d="M2736.83,-165.82C2732.07,-153.79 2731.47,-137.6 2735.05,-124.54"/>
<polygon fill="#cbd5e1" stroke="#cbd5e1" stroke-width="0.9" points="2736.94,-124.98 2736.84,-119.15 2733.28,-123.77 2736.94,-124.98"/>
</g>
<!-- n28&#45;&gt;n3 -->
<g id="edge31" class="edge">
<title>n28&#45;&gt;n3</title>
<path fill="none" stroke="#cbd5e1" stroke-width="0.9" d="M2750.61,-165.82C2749.04,-153.9 2748.83,-137.89 2749.99,-124.89"/>
<polygon fill="#cbd5e1" stroke="#cbd5e1" stroke-width="0.9" points="2751.93,-124.83 2750.61,-119.15 2748.1,-124.41 2751.93,-124.83"/>
</g>
<!-- n28&#45;&gt;n3 -->
<g id="edge32" class="edge">
<title>n28&#45;&gt;n3</title>
<path fill="none" stroke="#cbd5e1" stroke-width="0.9" d="M2764.39,-165.82C2765.96,-153.9 2766.17,-137.89 2765.01,-124.89"/>
<polygon fill="#cbd5e1" stroke="#cbd5e1" stroke-width="0.9" points="2766.9,-124.41 2764.39,-119.15 2763.07,-124.83 2766.9,-124.41"/>
</g>
<!-- n28&#45;&gt;n3 -->
<g id="edge33" class="edge">
<title>n28&#45;&gt;n3</title>
<path fill="none" stroke="#cbd5e1" stroke-width="0.9" d="M2778.17,-165.82C2782.93,-153.79 2783.53,-137.6 2779.95,-124.54"/>
<polygon fill="#cbd5e1" stroke="#cbd5e1" stroke-width="0.9" points="2781.72,-123.77 2778.16,-119.15 2778.06,-124.98 2781.72,-123.77"/>
</g>
<!-- n28&#45;&gt;n3 -->
<g id="edge34" class="edge">
<title>n28&#45;&gt;n3</title>
<path fill="none" stroke="#cbd5e1" stroke-width="0.9" d="M2791.94,-165.82C2799.96,-153.69 2800.9,-137.31 2794.75,-124.19"/>
<polygon fill="#cbd5e1" stroke="#cbd5e1" stroke-width="0.9" points="2796.29,-123.01 2791.93,-119.15 2792.94,-124.89 2796.29,-123.01"/>
</g>
<!-- n28&#45;&gt;n23 -->
<g id="edge35" class="edge">
<title>n28&#45;&gt;n23</title>
<path fill="none" stroke="#cbd5e1" stroke-width="0.9" d="M2807.67,-165.98C2829.18,-155.9 2852.17,-140.75 2864.5,-119 2879.83,-91.97 2855.86,-60.35 2835.14,-40.02"/>
<polygon fill="#cbd5e1" stroke="#cbd5e1" stroke-width="0.9" points="2836.36,-38.52 2831.05,-36.1 2833.7,-41.3 2836.36,-38.52"/>
</g>
<!-- n29 -->
<g id="node30" class="node">
<title>n29</title>
<path fill="#dceefe" stroke="#94a3b8" d="M2142.5,-119C2142.5,-119 1934.5,-119 1934.5,-119 1928.5,-119 1922.5,-113 1922.5,-107 1922.5,-107 1922.5,-95 1922.5,-95 1922.5,-89 1928.5,-83 1934.5,-83 1934.5,-83 2142.5,-83 2142.5,-83 2148.5,-83 2154.5,-89 2154.5,-95 2154.5,-95 2154.5,-107 2154.5,-107 2154.5,-113 2148.5,-119 2142.5,-119"/>
<text text-anchor="middle" x="2038.5" y="-98.8" font-family="Arial" font-size="9.00" fill="#111827">TopAppBarsKt.StatisticsTopAppBarPreview\nscore=32</text>
</g>
<!-- n29&#45;&gt;n33 -->
<g id="edge36" class="edge">
<title>n29&#45;&gt;n33</title>
<path fill="none" stroke="#cbd5e1" stroke-width="0.9" d="M1922.27,-84.12C1918.64,-83.72 1915.04,-83.35 1911.5,-83 1567.86,-48.93 1155.23,-28.97 992.47,-21.92"/>
<polygon fill="#cbd5e1" stroke="#cbd5e1" stroke-width="0.9" points="992.36,-19.99 986.78,-21.67 992.2,-23.83 992.36,-19.99"/>
</g>
<!-- n30 -->
<g id="node31" class="node">
<title>n30</title>
<path fill="#dceefe" stroke="#94a3b8" d="M4098.5,-202C4098.5,-202 3966.5,-202 3966.5,-202 3960.5,-202 3954.5,-196 3954.5,-190 3954.5,-190 3954.5,-178 3954.5,-178 3954.5,-172 3960.5,-166 3966.5,-166 3966.5,-166 4098.5,-166 4098.5,-166 4104.5,-166 4110.5,-172 4110.5,-178 4110.5,-178 4110.5,-190 4110.5,-190 4110.5,-196 4104.5,-202 4098.5,-202"/>
<text text-anchor="middle" x="4032.5" y="-181.8" font-family="Arial" font-size="9.00" fill="#111827">TodoNavGraphKt.invoke\nscore=45</text>
</g>
<!-- n30&#45;&gt;n14 -->
<g id="edge37" class="edge">
<title>n30&#45;&gt;n14</title>
<path fill="none" stroke="#cbd5e1" stroke-width="0.9" d="M4052.86,-165.82C4067.75,-153.26 4088.03,-136.15 4103.84,-122.81"/>
<polygon fill="#cbd5e1" stroke="#cbd5e1" stroke-width="0.9" points="4105.21,-124.17 4108.17,-119.15 4102.73,-121.23 4105.21,-124.17"/>
</g>
<!-- n31 -->
<g id="node32" class="node">
<title>n31</title>
<path fill="#dceefe" stroke="#94a3b8" d="M4660.5,-202C4660.5,-202 4514.5,-202 4514.5,-202 4508.5,-202 4502.5,-196 4502.5,-190 4502.5,-190 4502.5,-178 4502.5,-178 4502.5,-172 4508.5,-166 4514.5,-166 4514.5,-166 4660.5,-166 4660.5,-166 4666.5,-166 4672.5,-172 4672.5,-178 4672.5,-178 4672.5,-190 4672.5,-190 4672.5,-196 4666.5,-202 4660.5,-202"/>
<text text-anchor="middle" x="4587.5" y="-181.8" font-family="Arial" font-size="9.00" fill="#111827">TaskDetailScreenKt.invoke\nscore=112</text>
</g>
<!-- n41 -->
<g id="node42" class="node">
<title>n41</title>
<path fill="#dceefe" stroke="#94a3b8" d="M4681.5,-119C4681.5,-119 4493.5,-119 4493.5,-119 4487.5,-119 4481.5,-113 4481.5,-107 4481.5,-107 4481.5,-95 4481.5,-95 4481.5,-89 4487.5,-83 4493.5,-83 4493.5,-83 4681.5,-83 4681.5,-83 4687.5,-83 4693.5,-89 4693.5,-95 4693.5,-95 4693.5,-107 4693.5,-107 4693.5,-113 4687.5,-119 4681.5,-119"/>
<text text-anchor="middle" x="4587.5" y="-98.8" font-family="Arial" font-size="9.00" fill="#111827">TaskDetailScreenKt.invoke$lambda$0\nscore=23</text>
</g>
<!-- n31&#45;&gt;n41 -->
<g id="edge38" class="edge">
<title>n31&#45;&gt;n41</title>
<path fill="none" stroke="#cbd5e1" stroke-width="0.9" d="M4553.06,-165.82C4545.04,-153.69 4544.1,-137.31 4550.25,-124.19"/>
<polygon fill="#cbd5e1" stroke="#cbd5e1" stroke-width="0.9" points="4552.06,-124.89 4553.07,-119.15 4548.71,-123.01 4552.06,-124.89"/>
</g>
<!-- n31&#45;&gt;n41 -->
<g id="edge39" class="edge">
<title>n31&#45;&gt;n41</title>
<path fill="none" stroke="#cbd5e1" stroke-width="0.9" d="M4566.83,-165.82C4562.07,-153.79 4561.47,-137.6 4565.05,-124.54"/>
<polygon fill="#cbd5e1" stroke="#cbd5e1" stroke-width="0.9" points="4566.94,-124.98 4566.84,-119.15 4563.28,-123.77 4566.94,-124.98"/>
</g>
<!-- n31&#45;&gt;n41 -->
<g id="edge40" class="edge">
<title>n31&#45;&gt;n41</title>
<path fill="none" stroke="#cbd5e1" stroke-width="0.9" d="M4580.61,-165.82C4579.04,-153.9 4578.83,-137.89 4579.99,-124.89"/>
<polygon fill="#cbd5e1" stroke="#cbd5e1" stroke-width="0.9" points="4581.93,-124.83 4580.61,-119.15 4578.1,-124.41 4581.93,-124.83"/>
</g>
<!-- n31&#45;&gt;n41 -->
<g id="edge41" class="edge">
<title>n31&#45;&gt;n41</title>
<path fill="none" stroke="#cbd5e1" stroke-width="0.9" d="M4594.39,-165.82C4595.96,-153.9 4596.17,-137.89 4595.01,-124.89"/>
<polygon fill="#cbd5e1" stroke="#cbd5e1" stroke-width="0.9" points="4596.9,-124.41 4594.39,-119.15 4593.07,-124.83 4596.9,-124.41"/>
</g>
<!-- n31&#45;&gt;n41 -->
<g id="edge42" class="edge">
<title>n31&#45;&gt;n41</title>
<path fill="none" stroke="#cbd5e1" stroke-width="0.9" d="M4608.17,-165.82C4612.93,-153.79 4613.53,-137.6 4609.95,-124.54"/>
<polygon fill="#cbd5e1" stroke="#cbd5e1" stroke-width="0.9" points="4611.72,-123.77 4608.16,-119.15 4608.06,-124.98 4611.72,-123.77"/>
</g>
<!-- n31&#45;&gt;n41 -->
<g id="edge43" class="edge">
<title>n31&#45;&gt;n41</title>
<path fill="none" stroke="#cbd5e1" stroke-width="0.9" d="M4621.94,-165.82C4629.96,-153.69 4630.9,-137.31 4624.75,-124.19"/>
<polygon fill="#cbd5e1" stroke="#cbd5e1" stroke-width="0.9" points="4626.29,-123.01 4621.93,-119.15 4622.94,-124.89 4626.29,-123.01"/>
</g>
<!-- n32 -->
<g id="node33" class="node">
<title>n32</title>
<path fill="#dceefe" stroke="#94a3b8" d="M4874,-202C4874,-202 4707,-202 4707,-202 4701,-202 4695,-196 4695,-190 4695,-190 4695,-178 4695,-178 4695,-172 4701,-166 4707,-166 4707,-166 4874,-166 4874,-166 4880,-166 4886,-172 4886,-178 4886,-178 4886,-190 4886,-190 4886,-196 4880,-202 4874,-202"/>
<text text-anchor="middle" x="4790.5" y="-181.8" font-family="Arial" font-size="9.00" fill="#111827">TodoNavGraphKt.TodoNavGraph\nscore=64</text>
</g>
<!-- n34 -->
<g id="node35" class="node">
<title>n34</title>
<path fill="#dceefe" stroke="#94a3b8" d="M5062.5,-202C5062.5,-202 4920.5,-202 4920.5,-202 4914.5,-202 4908.5,-196 4908.5,-190 4908.5,-190 4908.5,-178 4908.5,-178 4908.5,-172 4914.5,-166 4920.5,-166 4920.5,-166 5062.5,-166 5062.5,-166 5068.5,-166 5074.5,-172 5074.5,-178 5074.5,-178 5074.5,-190 5074.5,-190 5074.5,-196 5068.5,-202 5062.5,-202"/>
<text text-anchor="middle" x="4991.5" y="-181.8" font-family="Arial" font-size="9.00" fill="#111827">TaskDetailScreenKt.invoke\nscore=67</text>
</g>
<!-- n35&#45;&gt;n33 -->
<g id="edge44" class="edge">
<title>n35&#45;&gt;n33</title>
<path fill="none" stroke="#cbd5e1" stroke-width="0.9" d="M495.82,-82.97C602.89,-66.88 760.17,-43.24 850.55,-29.66"/>
<polygon fill="#cbd5e1" stroke="#cbd5e1" stroke-width="0.9" points="850.98,-31.54 856.13,-28.82 850.41,-27.74 850.98,-31.54"/>
</g>
<!-- n36 -->
<g id="node37" class="node">
<title>n36</title>
<path fill="#dceefe" stroke="#94a3b8" d="M2384,-119C2384,-119 2189,-119 2189,-119 2183,-119 2177,-113 2177,-107 2177,-107 2177,-95 2177,-95 2177,-89 2183,-83 2189,-83 2189,-83 2384,-83 2384,-83 2390,-83 2396,-89 2396,-95 2396,-95 2396,-107 2396,-107 2396,-113 2390,-119 2384,-119"/>
<text text-anchor="middle" x="2286.5" y="-98.8" font-family="Arial" font-size="9.00" fill="#111827">TopAppBarsKt.TasksTopAppBarPreview\nscore=32</text>
</g>
<!-- n36&#45;&gt;n33 -->
<g id="edge45" class="edge">
<title>n36&#45;&gt;n33</title>
<path fill="none" stroke="#cbd5e1" stroke-width="0.9" d="M2176.74,-84.15C2172.95,-83.74 2169.2,-83.35 2165.5,-83 1720.24,-40.35 1182.41,-24.84 992.26,-20.46"/>
<polygon fill="#cbd5e1" stroke="#cbd5e1" stroke-width="0.9" points="992.28,-18.53 986.73,-20.33 992.19,-22.38 992.28,-18.53"/>
</g>
<!-- n38 -->
<g id="node39" class="node">
<title>n38</title>
<path fill="#dceefe" stroke="#94a3b8" d="M4302.5,-202C4302.5,-202 4144.5,-202 4144.5,-202 4138.5,-202 4132.5,-196 4132.5,-190 4132.5,-190 4132.5,-178 4132.5,-178 4132.5,-172 4138.5,-166 4144.5,-166 4144.5,-166 4302.5,-166 4302.5,-166 4308.5,-166 4314.5,-172 4314.5,-178 4314.5,-178 4314.5,-190 4314.5,-190 4314.5,-196 4308.5,-202 4302.5,-202"/>
<text text-anchor="middle" x="4223.5" y="-181.8" font-family="Arial" font-size="9.00" fill="#111827">ComposableSingletons.invoke\nscore=42</text>
</g>
<!-- n38&#45;&gt;n14 -->
<g id="edge46" class="edge">
<title>n38&#45;&gt;n14</title>
<path fill="none" stroke="#cbd5e1" stroke-width="0.9" d="M4203.35,-165.82C4188.62,-153.26 4168.55,-136.15 4152.91,-122.81"/>
<polygon fill="#cbd5e1" stroke="#cbd5e1" stroke-width="0.9" points="4154.05,-121.26 4148.62,-119.15 4151.55,-124.19 4154.05,-121.26"/>
</g>
<!-- n39 -->
<g id="node40" class="node">
<title>n39</title>
<path fill="#dceefe" stroke="#94a3b8" d="M5244,-202C5244,-202 5109,-202 5109,-202 5103,-202 5097,-196 5097,-190 5097,-190 5097,-178 5097,-178 5097,-172 5103,-166 5109,-166 5109,-166 5244,-166 5244,-166 5250,-166 5256,-172 5256,-178 5256,-178 5256,-190 5256,-190 5256,-196 5250,-202 5244,-202"/>
<text text-anchor="middle" x="5176.5" y="-181.8" font-family="Arial" font-size="9.00" fill="#111827">StatisticsScreenKt.invoke\nscore=78</text>
</g>
<!-- n40 -->
<g id="node41" class="node">
<title>n40</title>
<path fill="#dceefe" stroke="#94a3b8" d="M5448.5,-202C5448.5,-202 5290.5,-202 5290.5,-202 5284.5,-202 5278.5,-196 5278.5,-190 5278.5,-190 5278.5,-178 5278.5,-178 5278.5,-172 5284.5,-166 5290.5,-166 5290.5,-166 5448.5,-166 5448.5,-166 5454.5,-166 5460.5,-172 5460.5,-178 5460.5,-178 5460.5,-190 5460.5,-190 5460.5,-196 5454.5,-202 5448.5,-202"/>
<text text-anchor="middle" x="5369.5" y="-181.8" font-family="Arial" font-size="9.00" fill="#111827">ComposableSingletons.invoke\nscore=79</text>
</g>
</g>
</svg>
