<?xml version="1.0" encoding="UTF-8" standalone="no"?>
<!DOCTYPE svg PUBLIC "-//W3C//DTD SVG 1.1//EN"
 "http://www.w3.org/Graphics/SVG/1.1/DTD/svg11.dtd">
<!-- Generated by graphviz version 2.42.4 (0)
 -->
<!-- Title: APKGraph Pages: 1 -->
<svg width="3668pt" height="363pt"
 viewBox="0.00 0.00 3668.40 363.40" xmlns="http://www.w3.org/2000/svg" xmlns:xlink="http://www.w3.org/1999/xlink">
<g id="graph0" class="graph" transform="scale(1 1) rotate(0) translate(25.2 338.2)">
<title>APKGraph</title>
<polygon fill="white" stroke="transparent" points="-25.2,25.2 -25.2,-338.2 3643.2,-338.2 3643.2,25.2 -25.2,25.2"/>
<text text-anchor="middle" x="1809" y="-294.6" font-family="Arial" font-size="18.00">图 15&#45;2 &#160;APK 核心逻辑调用图：ViewModel 与业务逻辑</text>
<!-- n0 -->
<g id="node1" class="node">
<title>n0</title>
<path fill="#dceefe" stroke="#94a3b8" d="M323.5,-119C323.5,-119 191.5,-119 191.5,-119 185.5,-119 179.5,-113 179.5,-107 179.5,-107 179.5,-95 179.5,-95 179.5,-89 185.5,-83 191.5,-83 191.5,-83 323.5,-83 323.5,-83 329.5,-83 335.5,-89 335.5,-95 335.5,-95 335.5,-107 335.5,-107 335.5,-113 329.5,-119 323.5,-119"/>
<text text-anchor="middle" x="257.5" y="-98.8" font-family="Arial" font-size="9.00" fill="#111827">TaskDetailScreenKt.&lt;init&gt;\nscore=7</text>
</g>
<!-- n1 -->
<g id="node2" class="node">
<title>n1</title>
<path fill="#dceefe" stroke="#94a3b8" d="M849.5,-202C849.5,-202 683.5,-202 683.5,-202 677.5,-202 671.5,-196 671.5,-190 671.5,-190 671.5,-178 671.5,-178 671.5,-172 677.5,-166 683.5,-166 683.5,-166 849.5,-166 849.5,-166 855.5,-166 861.5,-172 861.5,-178 861.5,-178 861.5,-190 861.5,-190 861.5,-196 855.5,-202 849.5,-202"/>
<text text-anchor="middle" x="766.5" y="-181.8" font-family="Arial" font-size="9.00" fill="#111827">TaskDetailViewModel.getUiState\nscore=12</text>
</g>
<!-- n2 -->
<g id="node3" class="node">
<title>n2</title>
<path fill="#dceefe" stroke="#94a3b8" d="M1174,-36C1174,-36 1061,-36 1061,-36 1055,-36 1049,-30 1049,-24 1049,-24 1049,-12 1049,-12 1049,-6 1055,0 1061,0 1061,0 1174,0 1174,0 1180,0 1186,-6 1186,-12 1186,-12 1186,-24 1186,-24 1186,-30 1180,-36 1174,-36"/>
<text text-anchor="middle" x="1117.5" y="-15.8" font-family="Arial" font-size="9.00" fill="#111827">TasksScreenKt.&lt;init&gt;\nscore=4</text>
</g>
<!-- n3 -->
<g id="node4" class="node">
<title>n3</title>
<path fill="#f8fafc" stroke="#94a3b8" d="M1185.5,-119C1185.5,-119 1063.5,-119 1063.5,-119 1057.5,-119 1051.5,-113 1051.5,-107 1051.5,-107 1051.5,-95 1051.5,-95 1051.5,-89 1057.5,-83 1063.5,-83 1063.5,-83 1185.5,-83 1185.5,-83 1191.5,-83 1197.5,-89 1197.5,-95 1197.5,-95 1197.5,-107 1197.5,-107 1197.5,-113 1191.5,-119 1185.5,-119"/>
<text text-anchor="middle" x="1124.5" y="-98.8" font-family="Arial" font-size="9.00" fill="#111827">TasksScreenKt.invoke\nscore=73</text>
</g>
<!-- n3&#45;&gt;n2 -->
<g id="edge3" class="edge">
<title>n3&#45;&gt;n2</title>
<path fill="none" stroke="#cbd5e1" stroke-width="0.9" d="M1123.02,-82.82C1121.99,-70.9 1120.6,-54.89 1119.48,-41.89"/>
<polygon fill="#cbd5e1" stroke="#cbd5e1" stroke-width="0.9" points="1121.37,-41.47 1118.98,-36.15 1117.54,-41.8 1121.37,-41.47"/>
</g>
<!-- n10 -->
<g id="node11" class="node">
<title>n10</title>
<path fill="#f8fafc" stroke="#94a3b8" d="M1014.5,-36C1014.5,-36 906.5,-36 906.5,-36 900.5,-36 894.5,-30 894.5,-24 894.5,-24 894.5,-12 894.5,-12 894.5,-6 900.5,0 906.5,0 906.5,0 1014.5,0 1014.5,0 1020.5,0 1026.5,-6 1026.5,-12 1026.5,-12 1026.5,-24 1026.5,-24 1026.5,-30 1020.5,-36 1014.5,-36"/>
<text text-anchor="middle" x="960.5" y="-15.8" font-family="Arial" font-size="9.00" fill="#111827">TasksScreenKt.get\nscore=25</text>
</g>
<!-- n3&#45;&gt;n10 -->
<g id="edge1" class="edge">
<title>n3&#45;&gt;n10</title>
<path fill="none" stroke="#cbd5e1" stroke-width="0.9" d="M1089.72,-82.82C1063.43,-69.84 1027.32,-52 999.95,-38.49"/>
<polygon fill="#cbd5e1" stroke="#cbd5e1" stroke-width="0.9" points="1000.73,-36.72 994.95,-36.01 999.03,-40.18 1000.73,-36.72"/>
</g>
<!-- n22 -->
<g id="node23" class="node">
<title>n22</title>
<path fill="#dceefe" stroke="#94a3b8" d="M1333,-36C1333,-36 1220,-36 1220,-36 1214,-36 1208,-30 1208,-24 1208,-24 1208,-12 1208,-12 1208,-6 1214,0 1220,0 1220,0 1333,0 1333,0 1339,0 1345,-6 1345,-12 1345,-12 1345,-24 1345,-24 1345,-30 1339,-36 1333,-36"/>
<text text-anchor="middle" x="1276.5" y="-15.8" font-family="Arial" font-size="9.00" fill="#111827">TasksScreenKt.&lt;init&gt;\nscore=4</text>
</g>
<!-- n3&#45;&gt;n22 -->
<g id="edge2" class="edge">
<title>n3&#45;&gt;n22</title>
<path fill="none" stroke="#cbd5e1" stroke-width="0.9" d="M1156.74,-82.82C1181,-69.89 1214.29,-52.15 1239.62,-38.65"/>
<polygon fill="#cbd5e1" stroke="#cbd5e1" stroke-width="0.9" points="1240.62,-40.3 1244.57,-36.01 1238.81,-36.9 1240.62,-40.3"/>
</g>
<!-- n40 -->
<g id="node41" class="node">
<title>n40</title>
<path fill="#dceefe" stroke="#94a3b8" d="M1492,-36C1492,-36 1379,-36 1379,-36 1373,-36 1367,-30 1367,-24 1367,-24 1367,-12 1367,-12 1367,-6 1373,0 1379,0 1379,0 1492,0 1492,0 1498,0 1504,-6 1504,-12 1504,-12 1504,-24 1504,-24 1504,-30 1498,-36 1492,-36"/>
<text text-anchor="middle" x="1435.5" y="-15.8" font-family="Arial" font-size="9.00" fill="#111827">TasksScreenKt.&lt;init&gt;\nscore=4</text>
</g>
<!-- n3&#45;&gt;n40 -->
<g id="edge4" class="edge">
<title>n3&#45;&gt;n40</title>
<path fill="none" stroke="#cbd5e1" stroke-width="0.9" d="M1190.08,-82.92C1241.25,-69.59 1312.21,-51.11 1364.68,-37.45"/>
<polygon fill="#cbd5e1" stroke="#cbd5e1" stroke-width="0.9" points="1365.18,-39.3 1370.01,-36.06 1364.21,-35.58 1365.18,-39.3"/>
</g>
<!-- n4 -->
<g id="node5" class="node">
<title>n4</title>
<path fill="#f8fafc" stroke="#94a3b8" d="M485.5,-285C485.5,-285 353.5,-285 353.5,-285 347.5,-285 341.5,-279 341.5,-273 341.5,-273 341.5,-261 341.5,-261 341.5,-255 347.5,-249 353.5,-249 353.5,-249 485.5,-249 485.5,-249 491.5,-249 497.5,-255 497.5,-261 497.5,-261 497.5,-273 497.5,-273 497.5,-279 491.5,-285 485.5,-285"/>
<text text-anchor="middle" x="419.5" y="-264.8" font-family="Arial" font-size="9.00" fill="#111827">TodoNavGraphKt.invoke\nscore=61</text>
</g>
<!-- n19 -->
<g id="node20" class="node">
<title>n19</title>
<path fill="#dceefe" stroke="#94a3b8" d="M513,-202C513,-202 326,-202 326,-202 320,-202 314,-196 314,-190 314,-190 314,-178 314,-178 314,-172 320,-166 326,-166 326,-166 513,-166 513,-166 519,-166 525,-172 525,-178 525,-178 525,-190 525,-190 525,-196 519,-202 513,-202"/>
<text text-anchor="middle" x="419.5" y="-181.8" font-family="Arial" font-size="9.00" fill="#111827">TaskDetailScreenKt.TaskDetailScreen\nscore=67</text>
</g>
<!-- n4&#45;&gt;n19 -->
<g id="edge5" class="edge">
<title>n4&#45;&gt;n19</title>
<path fill="none" stroke="#cbd5e1" stroke-width="0.9" d="M419.5,-248.82C419.5,-236.9 419.5,-220.89 419.5,-207.89"/>
<polygon fill="#cbd5e1" stroke="#cbd5e1" stroke-width="0.9" points="421.43,-207.65 419.5,-202.15 417.58,-207.65 421.43,-207.65"/>
</g>
<!-- n5 -->
<g id="node6" class="node">
<title>n5</title>
<path fill="#dceefe" stroke="#94a3b8" d="M1017,-119C1017,-119 904,-119 904,-119 898,-119 892,-113 892,-107 892,-107 892,-95 892,-95 892,-89 898,-83 904,-83 904,-83 1017,-83 1017,-83 1023,-83 1029,-89 1029,-95 1029,-95 1029,-107 1029,-107 1029,-113 1023,-119 1017,-119"/>
<text text-anchor="middle" x="960.5" y="-98.8" font-family="Arial" font-size="9.00" fill="#111827">TasksScreenKt.&lt;init&gt;\nscore=7</text>
</g>
<!-- n5&#45;&gt;n10 -->
<g id="edge6" class="edge">
<title>n5&#45;&gt;n10</title>
<path fill="none" stroke="#cbd5e1" stroke-width="0.9" d="M960.5,-82.82C960.5,-70.9 960.5,-54.89 960.5,-41.89"/>
<polygon fill="#cbd5e1" stroke="#cbd5e1" stroke-width="0.9" points="962.43,-41.65 960.5,-36.15 958.58,-41.65 962.43,-41.65"/>
</g>
<!-- n6 -->
<g id="node7" class="node">
<title>n6</title>
<path fill="#dceefe" stroke="#94a3b8" d="M1362.5,-202C1362.5,-202 1214.5,-202 1214.5,-202 1208.5,-202 1202.5,-196 1202.5,-190 1202.5,-190 1202.5,-178 1202.5,-178 1202.5,-172 1208.5,-166 1214.5,-166 1214.5,-166 1362.5,-166 1362.5,-166 1368.5,-166 1374.5,-172 1374.5,-178 1374.5,-178 1374.5,-190 1374.5,-190 1374.5,-196 1368.5,-202 1362.5,-202"/>
<text text-anchor="middle" x="1288.5" y="-181.8" font-family="Arial" font-size="9.00" fill="#111827">TasksScreenKt.TasksScreen\nscore=67</text>
</g>
<!-- n6&#45;&gt;n5 -->
<g id="edge8" class="edge">
<title>n6&#45;&gt;n5</title>
<path fill="none" stroke="#cbd5e1" stroke-width="0.9" d="M1219.34,-165.92C1165.19,-152.55 1090.02,-133.99 1034.64,-120.31"/>
<polygon fill="#cbd5e1" stroke="#cbd5e1" stroke-width="0.9" points="1034.8,-118.37 1029,-118.92 1033.88,-122.1 1034.8,-118.37"/>
</g>
<!-- n13 -->
<g id="node14" class="node">
<title>n13</title>
<path fill="#f8fafc" stroke="#94a3b8" d="M1499.5,-119C1499.5,-119 1391.5,-119 1391.5,-119 1385.5,-119 1379.5,-113 1379.5,-107 1379.5,-107 1379.5,-95 1379.5,-95 1379.5,-89 1385.5,-83 1391.5,-83 1391.5,-83 1499.5,-83 1499.5,-83 1505.5,-83 1511.5,-89 1511.5,-95 1511.5,-95 1511.5,-107 1511.5,-107 1511.5,-113 1505.5,-119 1499.5,-119"/>
<text text-anchor="middle" x="1445.5" y="-98.8" font-family="Arial" font-size="9.00" fill="#111827">TasksScreenKt.get\nscore=53</text>
</g>
<!-- n6&#45;&gt;n13 -->
<g id="edge7" class="edge">
<title>n6&#45;&gt;n13</title>
<path fill="none" stroke="#cbd5e1" stroke-width="0.9" d="M1321.8,-165.82C1346.86,-152.89 1381.25,-135.15 1407.41,-121.65"/>
<polygon fill="#cbd5e1" stroke="#cbd5e1" stroke-width="0.9" points="1408.52,-123.25 1412.52,-119.01 1406.75,-119.83 1408.52,-123.25"/>
</g>
<!-- n28 -->
<g id="node29" class="node">
<title>n28</title>
<path fill="#dceefe" stroke="#94a3b8" d="M1345,-119C1345,-119 1232,-119 1232,-119 1226,-119 1220,-113 1220,-107 1220,-107 1220,-95 1220,-95 1220,-89 1226,-83 1232,-83 1232,-83 1345,-83 1345,-83 1351,-83 1357,-89 1357,-95 1357,-95 1357,-107 1357,-107 1357,-113 1351,-119 1345,-119"/>
<text text-anchor="middle" x="1288.5" y="-98.8" font-family="Arial" font-size="9.00" fill="#111827">TasksScreenKt.&lt;init&gt;\nscore=7</text>
</g>
<!-- n6&#45;&gt;n28 -->
<g id="edge9" class="edge">
<title>n6&#45;&gt;n28</title>
<path fill="none" stroke="#cbd5e1" stroke-width="0.9" d="M1288.5,-165.82C1288.5,-153.9 1288.5,-137.89 1288.5,-124.89"/>
<polygon fill="#cbd5e1" stroke="#cbd5e1" stroke-width="0.9" points="1290.43,-124.65 1288.5,-119.15 1286.58,-124.65 1290.43,-124.65"/>
</g>
<!-- n7 -->
<g id="node8" class="node">
<title>n7</title>
<path fill="#dceefe" stroke="#94a3b8" d="M1838.5,-285C1838.5,-285 1588.5,-285 1588.5,-285 1582.5,-285 1576.5,-279 1576.5,-273 1576.5,-273 1576.5,-261 1576.5,-261 1576.5,-255 1582.5,-249 1588.5,-249 1588.5,-249 1838.5,-249 1838.5,-249 1844.5,-249 1850.5,-255 1850.5,-261 1850.5,-261 1850.5,-273 1850.5,-273 1850.5,-279 1844.5,-285 1838.5,-285"/>
<text text-anchor="middle" x="1713.5" y="-264.8" font-family="Arial" font-size="9.00" fill="#111827">AddEditTaskScreenKt.AddEditTaskScreen$lambda$1\nscore=15</text>
</g>
<!-- n17 -->
<g id="node18" class="node">
<title>n17</title>
<path fill="#dceefe" stroke="#94a3b8" d="M1922,-202C1922,-202 1719,-202 1719,-202 1713,-202 1707,-196 1707,-190 1707,-190 1707,-178 1707,-178 1707,-172 1713,-166 1719,-166 1719,-166 1922,-166 1922,-166 1928,-166 1934,-172 1934,-178 1934,-178 1934,-190 1934,-190 1934,-196 1928,-202 1922,-202"/>
<text text-anchor="middle" x="1820.5" y="-181.8" font-family="Arial" font-size="9.00" fill="#111827">AddEditTaskScreenKt.AddEditTaskScreen\nscore=67</text>
</g>
<!-- n7&#45;&gt;n17 -->
<g id="edge10" class="edge">
<title>n7&#45;&gt;n17</title>
<path fill="none" stroke="#cbd5e1" stroke-width="0.9" d="M1736.19,-248.82C1752.79,-236.26 1775.39,-219.15 1793.01,-205.81"/>
<polygon fill="#cbd5e1" stroke="#cbd5e1" stroke-width="0.9" points="1794.62,-207.01 1797.84,-202.15 1792.29,-203.94 1794.62,-207.01"/>
</g>
<!-- n8 -->
<g id="node9" class="node">
<title>n8</title>
<path fill="#dceefe" stroke="#94a3b8" d="M1027.5,-202C1027.5,-202 895.5,-202 895.5,-202 889.5,-202 883.5,-196 883.5,-190 883.5,-190 883.5,-178 883.5,-178 883.5,-172 889.5,-166 895.5,-166 895.5,-166 1027.5,-166 1027.5,-166 1033.5,-166 1039.5,-172 1039.5,-178 1039.5,-178 1039.5,-190 1039.5,-190 1039.5,-196 1033.5,-202 1027.5,-202"/>
<text text-anchor="middle" x="961.5" y="-181.8" font-family="Arial" font-size="9.00" fill="#111827">TaskDetailScreenKt.&lt;init&gt;\nscore=9</text>
</g>
<!-- n9 -->
<g id="node10" class="node">
<title>n9</title>
<path fill="#f8fafc" stroke="#94a3b8" d="M1302.5,-285C1302.5,-285 1170.5,-285 1170.5,-285 1164.5,-285 1158.5,-279 1158.5,-273 1158.5,-273 1158.5,-261 1158.5,-261 1158.5,-255 1164.5,-249 1170.5,-249 1170.5,-249 1302.5,-249 1302.5,-249 1308.5,-249 1314.5,-255 1314.5,-261 1314.5,-261 1314.5,-273 1314.5,-273 1314.5,-279 1308.5,-285 1302.5,-285"/>
<text text-anchor="middle" x="1236.5" y="-264.8" font-family="Arial" font-size="9.00" fill="#111827">TodoNavGraphKt.invoke\nscore=69</text>
</g>
<!-- n9&#45;&gt;n6 -->
<g id="edge11" class="edge">
<title>n9&#45;&gt;n6</title>
<path fill="none" stroke="#cbd5e1" stroke-width="0.9" d="M1247.53,-248.82C1255.39,-236.58 1266.02,-220.02 1274.48,-206.84"/>
<polygon fill="#cbd5e1" stroke="#cbd5e1" stroke-width="0.9" points="1276.14,-207.82 1277.49,-202.15 1272.9,-205.74 1276.14,-207.82"/>
</g>
<!-- n11 -->
<g id="node12" class="node">
<title>n11</title>
<path fill="#dceefe" stroke="#94a3b8" d="M2214.5,-202C2214.5,-202 2074.5,-202 2074.5,-202 2068.5,-202 2062.5,-196 2062.5,-190 2062.5,-190 2062.5,-178 2062.5,-178 2062.5,-172 2068.5,-166 2074.5,-166 2074.5,-166 2214.5,-166 2214.5,-166 2220.5,-166 2226.5,-172 2226.5,-178 2226.5,-178 2226.5,-190 2226.5,-190 2226.5,-196 2220.5,-202 2214.5,-202"/>
<text text-anchor="middle" x="2144.5" y="-181.8" font-family="Arial" font-size="9.00" fill="#111827">AddEditTaskScreenKt.&lt;init&gt;\nscore=9</text>
</g>
<!-- n12 -->
<g id="node13" class="node">
<title>n12</title>
<path fill="#f8fafc" stroke="#94a3b8" d="M2016.5,-285C2016.5,-285 1884.5,-285 1884.5,-285 1878.5,-285 1872.5,-279 1872.5,-273 1872.5,-273 1872.5,-261 1872.5,-261 1872.5,-255 1878.5,-249 1884.5,-249 1884.5,-249 2016.5,-249 2016.5,-249 2022.5,-249 2028.5,-255 2028.5,-261 2028.5,-261 2028.5,-273 2028.5,-273 2028.5,-279 2022.5,-285 2016.5,-285"/>
<text text-anchor="middle" x="1950.5" y="-264.8" font-family="Arial" font-size="9.00" fill="#111827">TodoNavGraphKt.invoke\nscore=57</text>
</g>
<!-- n12&#45;&gt;n17 -->
<g id="edge12" class="edge">
<title>n12&#45;&gt;n17</title>
<path fill="none" stroke="#cbd5e1" stroke-width="0.9" d="M1922.93,-248.82C1902.42,-236.04 1874.37,-218.56 1852.8,-205.13"/>
<polygon fill="#cbd5e1" stroke="#cbd5e1" stroke-width="0.9" points="1853.72,-203.43 1848.03,-202.15 1851.68,-206.7 1853.72,-203.43"/>
</g>
<!-- n14 -->
<g id="node15" class="node">
<title>n14</title>
<path fill="#dceefe" stroke="#94a3b8" d="M2668,-202C2668,-202 2495,-202 2495,-202 2489,-202 2483,-196 2483,-190 2483,-190 2483,-178 2483,-178 2483,-172 2489,-166 2495,-166 2495,-166 2668,-166 2668,-166 2674,-166 2680,-172 2680,-178 2680,-178 2680,-190 2680,-190 2680,-196 2674,-202 2668,-202"/>
<text text-anchor="middle" x="2581.5" y="-181.8" font-family="Arial" font-size="9.00" fill="#111827">StatisticsScreenKt.StatisticsScreen\nscore=66</text>
</g>
<!-- n18 -->
<g id="node19" class="node">
<title>n18</title>
<path fill="#f8fafc" stroke="#94a3b8" d="M2818,-119C2818,-119 2697,-119 2697,-119 2691,-119 2685,-113 2685,-107 2685,-107 2685,-95 2685,-95 2685,-89 2691,-83 2697,-83 2697,-83 2818,-83 2818,-83 2824,-83 2830,-89 2830,-95 2830,-95 2830,-107 2830,-107 2830,-113 2824,-119 2818,-119"/>
<text text-anchor="middle" x="2757.5" y="-98.8" font-family="Arial" font-size="9.00" fill="#111827">StatisticsScreenKt.get\nscore=27</text>
</g>
<!-- n14&#45;&gt;n18 -->
<g id="edge14" class="edge">
<title>n14&#45;&gt;n18</title>
<path fill="none" stroke="#cbd5e1" stroke-width="0.9" d="M2618.83,-165.82C2647.15,-152.78 2686.11,-134.85 2715.53,-121.32"/>
<polygon fill="#cbd5e1" stroke="#cbd5e1" stroke-width="0.9" points="2716.34,-123.06 2720.53,-119.01 2714.73,-119.56 2716.34,-123.06"/>
</g>
<!-- n26 -->
<g id="node27" class="node">
<title>n26</title>
<path fill="#dceefe" stroke="#94a3b8" d="M2644,-119C2644,-119 2519,-119 2519,-119 2513,-119 2507,-113 2507,-107 2507,-107 2507,-95 2507,-95 2507,-89 2513,-83 2519,-83 2519,-83 2644,-83 2644,-83 2650,-83 2656,-89 2656,-95 2656,-95 2656,-107 2656,-107 2656,-113 2650,-119 2644,-119"/>
<text text-anchor="middle" x="2581.5" y="-98.8" font-family="Arial" font-size="9.00" fill="#111827">StatisticsScreenKt.&lt;init&gt;\nscore=7</text>
</g>
<!-- n14&#45;&gt;n26 -->
<g id="edge13" class="edge">
<title>n14&#45;&gt;n26</title>
<path fill="none" stroke="#cbd5e1" stroke-width="0.9" d="M2581.5,-165.82C2581.5,-153.9 2581.5,-137.89 2581.5,-124.89"/>
<polygon fill="#cbd5e1" stroke="#cbd5e1" stroke-width="0.9" points="2583.43,-124.65 2581.5,-119.15 2579.58,-124.65 2583.43,-124.65"/>
</g>
<!-- n15 -->
<g id="node16" class="node">
<title>n15</title>
<path fill="#dceefe" stroke="#94a3b8" d="M2901.5,-285C2901.5,-285 2681.5,-285 2681.5,-285 2675.5,-285 2669.5,-279 2669.5,-273 2669.5,-273 2669.5,-261 2669.5,-261 2669.5,-255 2675.5,-249 2681.5,-249 2681.5,-249 2901.5,-249 2901.5,-249 2907.5,-249 2913.5,-255 2913.5,-261 2913.5,-261 2913.5,-273 2913.5,-273 2913.5,-279 2907.5,-285 2901.5,-285"/>
<text text-anchor="middle" x="2791.5" y="-264.8" font-family="Arial" font-size="9.00" fill="#111827">StatisticsScreenKt.StatisticsScreen$lambda$1\nscore=14</text>
</g>
<!-- n15&#45;&gt;n14 -->
<g id="edge16" class="edge">
<title>n15&#45;&gt;n14</title>
<path fill="none" stroke="#cbd5e1" stroke-width="0.9" d="M2747.22,-248.92C2713.3,-235.84 2666.49,-217.78 2631.27,-204.2"/>
<polygon fill="#cbd5e1" stroke="#cbd5e1" stroke-width="0.9" points="2631.54,-202.24 2625.72,-202.06 2630.16,-205.83 2631.54,-202.24"/>
</g>
<!-- n15&#45;&gt;n18 -->
<g id="edge15" class="edge">
<title>n15&#45;&gt;n18</title>
<path fill="none" stroke="#cbd5e1" stroke-width="0.9" d="M2787.93,-248.76C2781.74,-218.91 2769.03,-157.61 2762.16,-124.47"/>
<polygon fill="#cbd5e1" stroke="#cbd5e1" stroke-width="0.9" points="2764.03,-124 2761.03,-119.01 2760.26,-124.79 2764.03,-124"/>
</g>
<!-- n16 -->
<g id="node17" class="node">
<title>n16</title>
<path fill="#dceefe" stroke="#94a3b8" d="M2434.5,-202C2434.5,-202 2260.5,-202 2260.5,-202 2254.5,-202 2248.5,-196 2248.5,-190 2248.5,-190 2248.5,-178 2248.5,-178 2248.5,-172 2254.5,-166 2260.5,-166 2260.5,-166 2434.5,-166 2434.5,-166 2440.5,-166 2446.5,-172 2446.5,-178 2446.5,-178 2446.5,-190 2446.5,-190 2446.5,-196 2440.5,-202 2434.5,-202"/>
<text text-anchor="middle" x="2347.5" y="-181.8" font-family="Arial" font-size="9.00" fill="#111827">AddEditTaskViewModel.getUiState\nscore=18</text>
</g>
<!-- n23 -->
<g id="node24" class="node">
<title>n23</title>
<path fill="#dceefe" stroke="#94a3b8" d="M1797.5,-119C1797.5,-119 1657.5,-119 1657.5,-119 1651.5,-119 1645.5,-113 1645.5,-107 1645.5,-107 1645.5,-95 1645.5,-95 1645.5,-89 1651.5,-83 1657.5,-83 1657.5,-83 1797.5,-83 1797.5,-83 1803.5,-83 1809.5,-89 1809.5,-95 1809.5,-95 1809.5,-107 1809.5,-107 1809.5,-113 1803.5,-119 1797.5,-119"/>
<text text-anchor="middle" x="1727.5" y="-98.8" font-family="Arial" font-size="9.00" fill="#111827">AddEditTaskScreenKt.&lt;init&gt;\nscore=7</text>
</g>
<!-- n17&#45;&gt;n23 -->
<g id="edge18" class="edge">
<title>n17&#45;&gt;n23</title>
<path fill="none" stroke="#cbd5e1" stroke-width="0.9" d="M1800.78,-165.82C1786.35,-153.26 1766.71,-136.15 1751.39,-122.81"/>
<polygon fill="#cbd5e1" stroke="#cbd5e1" stroke-width="0.9" points="1752.61,-121.31 1747.19,-119.15 1750.08,-124.22 1752.61,-121.31"/>
</g>
<!-- n41 -->
<g id="node42" class="node">
<title>n41</title>
<path fill="#dceefe" stroke="#94a3b8" d="M1983.5,-119C1983.5,-119 1843.5,-119 1843.5,-119 1837.5,-119 1831.5,-113 1831.5,-107 1831.5,-107 1831.5,-95 1831.5,-95 1831.5,-89 1837.5,-83 1843.5,-83 1843.5,-83 1983.5,-83 1983.5,-83 1989.5,-83 1995.5,-89 1995.5,-95 1995.5,-95 1995.5,-107 1995.5,-107 1995.5,-113 1989.5,-119 1983.5,-119"/>
<text text-anchor="middle" x="1913.5" y="-98.8" font-family="Arial" font-size="9.00" fill="#111827">AddEditTaskScreenKt.&lt;init&gt;\nscore=7</text>
</g>
<!-- n17&#45;&gt;n41 -->
<g id="edge17" class="edge">
<title>n17&#45;&gt;n41</title>
<path fill="none" stroke="#cbd5e1" stroke-width="0.9" d="M1840.22,-165.82C1854.65,-153.26 1874.29,-136.15 1889.61,-122.81"/>
<polygon fill="#cbd5e1" stroke="#cbd5e1" stroke-width="0.9" points="1890.92,-124.22 1893.81,-119.15 1888.39,-121.31 1890.92,-124.22"/>
</g>
<!-- n19&#45;&gt;n0 -->
<g id="edge22" class="edge">
<title>n19&#45;&gt;n0</title>
<path fill="none" stroke="#cbd5e1" stroke-width="0.9" d="M385.14,-165.82C359.18,-152.84 323.5,-135 296.47,-121.49"/>
<polygon fill="#cbd5e1" stroke="#cbd5e1" stroke-width="0.9" points="297.31,-119.75 291.53,-119.01 295.59,-123.2 297.31,-119.75"/>
</g>
<!-- n24 -->
<g id="node25" class="node">
<title>n24</title>
<path fill="#f8fafc" stroke="#94a3b8" d="M145.5,-119C145.5,-119 17.5,-119 17.5,-119 11.5,-119 5.5,-113 5.5,-107 5.5,-107 5.5,-95 5.5,-95 5.5,-89 11.5,-83 17.5,-83 17.5,-83 145.5,-83 145.5,-83 151.5,-83 157.5,-89 157.5,-95 157.5,-95 157.5,-107 157.5,-107 157.5,-113 151.5,-119 145.5,-119"/>
<text text-anchor="middle" x="81.5" y="-98.8" font-family="Arial" font-size="9.00" fill="#111827">TaskDetailScreenKt.get\nscore=31</text>
</g>
<!-- n19&#45;&gt;n24 -->
<g id="edge19" class="edge">
<title>n19&#45;&gt;n24</title>
<path fill="none" stroke="#cbd5e1" stroke-width="0.9" d="M348.23,-165.92C292.51,-152.57 215.18,-134.04 158.13,-120.36"/>
<polygon fill="#cbd5e1" stroke="#cbd5e1" stroke-width="0.9" points="158.47,-118.47 152.67,-119.06 157.57,-122.21 158.47,-118.47"/>
</g>
<!-- n29 -->
<g id="node30" class="node">
<title>n29</title>
<path fill="#dceefe" stroke="#94a3b8" d="M501.5,-119C501.5,-119 369.5,-119 369.5,-119 363.5,-119 357.5,-113 357.5,-107 357.5,-107 357.5,-95 357.5,-95 357.5,-89 363.5,-83 369.5,-83 369.5,-83 501.5,-83 501.5,-83 507.5,-83 513.5,-89 513.5,-95 513.5,-95 513.5,-107 513.5,-107 513.5,-113 507.5,-119 501.5,-119"/>
<text text-anchor="middle" x="435.5" y="-98.8" font-family="Arial" font-size="9.00" fill="#111827">TaskDetailScreenKt.&lt;init&gt;\nscore=7</text>
</g>
<!-- n19&#45;&gt;n29 -->
<g id="edge21" class="edge">
<title>n19&#45;&gt;n29</title>
<path fill="none" stroke="#cbd5e1" stroke-width="0.9" d="M422.89,-165.82C425.25,-153.9 428.41,-137.89 430.98,-124.89"/>
<polygon fill="#cbd5e1" stroke="#cbd5e1" stroke-width="0.9" points="432.93,-124.92 432.11,-119.15 429.16,-124.18 432.93,-124.92"/>
</g>
<!-- n35 -->
<g id="node36" class="node">
<title>n35</title>
<path fill="#dceefe" stroke="#94a3b8" d="M679.5,-119C679.5,-119 547.5,-119 547.5,-119 541.5,-119 535.5,-113 535.5,-107 535.5,-107 535.5,-95 535.5,-95 535.5,-89 541.5,-83 547.5,-83 547.5,-83 679.5,-83 679.5,-83 685.5,-83 691.5,-89 691.5,-95 691.5,-95 691.5,-107 691.5,-107 691.5,-113 685.5,-119 679.5,-119"/>
<text text-anchor="middle" x="613.5" y="-98.8" font-family="Arial" font-size="9.00" fill="#111827">TaskDetailScreenKt.&lt;init&gt;\nscore=4</text>
</g>
<!-- n19&#45;&gt;n35 -->
<g id="edge20" class="edge">
<title>n19&#45;&gt;n35</title>
<path fill="none" stroke="#cbd5e1" stroke-width="0.9" d="M460.64,-165.82C492,-152.73 535.17,-134.71 567.63,-121.15"/>
<polygon fill="#cbd5e1" stroke="#cbd5e1" stroke-width="0.9" points="568.42,-122.91 572.75,-119.01 566.93,-119.36 568.42,-122.91"/>
</g>
<!-- n37 -->
<g id="node38" class="node">
<title>n37</title>
<path fill="#dceefe" stroke="#94a3b8" d="M857.5,-119C857.5,-119 725.5,-119 725.5,-119 719.5,-119 713.5,-113 713.5,-107 713.5,-107 713.5,-95 713.5,-95 713.5,-89 719.5,-83 725.5,-83 725.5,-83 857.5,-83 857.5,-83 863.5,-83 869.5,-89 869.5,-95 869.5,-95 869.5,-107 869.5,-107 869.5,-113 863.5,-119 857.5,-119"/>
<text text-anchor="middle" x="791.5" y="-98.8" font-family="Arial" font-size="9.00" fill="#111827">TaskDetailScreenKt.&lt;init&gt;\nscore=7</text>
</g>
<!-- n19&#45;&gt;n37 -->
<g id="edge23" class="edge">
<title>n19&#45;&gt;n37</title>
<path fill="none" stroke="#cbd5e1" stroke-width="0.9" d="M497.94,-165.92C559.5,-152.52 645,-133.9 707.86,-120.21"/>
<polygon fill="#cbd5e1" stroke="#cbd5e1" stroke-width="0.9" points="708.53,-122.04 713.49,-118.99 707.71,-118.28 708.53,-122.04"/>
</g>
<!-- n20 -->
<g id="node21" class="node">
<title>n20</title>
<path fill="#dceefe" stroke="#94a3b8" d="M3095,-202C3095,-202 2936,-202 2936,-202 2930,-202 2924,-196 2924,-190 2924,-190 2924,-178 2924,-178 2924,-172 2930,-166 2936,-166 2936,-166 3095,-166 3095,-166 3101,-166 3107,-172 3107,-178 3107,-178 3107,-190 3107,-190 3107,-196 3101,-202 3095,-202"/>
<text text-anchor="middle" x="3015.5" y="-181.8" font-family="Arial" font-size="9.00" fill="#111827">StatisticsViewModel.getUiState\nscore=10</text>
</g>
<!-- n21 -->
<g id="node22" class="node">
<title>n21</title>
<path fill="#dceefe" stroke="#94a3b8" d="M3254,-202C3254,-202 3141,-202 3141,-202 3135,-202 3129,-196 3129,-190 3129,-190 3129,-178 3129,-178 3129,-172 3135,-166 3141,-166 3141,-166 3254,-166 3254,-166 3260,-166 3266,-172 3266,-178 3266,-178 3266,-190 3266,-190 3266,-196 3260,-202 3254,-202"/>
<text text-anchor="middle" x="3197.5" y="-181.8" font-family="Arial" font-size="9.00" fill="#111827">TasksScreenKt.&lt;init&gt;\nscore=9</text>
</g>
<!-- n25 -->
<g id="node26" class="node">
<title>n25</title>
<path fill="#f8fafc" stroke="#94a3b8" d="M2232,-285C2232,-285 2077,-285 2077,-285 2071,-285 2065,-279 2065,-273 2065,-273 2065,-261 2065,-261 2065,-255 2071,-249 2077,-249 2077,-249 2232,-249 2232,-249 2238,-249 2244,-255 2244,-261 2244,-261 2244,-273 2244,-273 2244,-279 2238,-285 2232,-285"/>
<text text-anchor="middle" x="2154.5" y="-264.8" font-family="Arial" font-size="9.00" fill="#111827">AddEditTaskScreenKt.invoke\nscore=106</text>
</g>
<!-- n25&#45;&gt;n11 -->
<g id="edge25" class="edge">
<title>n25&#45;&gt;n11</title>
<path fill="none" stroke="#cbd5e1" stroke-width="0.9" d="M2152.38,-248.82C2150.91,-236.9 2148.93,-220.89 2147.33,-207.89"/>
<polygon fill="#cbd5e1" stroke="#cbd5e1" stroke-width="0.9" points="2149.2,-207.38 2146.62,-202.15 2145.38,-207.85 2149.2,-207.38"/>
</g>
<!-- n25&#45;&gt;n16 -->
<g id="edge24" class="edge">
<title>n25&#45;&gt;n16</title>
<path fill="none" stroke="#cbd5e1" stroke-width="0.9" d="M2195.43,-248.82C2226.62,-235.73 2269.57,-217.71 2301.87,-204.15"/>
<polygon fill="#cbd5e1" stroke="#cbd5e1" stroke-width="0.9" points="2302.63,-205.92 2306.96,-202.01 2301.14,-202.37 2302.63,-205.92"/>
</g>
<!-- n27 -->
<g id="node28" class="node">
<title>n27</title>
<path fill="#f8fafc" stroke="#94a3b8" d="M3437.5,-285C3437.5,-285 3309.5,-285 3309.5,-285 3303.5,-285 3297.5,-279 3297.5,-273 3297.5,-273 3297.5,-261 3297.5,-261 3297.5,-255 3303.5,-249 3309.5,-249 3309.5,-249 3437.5,-249 3437.5,-249 3443.5,-249 3449.5,-255 3449.5,-261 3449.5,-261 3449.5,-273 3449.5,-273 3449.5,-279 3443.5,-285 3437.5,-285"/>
<text text-anchor="middle" x="3373.5" y="-264.8" font-family="Arial" font-size="9.00" fill="#111827">TasksScreenKt.invoke\nscore=121</text>
</g>
<!-- n27&#45;&gt;n21 -->
<g id="edge26" class="edge">
<title>n27&#45;&gt;n21</title>
<path fill="none" stroke="#cbd5e1" stroke-width="0.9" d="M3336.17,-248.82C3307.85,-235.78 3268.89,-217.85 3239.47,-204.32"/>
<polygon fill="#cbd5e1" stroke="#cbd5e1" stroke-width="0.9" points="3240.27,-202.56 3234.47,-202.01 3238.66,-206.06 3240.27,-202.56"/>
</g>
<!-- n33 -->
<g id="node34" class="node">
<title>n33</title>
<path fill="#dceefe" stroke="#94a3b8" d="M3446.5,-202C3446.5,-202 3300.5,-202 3300.5,-202 3294.5,-202 3288.5,-196 3288.5,-190 3288.5,-190 3288.5,-178 3288.5,-178 3288.5,-172 3294.5,-166 3300.5,-166 3300.5,-166 3446.5,-166 3446.5,-166 3452.5,-166 3458.5,-172 3458.5,-178 3458.5,-178 3458.5,-190 3458.5,-190 3458.5,-196 3452.5,-202 3446.5,-202"/>
<text text-anchor="middle" x="3373.5" y="-181.8" font-family="Arial" font-size="9.00" fill="#111827">TasksViewModel.getUiState\nscore=10</text>
</g>
<!-- n27&#45;&gt;n33 -->
<g id="edge28" class="edge">
<title>n27&#45;&gt;n33</title>
<path fill="none" stroke="#cbd5e1" stroke-width="0.9" d="M3373.5,-248.82C3373.5,-236.9 3373.5,-220.89 3373.5,-207.89"/>
<polygon fill="#cbd5e1" stroke="#cbd5e1" stroke-width="0.9" points="3375.43,-207.65 3373.5,-202.15 3371.58,-207.65 3375.43,-207.65"/>
</g>
<!-- n34 -->
<g id="node35" class="node">
<title>n34</title>
<path fill="#dceefe" stroke="#94a3b8" d="M3606,-202C3606,-202 3493,-202 3493,-202 3487,-202 3481,-196 3481,-190 3481,-190 3481,-178 3481,-178 3481,-172 3487,-166 3493,-166 3493,-166 3606,-166 3606,-166 3612,-166 3618,-172 3618,-178 3618,-178 3618,-190 3618,-190 3618,-196 3612,-202 3606,-202"/>
<text text-anchor="middle" x="3549.5" y="-181.8" font-family="Arial" font-size="9.00" fill="#111827">TasksScreenKt.&lt;init&gt;\nscore=9</text>
</g>
<!-- n27&#45;&gt;n34 -->
<g id="edge27" class="edge">
<title>n27&#45;&gt;n34</title>
<path fill="none" stroke="#cbd5e1" stroke-width="0.9" d="M3410.83,-248.82C3439.15,-235.78 3478.11,-217.85 3507.53,-204.32"/>
<polygon fill="#cbd5e1" stroke="#cbd5e1" stroke-width="0.9" points="3508.34,-206.06 3512.53,-202.01 3506.73,-202.56 3508.34,-206.06"/>
</g>
<!-- n30 -->
<g id="node31" class="node">
<title>n30</title>
<path fill="#dceefe" stroke="#94a3b8" d="M1542.5,-285C1542.5,-285 1348.5,-285 1348.5,-285 1342.5,-285 1336.5,-279 1336.5,-273 1336.5,-273 1336.5,-261 1336.5,-261 1336.5,-255 1342.5,-249 1348.5,-249 1348.5,-249 1542.5,-249 1542.5,-249 1548.5,-249 1554.5,-255 1554.5,-261 1554.5,-261 1554.5,-273 1554.5,-273 1554.5,-279 1548.5,-285 1542.5,-285"/>
<text text-anchor="middle" x="1445.5" y="-264.8" font-family="Arial" font-size="9.00" fill="#111827">TasksScreenKt.TasksScreen$lambda$1\nscore=15</text>
</g>
<!-- n30&#45;&gt;n6 -->
<g id="edge29" class="edge">
<title>n30&#45;&gt;n6</title>
<path fill="none" stroke="#cbd5e1" stroke-width="0.9" d="M1412.2,-248.82C1387.14,-235.89 1352.75,-218.15 1326.59,-204.65"/>
<polygon fill="#cbd5e1" stroke="#cbd5e1" stroke-width="0.9" points="1327.25,-202.83 1321.48,-202.01 1325.48,-206.25 1327.25,-202.83"/>
</g>
<!-- n30&#45;&gt;n13 -->
<g id="edge30" class="edge">
<title>n30&#45;&gt;n13</title>
<path fill="none" stroke="#cbd5e1" stroke-width="0.9" d="M1445.5,-248.76C1445.5,-219.03 1445.5,-158.12 1445.5,-124.88"/>
<polygon fill="#cbd5e1" stroke="#cbd5e1" stroke-width="0.9" points="1447.43,-124.51 1445.5,-119.01 1443.58,-124.51 1447.43,-124.51"/>
</g>
<!-- n31 -->
<g id="node32" class="node">
<title>n31</title>
<path fill="#f8fafc" stroke="#94a3b8" d="M2431.5,-285C2431.5,-285 2299.5,-285 2299.5,-285 2293.5,-285 2287.5,-279 2287.5,-273 2287.5,-273 2287.5,-261 2287.5,-261 2287.5,-255 2293.5,-249 2299.5,-249 2299.5,-249 2431.5,-249 2431.5,-249 2437.5,-249 2443.5,-255 2443.5,-261 2443.5,-261 2443.5,-273 2443.5,-273 2443.5,-279 2437.5,-285 2431.5,-285"/>
<text text-anchor="middle" x="2365.5" y="-264.8" font-family="Arial" font-size="9.00" fill="#111827">TodoNavGraphKt.invoke\nscore=45</text>
</g>
<!-- n31&#45;&gt;n14 -->
<g id="edge31" class="edge">
<title>n31&#45;&gt;n14</title>
<path fill="none" stroke="#cbd5e1" stroke-width="0.9" d="M2411.04,-248.92C2446.08,-235.78 2494.48,-217.63 2530.76,-204.03"/>
<polygon fill="#cbd5e1" stroke="#cbd5e1" stroke-width="0.9" points="2531.54,-205.79 2536.02,-202.06 2530.19,-202.18 2531.54,-205.79"/>
</g>
<!-- n32 -->
<g id="node33" class="node">
<title>n32</title>
<path fill="#f8fafc" stroke="#94a3b8" d="M936.5,-285C936.5,-285 790.5,-285 790.5,-285 784.5,-285 778.5,-279 778.5,-273 778.5,-273 778.5,-261 778.5,-261 778.5,-255 784.5,-249 790.5,-249 790.5,-249 936.5,-249 936.5,-249 942.5,-249 948.5,-255 948.5,-261 948.5,-261 948.5,-273 948.5,-273 948.5,-279 942.5,-285 936.5,-285"/>
<text text-anchor="middle" x="863.5" y="-264.8" font-family="Arial" font-size="9.00" fill="#111827">TaskDetailScreenKt.invoke\nscore=112</text>
</g>
<!-- n32&#45;&gt;n1 -->
<g id="edge33" class="edge">
<title>n32&#45;&gt;n1</title>
<path fill="none" stroke="#cbd5e1" stroke-width="0.9" d="M842.93,-248.82C827.88,-236.26 807.4,-219.15 791.42,-205.81"/>
<polygon fill="#cbd5e1" stroke="#cbd5e1" stroke-width="0.9" points="792.5,-204.2 787.04,-202.15 790.03,-207.16 792.5,-204.2"/>
</g>
<!-- n32&#45;&gt;n8 -->
<g id="edge32" class="edge">
<title>n32&#45;&gt;n8</title>
<path fill="none" stroke="#cbd5e1" stroke-width="0.9" d="M884.28,-248.82C899.48,-236.26 920.18,-219.15 936.32,-205.81"/>
<polygon fill="#cbd5e1" stroke="#cbd5e1" stroke-width="0.9" points="937.73,-207.14 940.75,-202.15 935.28,-204.17 937.73,-207.14"/>
</g>
<!-- n36 -->
<g id="node37" class="node">
<title>n36</title>
<path fill="#dceefe" stroke="#94a3b8" d="M245,-285C245,-285 12,-285 12,-285 6,-285 0,-279 0,-273 0,-273 0,-261 0,-261 0,-255 6,-249 12,-249 12,-249 245,-249 245,-249 251,-249 257,-255 257,-261 257,-261 257,-273 257,-273 257,-279 251,-285 245,-285"/>
<text text-anchor="middle" x="128.5" y="-264.8" font-family="Arial" font-size="9.00" fill="#111827">TaskDetailScreenKt.TaskDetailScreen$lambda$1\nscore=15</text>
</g>
<!-- n36&#45;&gt;n19 -->
<g id="edge35" class="edge">
<title>n36&#45;&gt;n19</title>
<path fill="none" stroke="#cbd5e1" stroke-width="0.9" d="M189.86,-248.92C237.55,-235.65 303.6,-217.26 352.63,-203.61"/>
<polygon fill="#cbd5e1" stroke="#cbd5e1" stroke-width="0.9" points="353.44,-205.39 358.23,-202.06 352.41,-201.68 353.44,-205.39"/>
</g>
<!-- n36&#45;&gt;n24 -->
<g id="edge34" class="edge">
<title>n36&#45;&gt;n24</title>
<path fill="none" stroke="#cbd5e1" stroke-width="0.9" d="M123.56,-248.76C115,-218.91 97.44,-157.61 87.94,-124.47"/>
<polygon fill="#cbd5e1" stroke="#cbd5e1" stroke-width="0.9" points="89.74,-123.77 86.37,-119.01 86.04,-124.83 89.74,-123.77"/>
</g>
<!-- n38 -->
<g id="node39" class="node">
<title>n38</title>
<path fill="#f8fafc" stroke="#94a3b8" d="M2635.5,-285C2635.5,-285 2477.5,-285 2477.5,-285 2471.5,-285 2465.5,-279 2465.5,-273 2465.5,-273 2465.5,-261 2465.5,-261 2465.5,-255 2471.5,-249 2477.5,-249 2477.5,-249 2635.5,-249 2635.5,-249 2641.5,-249 2647.5,-255 2647.5,-261 2647.5,-261 2647.5,-273 2647.5,-273 2647.5,-279 2641.5,-285 2635.5,-285"/>
<text text-anchor="middle" x="2556.5" y="-264.8" font-family="Arial" font-size="9.00" fill="#111827">ComposableSingletons.invoke\nscore=42</text>
</g>
<!-- n38&#45;&gt;n14 -->
<g id="edge36" class="edge">
<title>n38&#45;&gt;n14</title>
<path fill="none" stroke="#cbd5e1" stroke-width="0.9" d="M2561.8,-248.82C2565.51,-236.79 2570.51,-220.6 2574.54,-207.54"/>
<polygon fill="#cbd5e1" stroke="#cbd5e1" stroke-width="0.9" points="2576.42,-207.98 2576.21,-202.15 2572.74,-206.84 2576.42,-207.98"/>
</g>
<!-- n39 -->
<g id="node40" class="node">
<title>n39</title>
<path fill="#f8fafc" stroke="#94a3b8" d="M3083,-285C3083,-285 2948,-285 2948,-285 2942,-285 2936,-279 2936,-273 2936,-273 2936,-261 2936,-261 2936,-255 2942,-249 2948,-249 2948,-249 3083,-249 3083,-249 3089,-249 3095,-255 3095,-261 3095,-261 3095,-273 3095,-273 3095,-279 3089,-285 3083,-285"/>
<text text-anchor="middle" x="3015.5" y="-264.8" font-family="Arial" font-size="9.00" fill="#111827">StatisticsScreenKt.invoke\nscore=78</text>
</g>
<!-- n39&#45;&gt;n20 -->
<g id="edge37" class="edge">
<title>n39&#45;&gt;n20</title>
<path fill="none" stroke="#cbd5e1" stroke-width="0.9" d="M3015.5,-248.82C3015.5,-236.9 3015.5,-220.89 3015.5,-207.89"/>
<polygon fill="#cbd5e1" stroke="#cbd5e1" stroke-width="0.9" points="3017.43,-207.65 3015.5,-202.15 3013.58,-207.65 3017.43,-207.65"/>
</g>
</g>
</svg>
