<?xml version="1.0" encoding="UTF-8" standalone="no"?>
<!DOCTYPE svg PUBLIC "-//W3C//DTD SVG 1.1//EN"
 "http://www.w3.org/Graphics/SVG/1.1/DTD/svg11.dtd">
<!-- Generated by graphviz version 2.42.4 (0)
 -->
<!-- Title: A Pages: 1 -->
<svg width="504pt" height="58pt"
 viewBox="0.00 0.00 504.00 57.54" xmlns="http://www.w3.org/2000/svg" xmlns:xlink="http://www.w3.org/1999/xlink">
<g id="graph0" class="graph" transform="scale(0.25 0.25) rotate(0) translate(18 212)">
<title>A</title>
<polygon fill="white" stroke="transparent" points="-18,18 -18,-212 1996.5,-212 1996.5,18 -18,18"/>
<text text-anchor="middle" x="989.25" y="-175.6" font-family="Arial" font-size="18.00">图 15&#45;2 &#160;APK 核心逻辑调用图：ViewModel 与业务逻辑</text>
<!-- n0 -->
<g id="node1" class="node">
<title>n0</title>
<path fill="#dceefe" stroke="#94a3b8" d="M106,-36C106,-36 13,-36 13,-36 7,-36 1,-30 1,-24 1,-24 1,-12 1,-12 1,-6 7,0 13,0 13,0 106,0 106,0 112,0 118,-6 118,-12 118,-12 118,-24 118,-24 118,-30 112,-36 106,-36"/>
<text text-anchor="middle" x="59.5" y="-15.8" font-family="Arial" font-size="9.00" fill="#111827">TaskDetailScreenKt\n&lt;init&gt;</text>
</g>
<!-- n1 -->
<g id="node2" class="node">
<title>n1</title>
<path fill="#dceefe" stroke="#94a3b8" d="M358,-166C358,-166 237,-166 237,-166 231,-166 225,-160 225,-154 225,-154 225,-142 225,-142 225,-136 231,-130 237,-130 237,-130 358,-130 358,-130 364,-130 370,-136 370,-142 370,-142 370,-154 370,-154 370,-160 364,-166 358,-166"/>
<text text-anchor="middle" x="297.5" y="-145.8" font-family="Arial" font-size="9.00" fill="#111827">TaskDetailViewModel\ngetUiState</text>
</g>
<!-- n2 -->
<g id="node3" class="node">
<title>n2</title>
<path fill="#dceefe" stroke="#94a3b8" d="M488.5,-36C488.5,-36 400.5,-36 400.5,-36 394.5,-36 388.5,-30 388.5,-24 388.5,-24 388.5,-12 388.5,-12 388.5,-6 394.5,0 400.5,0 400.5,0 488.5,0 488.5,0 494.5,0 500.5,-6 500.5,-12 500.5,-12 500.5,-24 500.5,-24 500.5,-30 494.5,-36 488.5,-36"/>
<text text-anchor="middle" x="444.5" y="-15.8" font-family="Arial" font-size="9.00" fill="#111827">TasksScreenKt\n&lt;init&gt;</text>
</g>
<!-- n3 -->
<g id="node4" class="node">
<title>n3</title>
<path fill="#dceefe" stroke="#94a3b8" d="M521,-101C521,-101 418,-101 418,-101 412,-101 406,-95 406,-89 406,-89 406,-77 406,-77 406,-71 412,-65 418,-65 418,-65 521,-65 521,-65 527,-65 533,-71 533,-77 533,-77 533,-89 533,-89 533,-95 527,-101 521,-101"/>
<text text-anchor="middle" x="469.5" y="-80.8" font-family="Arial" font-size="9.00" fill="#111827">TasksScreenKt\nTasksScreen</text>
</g>
<!-- n3&#45;&gt;n2 -->
<g id="edge1" class="edge">
<title>n3&#45;&gt;n2</title>
<path fill="none" stroke="#cbd5e1" stroke-width="0.8" d="M462.67,-64.78C459.75,-57.42 456.3,-48.74 453.2,-40.93"/>
<polygon fill="#cbd5e1" stroke="#cbd5e1" stroke-width="0.8" points="454.79,-40.2 451.32,-36.19 451.54,-41.49 454.79,-40.2"/>
</g>
<!-- n15 -->
<g id="node16" class="node">
<title>n15</title>
<path fill="#dceefe" stroke="#94a3b8" d="M612.5,-36C612.5,-36 524.5,-36 524.5,-36 518.5,-36 512.5,-30 512.5,-24 512.5,-24 512.5,-12 512.5,-12 512.5,-6 518.5,0 524.5,0 524.5,0 612.5,0 612.5,0 618.5,0 624.5,-6 624.5,-12 624.5,-12 624.5,-24 624.5,-24 624.5,-30 618.5,-36 612.5,-36"/>
<text text-anchor="middle" x="568.5" y="-15.8" font-family="Arial" font-size="9.00" fill="#111827">TasksScreenKt\n&lt;init&gt;</text>
</g>
<!-- n3&#45;&gt;n15 -->
<g id="edge2" class="edge">
<title>n3&#45;&gt;n15</title>
<path fill="none" stroke="#cbd5e1" stroke-width="0.8" d="M496.29,-64.95C508.95,-56.9 524.13,-47.23 537.3,-38.85"/>
<polygon fill="#cbd5e1" stroke="#cbd5e1" stroke-width="0.8" points="538.41,-40.22 541.69,-36.06 536.53,-37.27 538.41,-40.22"/>
</g>
<!-- n4 -->
<g id="node5" class="node">
<title>n4</title>
<path fill="#dceefe" stroke="#94a3b8" d="M786,-166C786,-166 581,-166 581,-166 575,-166 569,-160 569,-154 569,-154 569,-142 569,-142 569,-136 575,-130 581,-130 581,-130 786,-130 786,-130 792,-130 798,-136 798,-142 798,-142 798,-154 798,-154 798,-160 792,-166 786,-166"/>
<text text-anchor="middle" x="683.5" y="-145.8" font-family="Arial" font-size="9.00" fill="#111827">AddEditTaskScreenKt\nAddEditTaskScreen$lambda$1</text>
</g>
<!-- n9 -->
<g id="node10" class="node">
<title>n9</title>
<path fill="#dceefe" stroke="#94a3b8" d="M779,-101C779,-101 620,-101 620,-101 614,-101 608,-95 608,-89 608,-89 608,-77 608,-77 608,-71 614,-65 620,-65 620,-65 779,-65 779,-65 785,-65 791,-71 791,-77 791,-77 791,-89 791,-89 791,-95 785,-101 779,-101"/>
<text text-anchor="middle" x="699.5" y="-80.8" font-family="Arial" font-size="9.00" fill="#111827">AddEditTaskScreenKt\nAddEditTaskScreen</text>
</g>
<!-- n4&#45;&gt;n9 -->
<g id="edge3" class="edge">
<title>n4&#45;&gt;n9</title>
<path fill="none" stroke="#cbd5e1" stroke-width="0.8" d="M687.87,-129.78C689.71,-122.56 691.86,-114.07 693.82,-106.37"/>
<polygon fill="#cbd5e1" stroke="#cbd5e1" stroke-width="0.8" points="695.6,-106.47 695.13,-101.19 692.21,-105.61 695.6,-106.47"/>
</g>
<!-- n5 -->
<g id="node6" class="node">
<title>n5</title>
<path fill="#dceefe" stroke="#94a3b8" d="M915,-166C915,-166 822,-166 822,-166 816,-166 810,-160 810,-154 810,-154 810,-142 810,-142 810,-136 816,-130 822,-130 822,-130 915,-130 915,-130 921,-130 927,-136 927,-142 927,-142 927,-154 927,-154 927,-160 921,-166 915,-166"/>
<text text-anchor="middle" x="868.5" y="-145.8" font-family="Arial" font-size="9.00" fill="#111827">TaskDetailScreenKt\n&lt;init&gt;</text>
</g>
<!-- n6 -->
<g id="node7" class="node">
<title>n6</title>
<path fill="#dceefe" stroke="#94a3b8" d="M1052,-166C1052,-166 951,-166 951,-166 945,-166 939,-160 939,-154 939,-154 939,-142 939,-142 939,-136 945,-130 951,-130 951,-130 1052,-130 1052,-130 1058,-130 1064,-136 1064,-142 1064,-142 1064,-154 1064,-154 1064,-160 1058,-166 1052,-166"/>
<text text-anchor="middle" x="1001.5" y="-145.8" font-family="Arial" font-size="9.00" fill="#111827">AddEditTaskScreenKt\n&lt;init&gt;</text>
</g>
<!-- n7 -->
<g id="node8" class="node">
<title>n7</title>
<path fill="#dceefe" stroke="#94a3b8" d="M1240,-101C1240,-101 1111,-101 1111,-101 1105,-101 1099,-95 1099,-89 1099,-89 1099,-77 1099,-77 1099,-71 1105,-65 1111,-65 1111,-65 1240,-65 1240,-65 1246,-65 1252,-71 1252,-77 1252,-77 1252,-89 1252,-89 1252,-95 1246,-101 1240,-101"/>
<text text-anchor="middle" x="1175.5" y="-80.8" font-family="Arial" font-size="9.00" fill="#111827">StatisticsScreenKt\nStatisticsScreen</text>
</g>
<!-- n14 -->
<g id="node15" class="node">
<title>n14</title>
<path fill="#dceefe" stroke="#94a3b8" d="M1219.5,-36C1219.5,-36 1131.5,-36 1131.5,-36 1125.5,-36 1119.5,-30 1119.5,-24 1119.5,-24 1119.5,-12 1119.5,-12 1119.5,-6 1125.5,0 1131.5,0 1131.5,0 1219.5,0 1219.5,0 1225.5,0 1231.5,-6 1231.5,-12 1231.5,-12 1231.5,-24 1231.5,-24 1231.5,-30 1225.5,-36 1219.5,-36"/>
<text text-anchor="middle" x="1175.5" y="-15.8" font-family="Arial" font-size="9.00" fill="#111827">StatisticsScreenKt\n&lt;init&gt;</text>
</g>
<!-- n7&#45;&gt;n14 -->
<g id="edge4" class="edge">
<title>n7&#45;&gt;n14</title>
<path fill="none" stroke="#cbd5e1" stroke-width="0.8" d="M1175.5,-64.78C1175.5,-57.56 1175.5,-49.07 1175.5,-41.37"/>
<polygon fill="#cbd5e1" stroke="#cbd5e1" stroke-width="0.8" points="1177.25,-41.19 1175.5,-36.19 1173.75,-41.19 1177.25,-41.19"/>
</g>
<!-- n8 -->
<g id="node9" class="node">
<title>n8</title>
<path fill="#dceefe" stroke="#94a3b8" d="M1263,-166C1263,-166 1088,-166 1088,-166 1082,-166 1076,-160 1076,-154 1076,-154 1076,-142 1076,-142 1076,-136 1082,-130 1088,-130 1088,-130 1263,-130 1263,-130 1269,-130 1275,-136 1275,-142 1275,-142 1275,-154 1275,-154 1275,-160 1269,-166 1263,-166"/>
<text text-anchor="middle" x="1175.5" y="-145.8" font-family="Arial" font-size="9.00" fill="#111827">StatisticsScreenKt\nStatisticsScreen$lambda$1</text>
</g>
<!-- n8&#45;&gt;n7 -->
<g id="edge5" class="edge">
<title>n8&#45;&gt;n7</title>
<path fill="none" stroke="#cbd5e1" stroke-width="0.8" d="M1175.5,-129.78C1175.5,-122.56 1175.5,-114.07 1175.5,-106.37"/>
<polygon fill="#cbd5e1" stroke="#cbd5e1" stroke-width="0.8" points="1177.25,-106.19 1175.5,-101.19 1173.75,-106.19 1177.25,-106.19"/>
</g>
<!-- n13 -->
<g id="node14" class="node">
<title>n13</title>
<path fill="#dceefe" stroke="#94a3b8" d="M750,-36C750,-36 649,-36 649,-36 643,-36 637,-30 637,-24 637,-24 637,-12 637,-12 637,-6 643,0 649,0 649,0 750,0 750,0 756,0 762,-6 762,-12 762,-12 762,-24 762,-24 762,-30 756,-36 750,-36"/>
<text text-anchor="middle" x="699.5" y="-15.8" font-family="Arial" font-size="9.00" fill="#111827">AddEditTaskScreenKt\n&lt;init&gt;</text>
</g>
<!-- n9&#45;&gt;n13 -->
<g id="edge7" class="edge">
<title>n9&#45;&gt;n13</title>
<path fill="none" stroke="#cbd5e1" stroke-width="0.8" d="M699.5,-64.78C699.5,-57.56 699.5,-49.07 699.5,-41.37"/>
<polygon fill="#cbd5e1" stroke="#cbd5e1" stroke-width="0.8" points="701.25,-41.19 699.5,-36.19 697.75,-41.19 701.25,-41.19"/>
</g>
<!-- n23 -->
<g id="node24" class="node">
<title>n23</title>
<path fill="#dceefe" stroke="#94a3b8" d="M887,-36C887,-36 786,-36 786,-36 780,-36 774,-30 774,-24 774,-24 774,-12 774,-12 774,-6 780,0 786,0 786,0 887,0 887,0 893,0 899,-6 899,-12 899,-12 899,-24 899,-24 899,-30 893,-36 887,-36"/>
<text text-anchor="middle" x="836.5" y="-15.8" font-family="Arial" font-size="9.00" fill="#111827">AddEditTaskScreenKt\n&lt;init&gt;</text>
</g>
<!-- n9&#45;&gt;n23 -->
<g id="edge6" class="edge">
<title>n9&#45;&gt;n23</title>
<path fill="none" stroke="#cbd5e1" stroke-width="0.8" d="M736.57,-64.95C754.55,-56.69 776.2,-46.73 794.75,-38.2"/>
<polygon fill="#cbd5e1" stroke="#cbd5e1" stroke-width="0.8" points="795.58,-39.74 799.4,-36.06 794.12,-36.56 795.58,-39.74"/>
</g>
<!-- n10 -->
<g id="node11" class="node">
<title>n10</title>
<path fill="#dceefe" stroke="#94a3b8" d="M218.5,-101C218.5,-101 76.5,-101 76.5,-101 70.5,-101 64.5,-95 64.5,-89 64.5,-89 64.5,-77 64.5,-77 64.5,-71 70.5,-65 76.5,-65 76.5,-65 218.5,-65 218.5,-65 224.5,-65 230.5,-71 230.5,-77 230.5,-77 230.5,-89 230.5,-89 230.5,-95 224.5,-101 218.5,-101"/>
<text text-anchor="middle" x="147.5" y="-80.8" font-family="Arial" font-size="9.00" fill="#111827">TaskDetailScreenKt\nTaskDetailScreen</text>
</g>
<!-- n10&#45;&gt;n0 -->
<g id="edge9" class="edge">
<title>n10&#45;&gt;n0</title>
<path fill="none" stroke="#cbd5e1" stroke-width="0.8" d="M123.45,-64.78C112.39,-56.87 99.2,-47.42 87.68,-39.17"/>
<polygon fill="#cbd5e1" stroke="#cbd5e1" stroke-width="0.8" points="88.6,-37.68 83.52,-36.19 86.56,-40.53 88.6,-37.68"/>
</g>
<!-- n16 -->
<g id="node17" class="node">
<title>n16</title>
<path fill="#dceefe" stroke="#94a3b8" d="M235,-36C235,-36 142,-36 142,-36 136,-36 130,-30 130,-24 130,-24 130,-12 130,-12 130,-6 136,0 142,0 142,0 235,0 235,0 241,0 247,-6 247,-12 247,-12 247,-24 247,-24 247,-30 241,-36 235,-36"/>
<text text-anchor="middle" x="188.5" y="-15.8" font-family="Arial" font-size="9.00" fill="#111827">TaskDetailScreenKt\n&lt;init&gt;</text>
</g>
<!-- n10&#45;&gt;n16 -->
<g id="edge8" class="edge">
<title>n10&#45;&gt;n16</title>
<path fill="none" stroke="#cbd5e1" stroke-width="0.8" d="M158.7,-64.78C163.58,-57.28 169.36,-48.41 174.52,-40.49"/>
<polygon fill="#cbd5e1" stroke="#cbd5e1" stroke-width="0.8" points="176.05,-41.34 177.31,-36.19 173.12,-39.43 176.05,-41.34"/>
</g>
<!-- n21 -->
<g id="node22" class="node">
<title>n21</title>
<path fill="#dceefe" stroke="#94a3b8" d="M364,-36C364,-36 271,-36 271,-36 265,-36 259,-30 259,-24 259,-24 259,-12 259,-12 259,-6 265,0 271,0 271,0 364,0 364,0 370,0 376,-6 376,-12 376,-12 376,-24 376,-24 376,-30 370,-36 364,-36"/>
<text text-anchor="middle" x="317.5" y="-15.8" font-family="Arial" font-size="9.00" fill="#111827">TaskDetailScreenKt\n&lt;init&gt;</text>
</g>
<!-- n10&#45;&gt;n21 -->
<g id="edge10" class="edge">
<title>n10&#45;&gt;n21</title>
<path fill="none" stroke="#cbd5e1" stroke-width="0.8" d="M193.5,-64.95C216.09,-56.58 243.36,-46.48 266.57,-37.87"/>
<polygon fill="#cbd5e1" stroke="#cbd5e1" stroke-width="0.8" points="267.38,-39.44 271.46,-36.06 266.16,-36.16 267.38,-39.44"/>
</g>
<!-- n11 -->
<g id="node12" class="node">
<title>n11</title>
<path fill="#dceefe" stroke="#94a3b8" d="M1414,-166C1414,-166 1299,-166 1299,-166 1293,-166 1287,-160 1287,-154 1287,-154 1287,-142 1287,-142 1287,-136 1293,-130 1299,-130 1299,-130 1414,-130 1414,-130 1420,-130 1426,-136 1426,-142 1426,-142 1426,-154 1426,-154 1426,-160 1420,-166 1414,-166"/>
<text text-anchor="middle" x="1356.5" y="-145.8" font-family="Arial" font-size="9.00" fill="#111827">StatisticsViewModel\ngetUiState</text>
</g>
<!-- n12 -->
<g id="node13" class="node">
<title>n12</title>
<path fill="#dceefe" stroke="#94a3b8" d="M1538.5,-166C1538.5,-166 1450.5,-166 1450.5,-166 1444.5,-166 1438.5,-160 1438.5,-154 1438.5,-154 1438.5,-142 1438.5,-142 1438.5,-136 1444.5,-130 1450.5,-130 1450.5,-130 1538.5,-130 1538.5,-130 1544.5,-130 1550.5,-136 1550.5,-142 1550.5,-142 1550.5,-154 1550.5,-154 1550.5,-160 1544.5,-166 1538.5,-166"/>
<text text-anchor="middle" x="1494.5" y="-145.8" font-family="Arial" font-size="9.00" fill="#111827">TasksScreenKt\n&lt;init&gt;</text>
</g>
<!-- n17 -->
<g id="node18" class="node">
<title>n17</title>
<path fill="#dceefe" stroke="#94a3b8" d="M544.5,-166C544.5,-166 394.5,-166 394.5,-166 388.5,-166 382.5,-160 382.5,-154 382.5,-154 382.5,-142 382.5,-142 382.5,-136 388.5,-130 394.5,-130 394.5,-130 544.5,-130 544.5,-130 550.5,-130 556.5,-136 556.5,-142 556.5,-142 556.5,-154 556.5,-154 556.5,-160 550.5,-166 544.5,-166"/>
<text text-anchor="middle" x="469.5" y="-145.8" font-family="Arial" font-size="9.00" fill="#111827">TasksScreenKt\nTasksScreen$lambda$1</text>
</g>
<!-- n17&#45;&gt;n3 -->
<g id="edge11" class="edge">
<title>n17&#45;&gt;n3</title>
<path fill="none" stroke="#cbd5e1" stroke-width="0.8" d="M469.5,-129.78C469.5,-122.56 469.5,-114.07 469.5,-106.37"/>
<polygon fill="#cbd5e1" stroke="#cbd5e1" stroke-width="0.8" points="471.25,-106.19 469.5,-101.19 467.75,-106.19 471.25,-106.19"/>
</g>
<!-- n18 -->
<g id="node19" class="node">
<title>n18</title>
<path fill="#dceefe" stroke="#94a3b8" d="M1676.5,-166C1676.5,-166 1574.5,-166 1574.5,-166 1568.5,-166 1562.5,-160 1562.5,-154 1562.5,-154 1562.5,-142 1562.5,-142 1562.5,-136 1568.5,-130 1574.5,-130 1574.5,-130 1676.5,-130 1676.5,-130 1682.5,-130 1688.5,-136 1688.5,-142 1688.5,-142 1688.5,-154 1688.5,-154 1688.5,-160 1682.5,-166 1676.5,-166"/>
<text text-anchor="middle" x="1625.5" y="-145.8" font-family="Arial" font-size="9.00" fill="#111827">TasksViewModel\ngetUiState</text>
</g>
<!-- n19 -->
<g id="node20" class="node">
<title>n19</title>
<path fill="#dceefe" stroke="#94a3b8" d="M1800.5,-166C1800.5,-166 1712.5,-166 1712.5,-166 1706.5,-166 1700.5,-160 1700.5,-154 1700.5,-154 1700.5,-142 1700.5,-142 1700.5,-136 1706.5,-130 1712.5,-130 1712.5,-130 1800.5,-130 1800.5,-130 1806.5,-130 1812.5,-136 1812.5,-142 1812.5,-142 1812.5,-154 1812.5,-154 1812.5,-160 1806.5,-166 1800.5,-166"/>
<text text-anchor="middle" x="1756.5" y="-145.8" font-family="Arial" font-size="9.00" fill="#111827">TasksScreenKt\n&lt;init&gt;</text>
</g>
<!-- n20 -->
<g id="node21" class="node">
<title>n20</title>
<path fill="#dceefe" stroke="#94a3b8" d="M201,-166C201,-166 12,-166 12,-166 6,-166 0,-160 0,-154 0,-154 0,-142 0,-142 0,-136 6,-130 12,-130 12,-130 201,-130 201,-130 207,-130 213,-136 213,-142 213,-142 213,-154 213,-154 213,-160 207,-166 201,-166"/>
<text text-anchor="middle" x="106.5" y="-145.8" font-family="Arial" font-size="9.00" fill="#111827">TaskDetailScreenKt\nTaskDetailScreen$lambda$1</text>
</g>
<!-- n20&#45;&gt;n10 -->
<g id="edge12" class="edge">
<title>n20&#45;&gt;n10</title>
<path fill="none" stroke="#cbd5e1" stroke-width="0.8" d="M117.7,-129.78C122.58,-122.28 128.36,-113.41 133.52,-105.49"/>
<polygon fill="#cbd5e1" stroke="#cbd5e1" stroke-width="0.8" points="135.05,-106.34 136.31,-101.19 132.12,-104.43 135.05,-106.34"/>
</g>
<!-- n22 -->
<g id="node23" class="node">
<title>n22</title>
<path fill="#dceefe" stroke="#94a3b8" d="M1966.5,-166C1966.5,-166 1836.5,-166 1836.5,-166 1830.5,-166 1824.5,-160 1824.5,-154 1824.5,-154 1824.5,-142 1824.5,-142 1824.5,-136 1830.5,-130 1836.5,-130 1836.5,-130 1966.5,-130 1966.5,-130 1972.5,-130 1978.5,-136 1978.5,-142 1978.5,-142 1978.5,-154 1978.5,-154 1978.5,-160 1972.5,-166 1966.5,-166"/>
<text text-anchor="middle" x="1901.5" y="-145.8" font-family="Arial" font-size="9.00" fill="#111827">AddEditTaskViewModel\ngetUiState</text>
</g>
</g>
</svg>
