<?xml version="1.0" encoding="UTF-8" standalone="no"?>
<!DOCTYPE svg PUBLIC "-//W3C//DTD SVG 1.1//EN"
 "http://www.w3.org/Graphics/SVG/1.1/DTD/svg11.dtd">
<!-- Generated by graphviz version 2.42.4 (0)
 -->
<!-- Title: APKGraph Pages: 1 -->
<svg width="5299pt" height="363pt"
 viewBox="0.00 0.00 5298.90 363.40" xmlns="http://www.w3.org/2000/svg" xmlns:xlink="http://www.w3.org/1999/xlink">
<g id="graph0" class="graph" transform="scale(1 1) rotate(0) translate(25.2 338.2)">
<title>APKGraph</title>
<polygon fill="white" stroke="transparent" points="-25.2,25.2 -25.2,-338.2 5273.7,-338.2 5273.7,25.2 -25.2,25.2"/>
<text text-anchor="middle" x="2624.25" y="-294.6" font-family="Arial" font-size="18.00">图 15&#45;3 &#160;APK 核心逻辑调用图：数据访问与持久化</text>
<!-- n0 -->
<g id="node1" class="node">
<title>n0</title>
<path fill="#dceefe" stroke="#94a3b8" d="M1176.5,-119C1176.5,-119 991.5,-119 991.5,-119 985.5,-119 979.5,-113 979.5,-107 979.5,-107 979.5,-95 979.5,-95 979.5,-89 985.5,-83 991.5,-83 991.5,-83 1176.5,-83 1176.5,-83 1182.5,-83 1188.5,-89 1188.5,-95 1188.5,-95 1188.5,-107 1188.5,-107 1188.5,-113 1182.5,-119 1176.5,-119"/>
<text text-anchor="middle" x="1084" y="-98.8" font-family="Arial" font-size="9.00" fill="#111827">TasksScreenKt.access$TasksContent\nscore=17</text>
</g>
<!-- n11 -->
<g id="node12" class="node">
<title>n11</title>
<path fill="#dceefe" stroke="#94a3b8" d="M506,-36C506,-36 398,-36 398,-36 392,-36 386,-30 386,-24 386,-24 386,-12 386,-12 386,-6 392,0 398,0 398,0 506,0 506,0 512,0 518,-6 518,-12 518,-12 518,-24 518,-24 518,-30 512,-36 506,-36"/>
<text text-anchor="middle" x="452" y="-15.8" font-family="Arial" font-size="9.00" fill="#111827">TasksScreenKt.get\nscore=53</text>
</g>
<!-- n0&#45;&gt;n11 -->
<g id="edge1" class="edge">
<title>n0&#45;&gt;n11</title>
<path fill="none" stroke="#cbd5e1" stroke-width="0.9" d="M979.36,-84.56C975.53,-84.03 971.73,-83.5 968,-83 809.53,-61.56 623.29,-39.15 523.6,-27.37"/>
<polygon fill="#cbd5e1" stroke="#cbd5e1" stroke-width="0.9" points="523.73,-25.45 518.04,-26.72 523.27,-29.27 523.73,-25.45"/>
</g>
<!-- n1 -->
<g id="node2" class="node">
<title>n1</title>
<path fill="#dceefe" stroke="#94a3b8" d="M1864.5,-119C1864.5,-119 1667.5,-119 1667.5,-119 1661.5,-119 1655.5,-113 1655.5,-107 1655.5,-107 1655.5,-95 1655.5,-95 1655.5,-89 1661.5,-83 1667.5,-83 1667.5,-83 1864.5,-83 1864.5,-83 1870.5,-83 1876.5,-89 1876.5,-95 1876.5,-95 1876.5,-107 1876.5,-107 1876.5,-113 1870.5,-119 1864.5,-119"/>
<text text-anchor="middle" x="1766" y="-98.8" font-family="Arial" font-size="9.00" fill="#111827">AddEditTaskScreenKt.invoke$lambda$0\nscore=21</text>
</g>
<!-- n39 -->
<g id="node40" class="node">
<title>n39</title>
<path fill="#dceefe" stroke="#94a3b8" d="M1979,-36C1979,-36 1843,-36 1843,-36 1837,-36 1831,-30 1831,-24 1831,-24 1831,-12 1831,-12 1831,-6 1837,0 1843,0 1843,0 1979,0 1979,0 1985,0 1991,-6 1991,-12 1991,-12 1991,-24 1991,-24 1991,-30 1985,-36 1979,-36"/>
<text text-anchor="middle" x="1911" y="-15.8" font-family="Arial" font-size="9.00" fill="#111827">AddEditTaskScreenKt.get\nscore=19</text>
</g>
<!-- n1&#45;&gt;n39 -->
<g id="edge2" class="edge">
<title>n1&#45;&gt;n39</title>
<path fill="none" stroke="#cbd5e1" stroke-width="0.9" d="M1796.75,-82.82C1819.72,-69.99 1851.18,-52.42 1875.27,-38.96"/>
<polygon fill="#cbd5e1" stroke="#cbd5e1" stroke-width="0.9" points="1876.43,-40.52 1880.29,-36.15 1874.55,-37.16 1876.43,-40.52"/>
</g>
<!-- n2 -->
<g id="node3" class="node">
<title>n2</title>
<path fill="#dceefe" stroke="#94a3b8" d="M2143.5,-285C2143.5,-285 1982.5,-285 1982.5,-285 1976.5,-285 1970.5,-279 1970.5,-273 1970.5,-273 1970.5,-261 1970.5,-261 1970.5,-255 1976.5,-249 1982.5,-249 1982.5,-249 2143.5,-249 2143.5,-249 2149.5,-249 2155.5,-255 2155.5,-261 2155.5,-261 2155.5,-273 2155.5,-273 2155.5,-279 2149.5,-285 2143.5,-285"/>
<text text-anchor="middle" x="2063" y="-264.8" font-family="Arial" font-size="9.00" fill="#111827">TopAppBarsKt.MoreTasksMenu\nscore=43</text>
</g>
<!-- n3 -->
<g id="node4" class="node">
<title>n3</title>
<path fill="#dceefe" stroke="#94a3b8" d="M945.5,-119C945.5,-119 776.5,-119 776.5,-119 770.5,-119 764.5,-113 764.5,-107 764.5,-107 764.5,-95 764.5,-95 764.5,-89 770.5,-83 776.5,-83 776.5,-83 945.5,-83 945.5,-83 951.5,-83 957.5,-89 957.5,-95 957.5,-95 957.5,-107 957.5,-107 957.5,-113 951.5,-119 945.5,-119"/>
<text text-anchor="middle" x="861" y="-98.8" font-family="Arial" font-size="9.00" fill="#111827">TasksScreenKt.invoke$lambda$0\nscore=21</text>
</g>
<!-- n24 -->
<g id="node25" class="node">
<title>n24</title>
<path fill="#dceefe" stroke="#94a3b8" d="M1277,-36C1277,-36 1169,-36 1169,-36 1163,-36 1157,-30 1157,-24 1157,-24 1157,-12 1157,-12 1157,-6 1163,0 1169,0 1169,0 1277,0 1277,0 1283,0 1289,-6 1289,-12 1289,-12 1289,-24 1289,-24 1289,-30 1283,-36 1277,-36"/>
<text text-anchor="middle" x="1223" y="-15.8" font-family="Arial" font-size="9.00" fill="#111827">TasksScreenKt.get\nscore=21</text>
</g>
<!-- n3&#45;&gt;n24 -->
<g id="edge3" class="edge">
<title>n3&#45;&gt;n24</title>
<path fill="none" stroke="#cbd5e1" stroke-width="0.9" d="M937.33,-82.92C1000.45,-68.8 1089.46,-48.88 1151.28,-35.05"/>
<polygon fill="#cbd5e1" stroke="#cbd5e1" stroke-width="0.9" points="1151.86,-36.89 1156.8,-33.81 1151.01,-33.13 1151.86,-36.89"/>
</g>
<!-- n4 -->
<g id="node5" class="node">
<title>n4</title>
<path fill="#dceefe" stroke="#94a3b8" d="M2379,-285C2379,-285 2189,-285 2189,-285 2183,-285 2177,-279 2177,-273 2177,-273 2177,-261 2177,-261 2177,-255 2183,-249 2189,-249 2189,-249 2379,-249 2379,-249 2385,-249 2391,-255 2391,-261 2391,-261 2391,-273 2391,-273 2391,-279 2385,-285 2379,-285"/>
<text text-anchor="middle" x="2284" y="-264.8" font-family="Arial" font-size="9.00" fill="#111827">TopAppBarsKt.AddEditTaskTopAppBar\nscore=48</text>
</g>
<!-- n5 -->
<g id="node6" class="node">
<title>n5</title>
<path fill="#dceefe" stroke="#94a3b8" d="M2600,-202C2600,-202 2478,-202 2478,-202 2472,-202 2466,-196 2466,-190 2466,-190 2466,-178 2466,-178 2466,-172 2472,-166 2478,-166 2478,-166 2600,-166 2600,-166 2606,-166 2612,-172 2612,-178 2612,-178 2612,-190 2612,-190 2612,-196 2606,-202 2600,-202"/>
<text text-anchor="middle" x="2539" y="-181.8" font-family="Arial" font-size="9.00" fill="#111827">TasksScreenKt.invoke\nscore=73</text>
</g>
<!-- n10 -->
<g id="node11" class="node">
<title>n10</title>
<path fill="#dceefe" stroke="#94a3b8" d="M2486,-119C2486,-119 2378,-119 2378,-119 2372,-119 2366,-113 2366,-107 2366,-107 2366,-95 2366,-95 2366,-89 2372,-83 2378,-83 2378,-83 2486,-83 2486,-83 2492,-83 2498,-89 2498,-95 2498,-95 2498,-107 2498,-107 2498,-113 2492,-119 2486,-119"/>
<text text-anchor="middle" x="2432" y="-98.8" font-family="Arial" font-size="9.00" fill="#111827">TasksScreenKt.get\nscore=25</text>
</g>
<!-- n5&#45;&gt;n10 -->
<g id="edge4" class="edge">
<title>n5&#45;&gt;n10</title>
<path fill="none" stroke="#cbd5e1" stroke-width="0.9" d="M2516.31,-165.82C2499.71,-153.26 2477.11,-136.15 2459.49,-122.81"/>
<polygon fill="#cbd5e1" stroke="#cbd5e1" stroke-width="0.9" points="2460.21,-120.94 2454.66,-119.15 2457.88,-124.01 2460.21,-120.94"/>
</g>
<!-- n23 -->
<g id="node24" class="node">
<title>n23</title>
<path fill="#dceefe" stroke="#94a3b8" d="M2694,-119C2694,-119 2532,-119 2532,-119 2526,-119 2520,-113 2520,-107 2520,-107 2520,-95 2520,-95 2520,-89 2526,-83 2532,-83 2532,-83 2694,-83 2694,-83 2700,-83 2706,-89 2706,-95 2706,-95 2706,-107 2706,-107 2706,-113 2700,-119 2694,-119"/>
<text text-anchor="middle" x="2613" y="-98.8" font-family="Arial" font-size="9.00" fill="#111827">TopAppBarsKt.TasksTopAppBar\nscore=60</text>
</g>
<!-- n5&#45;&gt;n23 -->
<g id="edge5" class="edge">
<title>n5&#45;&gt;n23</title>
<path fill="none" stroke="#cbd5e1" stroke-width="0.9" d="M2554.69,-165.82C2565.98,-153.47 2581.27,-136.73 2593.36,-123.5"/>
<polygon fill="#cbd5e1" stroke="#cbd5e1" stroke-width="0.9" points="2595.04,-124.51 2597.33,-119.15 2592.2,-121.92 2595.04,-124.51"/>
</g>
<!-- n6 -->
<g id="node7" class="node">
<title>n6</title>
<path fill="#dceefe" stroke="#94a3b8" d="M2547,-285C2547,-285 2425,-285 2425,-285 2419,-285 2413,-279 2413,-273 2413,-273 2413,-261 2413,-261 2413,-255 2419,-249 2425,-249 2425,-249 2547,-249 2547,-249 2553,-249 2559,-255 2559,-261 2559,-261 2559,-273 2559,-273 2559,-279 2553,-285 2547,-285"/>
<text text-anchor="middle" x="2486" y="-264.8" font-family="Arial" font-size="9.00" fill="#111827">TasksScreenKt.invoke\nscore=20</text>
</g>
<!-- n6&#45;&gt;n5 -->
<g id="edge7" class="edge">
<title>n6&#45;&gt;n5</title>
<path fill="none" stroke="#cbd5e1" stroke-width="0.9" d="M2497.24,-248.82C2505.25,-236.58 2516.08,-220.02 2524.71,-206.84"/>
<polygon fill="#cbd5e1" stroke="#cbd5e1" stroke-width="0.9" points="2526.38,-207.81 2527.78,-202.15 2523.15,-205.7 2526.38,-207.81"/>
</g>
<!-- n6&#45;&gt;n10 -->
<g id="edge6" class="edge">
<title>n6&#45;&gt;n10</title>
<path fill="none" stroke="#cbd5e1" stroke-width="0.9" d="M2476.35,-248.8C2469.6,-236.17 2460.78,-218.42 2455,-202 2445.91,-176.2 2439.45,-145.37 2435.74,-124.83"/>
<polygon fill="#cbd5e1" stroke="#cbd5e1" stroke-width="0.9" points="2437.62,-124.4 2434.76,-119.32 2433.82,-125.07 2437.62,-124.4"/>
</g>
<!-- n7 -->
<g id="node8" class="node">
<title>n7</title>
<path fill="#dceefe" stroke="#94a3b8" d="M526,-119C526,-119 378,-119 378,-119 372,-119 366,-113 366,-107 366,-107 366,-95 366,-95 366,-89 372,-83 378,-83 378,-83 526,-83 526,-83 532,-83 538,-89 538,-95 538,-95 538,-107 538,-107 538,-113 532,-119 526,-119"/>
<text text-anchor="middle" x="452" y="-98.8" font-family="Arial" font-size="9.00" fill="#111827">TasksScreenKt.TasksScreen\nscore=67</text>
</g>
<!-- n7&#45;&gt;n11 -->
<g id="edge8" class="edge">
<title>n7&#45;&gt;n11</title>
<path fill="none" stroke="#cbd5e1" stroke-width="0.9" d="M452,-82.82C452,-70.9 452,-54.89 452,-41.89"/>
<polygon fill="#cbd5e1" stroke="#cbd5e1" stroke-width="0.9" points="453.93,-41.65 452,-36.15 450.08,-41.65 453.93,-41.65"/>
</g>
<!-- n8 -->
<g id="node9" class="node">
<title>n8</title>
<path fill="#dceefe" stroke="#94a3b8" d="M2808.5,-285C2808.5,-285 2593.5,-285 2593.5,-285 2587.5,-285 2581.5,-279 2581.5,-273 2581.5,-273 2581.5,-261 2581.5,-261 2581.5,-255 2587.5,-249 2593.5,-249 2593.5,-249 2808.5,-249 2808.5,-249 2814.5,-249 2820.5,-255 2820.5,-261 2820.5,-261 2820.5,-273 2820.5,-273 2820.5,-279 2814.5,-285 2808.5,-285"/>
<text text-anchor="middle" x="2701" y="-264.8" font-family="Arial" font-size="9.00" fill="#111827">TopAppBarsKt.TaskDetailTopAppBarPreview\nscore=32</text>
</g>
<!-- n9 -->
<g id="node10" class="node">
<title>n9</title>
<path fill="#dceefe" stroke="#94a3b8" d="M1543,-285C1543,-285 1385,-285 1385,-285 1379,-285 1373,-279 1373,-273 1373,-273 1373,-261 1373,-261 1373,-255 1379,-249 1385,-249 1385,-249 1543,-249 1543,-249 1549,-249 1555,-255 1555,-261 1555,-261 1555,-273 1555,-273 1555,-279 1549,-285 1543,-285"/>
<text text-anchor="middle" x="1464" y="-264.8" font-family="Arial" font-size="9.00" fill="#111827">ComposableSingletons.invoke\nscore=20</text>
</g>
<!-- n35 -->
<g id="node36" class="node">
<title>n35</title>
<path fill="#dceefe" stroke="#94a3b8" d="M1621.5,-119C1621.5,-119 1478.5,-119 1478.5,-119 1472.5,-119 1466.5,-113 1466.5,-107 1466.5,-107 1466.5,-95 1466.5,-95 1466.5,-89 1472.5,-83 1478.5,-83 1478.5,-83 1621.5,-83 1621.5,-83 1627.5,-83 1633.5,-89 1633.5,-95 1633.5,-95 1633.5,-107 1633.5,-107 1633.5,-113 1627.5,-119 1621.5,-119"/>
<text text-anchor="middle" x="1550" y="-98.8" font-family="Arial" font-size="9.00" fill="#111827">ComposableSingletons.get\nscore=23</text>
</g>
<!-- n9&#45;&gt;n35 -->
<g id="edge10" class="edge">
<title>n9&#45;&gt;n35</title>
<path fill="none" stroke="#cbd5e1" stroke-width="0.9" d="M1473.04,-248.76C1488.76,-218.78 1521.1,-157.11 1538.43,-124.06"/>
<polygon fill="#cbd5e1" stroke="#cbd5e1" stroke-width="0.9" points="1540.23,-124.77 1541.08,-119.01 1536.82,-122.99 1540.23,-124.77"/>
</g>
<!-- n42 -->
<g id="node43" class="node">
<title>n42</title>
<path fill="#dceefe" stroke="#94a3b8" d="M1473,-202C1473,-202 1315,-202 1315,-202 1309,-202 1303,-196 1303,-190 1303,-190 1303,-178 1303,-178 1303,-172 1309,-166 1315,-166 1315,-166 1473,-166 1473,-166 1479,-166 1485,-172 1485,-178 1485,-178 1485,-190 1485,-190 1485,-196 1479,-202 1473,-202"/>
<text text-anchor="middle" x="1394" y="-181.8" font-family="Arial" font-size="9.00" fill="#111827">ComposableSingletons.invoke\nscore=79</text>
</g>
<!-- n9&#45;&gt;n42 -->
<g id="edge9" class="edge">
<title>n9&#45;&gt;n42</title>
<path fill="none" stroke="#cbd5e1" stroke-width="0.9" d="M1449.15,-248.82C1438.48,-236.47 1424.02,-219.73 1412.58,-206.5"/>
<polygon fill="#cbd5e1" stroke="#cbd5e1" stroke-width="0.9" points="1413.88,-205.06 1408.82,-202.15 1410.96,-207.57 1413.88,-205.06"/>
</g>
<!-- n12 -->
<g id="node13" class="node">
<title>n12</title>
<path fill="#dceefe" stroke="#94a3b8" d="M3061,-285C3061,-285 2855,-285 2855,-285 2849,-285 2843,-279 2843,-273 2843,-273 2843,-261 2843,-261 2843,-255 2849,-249 2855,-249 2855,-249 3061,-249 3061,-249 3067,-249 3073,-255 3073,-261 3073,-261 3073,-273 3073,-273 3073,-279 3067,-285 3061,-285"/>
<text text-anchor="middle" x="2958" y="-264.8" font-family="Arial" font-size="9.00" fill="#111827">AddEditTaskScreenKt.AddEditTaskContent\nscore=70</text>
</g>
<!-- n40 -->
<g id="node41" class="node">
<title>n40</title>
<path fill="#dceefe" stroke="#94a3b8" d="M3151,-202C3151,-202 3015,-202 3015,-202 3009,-202 3003,-196 3003,-190 3003,-190 3003,-178 3003,-178 3003,-172 3009,-166 3015,-166 3015,-166 3151,-166 3151,-166 3157,-166 3163,-172 3163,-178 3163,-178 3163,-190 3163,-190 3163,-196 3157,-202 3151,-202"/>
<text text-anchor="middle" x="3083" y="-181.8" font-family="Arial" font-size="9.00" fill="#111827">AddEditTaskScreenKt.get\nscore=25</text>
</g>
<!-- n12&#45;&gt;n40 -->
<g id="edge11" class="edge">
<title>n12&#45;&gt;n40</title>
<path fill="none" stroke="#cbd5e1" stroke-width="0.9" d="M2984.51,-248.82C3004.15,-236.1 3030.98,-218.71 3051.68,-205.3"/>
<polygon fill="#cbd5e1" stroke="#cbd5e1" stroke-width="0.9" points="3052.96,-206.76 3056.53,-202.15 3050.87,-203.53 3052.96,-206.76"/>
</g>
<!-- n13 -->
<g id="node14" class="node">
<title>n13</title>
<path fill="#dceefe" stroke="#94a3b8" d="M3579.5,-285C3579.5,-285 3356.5,-285 3356.5,-285 3350.5,-285 3344.5,-279 3344.5,-273 3344.5,-273 3344.5,-261 3344.5,-261 3344.5,-255 3350.5,-249 3356.5,-249 3356.5,-249 3579.5,-249 3579.5,-249 3585.5,-249 3591.5,-255 3591.5,-261 3591.5,-261 3591.5,-273 3591.5,-273 3591.5,-279 3585.5,-285 3579.5,-285"/>
<text text-anchor="middle" x="3468" y="-264.8" font-family="Arial" font-size="9.00" fill="#111827">TopAppBarsKt.AddEditTaskTopAppBarPreview\nscore=32</text>
</g>
<!-- n14 -->
<g id="node15" class="node">
<title>n14</title>
<path fill="#dceefe" stroke="#94a3b8" d="M3310.5,-285C3310.5,-285 3107.5,-285 3107.5,-285 3101.5,-285 3095.5,-279 3095.5,-273 3095.5,-273 3095.5,-261 3095.5,-261 3095.5,-255 3101.5,-249 3107.5,-249 3107.5,-249 3310.5,-249 3310.5,-249 3316.5,-249 3322.5,-255 3322.5,-261 3322.5,-261 3322.5,-273 3322.5,-273 3322.5,-279 3316.5,-285 3310.5,-285"/>
<text text-anchor="middle" x="3209" y="-264.8" font-family="Arial" font-size="9.00" fill="#111827">AddEditTaskScreenKt.AddEditTaskScreen\nscore=67</text>
</g>
<!-- n14&#45;&gt;n40 -->
<g id="edge12" class="edge">
<title>n14&#45;&gt;n40</title>
<path fill="none" stroke="#cbd5e1" stroke-width="0.9" d="M3182.28,-248.82C3162.4,-236.04 3135.21,-218.56 3114.31,-205.13"/>
<polygon fill="#cbd5e1" stroke="#cbd5e1" stroke-width="0.9" points="3115.35,-203.51 3109.68,-202.15 3113.27,-206.75 3115.35,-203.51"/>
</g>
<!-- n15 -->
<g id="node16" class="node">
<title>n15</title>
<path fill="#dceefe" stroke="#94a3b8" d="M3739,-119C3739,-119 3633,-119 3633,-119 3627,-119 3621,-113 3621,-107 3621,-107 3621,-95 3621,-95 3621,-89 3627,-83 3633,-83 3633,-83 3739,-83 3739,-83 3745,-83 3751,-89 3751,-95 3751,-95 3751,-107 3751,-107 3751,-113 3745,-119 3739,-119"/>
<text text-anchor="middle" x="3686" y="-98.8" font-family="Arial" font-size="9.00" fill="#111827">TopAppBarsKt.get\nscore=21</text>
</g>
<!-- n16 -->
<g id="node17" class="node">
<title>n16</title>
<path fill="#dceefe" stroke="#94a3b8" d="M3746,-285C3746,-285 3626,-285 3626,-285 3620,-285 3614,-279 3614,-273 3614,-273 3614,-261 3614,-261 3614,-255 3620,-249 3626,-249 3626,-249 3746,-249 3746,-249 3752,-249 3758,-255 3758,-261 3758,-261 3758,-273 3758,-273 3758,-279 3752,-285 3746,-285"/>
<text text-anchor="middle" x="3686" y="-264.8" font-family="Arial" font-size="9.00" fill="#111827">TopAppBarsKt.invoke\nscore=21</text>
</g>
<!-- n16&#45;&gt;n15 -->
<g id="edge13" class="edge">
<title>n16&#45;&gt;n15</title>
<path fill="none" stroke="#cbd5e1" stroke-width="0.9" d="M3675.4,-248.82C3668.36,-236.34 3659.74,-218.77 3656,-202 3652.52,-186.38 3652.52,-181.62 3656,-166 3659.27,-151.33 3666.28,-136.04 3672.7,-124.09"/>
<polygon fill="#cbd5e1" stroke="#cbd5e1" stroke-width="0.9" points="3674.44,-124.93 3675.4,-119.18 3671.06,-123.07 3674.44,-124.93"/>
</g>
<!-- n22 -->
<g id="node23" class="node">
<title>n22</title>
<path fill="#dceefe" stroke="#94a3b8" d="M3799,-202C3799,-202 3679,-202 3679,-202 3673,-202 3667,-196 3667,-190 3667,-190 3667,-178 3667,-178 3667,-172 3673,-166 3679,-166 3679,-166 3799,-166 3799,-166 3805,-166 3811,-172 3811,-178 3811,-178 3811,-190 3811,-190 3811,-196 3805,-202 3799,-202"/>
<text text-anchor="middle" x="3739" y="-181.8" font-family="Arial" font-size="9.00" fill="#111827">TopAppBarsKt.invoke\nscore=72</text>
</g>
<!-- n16&#45;&gt;n22 -->
<g id="edge14" class="edge">
<title>n16&#45;&gt;n22</title>
<path fill="none" stroke="#cbd5e1" stroke-width="0.9" d="M3697.24,-248.82C3705.25,-236.58 3716.08,-220.02 3724.71,-206.84"/>
<polygon fill="#cbd5e1" stroke="#cbd5e1" stroke-width="0.9" points="3726.38,-207.81 3727.78,-202.15 3723.15,-205.7 3726.38,-207.81"/>
</g>
<!-- n17 -->
<g id="node18" class="node">
<title>n17</title>
<path fill="#dceefe" stroke="#94a3b8" d="M3972.5,-119C3972.5,-119 3785.5,-119 3785.5,-119 3779.5,-119 3773.5,-113 3773.5,-107 3773.5,-107 3773.5,-95 3773.5,-95 3773.5,-89 3779.5,-83 3785.5,-83 3785.5,-83 3972.5,-83 3972.5,-83 3978.5,-83 3984.5,-89 3984.5,-95 3984.5,-95 3984.5,-107 3984.5,-107 3984.5,-113 3978.5,-119 3972.5,-119"/>
<text text-anchor="middle" x="3879" y="-98.8" font-family="Arial" font-size="9.00" fill="#111827">TaskDetailScreenKt.TaskDetailScreen\nscore=67</text>
</g>
<!-- n26 -->
<g id="node27" class="node">
<title>n26</title>
<path fill="#dceefe" stroke="#94a3b8" d="M4066,-36C4066,-36 3938,-36 3938,-36 3932,-36 3926,-30 3926,-24 3926,-24 3926,-12 3926,-12 3926,-6 3932,0 3938,0 3938,0 4066,0 4066,0 4072,0 4078,-6 4078,-12 4078,-12 4078,-24 4078,-24 4078,-30 4072,-36 4066,-36"/>
<text text-anchor="middle" x="4002" y="-15.8" font-family="Arial" font-size="9.00" fill="#111827">TaskDetailScreenKt.get\nscore=31</text>
</g>
<!-- n17&#45;&gt;n26 -->
<g id="edge15" class="edge">
<title>n17&#45;&gt;n26</title>
<path fill="none" stroke="#cbd5e1" stroke-width="0.9" d="M3905.09,-82.82C3924.41,-70.1 3950.81,-52.71 3971.18,-39.3"/>
<polygon fill="#cbd5e1" stroke="#cbd5e1" stroke-width="0.9" points="3972.42,-40.79 3975.95,-36.15 3970.3,-37.57 3972.42,-40.79"/>
</g>
<!-- n18 -->
<g id="node19" class="node">
<title>n18</title>
<path fill="#dceefe" stroke="#94a3b8" d="M4233.5,-119C4233.5,-119 4018.5,-119 4018.5,-119 4012.5,-119 4006.5,-113 4006.5,-107 4006.5,-107 4006.5,-95 4006.5,-95 4006.5,-89 4012.5,-83 4018.5,-83 4018.5,-83 4233.5,-83 4233.5,-83 4239.5,-83 4245.5,-89 4245.5,-95 4245.5,-95 4245.5,-107 4245.5,-107 4245.5,-113 4239.5,-119 4233.5,-119"/>
<text text-anchor="middle" x="4126" y="-98.8" font-family="Arial" font-size="9.00" fill="#111827">TaskDetailScreenKt.access$EditTaskContent\nscore=19</text>
</g>
<!-- n18&#45;&gt;n26 -->
<g id="edge16" class="edge">
<title>n18&#45;&gt;n26</title>
<path fill="none" stroke="#cbd5e1" stroke-width="0.9" d="M4099.7,-82.82C4080.22,-70.1 4053.61,-52.71 4033.07,-39.3"/>
<polygon fill="#cbd5e1" stroke="#cbd5e1" stroke-width="0.9" points="4033.92,-37.55 4028.26,-36.15 4031.81,-40.77 4033.92,-37.55"/>
</g>
<!-- n19 -->
<g id="node20" class="node">
<title>n19</title>
<path fill="#dceefe" stroke="#94a3b8" d="M4767,-285C4767,-285 4607,-285 4607,-285 4601,-285 4595,-279 4595,-273 4595,-273 4595,-261 4595,-261 4595,-255 4601,-249 4607,-249 4607,-249 4767,-249 4767,-249 4773,-249 4779,-255 4779,-261 4779,-261 4779,-273 4779,-273 4779,-279 4773,-285 4767,-285"/>
<text text-anchor="middle" x="4687" y="-264.8" font-family="Arial" font-size="9.00" fill="#111827">TopAppBarsKt.FilterTasksMenu\nscore=45</text>
</g>
<!-- n20 -->
<g id="node21" class="node">
<title>n20</title>
<path fill="#dceefe" stroke="#94a3b8" d="M318.5,-36C318.5,-36 213.5,-36 213.5,-36 207.5,-36 201.5,-30 201.5,-24 201.5,-24 201.5,-12 201.5,-12 201.5,-6 207.5,0 213.5,0 213.5,0 318.5,0 318.5,0 324.5,0 330.5,-6 330.5,-12 330.5,-12 330.5,-24 330.5,-24 330.5,-30 324.5,-36 318.5,-36"/>
<text text-anchor="middle" x="266" y="-15.8" font-family="Arial" font-size="9.00" fill="#111827">Task.isCompleted\nscore=20</text>
</g>
<!-- n21 -->
<g id="node22" class="node">
<title>n21</title>
<path fill="#dceefe" stroke="#94a3b8" d="M4995,-285C4995,-285 4813,-285 4813,-285 4807,-285 4801,-279 4801,-273 4801,-273 4801,-261 4801,-261 4801,-255 4807,-249 4813,-249 4813,-249 4995,-249 4995,-249 5001,-249 5007,-255 5007,-261 5007,-261 5007,-273 5007,-273 5007,-279 5001,-285 4995,-285"/>
<text text-anchor="middle" x="4904" y="-264.8" font-family="Arial" font-size="9.00" fill="#111827">TopAppBarsKt.TaskDetailTopAppBar\nscore=52</text>
</g>
<!-- n22&#45;&gt;n15 -->
<g id="edge17" class="edge">
<title>n22&#45;&gt;n15</title>
<path fill="none" stroke="#cbd5e1" stroke-width="0.9" d="M3727.76,-165.82C3719.75,-153.58 3708.92,-137.02 3700.29,-123.84"/>
<polygon fill="#cbd5e1" stroke="#cbd5e1" stroke-width="0.9" points="3701.85,-122.7 3697.22,-119.15 3698.62,-124.81 3701.85,-122.7"/>
</g>
<!-- n25 -->
<g id="node26" class="node">
<title>n25</title>
<path fill="#dceefe" stroke="#94a3b8" d="M331.5,-119C331.5,-119 200.5,-119 200.5,-119 194.5,-119 188.5,-113 188.5,-107 188.5,-107 188.5,-95 188.5,-95 188.5,-89 194.5,-83 200.5,-83 200.5,-83 331.5,-83 331.5,-83 337.5,-83 343.5,-89 343.5,-95 343.5,-95 343.5,-107 343.5,-107 343.5,-113 337.5,-119 331.5,-119"/>
<text text-anchor="middle" x="266" y="-98.8" font-family="Arial" font-size="9.00" fill="#111827">TasksScreenKt.TaskItem\nscore=67</text>
</g>
<!-- n25&#45;&gt;n11 -->
<g id="edge20" class="edge">
<title>n25&#45;&gt;n11</title>
<path fill="none" stroke="#cbd5e1" stroke-width="0.9" d="M305.45,-82.82C335.39,-69.78 376.56,-51.85 407.64,-38.32"/>
<polygon fill="#cbd5e1" stroke="#cbd5e1" stroke-width="0.9" points="408.66,-39.98 412.93,-36.01 407.12,-36.45 408.66,-39.98"/>
</g>
<!-- n25&#45;&gt;n20 -->
<g id="edge18" class="edge">
<title>n25&#45;&gt;n20</title>
<path fill="none" stroke="#cbd5e1" stroke-width="0.9" d="M259.11,-82.82C257.54,-70.9 257.33,-54.89 258.49,-41.89"/>
<polygon fill="#cbd5e1" stroke="#cbd5e1" stroke-width="0.9" points="260.43,-41.83 259.11,-36.15 256.6,-41.41 260.43,-41.83"/>
</g>
<!-- n25&#45;&gt;n20 -->
<g id="edge19" class="edge">
<title>n25&#45;&gt;n20</title>
<path fill="none" stroke="#cbd5e1" stroke-width="0.9" d="M272.89,-82.82C274.46,-70.9 274.67,-54.89 273.51,-41.89"/>
<polygon fill="#cbd5e1" stroke="#cbd5e1" stroke-width="0.9" points="275.4,-41.41 272.89,-36.15 271.57,-41.83 275.4,-41.41"/>
</g>
<!-- n27 -->
<g id="node28" class="node">
<title>n27</title>
<path fill="#dceefe" stroke="#94a3b8" d="M4561,-285C4561,-285 4419,-285 4419,-285 4413,-285 4407,-279 4407,-273 4407,-273 4407,-261 4407,-261 4407,-255 4413,-249 4419,-249 4419,-249 4561,-249 4561,-249 4567,-249 4573,-255 4573,-261 4573,-261 4573,-273 4573,-273 4573,-279 4567,-285 4561,-285"/>
<text text-anchor="middle" x="4490" y="-264.8" font-family="Arial" font-size="9.00" fill="#111827">TaskDetailScreenKt.invoke\nscore=20</text>
</g>
<!-- n32 -->
<g id="node33" class="node">
<title>n32</title>
<path fill="#dceefe" stroke="#94a3b8" d="M4493,-202C4493,-202 4347,-202 4347,-202 4341,-202 4335,-196 4335,-190 4335,-190 4335,-178 4335,-178 4335,-172 4341,-166 4347,-166 4347,-166 4493,-166 4493,-166 4499,-166 4505,-172 4505,-178 4505,-178 4505,-190 4505,-190 4505,-196 4499,-202 4493,-202"/>
<text text-anchor="middle" x="4420" y="-181.8" font-family="Arial" font-size="9.00" fill="#111827">TaskDetailScreenKt.invoke\nscore=112</text>
</g>
<!-- n27&#45;&gt;n32 -->
<g id="edge21" class="edge">
<title>n27&#45;&gt;n32</title>
<path fill="none" stroke="#cbd5e1" stroke-width="0.9" d="M4475.15,-248.82C4464.48,-236.47 4450.02,-219.73 4438.58,-206.5"/>
<polygon fill="#cbd5e1" stroke="#cbd5e1" stroke-width="0.9" points="4439.88,-205.06 4434.82,-202.15 4436.96,-207.57 4439.88,-205.06"/>
</g>
<!-- n34 -->
<g id="node35" class="node">
<title>n34</title>
<path fill="#dceefe" stroke="#94a3b8" d="M4484,-36C4484,-36 4356,-36 4356,-36 4350,-36 4344,-30 4344,-24 4344,-24 4344,-12 4344,-12 4344,-6 4350,0 4356,0 4356,0 4484,0 4484,0 4490,0 4496,-6 4496,-12 4496,-12 4496,-24 4496,-24 4496,-30 4490,-36 4484,-36"/>
<text text-anchor="middle" x="4420" y="-15.8" font-family="Arial" font-size="9.00" fill="#111827">TaskDetailScreenKt.get\nscore=19</text>
</g>
<!-- n27&#45;&gt;n34 -->
<g id="edge22" class="edge">
<title>n27&#45;&gt;n34</title>
<path fill="none" stroke="#cbd5e1" stroke-width="0.9" d="M4502.47,-248.89C4525.5,-215 4569.53,-137.88 4537,-83 4524.87,-62.53 4503.62,-48.19 4482.54,-38.34"/>
<polygon fill="#cbd5e1" stroke="#cbd5e1" stroke-width="0.9" points="4483.28,-36.57 4477.47,-36.06 4481.7,-40.08 4483.28,-36.57"/>
</g>
<!-- n28 -->
<g id="node29" class="node">
<title>n28</title>
<path fill="#dceefe" stroke="#94a3b8" d="M1843.5,-202C1843.5,-202 1688.5,-202 1688.5,-202 1682.5,-202 1676.5,-196 1676.5,-190 1676.5,-190 1676.5,-178 1676.5,-178 1676.5,-172 1682.5,-166 1688.5,-166 1688.5,-166 1843.5,-166 1843.5,-166 1849.5,-166 1855.5,-172 1855.5,-178 1855.5,-178 1855.5,-190 1855.5,-190 1855.5,-196 1849.5,-202 1843.5,-202"/>
<text text-anchor="middle" x="1766" y="-181.8" font-family="Arial" font-size="9.00" fill="#111827">AddEditTaskScreenKt.invoke\nscore=106</text>
</g>
<!-- n28&#45;&gt;n1 -->
<g id="edge23" class="edge">
<title>n28&#45;&gt;n1</title>
<path fill="none" stroke="#cbd5e1" stroke-width="0.9" d="M1738.45,-165.82C1732.03,-153.69 1731.28,-137.31 1736.2,-124.19"/>
<polygon fill="#cbd5e1" stroke="#cbd5e1" stroke-width="0.9" points="1737.97,-124.96 1738.46,-119.15 1734.45,-123.38 1737.97,-124.96"/>
</g>
<!-- n28&#45;&gt;n1 -->
<g id="edge24" class="edge">
<title>n28&#45;&gt;n1</title>
<path fill="none" stroke="#cbd5e1" stroke-width="0.9" d="M1752.22,-165.82C1749.04,-153.79 1748.65,-137.6 1751.04,-124.54"/>
<polygon fill="#cbd5e1" stroke="#cbd5e1" stroke-width="0.9" points="1752.92,-124.94 1752.23,-119.15 1749.16,-124.11 1752.92,-124.94"/>
</g>
<!-- n28&#45;&gt;n1 -->
<g id="edge25" class="edge">
<title>n28&#45;&gt;n1</title>
<path fill="none" stroke="#cbd5e1" stroke-width="0.9" d="M1766,-165.82C1766,-153.9 1766,-137.89 1766,-124.89"/>
<polygon fill="#cbd5e1" stroke="#cbd5e1" stroke-width="0.9" points="1767.93,-124.65 1766,-119.15 1764.08,-124.65 1767.93,-124.65"/>
</g>
<!-- n28&#45;&gt;n1 -->
<g id="edge26" class="edge">
<title>n28&#45;&gt;n1</title>
<path fill="none" stroke="#cbd5e1" stroke-width="0.9" d="M1779.78,-165.82C1782.96,-153.79 1783.35,-137.6 1780.96,-124.54"/>
<polygon fill="#cbd5e1" stroke="#cbd5e1" stroke-width="0.9" points="1782.84,-124.11 1779.77,-119.15 1779.08,-124.94 1782.84,-124.11"/>
</g>
<!-- n28&#45;&gt;n1 -->
<g id="edge27" class="edge">
<title>n28&#45;&gt;n1</title>
<path fill="none" stroke="#cbd5e1" stroke-width="0.9" d="M1793.55,-165.82C1799.97,-153.69 1800.72,-137.31 1795.8,-124.19"/>
<polygon fill="#cbd5e1" stroke="#cbd5e1" stroke-width="0.9" points="1797.55,-123.38 1793.54,-119.15 1794.03,-124.96 1797.55,-123.38"/>
</g>
<!-- n28&#45;&gt;n39 -->
<g id="edge28" class="edge">
<title>n28&#45;&gt;n39</title>
<path fill="none" stroke="#cbd5e1" stroke-width="0.9" d="M1820.13,-165.92C1843.9,-155.83 1870.17,-140.69 1887,-119 1904.38,-96.6 1909.43,-63.51 1910.77,-41.61"/>
<polygon fill="#cbd5e1" stroke="#cbd5e1" stroke-width="0.9" points="1912.69,-41.61 1911.04,-36.02 1908.85,-41.42 1912.69,-41.61"/>
</g>
<!-- n29 -->
<g id="node30" class="node">
<title>n29</title>
<path fill="#dceefe" stroke="#94a3b8" d="M154,-202C154,-202 12,-202 12,-202 6,-202 0,-196 0,-190 0,-190 0,-178 0,-178 0,-172 6,-166 12,-166 12,-166 154,-166 154,-166 160,-166 166,-172 166,-178 166,-178 166,-190 166,-190 166,-196 160,-202 154,-202"/>
<text text-anchor="middle" x="83" y="-181.8" font-family="Arial" font-size="9.00" fill="#111827">TaskDetailScreenKt.invoke\nscore=20</text>
</g>
<!-- n33 -->
<g id="node34" class="node">
<title>n33</title>
<path fill="#dceefe" stroke="#94a3b8" d="M154,-119C154,-119 12,-119 12,-119 6,-119 0,-113 0,-107 0,-107 0,-95 0,-95 0,-89 6,-83 12,-83 12,-83 154,-83 154,-83 160,-83 166,-89 166,-95 166,-95 166,-107 166,-107 166,-113 160,-119 154,-119"/>
<text text-anchor="middle" x="83" y="-98.8" font-family="Arial" font-size="9.00" fill="#111827">TaskDetailScreenKt.invoke\nscore=67</text>
</g>
<!-- n29&#45;&gt;n33 -->
<g id="edge29" class="edge">
<title>n29&#45;&gt;n33</title>
<path fill="none" stroke="#cbd5e1" stroke-width="0.9" d="M83,-165.82C83,-153.9 83,-137.89 83,-124.89"/>
<polygon fill="#cbd5e1" stroke="#cbd5e1" stroke-width="0.9" points="84.93,-124.65 83,-119.15 81.08,-124.65 84.93,-124.65"/>
</g>
<!-- n30 -->
<g id="node31" class="node">
<title>n30</title>
<path fill="#dceefe" stroke="#94a3b8" d="M925,-202C925,-202 797,-202 797,-202 791,-202 785,-196 785,-190 785,-190 785,-178 785,-178 785,-172 791,-166 797,-166 797,-166 925,-166 925,-166 931,-166 937,-172 937,-178 937,-178 937,-190 937,-190 937,-196 931,-202 925,-202"/>
<text text-anchor="middle" x="861" y="-181.8" font-family="Arial" font-size="9.00" fill="#111827">TasksScreenKt.invoke\nscore=121</text>
</g>
<!-- n30&#45;&gt;n0 -->
<g id="edge39" class="edge">
<title>n30&#45;&gt;n0</title>
<path fill="none" stroke="#cbd5e1" stroke-width="0.9" d="M908.02,-165.92C944.19,-152.78 994.16,-134.63 1031.61,-121.03"/>
<polygon fill="#cbd5e1" stroke="#cbd5e1" stroke-width="0.9" points="1032.53,-122.74 1037.04,-119.06 1031.22,-119.12 1032.53,-122.74"/>
</g>
<!-- n30&#45;&gt;n3 -->
<g id="edge33" class="edge">
<title>n30&#45;&gt;n3</title>
<path fill="none" stroke="#cbd5e1" stroke-width="0.9" d="M826.56,-165.82C818.54,-153.69 817.6,-137.31 823.75,-124.19"/>
<polygon fill="#cbd5e1" stroke="#cbd5e1" stroke-width="0.9" points="825.56,-124.89 826.57,-119.15 822.21,-123.01 825.56,-124.89"/>
</g>
<!-- n30&#45;&gt;n3 -->
<g id="edge34" class="edge">
<title>n30&#45;&gt;n3</title>
<path fill="none" stroke="#cbd5e1" stroke-width="0.9" d="M840.33,-165.82C835.57,-153.79 834.97,-137.6 838.55,-124.54"/>
<polygon fill="#cbd5e1" stroke="#cbd5e1" stroke-width="0.9" points="840.44,-124.98 840.34,-119.15 836.78,-123.77 840.44,-124.98"/>
</g>
<!-- n30&#45;&gt;n3 -->
<g id="edge35" class="edge">
<title>n30&#45;&gt;n3</title>
<path fill="none" stroke="#cbd5e1" stroke-width="0.9" d="M854.11,-165.82C852.54,-153.9 852.33,-137.89 853.49,-124.89"/>
<polygon fill="#cbd5e1" stroke="#cbd5e1" stroke-width="0.9" points="855.43,-124.83 854.11,-119.15 851.6,-124.41 855.43,-124.83"/>
</g>
<!-- n30&#45;&gt;n3 -->
<g id="edge36" class="edge">
<title>n30&#45;&gt;n3</title>
<path fill="none" stroke="#cbd5e1" stroke-width="0.9" d="M867.89,-165.82C869.46,-153.9 869.67,-137.89 868.51,-124.89"/>
<polygon fill="#cbd5e1" stroke="#cbd5e1" stroke-width="0.9" points="870.4,-124.41 867.89,-119.15 866.57,-124.83 870.4,-124.41"/>
</g>
<!-- n30&#45;&gt;n3 -->
<g id="edge37" class="edge">
<title>n30&#45;&gt;n3</title>
<path fill="none" stroke="#cbd5e1" stroke-width="0.9" d="M881.67,-165.82C886.43,-153.79 887.03,-137.6 883.45,-124.54"/>
<polygon fill="#cbd5e1" stroke="#cbd5e1" stroke-width="0.9" points="885.22,-123.77 881.66,-119.15 881.56,-124.98 885.22,-123.77"/>
</g>
<!-- n30&#45;&gt;n3 -->
<g id="edge38" class="edge">
<title>n30&#45;&gt;n3</title>
<path fill="none" stroke="#cbd5e1" stroke-width="0.9" d="M895.44,-165.82C903.46,-153.69 904.4,-137.31 898.25,-124.19"/>
<polygon fill="#cbd5e1" stroke="#cbd5e1" stroke-width="0.9" points="899.79,-123.01 895.43,-119.15 896.44,-124.89 899.79,-123.01"/>
</g>
<!-- n30&#45;&gt;n24 -->
<g id="edge40" class="edge">
<title>n30&#45;&gt;n24</title>
<path fill="none" stroke="#cbd5e1" stroke-width="0.9" d="M937.36,-178.04C1025.25,-170.75 1162.25,-154.02 1199,-119 1219.85,-99.13 1223.96,-64.59 1224.14,-41.76"/>
<polygon fill="#cbd5e1" stroke="#cbd5e1" stroke-width="0.9" points="1226.06,-41.71 1224.11,-36.23 1222.21,-41.74 1226.06,-41.71"/>
</g>
<!-- n36 -->
<g id="node37" class="node">
<title>n36</title>
<path fill="#dceefe" stroke="#94a3b8" d="M730,-119C730,-119 572,-119 572,-119 566,-119 560,-113 560,-107 560,-107 560,-95 560,-95 560,-89 566,-83 572,-83 572,-83 730,-83 730,-83 736,-83 742,-89 742,-95 742,-95 742,-107 742,-107 742,-113 736,-119 730,-119"/>
<text text-anchor="middle" x="651" y="-98.8" font-family="Arial" font-size="9.00" fill="#111827">TasksUiState.getFilteringUiInfo\nscore=14</text>
</g>
<!-- n30&#45;&gt;n36 -->
<g id="edge30" class="edge">
<title>n30&#45;&gt;n36</title>
<path fill="none" stroke="#cbd5e1" stroke-width="0.9" d="M802.97,-165.92C765.72,-152.89 718.97,-134.93 686.89,-121.36"/>
<polygon fill="#cbd5e1" stroke="#cbd5e1" stroke-width="0.9" points="687.29,-119.44 681.47,-119.06 685.78,-122.98 687.29,-119.44"/>
</g>
<!-- n30&#45;&gt;n36 -->
<g id="edge31" class="edge">
<title>n30&#45;&gt;n36</title>
<path fill="none" stroke="#cbd5e1" stroke-width="0.9" d="M816.72,-165.92C782.8,-152.84 735.99,-134.78 700.77,-121.2"/>
<polygon fill="#cbd5e1" stroke="#cbd5e1" stroke-width="0.9" points="701.04,-119.24 695.22,-119.06 699.66,-122.83 701.04,-119.24"/>
</g>
<!-- n30&#45;&gt;n36 -->
<g id="edge32" class="edge">
<title>n30&#45;&gt;n36</title>
<path fill="none" stroke="#cbd5e1" stroke-width="0.9" d="M830.24,-165.82C799.63,-152.68 752.81,-134.56 714.44,-120.98"/>
<polygon fill="#cbd5e1" stroke="#cbd5e1" stroke-width="0.9" points="714.67,-119.02 708.84,-119.01 713.39,-122.66 714.67,-119.02"/>
</g>
<!-- n31 -->
<g id="node32" class="node">
<title>n31</title>
<path fill="#dceefe" stroke="#94a3b8" d="M1936,-285C1936,-285 1786,-285 1786,-285 1780,-285 1774,-279 1774,-273 1774,-273 1774,-261 1774,-261 1774,-255 1780,-249 1786,-249 1786,-249 1936,-249 1936,-249 1942,-249 1948,-255 1948,-261 1948,-261 1948,-273 1948,-273 1948,-279 1942,-285 1936,-285"/>
<text text-anchor="middle" x="1861" y="-264.8" font-family="Arial" font-size="9.00" fill="#111827">AddEditTaskScreenKt.invoke\nscore=20</text>
</g>
<!-- n31&#45;&gt;n28 -->
<g id="edge41" class="edge">
<title>n31&#45;&gt;n28</title>
<path fill="none" stroke="#cbd5e1" stroke-width="0.9" d="M1840.85,-248.82C1826.12,-236.26 1806.05,-219.15 1790.41,-205.81"/>
<polygon fill="#cbd5e1" stroke="#cbd5e1" stroke-width="0.9" points="1791.55,-204.26 1786.12,-202.15 1789.05,-207.19 1791.55,-204.26"/>
</g>
<!-- n31&#45;&gt;n39 -->
<g id="edge42" class="edge">
<title>n31&#45;&gt;n39</title>
<path fill="none" stroke="#cbd5e1" stroke-width="0.9" d="M1869.23,-248.87C1881.65,-221.96 1904.62,-167.82 1913,-119 1915.71,-103.23 1913.25,-99 1913,-83 1912.79,-69.34 1912.32,-54.05 1911.89,-41.84"/>
<polygon fill="#cbd5e1" stroke="#cbd5e1" stroke-width="0.9" points="1913.8,-41.54 1911.68,-36.11 1909.95,-41.68 1913.8,-41.54"/>
</g>
<!-- n32&#45;&gt;n18 -->
<g id="edge49" class="edge">
<title>n32&#45;&gt;n18</title>
<path fill="none" stroke="#cbd5e1" stroke-width="0.9" d="M4358.01,-165.92C4309.73,-152.62 4242.82,-134.18 4193.25,-120.53"/>
<polygon fill="#cbd5e1" stroke="#cbd5e1" stroke-width="0.9" points="4193.72,-118.66 4187.91,-119.06 4192.7,-122.37 4193.72,-118.66"/>
</g>
<!-- n32&#45;&gt;n34 -->
<g id="edge50" class="edge">
<title>n32&#45;&gt;n34</title>
<path fill="none" stroke="#cbd5e1" stroke-width="0.9" d="M4362.53,-165.94C4339.84,-156.08 4316.11,-141.11 4303,-119 4294.84,-105.24 4294.84,-96.76 4303,-83 4315.13,-62.53 4336.38,-48.19 4357.46,-38.34"/>
<polygon fill="#cbd5e1" stroke="#cbd5e1" stroke-width="0.9" points="4358.3,-40.08 4362.53,-36.06 4356.72,-36.57 4358.3,-40.08"/>
</g>
<!-- n43 -->
<g id="node44" class="node">
<title>n43</title>
<path fill="#dceefe" stroke="#94a3b8" d="M4514,-119C4514,-119 4326,-119 4326,-119 4320,-119 4314,-113 4314,-107 4314,-107 4314,-95 4314,-95 4314,-89 4320,-83 4326,-83 4326,-83 4514,-83 4514,-83 4520,-83 4526,-89 4526,-95 4526,-95 4526,-107 4526,-107 4526,-113 4520,-119 4514,-119"/>
<text text-anchor="middle" x="4420" y="-98.8" font-family="Arial" font-size="9.00" fill="#111827">TaskDetailScreenKt.invoke$lambda$0\nscore=23</text>
</g>
<!-- n32&#45;&gt;n43 -->
<g id="edge43" class="edge">
<title>n32&#45;&gt;n43</title>
<path fill="none" stroke="#cbd5e1" stroke-width="0.9" d="M4385.56,-165.82C4377.54,-153.69 4376.6,-137.31 4382.75,-124.19"/>
<polygon fill="#cbd5e1" stroke="#cbd5e1" stroke-width="0.9" points="4384.56,-124.89 4385.57,-119.15 4381.21,-123.01 4384.56,-124.89"/>
</g>
<!-- n32&#45;&gt;n43 -->
<g id="edge44" class="edge">
<title>n32&#45;&gt;n43</title>
<path fill="none" stroke="#cbd5e1" stroke-width="0.9" d="M4399.33,-165.82C4394.57,-153.79 4393.97,-137.6 4397.55,-124.54"/>
<polygon fill="#cbd5e1" stroke="#cbd5e1" stroke-width="0.9" points="4399.44,-124.98 4399.34,-119.15 4395.78,-123.77 4399.44,-124.98"/>
</g>
<!-- n32&#45;&gt;n43 -->
<g id="edge45" class="edge">
<title>n32&#45;&gt;n43</title>
<path fill="none" stroke="#cbd5e1" stroke-width="0.9" d="M4413.11,-165.82C4411.54,-153.9 4411.33,-137.89 4412.49,-124.89"/>
<polygon fill="#cbd5e1" stroke="#cbd5e1" stroke-width="0.9" points="4414.43,-124.83 4413.11,-119.15 4410.6,-124.41 4414.43,-124.83"/>
</g>
<!-- n32&#45;&gt;n43 -->
<g id="edge46" class="edge">
<title>n32&#45;&gt;n43</title>
<path fill="none" stroke="#cbd5e1" stroke-width="0.9" d="M4426.89,-165.82C4428.46,-153.9 4428.67,-137.89 4427.51,-124.89"/>
<polygon fill="#cbd5e1" stroke="#cbd5e1" stroke-width="0.9" points="4429.4,-124.41 4426.89,-119.15 4425.57,-124.83 4429.4,-124.41"/>
</g>
<!-- n32&#45;&gt;n43 -->
<g id="edge47" class="edge">
<title>n32&#45;&gt;n43</title>
<path fill="none" stroke="#cbd5e1" stroke-width="0.9" d="M4440.67,-165.82C4445.43,-153.79 4446.03,-137.6 4442.45,-124.54"/>
<polygon fill="#cbd5e1" stroke="#cbd5e1" stroke-width="0.9" points="4444.22,-123.77 4440.66,-119.15 4440.56,-124.98 4444.22,-123.77"/>
</g>
<!-- n32&#45;&gt;n43 -->
<g id="edge48" class="edge">
<title>n32&#45;&gt;n43</title>
<path fill="none" stroke="#cbd5e1" stroke-width="0.9" d="M4454.44,-165.82C4462.46,-153.69 4463.4,-137.31 4457.25,-124.19"/>
<polygon fill="#cbd5e1" stroke="#cbd5e1" stroke-width="0.9" points="4458.79,-123.01 4454.43,-119.15 4455.44,-124.89 4458.79,-123.01"/>
</g>
<!-- n33&#45;&gt;n20 -->
<g id="edge51" class="edge">
<title>n33&#45;&gt;n20</title>
<path fill="none" stroke="#cbd5e1" stroke-width="0.9" d="M121.81,-82.82C151.27,-69.78 191.77,-51.85 222.36,-38.32"/>
<polygon fill="#cbd5e1" stroke="#cbd5e1" stroke-width="0.9" points="223.31,-40 227.56,-36.01 221.75,-36.48 223.31,-40"/>
</g>
<!-- n37 -->
<g id="node38" class="node">
<title>n37</title>
<path fill="#dceefe" stroke="#94a3b8" d="M5236.5,-285C5236.5,-285 5041.5,-285 5041.5,-285 5035.5,-285 5029.5,-279 5029.5,-273 5029.5,-273 5029.5,-261 5029.5,-261 5029.5,-255 5035.5,-249 5041.5,-249 5041.5,-249 5236.5,-249 5236.5,-249 5242.5,-249 5248.5,-255 5248.5,-261 5248.5,-261 5248.5,-273 5248.5,-273 5248.5,-279 5242.5,-285 5236.5,-285"/>
<text text-anchor="middle" x="5139" y="-264.8" font-family="Arial" font-size="9.00" fill="#111827">TopAppBarsKt.TasksTopAppBarPreview\nscore=32</text>
</g>
<!-- n38 -->
<g id="node39" class="node">
<title>n38</title>
<path fill="#dceefe" stroke="#94a3b8" d="M1432,-119C1432,-119 1356,-119 1356,-119 1350,-119 1344,-113 1344,-107 1344,-107 1344,-95 1344,-95 1344,-89 1350,-83 1356,-83 1356,-83 1432,-83 1432,-83 1438,-83 1444,-89 1444,-95 1444,-95 1444,-107 1444,-107 1444,-113 1438,-119 1432,-119"/>
<text text-anchor="middle" x="1394" y="-98.8" font-family="Arial" font-size="9.00" fill="#111827">Task.&lt;init&gt;\nscore=33</text>
</g>
<!-- n41 -->
<g id="node42" class="node">
<title>n41</title>
<path fill="#dceefe" stroke="#94a3b8" d="M1166,-285C1166,-285 1044,-285 1044,-285 1038,-285 1032,-279 1032,-273 1032,-273 1032,-261 1032,-261 1032,-255 1038,-249 1044,-249 1044,-249 1166,-249 1166,-249 1172,-249 1178,-255 1178,-261 1178,-261 1178,-273 1178,-273 1178,-279 1172,-285 1166,-285"/>
<text text-anchor="middle" x="1105" y="-264.8" font-family="Arial" font-size="9.00" fill="#111827">TasksScreenKt.invoke\nscore=20</text>
</g>
<!-- n41&#45;&gt;n24 -->
<g id="edge53" class="edge">
<title>n41&#45;&gt;n24</title>
<path fill="none" stroke="#cbd5e1" stroke-width="0.9" d="M1126.32,-248.8C1155.4,-223.82 1206.14,-174.38 1226,-119 1235.06,-93.74 1232.09,-62.56 1228.31,-41.79"/>
<polygon fill="#cbd5e1" stroke="#cbd5e1" stroke-width="0.9" points="1230.17,-41.26 1227.24,-36.22 1226.39,-41.99 1230.17,-41.26"/>
</g>
<!-- n41&#45;&gt;n30 -->
<g id="edge52" class="edge">
<title>n41&#45;&gt;n30</title>
<path fill="none" stroke="#cbd5e1" stroke-width="0.9" d="M1053.55,-248.92C1013.81,-235.73 958.85,-217.48 917.82,-203.86"/>
<polygon fill="#cbd5e1" stroke="#cbd5e1" stroke-width="0.9" points="918.2,-201.96 912.38,-202.06 916.99,-205.62 918.2,-201.96"/>
</g>
<!-- n42&#45;&gt;n0 -->
<g id="edge55" class="edge">
<title>n42&#45;&gt;n0</title>
<path fill="none" stroke="#cbd5e1" stroke-width="0.9" d="M1328.64,-165.92C1277.73,-152.62 1207.18,-134.18 1154.91,-120.53"/>
<polygon fill="#cbd5e1" stroke="#cbd5e1" stroke-width="0.9" points="1155.08,-118.58 1149.27,-119.06 1154.11,-122.31 1155.08,-118.58"/>
</g>
<!-- n42&#45;&gt;n35 -->
<g id="edge54" class="edge">
<title>n42&#45;&gt;n35</title>
<path fill="none" stroke="#cbd5e1" stroke-width="0.9" d="M1427.08,-165.82C1451.99,-152.89 1486.16,-135.15 1512.15,-121.65"/>
<polygon fill="#cbd5e1" stroke="#cbd5e1" stroke-width="0.9" points="1513.24,-123.26 1517.23,-119.01 1511.46,-119.84 1513.24,-123.26"/>
</g>
<!-- n42&#45;&gt;n38 -->
<g id="edge56" class="edge">
<title>n42&#45;&gt;n38</title>
<path fill="none" stroke="#cbd5e1" stroke-width="0.9" d="M1366.45,-165.82C1360.03,-153.69 1359.28,-137.31 1364.2,-124.19"/>
<polygon fill="#cbd5e1" stroke="#cbd5e1" stroke-width="0.9" points="1365.97,-124.96 1366.46,-119.15 1362.45,-123.38 1365.97,-124.96"/>
</g>
<!-- n42&#45;&gt;n38 -->
<g id="edge57" class="edge">
<title>n42&#45;&gt;n38</title>
<path fill="none" stroke="#cbd5e1" stroke-width="0.9" d="M1380.22,-165.82C1377.04,-153.79 1376.65,-137.6 1379.04,-124.54"/>
<polygon fill="#cbd5e1" stroke="#cbd5e1" stroke-width="0.9" points="1380.92,-124.94 1380.23,-119.15 1377.16,-124.11 1380.92,-124.94"/>
</g>
<!-- n42&#45;&gt;n38 -->
<g id="edge58" class="edge">
<title>n42&#45;&gt;n38</title>
<path fill="none" stroke="#cbd5e1" stroke-width="0.9" d="M1394,-165.82C1394,-153.9 1394,-137.89 1394,-124.89"/>
<polygon fill="#cbd5e1" stroke="#cbd5e1" stroke-width="0.9" points="1395.93,-124.65 1394,-119.15 1392.08,-124.65 1395.93,-124.65"/>
</g>
<!-- n42&#45;&gt;n38 -->
<g id="edge59" class="edge">
<title>n42&#45;&gt;n38</title>
<path fill="none" stroke="#cbd5e1" stroke-width="0.9" d="M1407.78,-165.82C1410.96,-153.79 1411.35,-137.6 1408.96,-124.54"/>
<polygon fill="#cbd5e1" stroke="#cbd5e1" stroke-width="0.9" points="1410.84,-124.11 1407.77,-119.15 1407.08,-124.94 1410.84,-124.11"/>
</g>
<!-- n42&#45;&gt;n38 -->
<g id="edge60" class="edge">
<title>n42&#45;&gt;n38</title>
<path fill="none" stroke="#cbd5e1" stroke-width="0.9" d="M1421.55,-165.82C1427.97,-153.69 1428.72,-137.31 1423.8,-124.19"/>
<polygon fill="#cbd5e1" stroke="#cbd5e1" stroke-width="0.9" points="1425.55,-123.38 1421.54,-119.15 1422.03,-124.96 1425.55,-123.38"/>
</g>
<!-- n43&#45;&gt;n34 -->
<g id="edge61" class="edge">
<title>n43&#45;&gt;n34</title>
<path fill="none" stroke="#cbd5e1" stroke-width="0.9" d="M4420,-82.82C4420,-70.9 4420,-54.89 4420,-41.89"/>
<polygon fill="#cbd5e1" stroke="#cbd5e1" stroke-width="0.9" points="4421.93,-41.65 4420,-36.15 4418.08,-41.65 4421.93,-41.65"/>
</g>
</g>
</svg>
