<?xml version="1.0" encoding="UTF-8" standalone="no"?>
<!DOCTYPE svg PUBLIC "-//W3C//DTD SVG 1.1//EN"
 "http://www.w3.org/Graphics/SVG/1.1/DTD/svg11.dtd">
<!-- Generated by graphviz version 2.42.4 (0)
 -->
<!-- Title: A Pages: 1 -->
<svg width="504pt" height="34pt"
 viewBox="0.00 0.00 504.00 33.98" xmlns="http://www.w3.org/2000/svg" xmlns:xlink="http://www.w3.org/1999/xlink">
<g id="graph0" class="graph" transform="scale(0.21 0.21) rotate(0) translate(18 147)">
<title>A</title>
<polygon fill="white" stroke="transparent" points="-18,18 -18,-147 2429.5,-147 2429.5,18 -18,18"/>
<text text-anchor="middle" x="1205.75" y="-110.6" font-family="Arial" font-size="18.00">图 15&#45;3 &#160;APK 核心逻辑调用图：数据访问与持久化</text>
<!-- n0 -->
<g id="node1" class="node">
<title>n0</title>
<path fill="#dceefe" stroke="#94a3b8" d="M164,-36C164,-36 12,-36 12,-36 6,-36 0,-30 0,-24 0,-24 0,-12 0,-12 0,-6 6,0 12,0 12,0 164,0 164,0 170,0 176,-6 176,-12 176,-12 176,-24 176,-24 176,-30 170,-36 164,-36"/>
<text text-anchor="middle" x="88" y="-15.8" font-family="Arial" font-size="9.00" fill="#111827">AddEditTaskScreenKt\ninvoke$lambda$0</text>
</g>
<!-- n1 -->
<g id="node2" class="node">
<title>n1</title>
<path fill="#dceefe" stroke="#94a3b8" d="M270,-101C270,-101 154,-101 154,-101 148,-101 142,-95 142,-89 142,-89 142,-77 142,-77 142,-71 148,-65 154,-65 154,-65 270,-65 270,-65 276,-65 282,-71 282,-77 282,-77 282,-89 282,-89 282,-95 276,-101 270,-101"/>
<text text-anchor="middle" x="212" y="-80.8" font-family="Arial" font-size="9.00" fill="#111827">TopAppBarsKt\nMoreTasksMenu</text>
</g>
<!-- n2 -->
<g id="node3" class="node">
<title>n2</title>
<path fill="#dceefe" stroke="#94a3b8" d="M412,-36C412,-36 288,-36 288,-36 282,-36 276,-30 276,-24 276,-24 276,-12 276,-12 276,-6 282,0 288,0 288,0 412,0 412,0 418,0 424,-6 424,-12 424,-12 424,-24 424,-24 424,-30 418,-36 412,-36"/>
<text text-anchor="middle" x="350" y="-15.8" font-family="Arial" font-size="9.00" fill="#111827">TasksScreenKt\ninvoke$lambda$0</text>
</g>
<!-- n3 -->
<g id="node4" class="node">
<title>n3</title>
<path fill="#dceefe" stroke="#94a3b8" d="M575.5,-101C575.5,-101 430.5,-101 430.5,-101 424.5,-101 418.5,-95 418.5,-89 418.5,-89 418.5,-77 418.5,-77 418.5,-71 424.5,-65 430.5,-65 430.5,-65 575.5,-65 575.5,-65 581.5,-65 587.5,-71 587.5,-77 587.5,-77 587.5,-89 587.5,-89 587.5,-95 581.5,-101 575.5,-101"/>
<text text-anchor="middle" x="503" y="-80.8" font-family="Arial" font-size="9.00" fill="#111827">TopAppBarsKt\nAddEditTaskTopAppBar</text>
</g>
<!-- n4 -->
<g id="node5" class="node">
<title>n4</title>
<path fill="#dceefe" stroke="#94a3b8" d="M699,-101C699,-101 611,-101 611,-101 605,-101 599,-95 599,-89 599,-89 599,-77 599,-77 599,-71 605,-65 611,-65 611,-65 699,-65 699,-65 705,-65 711,-71 711,-77 711,-77 711,-89 711,-89 711,-95 705,-101 699,-101"/>
<text text-anchor="middle" x="655" y="-80.8" font-family="Arial" font-size="9.00" fill="#111827">TasksScreenKt\ninvoke</text>
</g>
<!-- n13 -->
<g id="node14" class="node">
<title>n13</title>
<path fill="#dceefe" stroke="#94a3b8" d="M714,-36C714,-36 596,-36 596,-36 590,-36 584,-30 584,-24 584,-24 584,-12 584,-12 584,-6 590,0 596,0 596,0 714,0 714,0 720,0 726,-6 726,-12 726,-12 726,-24 726,-24 726,-30 720,-36 714,-36"/>
<text text-anchor="middle" x="655" y="-15.8" font-family="Arial" font-size="9.00" fill="#111827">TopAppBarsKt\nTasksTopAppBar</text>
</g>
<!-- n4&#45;&gt;n13 -->
<g id="edge1" class="edge">
<title>n4&#45;&gt;n13</title>
<path fill="none" stroke="#cbd5e1" stroke-width="0.8" d="M655,-64.78C655,-57.56 655,-49.07 655,-41.37"/>
<polygon fill="#cbd5e1" stroke="#cbd5e1" stroke-width="0.8" points="656.75,-41.19 655,-36.19 653.25,-41.19 656.75,-41.19"/>
</g>
<!-- n5 -->
<g id="node6" class="node">
<title>n5</title>
<path fill="#dceefe" stroke="#94a3b8" d="M838.5,-101C838.5,-101 735.5,-101 735.5,-101 729.5,-101 723.5,-95 723.5,-89 723.5,-89 723.5,-77 723.5,-77 723.5,-71 729.5,-65 735.5,-65 735.5,-65 838.5,-65 838.5,-65 844.5,-65 850.5,-71 850.5,-77 850.5,-77 850.5,-89 850.5,-89 850.5,-95 844.5,-101 838.5,-101"/>
<text text-anchor="middle" x="787" y="-80.8" font-family="Arial" font-size="9.00" fill="#111827">TasksScreenKt\nTasksScreen</text>
</g>
<!-- n6 -->
<g id="node7" class="node">
<title>n6</title>
<path fill="#dceefe" stroke="#94a3b8" d="M901,-36C901,-36 813,-36 813,-36 807,-36 801,-30 801,-24 801,-24 801,-12 801,-12 801,-6 807,0 813,0 813,0 901,0 901,0 907,0 913,-6 913,-12 913,-12 913,-24 913,-24 913,-30 907,-36 901,-36"/>
<text text-anchor="middle" x="857" y="-15.8" font-family="Arial" font-size="9.00" fill="#111827">TasksScreenKt\nget</text>
</g>
<!-- n5&#45;&gt;n6 -->
<g id="edge2" class="edge">
<title>n5&#45;&gt;n6</title>
<path fill="none" stroke="#cbd5e1" stroke-width="0.8" d="M806.13,-64.78C814.77,-57.01 825.05,-47.75 834.1,-39.61"/>
<polygon fill="#cbd5e1" stroke="#cbd5e1" stroke-width="0.8" points="835.35,-40.84 837.9,-36.19 833.01,-38.24 835.35,-40.84"/>
</g>
<!-- n7 -->
<g id="node8" class="node">
<title>n7</title>
<path fill="#dceefe" stroke="#94a3b8" d="M1161,-101C1161,-101 999,-101 999,-101 993,-101 987,-95 987,-89 987,-89 987,-77 987,-77 987,-71 993,-65 999,-65 999,-65 1161,-65 1161,-65 1167,-65 1173,-71 1173,-77 1173,-77 1173,-89 1173,-89 1173,-95 1167,-101 1161,-101"/>
<text text-anchor="middle" x="1080" y="-80.8" font-family="Arial" font-size="9.00" fill="#111827">AddEditTaskScreenKt\nAddEditTaskContent</text>
</g>
<!-- n21 -->
<g id="node22" class="node">
<title>n21</title>
<path fill="#dceefe" stroke="#94a3b8" d="M1223.5,-36C1223.5,-36 1132.5,-36 1132.5,-36 1126.5,-36 1120.5,-30 1120.5,-24 1120.5,-24 1120.5,-12 1120.5,-12 1120.5,-6 1126.5,0 1132.5,0 1132.5,0 1223.5,0 1223.5,0 1229.5,0 1235.5,-6 1235.5,-12 1235.5,-12 1235.5,-24 1235.5,-24 1235.5,-30 1229.5,-36 1223.5,-36"/>
<text text-anchor="middle" x="1178" y="-15.8" font-family="Arial" font-size="9.00" fill="#111827">AddEditTaskScreenKt\nget</text>
</g>
<!-- n7&#45;&gt;n21 -->
<g id="edge3" class="edge">
<title>n7&#45;&gt;n21</title>
<path fill="none" stroke="#cbd5e1" stroke-width="0.8" d="M1106.52,-64.95C1119.05,-56.9 1134.08,-47.23 1147.12,-38.85"/>
<polygon fill="#cbd5e1" stroke="#cbd5e1" stroke-width="0.8" points="1148.2,-40.24 1151.46,-36.06 1146.31,-37.29 1148.2,-40.24"/>
</g>
<!-- n8 -->
<g id="node9" class="node">
<title>n8</title>
<path fill="#dceefe" stroke="#94a3b8" d="M1356.5,-101C1356.5,-101 1197.5,-101 1197.5,-101 1191.5,-101 1185.5,-95 1185.5,-89 1185.5,-89 1185.5,-77 1185.5,-77 1185.5,-71 1191.5,-65 1197.5,-65 1197.5,-65 1356.5,-65 1356.5,-65 1362.5,-65 1368.5,-71 1368.5,-77 1368.5,-77 1368.5,-89 1368.5,-89 1368.5,-95 1362.5,-101 1356.5,-101"/>
<text text-anchor="middle" x="1277" y="-80.8" font-family="Arial" font-size="9.00" fill="#111827">AddEditTaskScreenKt\nAddEditTaskScreen</text>
</g>
<!-- n8&#45;&gt;n21 -->
<g id="edge4" class="edge">
<title>n8&#45;&gt;n21</title>
<path fill="none" stroke="#cbd5e1" stroke-width="0.8" d="M1250.21,-64.95C1237.55,-56.9 1222.37,-47.23 1209.2,-38.85"/>
<polygon fill="#cbd5e1" stroke="#cbd5e1" stroke-width="0.8" points="1209.97,-37.27 1204.81,-36.06 1208.09,-40.22 1209.97,-37.27"/>
</g>
<!-- n9 -->
<g id="node10" class="node">
<title>n9</title>
<path fill="#dceefe" stroke="#94a3b8" d="M1535,-101C1535,-101 1393,-101 1393,-101 1387,-101 1381,-95 1381,-89 1381,-89 1381,-77 1381,-77 1381,-71 1387,-65 1393,-65 1393,-65 1535,-65 1535,-65 1541,-65 1547,-71 1547,-77 1547,-77 1547,-89 1547,-89 1547,-95 1541,-101 1535,-101"/>
<text text-anchor="middle" x="1464" y="-80.8" font-family="Arial" font-size="9.00" fill="#111827">TaskDetailScreenKt\nTaskDetailScreen</text>
</g>
<!-- n15 -->
<g id="node16" class="node">
<title>n15</title>
<path fill="#dceefe" stroke="#94a3b8" d="M1508,-36C1508,-36 1420,-36 1420,-36 1414,-36 1408,-30 1408,-24 1408,-24 1408,-12 1408,-12 1408,-6 1414,0 1420,0 1420,0 1508,0 1508,0 1514,0 1520,-6 1520,-12 1520,-12 1520,-24 1520,-24 1520,-30 1514,-36 1508,-36"/>
<text text-anchor="middle" x="1464" y="-15.8" font-family="Arial" font-size="9.00" fill="#111827">TaskDetailScreenKt\nget</text>
</g>
<!-- n9&#45;&gt;n15 -->
<g id="edge5" class="edge">
<title>n9&#45;&gt;n15</title>
<path fill="none" stroke="#cbd5e1" stroke-width="0.8" d="M1464,-64.78C1464,-57.56 1464,-49.07 1464,-41.37"/>
<polygon fill="#cbd5e1" stroke="#cbd5e1" stroke-width="0.8" points="1465.75,-41.19 1464,-36.19 1462.25,-41.19 1465.75,-41.19"/>
</g>
<!-- n10 -->
<g id="node11" class="node">
<title>n10</title>
<path fill="#dceefe" stroke="#94a3b8" d="M1686.5,-101C1686.5,-101 1571.5,-101 1571.5,-101 1565.5,-101 1559.5,-95 1559.5,-89 1559.5,-89 1559.5,-77 1559.5,-77 1559.5,-71 1565.5,-65 1571.5,-65 1571.5,-65 1686.5,-65 1686.5,-65 1692.5,-65 1698.5,-71 1698.5,-77 1698.5,-77 1698.5,-89 1698.5,-89 1698.5,-95 1692.5,-101 1686.5,-101"/>
<text text-anchor="middle" x="1629" y="-80.8" font-family="Arial" font-size="9.00" fill="#111827">TopAppBarsKt\nFilterTasksMenu</text>
</g>
<!-- n11 -->
<g id="node12" class="node">
<title>n11</title>
<path fill="#dceefe" stroke="#94a3b8" d="M1859.5,-101C1859.5,-101 1722.5,-101 1722.5,-101 1716.5,-101 1710.5,-95 1710.5,-89 1710.5,-89 1710.5,-77 1710.5,-77 1710.5,-71 1716.5,-65 1722.5,-65 1722.5,-65 1859.5,-65 1859.5,-65 1865.5,-65 1871.5,-71 1871.5,-77 1871.5,-77 1871.5,-89 1871.5,-89 1871.5,-95 1865.5,-101 1859.5,-101"/>
<text text-anchor="middle" x="1791" y="-80.8" font-family="Arial" font-size="9.00" fill="#111827">TopAppBarsKt\nTaskDetailTopAppBar</text>
</g>
<!-- n12 -->
<g id="node13" class="node">
<title>n12</title>
<path fill="#dceefe" stroke="#94a3b8" d="M1984,-101C1984,-101 1896,-101 1896,-101 1890,-101 1884,-95 1884,-89 1884,-89 1884,-77 1884,-77 1884,-71 1890,-65 1896,-65 1896,-65 1984,-65 1984,-65 1990,-65 1996,-71 1996,-77 1996,-77 1996,-89 1996,-89 1996,-95 1990,-101 1984,-101"/>
<text text-anchor="middle" x="1940" y="-80.8" font-family="Arial" font-size="9.00" fill="#111827">TopAppBarsKt\ninvoke</text>
</g>
<!-- n14 -->
<g id="node15" class="node">
<title>n14</title>
<path fill="#dceefe" stroke="#94a3b8" d="M963,-101C963,-101 875,-101 875,-101 869,-101 863,-95 863,-89 863,-89 863,-77 863,-77 863,-71 869,-65 875,-65 875,-65 963,-65 963,-65 969,-65 975,-71 975,-77 975,-77 975,-89 975,-89 975,-95 969,-101 963,-101"/>
<text text-anchor="middle" x="919" y="-80.8" font-family="Arial" font-size="9.00" fill="#111827">TasksScreenKt\nTaskItem</text>
</g>
<!-- n14&#45;&gt;n6 -->
<g id="edge6" class="edge">
<title>n14&#45;&gt;n6</title>
<path fill="none" stroke="#cbd5e1" stroke-width="0.8" d="M902.06,-64.78C894.54,-57.15 885.62,-48.08 877.71,-40.05"/>
<polygon fill="#cbd5e1" stroke="#cbd5e1" stroke-width="0.8" points="878.68,-38.53 873.92,-36.19 876.18,-40.99 878.68,-38.53"/>
</g>
<!-- n16 -->
<g id="node17" class="node">
<title>n16</title>
<path fill="#dceefe" stroke="#94a3b8" d="M118,-101C118,-101 12,-101 12,-101 6,-101 0,-95 0,-89 0,-89 0,-77 0,-77 0,-71 6,-65 12,-65 12,-65 118,-65 118,-65 124,-65 130,-71 130,-77 130,-77 130,-89 130,-89 130,-95 124,-101 118,-101"/>
<text text-anchor="middle" x="65" y="-80.8" font-family="Arial" font-size="9.00" fill="#111827">AddEditTaskScreenKt\ninvoke</text>
</g>
<!-- n16&#45;&gt;n0 -->
<g id="edge7" class="edge">
<title>n16&#45;&gt;n0</title>
<path fill="none" stroke="#cbd5e1" stroke-width="0.8" d="M55.04,-64.78C55.79,-57.42 58.62,-48.74 62.75,-40.93"/>
<polygon fill="#cbd5e1" stroke="#cbd5e1" stroke-width="0.8" points="64.5,-41.4 65.49,-36.19 61.47,-39.65 64.5,-41.4"/>
</g>
<!-- n16&#45;&gt;n0 -->
<g id="edge8" class="edge">
<title>n16&#45;&gt;n0</title>
<path fill="none" stroke="#cbd5e1" stroke-width="0.8" d="M63.16,-64.78C64.88,-57.42 67.88,-48.74 71.37,-40.93"/>
<polygon fill="#cbd5e1" stroke="#cbd5e1" stroke-width="0.8" points="73.06,-41.46 73.6,-36.19 69.89,-39.97 73.06,-41.46"/>
</g>
<!-- n16&#45;&gt;n0 -->
<g id="edge9" class="edge">
<title>n16&#45;&gt;n0</title>
<path fill="none" stroke="#cbd5e1" stroke-width="0.8" d="M71.28,-64.78C73.97,-57.42 77.14,-48.74 79.99,-40.93"/>
<polygon fill="#cbd5e1" stroke="#cbd5e1" stroke-width="0.8" points="81.65,-41.49 81.72,-36.19 78.36,-40.29 81.65,-41.49"/>
</g>
<!-- n16&#45;&gt;n0 -->
<g id="edge10" class="edge">
<title>n16&#45;&gt;n0</title>
<path fill="none" stroke="#cbd5e1" stroke-width="0.8" d="M79.41,-64.78C83,-57.56 86.27,-49.07 88.49,-41.37"/>
<polygon fill="#cbd5e1" stroke="#cbd5e1" stroke-width="0.8" points="90.27,-41.47 89.84,-36.19 86.88,-40.59 90.27,-41.47"/>
</g>
<!-- n16&#45;&gt;n0 -->
<g id="edge11" class="edge">
<title>n16&#45;&gt;n0</title>
<path fill="none" stroke="#cbd5e1" stroke-width="0.8" d="M87.53,-64.78C92.07,-57.56 95.53,-49.07 97.14,-41.37"/>
<polygon fill="#cbd5e1" stroke="#cbd5e1" stroke-width="0.8" points="98.91,-41.41 97.96,-36.19 95.45,-40.86 98.91,-41.41"/>
</g>
<!-- n17 -->
<g id="node18" class="node">
<title>n17</title>
<path fill="#dceefe" stroke="#94a3b8" d="M394,-101C394,-101 306,-101 306,-101 300,-101 294,-95 294,-89 294,-89 294,-77 294,-77 294,-71 300,-65 306,-65 306,-65 394,-65 394,-65 400,-65 406,-71 406,-77 406,-77 406,-89 406,-89 406,-95 400,-101 394,-101"/>
<text text-anchor="middle" x="350" y="-80.8" font-family="Arial" font-size="9.00" fill="#111827">TasksScreenKt\ninvoke</text>
</g>
<!-- n17&#45;&gt;n2 -->
<g id="edge12" class="edge">
<title>n17&#45;&gt;n2</title>
<path fill="none" stroke="#cbd5e1" stroke-width="0.8" d="M329.7,-64.78C327.32,-57.56 326.87,-49.07 328.36,-41.37"/>
<polygon fill="#cbd5e1" stroke="#cbd5e1" stroke-width="0.8" points="330.14,-41.47 329.7,-36.19 326.76,-40.59 330.14,-41.47"/>
</g>
<!-- n17&#45;&gt;n2 -->
<g id="edge13" class="edge">
<title>n17&#45;&gt;n2</title>
<path fill="none" stroke="#cbd5e1" stroke-width="0.8" d="M337.82,-64.78C336.39,-57.56 336.12,-49.07 337.02,-41.37"/>
<polygon fill="#cbd5e1" stroke="#cbd5e1" stroke-width="0.8" points="338.78,-41.4 337.82,-36.19 335.32,-40.87 338.78,-41.4"/>
</g>
<!-- n17&#45;&gt;n2 -->
<g id="edge14" class="edge">
<title>n17&#45;&gt;n2</title>
<path fill="none" stroke="#cbd5e1" stroke-width="0.8" d="M345.94,-64.78C345.46,-57.56 345.37,-49.07 345.67,-41.37"/>
<polygon fill="#cbd5e1" stroke="#cbd5e1" stroke-width="0.8" points="347.43,-41.28 345.94,-36.19 343.93,-41.1 347.43,-41.28"/>
</g>
<!-- n17&#45;&gt;n2 -->
<g id="edge15" class="edge">
<title>n17&#45;&gt;n2</title>
<path fill="none" stroke="#cbd5e1" stroke-width="0.8" d="M354.06,-64.78C354.54,-57.56 354.63,-49.07 354.33,-41.37"/>
<polygon fill="#cbd5e1" stroke="#cbd5e1" stroke-width="0.8" points="356.07,-41.1 354.06,-36.19 352.57,-41.28 356.07,-41.1"/>
</g>
<!-- n17&#45;&gt;n2 -->
<g id="edge16" class="edge">
<title>n17&#45;&gt;n2</title>
<path fill="none" stroke="#cbd5e1" stroke-width="0.8" d="M362.18,-64.78C363.61,-57.56 363.88,-49.07 362.98,-41.37"/>
<polygon fill="#cbd5e1" stroke="#cbd5e1" stroke-width="0.8" points="364.68,-40.87 362.18,-36.19 361.22,-41.4 364.68,-40.87"/>
</g>
<!-- n17&#45;&gt;n2 -->
<g id="edge17" class="edge">
<title>n17&#45;&gt;n2</title>
<path fill="none" stroke="#cbd5e1" stroke-width="0.8" d="M370.3,-64.78C372.68,-57.56 373.13,-49.07 371.64,-41.37"/>
<polygon fill="#cbd5e1" stroke="#cbd5e1" stroke-width="0.8" points="373.24,-40.59 370.3,-36.19 369.86,-41.47 373.24,-40.59"/>
</g>
<!-- n18 -->
<g id="node19" class="node">
<title>n18</title>
<path fill="#dceefe" stroke="#94a3b8" d="M2117.5,-101C2117.5,-101 2020.5,-101 2020.5,-101 2014.5,-101 2008.5,-95 2008.5,-89 2008.5,-89 2008.5,-77 2008.5,-77 2008.5,-71 2014.5,-65 2020.5,-65 2020.5,-65 2117.5,-65 2117.5,-65 2123.5,-65 2129.5,-71 2129.5,-77 2129.5,-77 2129.5,-89 2129.5,-89 2129.5,-95 2123.5,-101 2117.5,-101"/>
<text text-anchor="middle" x="2069" y="-80.8" font-family="Arial" font-size="9.00" fill="#111827">TaskDetailScreenKt\ninvoke</text>
</g>
<!-- n23 -->
<g id="node24" class="node">
<title>n23</title>
<path fill="#dceefe" stroke="#94a3b8" d="M2141,-36C2141,-36 1997,-36 1997,-36 1991,-36 1985,-30 1985,-24 1985,-24 1985,-12 1985,-12 1985,-6 1991,0 1997,0 1997,0 2141,0 2141,0 2147,0 2153,-6 2153,-12 2153,-12 2153,-24 2153,-24 2153,-30 2147,-36 2141,-36"/>
<text text-anchor="middle" x="2069" y="-15.8" font-family="Arial" font-size="9.00" fill="#111827">TaskDetailScreenKt\ninvoke$lambda$0</text>
</g>
<!-- n18&#45;&gt;n23 -->
<g id="edge18" class="edge">
<title>n18&#45;&gt;n23</title>
<path fill="none" stroke="#cbd5e1" stroke-width="0.8" d="M2048.7,-64.78C2046.32,-57.56 2045.87,-49.07 2047.36,-41.37"/>
<polygon fill="#cbd5e1" stroke="#cbd5e1" stroke-width="0.8" points="2049.14,-41.47 2048.7,-36.19 2045.76,-40.59 2049.14,-41.47"/>
</g>
<!-- n18&#45;&gt;n23 -->
<g id="edge19" class="edge">
<title>n18&#45;&gt;n23</title>
<path fill="none" stroke="#cbd5e1" stroke-width="0.8" d="M2056.82,-64.78C2055.39,-57.56 2055.12,-49.07 2056.02,-41.37"/>
<polygon fill="#cbd5e1" stroke="#cbd5e1" stroke-width="0.8" points="2057.78,-41.4 2056.82,-36.19 2054.32,-40.87 2057.78,-41.4"/>
</g>
<!-- n18&#45;&gt;n23 -->
<g id="edge20" class="edge">
<title>n18&#45;&gt;n23</title>
<path fill="none" stroke="#cbd5e1" stroke-width="0.8" d="M2064.94,-64.78C2064.46,-57.56 2064.37,-49.07 2064.67,-41.37"/>
<polygon fill="#cbd5e1" stroke="#cbd5e1" stroke-width="0.8" points="2066.43,-41.28 2064.94,-36.19 2062.93,-41.1 2066.43,-41.28"/>
</g>
<!-- n18&#45;&gt;n23 -->
<g id="edge21" class="edge">
<title>n18&#45;&gt;n23</title>
<path fill="none" stroke="#cbd5e1" stroke-width="0.8" d="M2073.06,-64.78C2073.54,-57.56 2073.63,-49.07 2073.33,-41.37"/>
<polygon fill="#cbd5e1" stroke="#cbd5e1" stroke-width="0.8" points="2075.07,-41.1 2073.06,-36.19 2071.57,-41.28 2075.07,-41.1"/>
</g>
<!-- n18&#45;&gt;n23 -->
<g id="edge22" class="edge">
<title>n18&#45;&gt;n23</title>
<path fill="none" stroke="#cbd5e1" stroke-width="0.8" d="M2081.18,-64.78C2082.61,-57.56 2082.88,-49.07 2081.98,-41.37"/>
<polygon fill="#cbd5e1" stroke="#cbd5e1" stroke-width="0.8" points="2083.68,-40.87 2081.18,-36.19 2080.22,-41.4 2083.68,-40.87"/>
</g>
<!-- n18&#45;&gt;n23 -->
<g id="edge23" class="edge">
<title>n18&#45;&gt;n23</title>
<path fill="none" stroke="#cbd5e1" stroke-width="0.8" d="M2089.3,-64.78C2091.68,-57.56 2092.13,-49.07 2090.64,-41.37"/>
<polygon fill="#cbd5e1" stroke="#cbd5e1" stroke-width="0.8" points="2092.24,-40.59 2089.3,-36.19 2088.86,-41.47 2092.24,-40.59"/>
</g>
<!-- n19 -->
<g id="node20" class="node">
<title>n19</title>
<path fill="#dceefe" stroke="#94a3b8" d="M2250.5,-101C2250.5,-101 2153.5,-101 2153.5,-101 2147.5,-101 2141.5,-95 2141.5,-89 2141.5,-89 2141.5,-77 2141.5,-77 2141.5,-71 2147.5,-65 2153.5,-65 2153.5,-65 2250.5,-65 2250.5,-65 2256.5,-65 2262.5,-71 2262.5,-77 2262.5,-77 2262.5,-89 2262.5,-89 2262.5,-95 2256.5,-101 2250.5,-101"/>
<text text-anchor="middle" x="2202" y="-80.8" font-family="Arial" font-size="9.00" fill="#111827">TaskDetailScreenKt\ninvoke</text>
</g>
<!-- n20 -->
<g id="node21" class="node">
<title>n20</title>
<path fill="#dceefe" stroke="#94a3b8" d="M2387,-36C2387,-36 2299,-36 2299,-36 2293,-36 2287,-30 2287,-24 2287,-24 2287,-12 2287,-12 2287,-6 2293,0 2299,0 2299,0 2387,0 2387,0 2393,0 2399,-6 2399,-12 2399,-12 2399,-24 2399,-24 2399,-30 2393,-36 2387,-36"/>
<text text-anchor="middle" x="2343" y="-15.8" font-family="Arial" font-size="9.00" fill="#111827">Task\n&lt;init&gt;</text>
</g>
<!-- n22 -->
<g id="node23" class="node">
<title>n22</title>
<path fill="#dceefe" stroke="#94a3b8" d="M2399.5,-101C2399.5,-101 2286.5,-101 2286.5,-101 2280.5,-101 2274.5,-95 2274.5,-89 2274.5,-89 2274.5,-77 2274.5,-77 2274.5,-71 2280.5,-65 2286.5,-65 2286.5,-65 2399.5,-65 2399.5,-65 2405.5,-65 2411.5,-71 2411.5,-77 2411.5,-77 2411.5,-89 2411.5,-89 2411.5,-95 2405.5,-101 2399.5,-101"/>
<text text-anchor="middle" x="2343" y="-80.8" font-family="Arial" font-size="9.00" fill="#111827">ComposableSingletons\ninvoke</text>
</g>
<!-- n22&#45;&gt;n20 -->
<g id="edge24" class="edge">
<title>n22&#45;&gt;n20</title>
<path fill="none" stroke="#cbd5e1" stroke-width="0.8" d="M2326.76,-64.78C2324.85,-57.56 2324.5,-49.07 2325.69,-41.37"/>
<polygon fill="#cbd5e1" stroke="#cbd5e1" stroke-width="0.8" points="2327.46,-41.45 2326.76,-36.19 2324.03,-40.73 2327.46,-41.45"/>
</g>
<!-- n22&#45;&gt;n20 -->
<g id="edge25" class="edge">
<title>n22&#45;&gt;n20</title>
<path fill="none" stroke="#cbd5e1" stroke-width="0.8" d="M2334.88,-64.78C2333.93,-57.56 2333.75,-49.07 2334.34,-41.37"/>
<polygon fill="#cbd5e1" stroke="#cbd5e1" stroke-width="0.8" points="2336.11,-41.35 2334.88,-36.19 2332.63,-40.99 2336.11,-41.35"/>
</g>
<!-- n22&#45;&gt;n20 -->
<g id="edge26" class="edge">
<title>n22&#45;&gt;n20</title>
<path fill="none" stroke="#cbd5e1" stroke-width="0.8" d="M2343,-64.78C2343,-57.56 2343,-49.07 2343,-41.37"/>
<polygon fill="#cbd5e1" stroke="#cbd5e1" stroke-width="0.8" points="2344.75,-41.19 2343,-36.19 2341.25,-41.19 2344.75,-41.19"/>
</g>
<!-- n22&#45;&gt;n20 -->
<g id="edge27" class="edge">
<title>n22&#45;&gt;n20</title>
<path fill="none" stroke="#cbd5e1" stroke-width="0.8" d="M2351.12,-64.78C2352.07,-57.56 2352.25,-49.07 2351.66,-41.37"/>
<polygon fill="#cbd5e1" stroke="#cbd5e1" stroke-width="0.8" points="2353.37,-40.99 2351.12,-36.19 2349.89,-41.35 2353.37,-40.99"/>
</g>
<!-- n22&#45;&gt;n20 -->
<g id="edge28" class="edge">
<title>n22&#45;&gt;n20</title>
<path fill="none" stroke="#cbd5e1" stroke-width="0.8" d="M2359.24,-64.78C2361.15,-57.56 2361.5,-49.07 2360.31,-41.37"/>
<polygon fill="#cbd5e1" stroke="#cbd5e1" stroke-width="0.8" points="2361.97,-40.73 2359.24,-36.19 2358.54,-41.45 2361.97,-40.73"/>
</g>
</g>
</svg>
